<svg width="134" height="134" viewBox="0 0 134 134" fill="none" xmlns="http://www.w3.org/2000/svg">
<circle cx="67" cy="67" r="67" fill="#2D9CDB" fill-opacity="0.1"/>
<path d="M84.3594 68.8281C84.2656 63.6719 86.6094 59.6875 91.3906 56.875C88.7656 53.125 84.7812 51.0156 79.4375 50.5469C78.0312 50.4531 76.4375 50.6406 74.6562 51.1094C73.625 51.3906 72.2188 51.8594 70.4375 52.5156C68.6562 53.1719 67.4844 53.5 66.9219 53.5C66.3594 53.5 65.0938 53.125 63.125 52.375C60.0312 51.25 57.7344 50.6875 56.2344 50.6875C53.5156 50.7812 50.8906 51.5312 48.3594 52.9375C45.9219 54.3438 43.9531 56.4062 42.4531 59.125C40.8594 62.0312 40.0625 65.5 40.0625 69.5312C40.0625 73.1875 40.7188 76.9844 42.0312 80.9219C42.7812 82.9844 43.8594 85.2812 45.2656 87.8125C47.0469 90.9062 48.8281 93.3438 50.6094 95.125C52.9531 97.4688 55.1562 98.5938 57.2188 98.5C58.25 98.5 59.75 98.125 61.7188 97.375C64.1562 96.4375 66.1719 95.9688 67.7656 95.9688C69.3594 95.9688 71.2812 96.3906 73.5312 97.2344C75.5938 98.0781 77.2812 98.5 78.5938 98.5C81.5938 98.4062 84.6406 96.25 87.7344 92.0312C90.0781 88.75 91.8125 85.3281 92.9375 81.7656C89.1875 79.9844 86.6562 77.3594 85.3438 73.8906C84.5938 72.2031 84.2656 70.5156 84.3594 68.8281ZM76.3438 45.625C78.875 42.625 80 39.25 79.7188 35.5C78.0312 35.5938 76.2969 36.1094 74.5156 37.0469C72.7344 37.9844 71.2812 39.1094 70.1562 40.4219C67.4375 43.4219 66.2656 46.7969 66.6406 50.5469C70.1094 50.8281 73.3438 49.2344 76.3438 45.7656V45.625Z" fill="#2D9CDB"/>
</svg>
