<svg width="24" height="22" viewBox="0 0 24 22" fill="none" xmlns="http://www.w3.org/2000/svg">
    <path d="M23.25 5C23.25 4.85938 23.1562 4.76562 23.0156 4.67188L12.1406 0.546875C12.0469 0.5 11.9531 0.5 11.8594 0.546875L0.984375 4.67188C0.796875 4.76562 0.75 4.85938 0.75 5V5.75C0.75 5.84375 0.75 5.9375 0.84375 6.03125C0.9375 6.125 1.03125 6.125 1.125 6.125H2.25V6.6875C2.25 6.875 2.29688 7.01562 2.39062 7.10938C2.48438 7.20312 2.625 7.25 2.8125 7.25H21.1875C21.3281 7.25 21.4688 7.20312 21.5625 7.10938C21.6562 7.01562 21.75 6.875 21.75 6.6875V6.125H22.875C22.9688 6.125 23.0156 6.125 23.1094 6.03125C23.2031 5.9375 23.25 5.84375 23.25 5.75V5ZM22.125 19.25C22.4062 19.25 22.6875 19.3906 22.9219 19.5781C23.1094 19.8125 23.25 20.0938 23.25 20.375V21.125C23.25 21.2188 23.2031 21.3125 23.1094 21.4062C23.0156 21.5 22.9688 21.5 22.875 21.5H1.125C1.03125 21.5 0.9375 21.5 0.84375 21.4062C0.75 21.3125 0.75 21.2188 0.75 21.125V20.375C0.75 20.0938 0.84375 19.8125 1.07812 19.5781C1.26562 19.3906 1.54688 19.25 1.875 19.25H22.125ZM4.5 8H7.5V17H10.5V8H13.5V17H16.5V8H19.5V17H21.1875C21.3281 17 21.4688 17.0938 21.5625 17.1875C21.6562 17.2812 21.75 17.4219 21.75 17.5625V18.5H2.25V17.5625C2.25 17.4219 2.29688 17.2812 2.39062 17.1875C2.48438 17.0938 2.625 17 2.8125 17H4.5V8Z" fill="#2D9CDB"/>
</svg>
