<svg width="409" height="287" viewBox="0 0 409 287" fill="none" xmlns="http://www.w3.org/2000/svg">
<circle cx="280.076" cy="128.193" r="128.193" fill="#2D9CDB" fill-opacity="0.1"/>
<g clip-path="url(#clip0)">
<path opacity="0.1" d="M184.41 286.999C285.854 286.999 368.09 276.994 368.09 264.651C368.09 252.309 285.854 242.303 184.41 242.303C82.9668 242.303 0.730469 252.309 0.730469 264.651C0.730469 276.994 82.9668 286.999 184.41 286.999Z" fill="#2D9CDB"/>
<path d="M315.02 275.607C315.02 275.607 324.598 263.405 323.822 251.299C323.466 246.223 324.763 241.169 327.519 236.894C328.846 234.876 330.353 232.982 332.021 231.237" stroke="#535461" stroke-width="2" stroke-miterlimit="10"/>
<path d="M331.582 223.606C330.906 225.3 332.013 231.437 332.013 231.437C332.013 231.437 337.037 227.75 337.711 226.053C337.871 225.651 337.951 225.22 337.945 224.787C337.939 224.353 337.848 223.925 337.677 223.526C337.506 223.128 337.259 222.767 336.948 222.465C336.638 222.162 336.271 221.924 335.869 221.763C335.466 221.602 335.036 221.523 334.603 221.528C334.17 221.534 333.742 221.625 333.344 221.796C332.946 221.967 332.586 222.215 332.283 222.526C331.981 222.837 331.743 223.204 331.582 223.606Z" fill="#2D9CDB"/>
<path d="M322.771 230.97C323.123 232.76 327.371 237.308 327.371 237.308C327.371 237.308 329.586 231.48 329.235 229.688C329.065 228.828 328.56 228.071 327.833 227.584C327.106 227.096 326.214 226.918 325.356 227.088C324.497 227.258 323.741 227.763 323.253 228.491C322.766 229.219 322.588 230.111 322.758 230.97H322.771Z" fill="#2D9CDB"/>
<path d="M316.598 247.096C317.807 248.464 323.781 250.237 323.781 250.237C323.781 250.237 322.752 244.086 321.543 242.718C320.963 242.062 320.146 241.663 319.273 241.609C318.399 241.556 317.539 241.852 316.884 242.432C316.228 243.013 315.829 243.83 315.776 244.705C315.722 245.579 316.018 246.439 316.598 247.096Z" fill="#2D9CDB"/>
<path d="M314.674 260.351C315.633 261.903 321.219 264.663 321.219 264.663C321.219 264.663 321.245 258.414 320.286 256.874C319.825 256.129 319.088 255.598 318.236 255.397C317.384 255.197 316.487 255.343 315.743 255.804C314.999 256.265 314.468 257.003 314.268 257.856C314.067 258.708 314.213 259.606 314.674 260.351Z" fill="#2D9CDB"/>
<path d="M333.69 240.208C332.004 240.902 325.859 239.879 325.859 239.879C325.859 239.879 329.474 234.808 331.173 234.114C331.982 233.78 332.89 233.781 333.699 234.118C334.507 234.454 335.148 235.098 335.482 235.908C335.816 236.718 335.815 237.627 335.478 238.436C335.142 239.245 334.499 239.887 333.69 240.221V240.208Z" fill="#2D9CDB"/>
<path d="M331.242 255.679C329.428 255.84 323.875 253.012 323.875 253.012C323.875 253.012 328.85 249.259 330.667 249.098C331.538 249.022 332.404 249.295 333.075 249.858C333.745 250.421 334.164 251.227 334.24 252.099C334.317 252.971 334.044 253.838 333.481 254.509C332.919 255.18 332.113 255.599 331.242 255.676V255.679Z" fill="#2D9CDB"/>
<path d="M326.801 270.394C325.037 270.858 319.086 269.009 319.086 269.009C319.086 269.009 323.358 264.467 325.122 264.003C325.969 263.781 326.869 263.904 327.625 264.345C328.381 264.787 328.931 265.511 329.154 266.358C329.376 267.206 329.254 268.107 328.812 268.864C328.371 269.621 327.648 270.171 326.801 270.394Z" fill="#2D9CDB"/>
<path opacity="0.25" d="M331.582 223.606C330.906 225.3 332.013 231.437 332.013 231.437C332.013 231.437 337.037 227.75 337.711 226.053C337.871 225.651 337.951 225.22 337.945 224.787C337.939 224.353 337.848 223.925 337.677 223.526C337.506 223.128 337.259 222.767 336.948 222.465C336.638 222.162 336.271 221.924 335.869 221.763C335.466 221.602 335.036 221.523 334.603 221.528C334.17 221.534 333.742 221.625 333.344 221.796C332.946 221.967 332.586 222.215 332.283 222.526C331.981 222.837 331.743 223.204 331.582 223.606Z" fill="black"/>
<path opacity="0.25" d="M322.771 230.97C323.123 232.76 327.371 237.308 327.371 237.308C327.371 237.308 329.586 231.48 329.235 229.688C329.065 228.828 328.56 228.071 327.833 227.584C327.106 227.096 326.214 226.918 325.356 227.088C324.497 227.258 323.741 227.763 323.253 228.491C322.766 229.219 322.588 230.111 322.758 230.97H322.771Z" fill="black"/>
<path opacity="0.25" d="M316.598 247.096C317.807 248.464 323.781 250.237 323.781 250.237C323.781 250.237 322.752 244.086 321.543 242.718C320.963 242.062 320.146 241.663 319.273 241.609C318.399 241.556 317.539 241.852 316.884 242.432C316.228 243.013 315.829 243.83 315.776 244.705C315.722 245.579 316.018 246.439 316.598 247.096Z" fill="black"/>
<path opacity="0.25" d="M314.674 260.351C315.633 261.903 321.219 264.663 321.219 264.663C321.219 264.663 321.245 258.414 320.286 256.874C319.825 256.129 319.088 255.598 318.236 255.397C317.384 255.197 316.487 255.343 315.743 255.804C314.999 256.265 314.468 257.003 314.268 257.856C314.067 258.708 314.213 259.606 314.674 260.351Z" fill="black"/>
<path opacity="0.25" d="M333.69 240.208C332.004 240.902 325.859 239.879 325.859 239.879C325.859 239.879 329.474 234.808 331.173 234.114C331.982 233.78 332.89 233.781 333.699 234.118C334.507 234.454 335.148 235.098 335.482 235.908C335.816 236.718 335.815 237.627 335.478 238.436C335.142 239.245 334.499 239.887 333.69 240.221V240.208Z" fill="black"/>
<path opacity="0.25" d="M331.242 255.679C329.428 255.84 323.875 253.012 323.875 253.012C323.875 253.012 328.85 249.259 330.667 249.098C331.538 249.022 332.404 249.295 333.075 249.858C333.745 250.421 334.164 251.227 334.24 252.099C334.317 252.971 334.044 253.838 333.481 254.509C332.919 255.18 332.113 255.599 331.242 255.676V255.679Z" fill="black"/>
<path opacity="0.25" d="M326.801 270.394C325.037 270.858 319.086 269.009 319.086 269.009C319.086 269.009 323.358 264.467 325.122 264.003C325.969 263.781 326.869 263.904 327.625 264.345C328.381 264.787 328.931 265.511 329.154 266.358C329.376 267.206 329.254 268.107 328.812 268.864C328.371 269.621 327.648 270.171 326.801 270.394Z" fill="black"/>
<path d="M315.102 275.097C315.102 275.097 328.8 267.829 332.993 256.449C334.719 251.665 337.947 247.57 342.194 244.777C344.223 243.468 346.368 242.349 348.601 241.432" stroke="#535461" stroke-width="2" stroke-miterlimit="10"/>
<path d="M351.292 234.276C349.978 235.552 348.516 241.61 348.516 241.61C348.516 241.61 354.601 240.275 355.906 239.002C356.216 238.7 356.463 238.339 356.634 237.941C356.805 237.543 356.896 237.115 356.901 236.682C356.907 236.249 356.827 235.819 356.667 235.417C356.506 235.014 356.268 234.647 355.966 234.337C355.664 234.027 355.304 233.779 354.906 233.608C354.509 233.437 354.081 233.346 353.648 233.34C352.774 233.329 351.931 233.666 351.305 234.276H351.292Z" fill="#2D9CDB"/>
<path d="M340.259 237.433C339.858 239.212 341.902 245.102 341.902 245.102C341.902 245.102 346.285 240.669 346.686 238.89C346.879 238.035 346.725 237.139 346.258 236.398C345.791 235.657 345.049 235.133 344.196 234.94C343.342 234.746 342.447 234.9 341.707 235.368C340.966 235.836 340.442 236.578 340.249 237.433H340.259Z" fill="#2D9CDB"/>
<path d="M328.089 249.675C328.638 251.415 333.383 255.46 333.383 255.46C333.383 255.46 334.93 249.418 334.369 247.678C334.238 247.265 334.027 246.881 333.747 246.549C333.468 246.217 333.127 245.944 332.742 245.744C332.357 245.544 331.937 245.422 331.505 245.385C331.073 245.348 330.638 245.396 330.225 245.528C329.812 245.659 329.429 245.87 329.097 246.149C328.765 246.429 328.492 246.771 328.293 247.156C328.093 247.541 327.971 247.961 327.934 248.394C327.897 248.826 327.945 249.261 328.076 249.675H328.089Z" fill="#2D9CDB"/>
<path d="M320.961 261.011C321.211 262.82 325.203 267.609 325.203 267.609C325.203 267.609 327.75 261.916 327.503 260.11C327.444 259.68 327.301 259.266 327.082 258.892C326.863 258.518 326.573 258.19 326.227 257.928C325.882 257.666 325.488 257.475 325.069 257.365C324.65 257.255 324.213 257.229 323.784 257.288C323.354 257.347 322.941 257.491 322.567 257.71C322.193 257.929 321.866 258.219 321.604 258.565C321.342 258.911 321.151 259.305 321.041 259.725C320.931 260.144 320.905 260.581 320.964 261.011H320.961Z" fill="#2D9CDB"/>
<path d="M346.502 250.308C344.679 250.262 339.48 246.822 339.48 246.822C339.48 246.822 344.853 243.658 346.673 243.704C347.548 243.727 348.378 244.097 348.981 244.732C349.584 245.367 349.909 246.216 349.887 247.092C349.864 247.968 349.495 248.799 348.86 249.402C348.225 250.005 347.377 250.331 346.502 250.308Z" fill="#2D9CDB"/>
<path d="M338.002 263.461C336.277 262.872 332.344 258.034 332.344 258.034C332.344 258.034 338.413 256.62 340.138 257.212C340.548 257.352 340.926 257.572 341.251 257.859C341.576 258.146 341.842 258.494 342.032 258.883C342.223 259.272 342.335 259.696 342.362 260.128C342.39 260.561 342.332 260.995 342.191 261.405C342.051 261.816 341.832 262.194 341.545 262.52C341.259 262.845 340.911 263.111 340.522 263.302C340.133 263.493 339.71 263.605 339.278 263.632C338.845 263.66 338.412 263.601 338.002 263.461Z" fill="#2D9CDB"/>
<path d="M327.982 275.111C326.184 274.822 321.492 270.717 321.492 270.717C321.492 270.717 327.236 268.3 329.05 268.589C329.914 268.729 330.687 269.206 331.199 269.916C331.712 270.627 331.921 271.511 331.782 272.376C331.642 273.241 331.165 274.015 330.456 274.528C329.746 275.041 328.862 275.251 327.998 275.111H327.982Z" fill="#2D9CDB"/>
<path opacity="0.1" d="M210.086 54.2314C191.935 53.5999 174.648 47.7358 158.143 41.3191C141.638 34.9024 125.284 27.7918 107.567 24.4108C96.1747 22.2237 83.1429 21.9146 73.9622 28.0286C65.1331 33.896 62.2744 44.0522 60.7399 53.4782C59.5833 60.5691 58.9031 68.0316 62.0542 74.6686C64.2525 79.2731 68.1528 83.154 70.8505 87.5677C80.2349 102.927 73.6008 121.868 63.431 136.868C58.6599 143.903 53.1265 150.613 49.4431 158.105C45.7596 165.597 44.0608 174.175 47.281 181.815C50.4748 189.379 58.0816 195.076 66.3226 199.075C83.0608 207.202 102.796 209.527 122.021 210.843C164.6 213.76 207.405 212.487 250.095 211.231C265.896 210.764 281.764 210.29 297.306 207.846C305.938 206.488 314.849 204.33 321.112 199.127C329.067 192.523 331.039 181.338 325.712 173.056C316.771 159.164 292.052 155.714 285.802 140.805C282.365 132.599 285.897 123.46 290.895 115.849C301.617 99.5196 319.591 85.1964 320.54 66.5352C321.197 53.7084 312.549 40.8817 299.182 34.8169C285.178 28.4628 265.758 29.262 255.428 39.7832C244.808 50.6201 226.111 54.7872 210.086 54.2314Z" fill="#2D9CDB"/>
<path d="M195.582 127.063H187.41C187.416 126.432 187.455 125.802 187.528 125.176C187.785 122.946 188.573 119.328 191.018 117.631C193.302 116.046 196.275 118.437 195.109 120.966L195.079 121.035C194.642 121.949 194.629 123.087 194.774 124.13C194.927 125.136 195.198 126.121 195.582 127.063Z" fill="#2D9CDB"/>
<path opacity="0.1" d="M195.582 127.064H187.41C187.416 126.433 187.455 125.803 187.528 125.176C189.835 124.311 192.301 123.954 194.757 124.13C194.916 125.137 195.193 126.122 195.582 127.064Z" fill="black"/>
<path d="M200.884 135.724C198.764 137.451 195.8 137.477 192.768 136.737C186.557 135.218 180.074 130.462 180.074 130.462C180.516 129.972 180.99 129.513 181.494 129.087C184.05 126.89 189.909 123.006 197.752 124.937C199.67 125.377 201.36 126.508 202.5 128.114C203.798 130.015 204.475 132.8 200.884 135.724Z" fill="#2D9CDB"/>
<path opacity="0.1" d="M198.387 132.261C198.387 132.261 193.662 128.232 187.152 133.577L198.387 132.261Z" fill="black"/>
<path d="M65.5091 166.202C65.5091 166.202 50.2824 154.474 49.5168 165.107C48.7512 175.74 52.5825 185.718 55.8684 186.593C59.1542 187.468 65.5091 166.202 65.5091 166.202Z" fill="#2D9CDB"/>
<path opacity="0.2" d="M65.5091 166.202C65.5091 166.202 50.2824 154.474 49.5168 165.107C48.7512 175.74 52.5825 185.718 55.8684 186.593C59.1542 187.468 65.5091 166.202 65.5091 166.202Z" fill="black"/>
<path opacity="0.1" d="M55.5391 169.932C55.5391 169.932 55.8972 179.716 58.9367 178.154C61.9761 176.592 57.5106 170.369 55.5391 169.932Z" fill="black"/>
<path d="M102.922 249.586C102.564 251.093 102.011 252.546 101.279 253.911C101.091 254.266 100.888 254.631 100.664 255.003C97.0794 260.969 88.7925 263.445 88.7925 262.13C88.7925 260.814 87.9743 257.413 85.891 258.4C83.8078 259.387 80.6336 259.17 80.6336 259.17C74.8998 258.732 75.8691 253.075 77.7684 248.283C78.4 246.708 79.1219 245.171 79.9305 243.679C80.6468 242.363 81.1824 241.502 81.1824 241.502L103.089 245.011C103.089 245.011 103.579 246.741 102.922 249.586Z" fill="#2D9CDB"/>
<path opacity="0.1" d="M192.767 136.736C186.557 135.217 180.074 130.461 180.074 130.461C180.516 129.971 180.99 129.512 181.494 129.086C182.44 129.586 183.391 130.118 184.346 130.682C187.34 132.426 190.16 134.454 192.767 136.736Z" fill="black"/>
<path opacity="0.1" d="M102.919 249.585C96.9749 249.052 88.3659 247.589 79.918 243.695C80.6343 242.379 81.1699 241.517 81.1699 241.517L103.077 245.027C103.077 245.027 103.576 246.74 102.919 249.585Z" fill="black"/>
<path d="M195.186 221.126C195.186 221.126 194.792 228.155 190.829 236.097C187.778 242.344 183.071 247.632 177.223 251.384C177.223 251.384 173.72 254.236 173.5 246.342C173.5 246.342 171.965 244.698 161.45 251.884C161.45 251.884 155.105 255.765 156.85 239.574C156.85 239.574 156.85 239.554 156.85 239.544C156.85 239.534 156.693 239.646 156.403 239.82H156.384C155.634 240.281 154.044 241.225 152.151 242.175C148.685 243.918 144.193 245.691 141.965 244.573C141.454 248.671 140.19 252.639 138.239 256.278C136.031 260.3 132.548 264.234 127.093 266.01C125.718 266.451 124.248 266.504 122.844 266.161C121.441 265.819 120.16 265.095 119.142 264.07L118.517 263.445C118.517 263.445 113.697 266.734 111.288 265.635C108.88 264.537 106.905 261.471 110.191 255.768C110.191 255.768 110.365 255.295 110.579 254.601C111.114 252.841 111.893 249.667 110.631 249.191C110.631 249.191 59.5886 251.822 52.8 206.435C46.0114 161.048 90.916 144.386 103.619 146.139C103.619 146.139 137.355 103.604 184.014 131.01C230.674 158.417 195.186 221.126 195.186 221.126Z" fill="#2D9CDB"/>
<path opacity="0.1" d="M103.621 146.139C103.621 146.139 159.225 145.922 155.41 218.057" stroke="black" stroke-miterlimit="10"/>
<path opacity="0.2" d="M101.279 253.909C101.091 254.265 100.888 254.63 100.664 255.001C97.0794 260.967 88.7925 263.444 88.7925 262.128C88.7925 260.813 87.9743 257.412 85.891 258.399C83.8078 259.385 80.6336 259.168 80.6336 259.168C74.8998 258.731 75.8691 253.074 77.7684 248.282C83.1441 250.982 92.8669 255.005 101.279 253.909Z" fill="black"/>
<path opacity="0.2" d="M138.241 256.278C136.033 260.3 132.55 264.234 127.095 266.01C125.72 266.451 124.249 266.504 122.846 266.161C121.443 265.819 120.162 265.095 119.144 264.069L118.519 263.445C118.519 263.445 113.699 266.733 111.29 265.635C108.882 264.536 106.907 261.471 110.193 255.768C110.193 255.768 110.367 255.295 110.581 254.601C114.875 256.117 126.251 259.343 138.241 256.278Z" fill="black"/>
<path opacity="0.1" d="M156.852 239.544C176.675 229.239 180.073 221.017 180.073 221.017L156.852 239.544Z" fill="black"/>
<path opacity="0.2" d="M190.83 236.098C187.778 242.345 183.072 247.633 177.223 251.385C177.223 251.385 173.72 254.236 173.5 246.343C173.5 246.343 171.965 244.699 161.451 251.885C161.451 251.885 155.106 255.766 156.85 239.574L162.108 236.657C173.438 242.962 184.82 239.117 190.83 236.098Z" fill="black"/>
<path d="M109.539 152.501C109.539 152.501 120.711 135.398 129.143 140.769C137.574 146.14 127.611 166.202 127.611 166.202C127.611 166.202 111.07 165.873 109.539 152.501Z" fill="#2D9CDB"/>
<path opacity="0.2" d="M109.539 152.501C109.539 152.501 120.711 135.398 129.143 140.769C137.574 146.14 127.611 166.202 127.611 166.202C127.611 166.202 111.07 165.873 109.539 152.501Z" fill="black"/>
<path opacity="0.1" d="M127.72 147.783C127.72 147.783 113.042 154.91 117.534 159.077C122.026 163.244 127.72 147.783 127.72 147.783Z" fill="black"/>
<path opacity="0.1" d="M92.3401 217.185C103.372 214.636 110.605 205.156 108.496 196.011C106.387 186.866 95.7336 181.519 84.7017 184.069C73.6697 186.618 66.4365 196.098 68.5458 205.243C70.6551 214.388 81.3082 219.734 92.3401 217.185Z" fill="black"/>
<path d="M92.3401 216.528C103.372 213.978 110.605 204.498 108.496 195.353C106.387 186.209 95.7336 180.862 84.7017 183.411C73.6697 185.96 66.4365 195.44 68.5458 204.585C70.6551 213.73 81.3082 219.077 92.3401 216.528Z" fill="#2D9CDB"/>
<path opacity="0.2" d="M92.3401 216.528C103.372 213.978 110.605 204.498 108.496 195.353C106.387 186.209 95.7336 180.862 84.7017 183.411C73.6697 185.96 66.4365 195.44 68.5458 204.585C70.6551 213.73 81.3082 219.077 92.3401 216.528Z" fill="black"/>
<path opacity="0.1" d="M79.8555 199.966C79.8555 199.966 80.0756 206.326 81.9387 204.465C83.8018 202.603 82.0471 199.959 79.8555 199.966Z" fill="black"/>
<path opacity="0.1" d="M90.4805 195.124C90.4805 195.124 90.6973 201.484 92.5604 199.623C94.4235 197.761 92.6689 195.104 90.4805 195.124Z" fill="black"/>
<path opacity="0.1" d="M108.461 231.543C108.461 231.543 113.041 236.039 118.627 229.79L108.461 231.543Z" fill="black"/>
<path opacity="0.15" d="M128.594 135.066C131.114 134.409 140.423 138.355 140.423 138.355C144.435 134.339 150.28 131.932 155.41 130.501L156.481 125.64C136.138 125.874 128.594 135.066 128.594 135.066Z" fill="black"/>
<path opacity="0.3" d="M156.524 125.64L155.512 130.472C159.14 129.473 162.852 128.812 166.602 128.498C161.781 126.078 156.524 125.64 156.524 125.64Z" fill="black"/>
<path opacity="0.15" d="M156.479 125.64L155.414 130.501L155.516 130.472L156.528 125.64H156.479Z" fill="black"/>
<g opacity="0.1">
<path opacity="0.1" d="M112.493 257.827C112.493 257.827 112.667 257.353 112.881 256.659C113.416 254.9 114.195 251.726 112.933 251.249C112.933 251.249 112.349 251.279 111.291 251.275C111.175 252.434 110.936 253.578 110.578 254.686C110.364 255.38 110.19 255.853 110.19 255.853C106.904 261.556 108.875 264.625 111.287 265.72L111.415 265.766C110.446 264.105 110.367 261.517 112.493 257.827Z" fill="white"/>
<path opacity="0.1" d="M55.1007 208.493C48.3088 163.106 94.6625 144.662 107.366 146.428L103.62 146.237C90.9166 144.484 46.0087 161.146 52.8006 206.533C54.9364 220.803 61.449 230.325 69.3712 236.676C62.5037 230.361 57.0262 221.356 55.1007 208.493Z" fill="white"/>
<path opacity="0.1" d="M159.149 241.631C159.149 241.631 159.149 241.612 159.149 241.602C159.149 241.592 158.992 241.704 158.703 241.878H158.683C158.239 242.148 157.5 242.592 156.58 243.105C156.251 250.587 158.187 252.208 159.708 252.35C158.936 250.603 158.532 247.397 159.149 241.631Z" fill="white"/>
<path opacity="0.1" d="M175.8 248.4C175.8 248.4 175.406 247.983 173.664 248.499C174.118 251.762 175.373 252.117 176.266 251.923C175.96 250.774 175.803 249.59 175.8 248.4Z" fill="white"/>
</g>
<path opacity="0.1" d="M110.633 249.19C110.633 249.19 139.111 247.437 141.957 244.586L110.633 249.19Z" fill="black"/>
<path d="M179.01 254.63C185.826 254.63 191.351 248.759 191.351 241.517C191.351 234.275 185.826 228.405 179.01 228.405C172.194 228.405 166.668 234.275 166.668 241.517C166.668 248.759 172.194 254.63 179.01 254.63Z" fill="#FBD56F"/>
<path opacity="0.1" d="M179.01 254.63C185.826 254.63 191.351 248.759 191.351 241.517C191.351 234.275 185.826 228.405 179.01 228.405C172.194 228.405 166.668 234.275 166.668 241.517C166.668 248.759 172.194 254.63 179.01 254.63Z" fill="black"/>
<path d="M181.139 254.631C187.955 254.631 193.48 248.891 193.48 241.811C193.48 234.73 187.955 228.991 181.139 228.991C174.322 228.991 168.797 234.73 168.797 241.811C168.797 248.891 174.322 254.631 181.139 254.631Z" fill="#FBD56F"/>
<path d="M186.139 253.426L184.854 252.712C184.854 252.712 184.253 255.218 184.45 257.008C184.468 257.187 184.541 257.357 184.659 257.495C184.776 257.632 184.932 257.731 185.107 257.777C188.064 258.511 202.134 261.638 211.815 257.231C211.955 257.168 212.076 257.068 212.166 256.943C212.256 256.818 212.312 256.671 212.327 256.517C212.449 255.419 212.028 253.153 211.861 252.712C211.509 251.762 186.139 253.426 186.139 253.426Z" fill="#FBD56F"/>
<path opacity="0.1" d="M186.139 253.426L184.854 252.712C184.854 252.712 184.253 255.218 184.45 257.008C184.468 257.187 184.541 257.357 184.659 257.495C184.776 257.632 184.932 257.731 185.107 257.777C188.064 258.511 202.134 261.638 211.815 257.231C211.955 257.168 212.076 257.068 212.166 256.943C212.256 256.818 212.312 256.671 212.327 256.517C212.449 255.419 212.028 253.153 211.861 252.712C211.509 251.762 186.139 253.426 186.139 253.426Z" fill="black"/>
<path d="M198.364 255.762C205.824 255.762 211.872 254.397 211.872 252.713C211.872 251.029 205.824 249.664 198.364 249.664C190.903 249.664 184.855 251.029 184.855 252.713C184.855 254.397 190.903 255.762 198.364 255.762Z" fill="#FBD56F"/>
<path d="M191.311 248.93L190.03 248.216C190.03 248.216 189.428 250.723 189.626 252.512C189.644 252.691 189.717 252.861 189.834 252.998C189.952 253.135 190.108 253.233 190.283 253.278C193.24 254.015 207.31 257.143 216.99 252.735C217.13 252.671 217.251 252.572 217.341 252.447C217.431 252.321 217.487 252.175 217.503 252.022C217.621 250.923 217.201 248.657 217.033 248.216C216.668 247.266 191.311 248.93 191.311 248.93Z" fill="#FBD56F"/>
<path opacity="0.1" d="M191.311 248.93L190.03 248.216C190.03 248.216 189.428 250.723 189.626 252.512C189.644 252.691 189.717 252.861 189.834 252.998C189.952 253.135 190.108 253.233 190.283 253.278C193.24 254.015 207.31 257.143 216.99 252.735C217.13 252.671 217.251 252.572 217.341 252.447C217.431 252.321 217.487 252.175 217.503 252.022C217.621 250.923 217.201 248.657 217.033 248.216C216.668 247.266 191.311 248.93 191.311 248.93Z" fill="black"/>
<path d="M203.52 251.266C210.98 251.266 217.028 249.901 217.028 248.217C217.028 246.533 210.98 245.168 203.52 245.168C196.06 245.168 190.012 246.533 190.012 248.217C190.012 249.901 196.06 251.266 203.52 251.266Z" fill="#FBD56F"/>
<path d="M195.861 243.021L194.577 242.307C194.577 242.307 193.975 244.813 194.173 246.603C194.191 246.782 194.264 246.952 194.381 247.09C194.499 247.227 194.655 247.326 194.83 247.372C197.787 248.106 211.86 251.233 221.537 246.826C221.678 246.762 221.799 246.663 221.889 246.538C221.98 246.413 222.036 246.266 222.053 246.113C222.171 245.014 221.751 242.748 221.583 242.307C221.232 241.357 195.861 243.021 195.861 243.021Z" fill="#FBD56F"/>
<path opacity="0.1" d="M195.861 243.021L194.577 242.307C194.577 242.307 193.975 244.813 194.173 246.603C194.191 246.782 194.264 246.952 194.381 247.09C194.499 247.227 194.655 247.326 194.83 247.372C197.787 248.106 211.86 251.233 221.537 246.826C221.678 246.762 221.799 246.663 221.889 246.538C221.98 246.413 222.036 246.266 222.053 246.113C222.171 245.014 221.751 242.748 221.583 242.307C221.232 241.357 195.861 243.021 195.861 243.021Z" fill="black"/>
<path d="M208.086 245.357C215.547 245.357 221.594 243.992 221.594 242.308C221.594 240.624 215.547 239.259 208.086 239.259C200.626 239.259 194.578 240.624 194.578 242.308C194.578 243.992 200.626 245.357 208.086 245.357Z" fill="#FBD56F"/>
<path d="M190.81 236.874L189.525 236.157C189.525 236.157 188.927 238.667 189.121 240.452C189.14 240.632 189.213 240.802 189.33 240.939C189.447 241.077 189.603 241.175 189.778 241.222C192.735 241.955 206.805 245.083 216.482 240.679C216.623 240.616 216.744 240.516 216.835 240.391C216.925 240.266 216.981 240.119 216.998 239.966C217.116 238.867 216.696 236.601 216.528 236.157C216.18 235.203 190.81 236.874 190.81 236.874Z" fill="#FBD56F"/>
<path opacity="0.1" d="M190.81 236.874L189.525 236.157C189.525 236.157 188.927 238.667 189.121 240.452C189.14 240.632 189.213 240.802 189.33 240.939C189.447 241.077 189.603 241.175 189.778 241.222C192.735 241.955 206.805 245.083 216.482 240.679C216.623 240.616 216.744 240.516 216.835 240.391C216.925 240.266 216.981 240.119 216.998 239.966C217.116 238.867 216.696 236.601 216.528 236.157C216.18 235.203 190.81 236.874 190.81 236.874Z" fill="black"/>
<path d="M203.032 239.203C210.492 239.203 216.54 237.838 216.54 236.154C216.54 234.47 210.492 233.105 203.032 233.105C195.571 233.105 189.523 234.47 189.523 236.154C189.523 237.838 195.571 239.203 203.032 239.203Z" fill="#FBD56F"/>
<path d="M202.175 231.94L200.893 231.223C200.893 231.223 200.292 233.732 200.489 235.518C200.507 235.698 200.58 235.868 200.697 236.006C200.815 236.143 200.971 236.242 201.146 236.288C204.103 237.021 218.173 240.149 227.85 235.745C227.991 235.681 228.112 235.581 228.202 235.456C228.293 235.331 228.349 235.185 228.366 235.031C228.485 233.933 228.064 231.664 227.896 231.223C227.545 230.266 202.175 231.94 202.175 231.94Z" fill="#FBD56F"/>
<path opacity="0.1" d="M202.175 231.94L200.893 231.223C200.893 231.223 200.292 233.732 200.489 235.518C200.507 235.698 200.58 235.868 200.697 236.006C200.815 236.143 200.971 236.242 201.146 236.288C204.103 237.021 218.173 240.149 227.85 235.745C227.991 235.681 228.112 235.581 228.202 235.456C228.293 235.331 228.349 235.185 228.366 235.031C228.485 233.933 228.064 231.664 227.896 231.223C227.545 230.266 202.175 231.94 202.175 231.94Z" fill="black"/>
<path d="M214.399 234.266C221.859 234.266 227.907 232.901 227.907 231.217C227.907 229.533 221.859 228.168 214.399 228.168C206.938 228.168 200.891 229.533 200.891 231.217C200.891 232.901 206.938 234.266 214.399 234.266Z" fill="#FBD56F"/>
<path d="M194.497 228.615L193.212 227.898C193.212 227.898 192.614 230.407 192.808 232.193C192.827 232.373 192.9 232.543 193.018 232.68C193.135 232.817 193.291 232.916 193.465 232.963C196.423 233.696 210.493 236.824 220.17 232.42C220.31 232.356 220.432 232.257 220.522 232.132C220.613 232.007 220.669 231.86 220.686 231.706C220.804 230.608 220.383 228.339 220.216 227.898C219.867 226.947 194.497 228.615 194.497 228.615Z" fill="#FBD56F"/>
<path opacity="0.1" d="M194.497 228.615L193.212 227.898C193.212 227.898 192.614 230.407 192.808 232.193C192.827 232.373 192.9 232.543 193.018 232.68C193.135 232.817 193.291 232.916 193.465 232.963C196.423 233.696 210.493 236.824 220.17 232.42C220.31 232.356 220.432 232.257 220.522 232.132C220.613 232.007 220.669 231.86 220.686 231.706C220.804 230.608 220.383 228.339 220.216 227.898C219.867 226.947 194.497 228.615 194.497 228.615Z" fill="black"/>
<path d="M206.719 230.948C214.179 230.948 220.227 229.583 220.227 227.899C220.227 226.215 214.179 224.85 206.719 224.85C199.259 224.85 193.211 226.215 193.211 227.899C193.211 229.583 199.259 230.948 206.719 230.948Z" fill="#FBD56F"/>
<path d="M199.62 222.209L198.338 221.492C198.338 221.492 197.737 224.001 197.934 225.787C197.952 225.967 198.025 226.137 198.143 226.275C198.26 226.412 198.417 226.511 198.591 226.557C201.549 227.29 215.619 230.418 225.299 226.014C225.439 225.95 225.56 225.851 225.65 225.725C225.74 225.6 225.796 225.454 225.812 225.3C225.93 224.202 225.509 221.936 225.342 221.492C224.993 220.541 199.62 222.209 199.62 222.209Z" fill="#FBD56F"/>
<path opacity="0.1" d="M199.62 222.209L198.338 221.492C198.338 221.492 197.737 224.001 197.934 225.787C197.952 225.967 198.025 226.137 198.143 226.275C198.26 226.412 198.417 226.511 198.591 226.557C201.549 227.29 215.619 230.418 225.299 226.014C225.439 225.95 225.56 225.851 225.65 225.725C225.74 225.6 225.796 225.454 225.812 225.3C225.93 224.202 225.509 221.936 225.342 221.492C224.993 220.541 199.62 222.209 199.62 222.209Z" fill="black"/>
<path d="M211.848 224.54C219.308 224.54 225.356 223.175 225.356 221.491C225.356 219.807 219.308 218.442 211.848 218.442C204.388 218.442 198.34 219.807 198.34 221.491C198.34 223.175 204.388 224.54 211.848 224.54Z" fill="#FBD56F"/>
<path d="M202.153 214.604L200.869 213.887C200.869 213.887 200.271 216.397 200.464 218.183C200.484 218.362 200.557 218.532 200.674 218.67C200.791 218.807 200.947 218.906 201.122 218.952C204.079 219.686 218.149 222.814 227.826 218.41C227.966 218.346 228.088 218.247 228.178 218.121C228.269 217.996 228.325 217.85 228.342 217.696C228.46 216.598 228.039 214.331 227.872 213.887C227.52 212.937 202.153 214.604 202.153 214.604Z" fill="#FBD56F"/>
<path opacity="0.1" d="M202.153 214.604L200.869 213.887C200.869 213.887 200.271 216.397 200.464 218.183C200.484 218.362 200.557 218.532 200.674 218.67C200.791 218.807 200.947 218.906 201.122 218.952C204.079 219.686 218.149 222.814 227.826 218.41C227.966 218.346 228.088 218.247 228.178 218.121C228.269 217.996 228.325 217.85 228.342 217.696C228.46 216.598 228.039 214.331 227.872 213.887C227.52 212.937 202.153 214.604 202.153 214.604Z" fill="black"/>
<path d="M214.375 216.937C221.836 216.937 227.884 215.572 227.884 213.888C227.884 212.205 221.836 210.84 214.375 210.84C206.915 210.84 200.867 212.205 200.867 213.888C200.867 215.572 206.915 216.937 214.375 216.937Z" fill="#FBD56F"/>
<path d="M224.955 255.192L223.67 254.475C223.67 254.475 223.069 256.985 223.266 258.771C223.285 258.951 223.358 259.121 223.475 259.258C223.592 259.395 223.749 259.494 223.923 259.54C226.881 260.274 240.951 263.401 250.631 258.998C250.771 258.933 250.892 258.833 250.982 258.707C251.072 258.581 251.128 258.434 251.144 258.281C251.265 257.182 250.845 254.916 250.677 254.475C250.325 253.525 224.955 255.192 224.955 255.192Z" fill="#FBD56F"/>
<path opacity="0.1" d="M224.955 255.192L223.67 254.475C223.67 254.475 223.069 256.985 223.266 258.771C223.285 258.951 223.358 259.121 223.475 259.258C223.592 259.395 223.749 259.494 223.923 259.54C226.881 260.274 240.951 263.401 250.631 258.998C250.771 258.933 250.892 258.833 250.982 258.707C251.072 258.581 251.128 258.434 251.144 258.281C251.265 257.182 250.845 254.916 250.677 254.475C250.325 253.525 224.955 255.192 224.955 255.192Z" fill="black"/>
<path d="M237.176 257.525C244.637 257.525 250.684 256.16 250.684 254.476C250.684 252.792 244.637 251.427 237.176 251.427C229.716 251.427 223.668 252.792 223.668 254.476C223.668 256.16 229.716 257.525 237.176 257.525Z" fill="#FBD56F"/>
<path d="M229.517 249.283L228.232 248.566C228.232 248.566 227.634 251.076 227.828 252.861C227.847 253.041 227.92 253.211 228.037 253.348C228.154 253.486 228.311 253.584 228.485 253.631C231.442 254.365 245.512 257.492 255.189 253.088C255.33 253.025 255.451 252.925 255.542 252.8C255.632 252.675 255.688 252.528 255.705 252.375C255.823 251.276 255.403 249.007 255.235 248.566C254.887 247.616 229.517 249.283 229.517 249.283Z" fill="#FBD56F"/>
<path opacity="0.1" d="M229.517 249.283L228.232 248.566C228.232 248.566 227.634 251.076 227.828 252.861C227.847 253.041 227.92 253.211 228.037 253.348C228.154 253.486 228.311 253.584 228.485 253.631C231.442 254.365 245.512 257.492 255.189 253.088C255.33 253.025 255.451 252.925 255.542 252.8C255.632 252.675 255.688 252.528 255.705 252.375C255.823 251.276 255.403 249.007 255.235 248.566C254.887 247.616 229.517 249.283 229.517 249.283Z" fill="black"/>
<path d="M241.739 251.614C249.199 251.614 255.247 250.249 255.247 248.565C255.247 246.881 249.199 245.516 241.739 245.516C234.278 245.516 228.23 246.881 228.23 248.565C228.23 250.249 234.278 251.614 241.739 251.614Z" fill="#FBD56F"/>
<path d="M224.464 243.122L223.182 242.408C223.182 242.408 222.581 244.915 222.778 246.704C222.796 246.883 222.869 247.053 222.987 247.19C223.104 247.327 223.261 247.425 223.435 247.47C226.392 248.207 240.463 251.335 250.143 246.927C250.283 246.864 250.404 246.764 250.494 246.639C250.584 246.514 250.64 246.367 250.655 246.214C250.774 245.115 250.353 242.849 250.185 242.408C249.837 241.478 224.464 243.122 224.464 243.122Z" fill="#FBD56F"/>
<path opacity="0.1" d="M224.464 243.122L223.182 242.408C223.182 242.408 222.581 244.915 222.778 246.704C222.796 246.883 222.869 247.053 222.987 247.19C223.104 247.327 223.261 247.425 223.435 247.47C226.392 248.207 240.463 251.335 250.143 246.927C250.283 246.864 250.404 246.764 250.494 246.639C250.584 246.514 250.64 246.367 250.655 246.214C250.774 245.115 250.353 242.849 250.185 242.408C249.837 241.478 224.464 243.122 224.464 243.122Z" fill="black"/>
<path d="M236.688 245.465C244.148 245.465 250.196 244.1 250.196 242.416C250.196 240.733 244.148 239.368 236.688 239.368C229.228 239.368 223.18 240.733 223.18 242.416C223.18 244.1 229.228 245.465 236.688 245.465Z" fill="#FBD56F"/>
<path d="M235.83 238.189L234.545 237.476C234.545 237.476 233.944 239.982 234.141 241.751C234.159 241.931 234.232 242.101 234.35 242.239C234.467 242.376 234.624 242.475 234.798 242.521C237.756 243.257 251.826 246.382 261.506 241.978C261.646 241.914 261.768 241.815 261.858 241.69C261.947 241.564 262.003 241.418 262.019 241.264C262.137 240.166 261.72 237.9 261.552 237.459C261.2 236.545 235.83 238.189 235.83 238.189Z" fill="#FBD56F"/>
<path opacity="0.1" d="M235.83 238.189L234.545 237.476C234.545 237.476 233.944 239.982 234.141 241.751C234.159 241.931 234.232 242.101 234.35 242.239C234.467 242.376 234.624 242.475 234.798 242.521C237.756 243.257 251.826 246.382 261.506 241.978C261.646 241.914 261.768 241.815 261.858 241.69C261.947 241.564 262.003 241.418 262.019 241.264C262.137 240.166 261.72 237.9 261.552 237.459C261.2 236.545 235.83 238.189 235.83 238.189Z" fill="black"/>
<path d="M248.055 240.529C255.515 240.529 261.563 239.164 261.563 237.48C261.563 235.796 255.515 234.431 248.055 234.431C240.595 234.431 234.547 235.796 234.547 237.48C234.547 239.164 240.595 240.529 248.055 240.529Z" fill="#FBD56F"/>
<path d="M228.147 234.874L226.866 234.161C226.866 234.161 226.264 236.667 226.462 238.456C226.48 238.635 226.553 238.805 226.671 238.942C226.788 239.079 226.944 239.176 227.119 239.222C230.076 239.959 244.146 243.083 253.826 238.68C253.967 238.616 254.088 238.516 254.178 238.391C254.268 238.266 254.323 238.119 254.339 237.966C254.457 236.867 254.037 234.601 253.869 234.161C253.521 233.21 228.147 234.874 228.147 234.874Z" fill="#FBD56F"/>
<path opacity="0.1" d="M228.147 234.874L226.866 234.161C226.866 234.161 226.264 236.667 226.462 238.456C226.48 238.635 226.553 238.805 226.671 238.942C226.788 239.079 226.944 239.176 227.119 239.222C230.076 239.959 244.146 243.083 253.826 238.68C253.967 238.616 254.088 238.516 254.178 238.391C254.268 238.266 254.323 238.119 254.339 237.966C254.457 236.867 254.037 234.601 253.869 234.161C253.521 233.21 228.147 234.874 228.147 234.874Z" fill="black"/>
<path d="M240.375 237.208C247.836 237.208 253.884 235.843 253.884 234.159C253.884 232.476 247.836 231.111 240.375 231.111C232.915 231.111 226.867 232.476 226.867 234.159C226.867 235.843 232.915 237.208 240.375 237.208Z" fill="#FBD56F"/>
<path d="M233.279 228.467L231.995 227.753C231.995 227.753 231.393 230.259 231.59 232.048C231.609 232.228 231.682 232.398 231.799 232.535C231.917 232.673 232.073 232.771 232.248 232.818C235.205 233.551 249.275 236.679 258.952 232.272C259.092 232.208 259.214 232.108 259.304 231.983C259.395 231.858 259.451 231.712 259.468 231.558C259.586 230.46 259.165 228.194 258.998 227.753C258.65 226.802 233.279 228.467 233.279 228.467Z" fill="#FBD56F"/>
<path opacity="0.1" d="M233.279 228.467L231.995 227.753C231.995 227.753 231.393 230.259 231.59 232.048C231.609 232.228 231.682 232.398 231.799 232.535C231.917 232.673 232.073 232.771 232.248 232.818C235.205 233.551 249.275 236.679 258.952 232.272C259.092 232.208 259.214 232.108 259.304 231.983C259.395 231.858 259.451 231.712 259.468 231.558C259.586 230.46 259.165 228.194 258.998 227.753C258.65 226.802 233.279 228.467 233.279 228.467Z" fill="black"/>
<path d="M245.5 230.802C252.961 230.802 259.009 229.437 259.009 227.754C259.009 226.07 252.961 224.705 245.5 224.705C238.04 224.705 231.992 226.07 231.992 227.754C231.992 229.437 238.04 230.802 245.5 230.802Z" fill="#FBD56F"/>
<path d="M235.803 220.864L234.522 220.15C234.522 220.15 233.921 222.656 234.118 224.446C234.136 224.625 234.209 224.795 234.327 224.933C234.444 225.07 234.6 225.169 234.775 225.215C237.732 225.949 251.802 229.076 261.482 224.669C261.623 224.606 261.744 224.506 261.834 224.381C261.924 224.256 261.979 224.109 261.995 223.956C262.113 222.857 261.693 220.591 261.525 220.15C261.177 219.2 235.803 220.864 235.803 220.864Z" fill="#FBD56F"/>
<path opacity="0.1" d="M235.803 220.864L234.522 220.15C234.522 220.15 233.921 222.656 234.118 224.446C234.136 224.625 234.209 224.795 234.327 224.933C234.444 225.07 234.6 225.169 234.775 225.215C237.732 225.949 251.802 229.076 261.482 224.669C261.623 224.606 261.744 224.506 261.834 224.381C261.924 224.256 261.979 224.109 261.995 223.956C262.113 222.857 261.693 220.591 261.525 220.15C261.177 219.2 235.803 220.864 235.803 220.864Z" fill="black"/>
<path d="M248.032 223.198C255.492 223.198 261.54 221.833 261.54 220.149C261.54 218.465 255.492 217.1 248.032 217.1C240.571 217.1 234.523 218.465 234.523 220.149C234.523 221.833 240.571 223.198 248.032 223.198Z" fill="#FBD56F"/>
<path d="M134.993 126.366C134.993 119.289 140.516 113.54 147.334 113.54C148.003 113.54 148.67 113.596 149.329 113.707C148.01 113.209 146.612 112.954 145.202 112.954C138.387 112.954 132.863 118.825 132.863 126.067C132.863 131.507 135.982 136.171 140.421 138.157C140.634 137.97 140.901 137.746 141.216 137.499C139.304 136.342 137.725 134.708 136.634 132.756C135.543 130.805 134.977 128.603 134.993 126.366Z" fill="#FBD56F"/>
<path opacity="0.1" d="M134.993 126.366C134.993 119.289 140.516 113.54 147.334 113.54C148.003 113.54 148.67 113.596 149.329 113.707C148.01 113.209 146.612 112.954 145.202 112.954C138.387 112.954 132.863 118.825 132.863 126.067C132.863 131.507 135.982 136.171 140.421 138.157C140.634 137.97 140.901 137.746 141.216 137.499C139.304 136.342 137.725 134.708 136.634 132.756C135.543 130.805 134.977 128.603 134.993 126.366Z" fill="black"/>
<path d="M157.543 126.086C157.542 127.516 157.32 128.937 156.886 130.299C157.635 130.119 158.417 129.971 159.222 129.8C159.521 128.68 159.672 127.525 159.672 126.366C159.672 119.992 155.193 114.71 149.328 113.717C154.116 115.532 157.543 120.38 157.543 126.086Z" fill="#FBD56F"/>
<path d="M134.992 126.366C134.977 128.603 135.543 130.806 136.634 132.758C137.726 134.711 139.306 136.345 141.219 137.502C143.542 135.654 148.665 132.256 156.89 130.289C157.324 128.927 157.546 127.506 157.547 126.076C157.547 120.37 154.12 115.522 149.332 113.717C148.673 113.606 148.006 113.55 147.338 113.549C140.516 113.559 134.992 119.298 134.992 126.366Z" fill="#FBD56F"/>
<path d="M317.223 273.126C315.343 273.061 315.274 272.331 312.859 271.071C311.492 270.36 309.422 268.295 307.878 266.634L307.516 266.243H308.173C308.173 266.243 307.569 260.938 308.108 259.665C308.647 258.392 308.242 250.91 308.242 250.91C308.242 250.91 308.571 245.204 307.973 243.878C307.375 242.553 308.173 234.064 308.173 234.064C308.173 234.064 308.712 229.022 308.831 218.741C308.949 208.46 302.916 208.131 302.916 208.131C302.916 208.131 302.111 208.069 300.889 207.95L300.521 207.914C301.313 206.27 301.776 205.013 301.776 205.013C301.776 205.013 300.767 195.396 300.498 193.739C300.228 192.081 298.621 185.237 298.621 185.237C298.621 185.237 297.481 182.32 296.808 180.264C296.134 178.209 294.123 175.821 294.123 175.821C294.123 175.821 290.509 168.658 289.49 167.599C289.023 167.109 288.366 166.487 287.798 165.954L287.502 165.684C287.656 164.938 287.737 164.178 287.745 163.415C287.745 163.415 283.983 159.699 283.713 158.771C283.444 157.844 279.889 154.394 279.889 154.394C279.889 154.394 277.871 150.68 275.591 150.615C274.511 150.552 273.428 150.584 272.354 150.71C272.824 148.974 273.379 147.155 273.876 145.593C273.931 145.418 273.987 145.264 274.04 145.083C275.864 143.847 277.297 142.113 278.167 140.087C278.213 139.978 278.256 139.87 278.298 139.758H278.371C278.465 139.756 278.56 139.747 278.653 139.732C279.406 139.603 280.043 138.745 279.695 138.087C279.717 138.125 279.75 138.156 279.788 138.178C279.827 138.199 279.871 138.21 279.915 138.209C280.165 138.209 280.47 137.837 280.529 137.518C280.529 137.462 280.546 137.406 280.552 137.351C280.559 137.295 280.575 137.212 280.585 137.143C280.595 137.074 280.585 137.012 280.585 136.946C280.585 136.88 280.585 136.811 280.585 136.745C280.585 136.68 280.585 136.617 280.585 136.555C280.585 136.492 280.585 136.407 280.585 136.334C280.585 136.262 280.585 136.219 280.585 136.16C280.585 136.101 280.585 135.982 280.566 135.894C280.566 135.857 280.566 135.821 280.566 135.785C280.526 135.423 280.454 135.065 280.349 134.716C279.981 133.483 279.202 132.259 279.501 131.01V130.97C279.751 129.983 280.592 129.293 281.104 128.424C281.154 128.342 281.196 128.257 281.239 128.171C281.239 128.155 281.256 128.138 281.262 128.125C281.295 128.059 281.321 127.994 281.348 127.928L281.4 127.8C281.423 127.744 281.44 127.684 281.459 127.625C281.479 127.566 281.495 127.52 281.509 127.464C281.522 127.408 281.535 127.359 281.548 127.306C281.561 127.254 281.578 127.181 281.591 127.115C281.604 127.05 281.591 127.023 281.614 126.977C281.637 126.931 281.633 126.833 281.64 126.76C281.647 126.688 281.64 126.681 281.64 126.642C281.64 126.602 281.64 126.481 281.64 126.398V126.3C281.64 126.211 281.64 126.119 281.64 126.03C281.64 126.004 281.64 125.977 281.64 125.951C281.64 125.856 281.64 125.76 281.614 125.665C281.614 125.665 281.614 125.639 281.614 125.626C281.5 124.792 281.168 124.003 280.651 123.34C280.063 122.639 279.32 122.084 278.481 121.721C277.642 121.357 276.73 121.194 275.817 121.245C275.313 121.302 274.805 121.312 274.299 121.274C273.455 121.149 272.742 120.617 272.072 120.097L266.446 115.759C265.818 115.215 265.098 114.787 264.32 114.496C263.525 114.253 262.572 114.335 261.984 114.917C260.929 115.956 261.6 117.745 261.179 119.156C260.811 120.38 259.631 121.209 258.412 121.62C257.193 122.031 255.885 122.123 254.63 122.422C254.258 122.482 253.909 122.642 253.621 122.886C253.298 123.281 253.14 123.787 253.181 124.297C253.173 125.547 253.473 126.779 254.055 127.885C254.292 128.332 254.578 128.79 254.831 129.25L254.893 129.365L254.975 129.523C255.018 129.612 255.061 129.697 255.1 129.783L255.149 129.895L255.225 130.082C255.225 130.122 255.255 130.161 255.268 130.197C255.281 130.233 255.314 130.345 255.337 130.418C255.469 130.844 255.481 131.3 255.373 131.733C255.179 132.447 254.624 132.996 254.131 133.552C253.732 133.988 253.447 134.517 253.303 135.091C253.279 135.226 253.279 135.364 253.303 135.499C253.303 135.515 253.303 135.532 253.303 135.548C253.31 135.578 253.319 135.608 253.329 135.637C253.336 135.658 253.345 135.679 253.355 135.7C253.365 135.723 253.376 135.746 253.388 135.769C253.413 135.804 253.442 135.837 253.474 135.867L253.523 135.903C253.55 135.924 253.578 135.941 253.608 135.956L253.664 135.982L253.802 136.019H253.842C253.914 136.024 253.986 136.024 254.058 136.019H254.124C254.193 136.014 254.261 136.005 254.328 135.992H254.403C254.515 135.971 254.624 135.944 254.732 135.91C255.11 135.797 255.477 135.651 255.83 135.476C255.83 135.515 255.83 135.558 255.83 135.598C255.83 135.637 255.83 135.739 255.83 135.808C255.848 137.109 256.094 138.397 256.556 139.613C257.276 141.508 258.483 143.18 260.055 144.458C260.035 144.57 260.016 144.685 259.993 144.803C259.664 146.392 258.991 147.987 258.573 147.865C258.165 147.773 257.747 147.726 257.328 147.727H256.963C256.583 147.684 256.2 147.684 255.82 147.727C255.65 147.74 255.48 147.716 255.32 147.658C254.235 147.315 253.082 147.251 251.965 147.471C249.646 147.947 246.113 148.819 245.144 149.862C243.665 151.453 241.529 152.979 239.101 159.61C239.101 159.61 237.892 163.655 236.952 164.188C237.159 164.08 237.372 163.983 237.59 163.899C237.465 164.117 237.293 164.306 237.087 164.451C237.427 164.277 237.779 164.13 238.142 164.01C237.409 168.332 238.497 180.692 238.497 180.692C238.497 180.692 237.623 182.823 238.763 184.086C239.443 184.832 239.811 186 240.001 186.829L239.834 187.085C239.229 188.023 238.421 189.246 237.892 189.92C236.952 191.114 237.218 194.897 237.218 194.897C237.218 194.897 237.018 196.686 236.348 197.35C235.677 198.014 235.809 200.468 235.809 200.468L234.09 206.944C234.09 206.944 232.477 208.401 232.477 209.065C232.477 209.73 231.202 211.584 231.202 211.584C231.202 211.584 229.253 214.768 231.202 214.304C231.914 214.098 232.582 213.764 233.173 213.318V213.367C233.173 213.482 233.173 213.601 233.173 213.722C233.118 217.189 233.502 222.069 236.052 222.069C239.995 222.069 250.221 226.776 250.221 226.776C252.301 228.368 255.12 227.838 255.12 227.838C255.12 227.838 250.129 232.801 250.273 234.86C250.418 236.919 247.454 240.297 247.454 240.297L238.319 258.139C238.37 259.382 238.591 260.613 238.976 261.796L238.845 261.908C235.336 265.118 235.03 271.469 235.03 271.469L234.225 274.718L246.445 280.092C246.445 280.092 262.293 280.421 265.046 279.694C267.8 278.968 267.195 275.912 263.568 275.317C259.94 274.722 259.069 273.126 257.86 272.4C257.045 271.906 254.15 268.726 252.353 266.71C252.327 266.677 252.301 266.651 252.274 266.621L252.692 264.319C253.497 263.921 254.706 259.941 254.706 259.941C254.706 259.941 254.706 258.349 255.511 257.886C256.316 257.422 257.995 252.646 257.995 252.646C257.995 252.646 261.609 246.611 261.422 245.815C261.235 245.019 264.051 240.974 264.051 240.974C264.051 240.974 268.819 236.33 268.615 235.501C268.411 234.673 272.443 230.427 272.443 230.427C273.899 229.315 275.112 227.917 276.008 226.319L277.171 226.128C282.445 225.263 291.205 223.701 292.184 223.263C293.528 222.668 293.259 225.322 292.723 227.575C292.188 229.828 291.784 240.642 292.395 242.046C293.006 243.451 292.723 245.697 292.723 245.697L291.918 257.833L292.454 260.421C292.454 260.421 290.64 261.878 291.379 262.74C292.119 263.602 291.448 267.318 291.448 267.318C291.511 267.295 291.586 267.272 291.668 267.249C291.606 267.394 291.544 267.545 291.488 267.7C290.446 270.66 291.044 275.541 291.044 275.541V279.389C291.044 279.389 309.645 279.717 313.74 279.717C317.834 279.717 323.479 277.728 323.814 276.136C324.149 274.544 319.102 273.196 317.223 273.126ZM264.32 204.082L263.104 204.184C263.506 204.125 263.911 204.091 264.317 204.082H264.32ZM271.75 153.173C271.92 152.404 272.127 151.582 272.357 150.733L271.75 153.173ZM274.05 205.941C272.888 206.399 271.597 206.399 270.435 205.941C270.435 205.941 270.501 201.3 271.04 199.363C271.579 197.426 272.315 193.923 272.315 193.923C272.315 193.923 272.919 189.082 273.524 186.891C274.129 184.701 276.481 172.499 277.687 171.703C278.893 170.907 279.567 172.302 279.567 172.302C279.567 172.302 279.747 172.302 280.05 172.266C280.109 172.391 280.171 172.529 280.244 172.67C281.676 175.568 285.879 181.521 285.879 181.521C287.126 182.291 288.182 183.334 288.968 184.573C290.111 186.493 290.446 191.006 290.446 191.006C290.446 191.006 292.999 201.02 294.205 202.412C294.81 203.109 294.534 203.523 294.123 203.763C293.265 204.236 292.537 204.914 292.004 205.737C291.833 206.01 291.649 206.309 291.465 206.631C291.001 206.523 290.591 206.411 290.246 206.302C286.93 205.188 275.857 205.145 274.046 205.957L274.05 205.941Z" fill="url(#paint0_linear)"/>
<path d="M290.593 275.554V279.369C290.593 279.369 308.793 279.698 312.802 279.698C316.811 279.698 322.331 277.725 322.66 276.146C322.988 274.568 318.059 273.252 316.219 273.186C314.379 273.12 314.314 272.397 311.948 271.147C310.614 270.443 308.586 268.394 307.075 266.747C305.908 265.474 305.047 264.444 305.047 264.444C305.047 264.444 295.259 264.247 292.433 265.826C291.776 266.187 291.332 266.901 291.027 267.799C290.008 270.726 290.593 275.554 290.593 275.554Z" fill="#434175"/>
<path opacity="0.1" d="M291.027 267.79C293.081 267.076 305.097 266.803 307.076 266.757C305.909 265.484 305.048 264.455 305.048 264.455C305.048 264.455 295.26 264.258 292.434 265.836C291.783 266.185 291.333 266.898 291.027 267.79Z" fill="black"/>
<path d="M238.223 206.945L239.284 207.603L239.682 207.843L241.226 208.777C249.487 213.757 272.011 227.261 273.247 227.152C273.575 227.126 274.541 226.978 275.875 226.761L277.016 226.573C282.174 225.715 290.747 224.166 291.707 223.732C293.021 223.14 292.758 225.771 292.232 228.007C291.707 230.244 291.312 240.966 291.904 242.347C292.495 243.728 292.232 245.965 292.232 245.965L291.444 258.002L291.97 260.568C291.97 260.568 290.195 262.015 290.918 262.87C291.641 263.725 290.984 267.408 290.984 267.408C293.087 266.619 307.344 266.356 307.344 266.356C307.344 266.356 306.753 261.094 307.278 259.844C307.804 258.594 307.41 251.161 307.41 251.161C307.41 251.161 307.739 245.504 307.147 244.189C306.556 242.873 307.344 234.457 307.344 234.457C307.344 234.457 307.87 229.458 308.001 219.265C308.133 209.073 302.218 208.741 302.218 208.741C302.218 208.741 301.43 208.678 300.247 208.563C297.904 208.34 294.004 207.906 291.395 207.34C290.86 207.231 290.333 207.091 289.814 206.922C286.594 205.824 275.751 205.781 273.979 206.57C272.843 207.025 271.574 207.025 270.437 206.57L269.057 204.334L255.878 205.459L254.481 205.577L241.505 206.685L240.611 206.761L238.223 206.945Z" fill="#565387"/>
<path opacity="0.1" d="M291.052 217.048C294.88 218.916 298.534 212.292 300.253 208.556C297.91 208.332 294.009 207.898 291.4 207.332C289.669 210.213 287.382 215.255 291.052 217.048Z" fill="black"/>
<path d="M279.551 172.297C279.633 172.749 279.789 173.185 280.015 173.586C281.418 176.457 285.532 182.361 285.532 182.361C286.755 183.127 287.789 184.162 288.555 185.386C289.672 187.294 290 191.767 290 191.767C290 191.767 292.498 201.696 293.68 203.077C294.272 203.768 294.009 204.179 293.598 204.419C292.759 204.887 292.047 205.553 291.525 206.36C289.8 209.136 287.05 214.635 290.92 216.523C296.178 219.088 301.107 205.643 301.107 205.643C301.107 205.643 300.121 196.105 299.858 194.461C299.595 192.816 298.021 186.041 298.021 186.041C298.021 186.041 296.904 183.147 296.247 181.108C295.59 179.068 293.618 176.7 293.618 176.7C293.618 176.7 290.069 169.6 289.084 168.547C288.627 168.057 287.986 167.442 287.441 166.923C286.783 166.321 286.271 165.85 286.271 165.85C286.271 165.85 279.486 170.721 279.551 172.297Z" fill="#EE8E9E"/>
<path d="M235.012 274.766L246.972 280.094C246.972 280.094 262.478 280.422 265.173 279.699C267.867 278.975 267.276 275.95 263.727 275.358C260.178 274.766 259.324 273.187 258.141 272.463C257.343 271.977 254.51 268.822 252.752 266.823C251.904 265.859 251.306 265.178 251.306 265.178C251.306 265.178 249.006 259.061 242.635 260.442C241.47 260.697 240.398 261.265 239.533 262.087C236.099 265.267 235.8 271.565 235.8 271.565L235.012 274.766Z" fill="#434175"/>
<path opacity="0.1" d="M239.684 207.839L241.228 208.773C249.489 213.753 272.013 227.257 273.249 227.148C273.577 227.122 274.543 226.974 275.877 226.757L277.018 226.57L277.06 226.494C277.725 225.338 278.231 224.098 278.565 222.807C279.949 217.548 273.13 213.522 273.13 213.522L271.685 212.398C270.042 209.628 258.213 207.01 258.213 207.01L256.688 205.984L255.876 205.438L255.66 205.294L253.81 204.05L244.547 204.708L241.793 206.478L241.504 206.665L240.482 207.323L239.684 207.839Z" fill="black"/>
<path opacity="0.1" d="M239.523 262.064C242.037 270.77 252.545 267.928 252.545 267.928L252.743 266.823C251.895 265.859 251.297 265.178 251.297 265.178C251.297 265.178 248.997 259.061 242.625 260.442C241.463 260.69 240.391 261.251 239.523 262.064Z" fill="black"/>
<path d="M236.777 222.543C240.655 222.543 250.64 227.213 250.64 227.213C252.678 228.792 255.438 228.266 255.438 228.266C255.438 228.266 250.575 233.199 250.706 235.238C250.837 237.278 247.949 240.632 247.949 240.632L239.012 258.323C239.669 270.884 252.546 267.401 252.546 267.401L253.072 264.441C253.86 264.046 255.043 260.099 255.043 260.099C255.043 260.099 255.043 258.521 255.832 258.06C256.621 257.6 258.264 252.864 258.264 252.864C258.264 252.864 261.812 246.878 261.615 246.088C261.418 245.299 264.178 241.29 264.178 241.29C264.178 241.29 268.844 236.685 268.647 235.863C268.45 235.041 272.393 230.831 272.393 230.831C273.819 229.724 275.005 228.337 275.879 226.756C276.55 225.598 277.061 224.355 277.4 223.06C278.514 218.823 274.299 215.396 272.613 214.226C272.205 213.939 271.956 213.788 271.956 213.788L270.51 212.663C269.764 211.404 266.895 210.174 264.017 209.21C261.934 208.516 259.831 207.957 258.487 207.621C257.573 207.411 257.028 207.273 257.028 207.273L255.503 206.247L254.968 205.888L254.478 205.559L252.612 204.313L248.491 204.605L243.349 204.971L240.599 206.753L239.284 207.602L234.149 210.891C234.149 210.891 234.014 212.157 233.971 213.851C233.971 213.982 233.971 214.114 233.971 214.252C233.909 217.705 234.277 222.543 236.777 222.543Z" fill="#565387"/>
<path d="M256.555 148.883L257.935 153.816C257.935 153.816 260.366 162.301 260.629 162.893C260.892 163.485 267.267 169.471 267.529 169.603C267.792 169.734 271.262 171.704 271.262 171.704C271.262 171.704 271.538 160.851 271.262 157.697C271.239 157.003 271.296 156.309 271.433 155.628C271.85 153.155 272.912 149.527 273.792 146.732C274.528 144.393 275.136 142.637 275.136 142.637C275.136 142.637 259.762 141.979 260.287 143.492C260.485 144.064 260.422 145.018 260.228 145.978C259.9 147.554 259.243 149.139 258.842 149.014C258.441 148.924 258.033 148.879 257.623 148.879C257.071 148.863 256.555 148.883 256.555 148.883Z" fill="#EE8E9E"/>
<path opacity="0.1" d="M260.242 145.978C262.121 147.548 264.456 148.469 266.899 148.605C269.343 148.741 271.765 148.084 273.806 146.732C274.542 144.393 275.15 142.637 275.15 142.637C275.15 142.637 259.776 141.979 260.301 143.492C260.498 144.064 260.436 145.018 260.242 145.978Z" fill="black"/>
<path d="M278.898 136.852C278.899 138.059 278.707 139.258 278.33 140.404C278.235 140.7 278.125 140.991 278.001 141.275C277.116 143.374 275.622 145.158 273.713 146.397C271.804 147.636 269.567 148.273 267.292 148.226C265.017 148.179 262.808 147.45 260.952 146.133C259.096 144.815 257.677 142.971 256.879 140.838C256.428 139.631 256.188 138.354 256.17 137.066C256.17 136.996 256.17 136.924 256.17 136.855C256.144 135.345 256.419 133.844 256.979 132.441C257.539 131.038 258.372 129.761 259.43 128.684C260.488 127.606 261.75 126.751 263.142 126.167C264.534 125.583 266.028 125.282 267.537 125.282C269.046 125.282 270.541 125.583 271.932 126.167C273.324 126.751 274.586 127.606 275.644 128.684C276.702 129.761 277.536 131.038 278.095 132.441C278.655 133.844 278.93 135.345 278.905 136.855L278.898 136.852Z" fill="#EE8E9E"/>
<path opacity="0.1" d="M256.555 148.882L257.935 153.816C257.935 153.816 260.366 162.301 260.629 162.893C260.892 163.485 267.267 169.471 267.53 169.603C267.792 169.734 271.262 171.704 271.262 171.704C271.262 171.704 271.538 160.851 271.262 157.697C271.239 157.003 271.297 156.309 271.433 155.628L270.539 159.275L270.605 166.577L271.131 166.971L269.948 168.747V167.432C269.948 167.432 265.742 163.354 265.085 161.643C264.428 159.933 262.062 156.835 262.062 156.835C262.062 156.835 259.367 152.303 259.302 151.514C259.252 150.899 258.119 149.474 257.623 148.882C257.071 148.863 256.555 148.882 256.555 148.882Z" fill="black"/>
<path opacity="0.1" d="M279.551 172.297C279.633 172.749 279.789 173.185 280.015 173.586C281.454 173.438 286.346 172.524 287.424 166.926C286.767 166.324 286.254 165.854 286.254 165.854C286.254 165.854 279.486 170.721 279.551 172.297Z" fill="black"/>
<path opacity="0.1" d="M233.961 214.268C235.275 213.328 236.55 212.048 237.303 211.693C238.42 211.167 240.129 209.457 240.129 209.457C240.129 209.457 240.562 209.161 241.226 208.773C242.445 208.056 244.446 207.02 245.977 206.891C247.348 206.776 251.892 206.483 255.506 206.26L260.185 205.97C260.185 205.97 264.457 204.457 266.297 205.444C267.615 206.105 269.004 206.613 270.437 206.957C270.437 206.957 270.437 206.812 270.437 206.566L269.057 204.329L254.481 205.572L252.612 204.313L243.349 204.971L240.598 206.753L238.226 206.957L239.287 207.615L234.152 210.904C234.152 210.904 233.991 212.374 233.961 214.268Z" fill="black"/>
<path d="M232.057 214.839C232.753 214.63 233.406 214.296 233.982 213.852C235.296 212.915 236.562 211.635 237.314 211.283C238.431 210.757 240.14 209.047 240.14 209.047C240.14 209.047 243.623 206.679 245.989 206.481C246.646 206.429 247.98 206.333 249.603 206.228C251.226 206.123 253.218 205.995 254.966 205.899L257.752 205.725L260.18 205.574C260.18 205.574 264.452 204.061 266.292 205.047C267.61 205.708 268.999 206.216 270.432 206.56C270.432 206.56 270.498 201.956 271.024 200.048C271.549 198.141 272.272 194.658 272.272 194.658C272.272 194.658 272.864 189.856 273.455 187.685C274.047 185.515 276.344 173.412 277.526 172.622C278.709 171.833 279.367 173.214 279.367 173.214C279.367 173.214 287.253 173.083 287.384 164.403C287.384 164.403 283.704 160.72 283.441 159.799C283.178 158.878 279.695 155.457 279.695 155.457C279.695 155.457 277.724 151.774 275.489 151.708C274.434 151.647 273.375 151.68 272.325 151.807L270.432 159.536L270.498 166.837L271.024 167.232L269.841 169.008V167.692C269.841 167.692 265.635 163.614 264.978 161.904C264.321 160.193 261.955 157.095 261.955 157.095C261.955 157.095 259.26 152.563 259.195 151.774C259.129 150.984 257.289 148.87 257.289 148.87C256.918 148.827 256.543 148.827 256.172 148.87C256.005 148.882 255.838 148.859 255.682 148.801C254.62 148.46 253.489 148.397 252.396 148.616C250.126 149.087 246.669 149.952 245.723 150.984C244.277 152.563 242.174 154.076 239.808 160.654L252.554 165.258L251.443 167.337L241.3 186.636C241.3 186.636 240.971 187.185 240.508 187.902C239.916 188.833 239.125 190.047 238.605 190.714C237.685 191.898 237.948 195.648 237.948 195.648C237.948 195.648 237.751 197.424 237.094 198.082C236.437 198.739 236.568 201.173 236.568 201.173L234.859 207.554C234.859 207.554 233.282 209.001 233.282 209.659C233.282 210.316 232.034 212.158 232.034 212.158C232.034 212.158 230.141 215.312 232.057 214.839Z" fill="#434175"/>
<path opacity="0.1" d="M299.331 219.588C299.331 219.588 295.194 220.966 294.073 222.939C292.953 224.913 299.331 219.588 299.331 219.588Z" fill="black"/>
<path opacity="0.1" d="M297.229 215.246C297.098 215.443 291.558 221.005 291.906 222.347C292.255 223.689 297.229 215.246 297.229 215.246Z" fill="black"/>
<path opacity="0.1" d="M266.806 219.193C266.806 219.193 260.642 222.107 260.103 223.389C259.564 224.672 266.806 219.193 266.806 219.193Z" fill="black"/>
<path opacity="0.1" d="M266.414 222.938C266.414 222.938 260.828 225.306 260.079 225.898C259.33 226.49 266.414 222.938 266.414 222.938Z" fill="black"/>
<path opacity="0.1" d="M263.849 227.993C263.849 227.993 261.381 229.835 260.017 228.388C258.654 226.941 263.849 227.993 263.849 227.993Z" fill="black"/>
<path opacity="0.1" d="M273.128 179.992C272.996 180.189 264.781 194.989 262.613 196.108C260.444 197.226 273.128 179.992 273.128 179.992Z" fill="black"/>
<path opacity="0.1" d="M272.722 185.583C272.722 185.912 264.704 203.076 263.39 203.274C262.075 203.471 272.722 185.583 272.722 185.583Z" fill="black"/>
<path opacity="0.1" d="M242.244 196.632C242.244 196.632 238.373 204.91 236.855 205.38C235.337 205.85 242.244 196.632 242.244 196.632Z" fill="black"/>
<path opacity="0.1" d="M241.584 192.951C241.584 192.951 240.249 195.842 239.438 195.842C238.626 195.842 241.584 192.951 241.584 192.951Z" fill="black"/>
<path opacity="0.1" d="M278.898 136.852C278.899 138.058 278.707 139.257 278.33 140.404C278.235 140.699 278.125 140.99 278.001 141.275C277.42 141.185 276.872 140.944 276.414 140.575C275.926 140.244 275.518 139.808 275.221 139.298C274.997 138.756 274.803 138.201 274.639 137.638C274.377 137.001 273.95 136.446 273.402 136.031C272.854 135.615 272.204 135.353 271.521 135.273C271.899 135.931 271.298 136.802 270.558 136.917C269.819 137.032 269.1 136.588 268.587 136.039C268.074 135.49 267.71 134.822 267.204 134.273C266.698 133.724 265.975 133.286 265.232 133.395C264.575 133.494 264.072 133.993 263.523 134.365C262.975 134.737 262.209 134.987 261.683 134.589C261.388 134.368 261.243 133.993 260.96 133.753C260.234 133.145 259.104 133.773 258.568 134.559C257.744 135.776 257.254 136.513 256.17 137.062C256.17 136.993 256.17 136.921 256.17 136.852C256.144 135.341 256.419 133.841 256.979 132.438C257.539 131.035 258.372 129.757 259.43 128.68C260.488 127.603 261.75 126.747 263.142 126.163C264.534 125.579 266.028 125.278 267.537 125.278C269.046 125.278 270.541 125.579 271.932 126.163C273.324 126.747 274.586 127.603 275.644 128.68C276.702 129.757 277.536 131.035 278.095 132.438C278.655 133.841 278.93 135.341 278.905 136.852H278.898Z" fill="black"/>
<path d="M258.569 134.231C259.104 133.441 260.235 132.813 260.961 133.425C261.244 133.662 261.388 134.037 261.684 134.26C262.21 134.658 262.978 134.408 263.524 134.037C264.069 133.665 264.579 133.165 265.233 133.066C265.972 132.951 266.691 133.395 267.204 133.944C267.717 134.494 268.078 135.161 268.587 135.711C269.097 136.26 269.816 136.697 270.559 136.585C271.302 136.474 271.9 135.599 271.522 134.941C272.204 135.021 272.853 135.283 273.401 135.699C273.949 136.114 274.375 136.669 274.637 137.306C274.801 137.869 274.996 138.423 275.218 138.967C275.517 139.475 275.926 139.91 276.414 140.239C277.016 140.683 277.748 141.055 278.484 140.927C279.22 140.798 279.845 139.94 279.503 139.282C279.736 139.641 280.242 139.141 280.318 138.72C280.485 137.796 280.433 136.845 280.167 135.944C279.805 134.721 279.043 133.51 279.335 132.267C279.569 131.28 280.407 130.58 280.916 129.708C281.82 128.163 281.573 126.091 280.482 124.67C279.911 123.977 279.186 123.428 278.364 123.067C277.542 122.706 276.647 122.545 275.751 122.594C275.257 122.649 274.76 122.658 274.265 122.621C273.441 122.499 272.741 121.963 272.084 121.453L266.573 117.158C265.961 116.617 265.257 116.191 264.493 115.901C263.718 115.661 262.785 115.744 262.193 116.319C261.161 117.352 261.815 119.128 261.401 120.526C261.043 121.736 259.89 122.558 258.697 122.966C257.504 123.374 256.226 123.466 254.997 123.762C254.633 123.823 254.292 123.982 254.011 124.222C253.693 124.617 253.539 125.118 253.581 125.623C253.572 126.861 253.866 128.081 254.435 129.179C255.073 130.406 256.078 131.665 255.727 133.004C255.536 133.711 254.991 134.254 254.511 134.806C253.472 136.003 253.121 137.766 255.079 137.154C256.975 136.562 257.504 135.796 258.569 134.231Z" fill="#434175"/>
<g opacity="0.1">
<path opacity="0.1" d="M280.315 137.434C280.236 137.855 279.733 138.355 279.497 137.997C279.825 138.655 279.214 139.506 278.478 139.641C277.742 139.776 277.013 139.395 276.408 138.954C275.92 138.623 275.513 138.187 275.215 137.678C274.939 137.161 274.851 136.563 274.634 136.017C274.371 135.381 273.943 134.826 273.395 134.411C272.847 133.995 272.198 133.733 271.515 133.652C271.897 134.31 271.292 135.185 270.553 135.297C269.813 135.408 269.094 134.968 268.581 134.419C268.068 133.869 267.704 133.205 267.198 132.652C266.692 132.1 265.969 131.666 265.226 131.774C264.569 131.876 264.066 132.373 263.518 132.744C262.969 133.116 262.203 133.369 261.677 132.971C261.382 132.748 261.24 132.373 260.958 132.136C260.228 131.524 259.098 132.152 258.562 132.939C257.501 134.504 256.972 135.277 255.086 135.872C254.468 136.066 254.081 136.024 253.87 135.836C253.46 136.787 253.647 137.622 255.086 137.168C256.972 136.573 257.501 135.803 258.562 134.238C259.098 133.448 260.228 132.82 260.958 133.432C261.24 133.669 261.382 134.044 261.677 134.267C262.207 134.665 262.972 134.415 263.518 134.044C264.063 133.672 264.572 133.172 265.226 133.073C265.966 132.958 266.685 133.402 267.198 133.951C267.71 134.501 268.072 135.168 268.581 135.718C269.09 136.267 269.81 136.704 270.553 136.592C271.295 136.481 271.897 135.606 271.515 134.948C272.199 135.028 272.848 135.289 273.397 135.705C273.945 136.121 274.372 136.676 274.634 137.313C274.797 137.877 274.991 138.431 275.215 138.974C275.513 139.482 275.92 139.917 276.408 140.246C277.013 140.69 277.742 141.062 278.478 140.934C279.214 140.806 279.838 139.947 279.497 139.289C279.733 139.648 280.236 139.148 280.315 138.727C280.417 138.159 280.437 137.58 280.374 137.007C280.363 137.149 280.343 137.292 280.315 137.434Z" fill="black"/>
<path opacity="0.1" d="M255.715 131.764C255.715 131.744 255.715 131.731 255.732 131.711C256.09 130.376 255.075 129.116 254.44 127.889C253.994 127.024 253.717 126.08 253.625 125.11C253.601 125.282 253.588 125.456 253.586 125.63C253.579 126.867 253.872 128.087 254.44 129.185C254.887 130.024 255.495 130.879 255.715 131.764Z" fill="black"/>
<path opacity="0.1" d="M280.912 128.422C280.403 129.293 279.565 129.997 279.332 130.981C279.238 131.395 279.238 131.826 279.332 132.24C279.575 131.277 280.397 130.579 280.899 129.718C281.377 128.876 281.555 127.898 281.405 126.942C281.34 127.463 281.173 127.966 280.912 128.422Z" fill="black"/>
</g>
<path opacity="0.1" d="M240.52 187.903C240.606 188.266 240.673 188.634 240.72 189.004C240.72 189.004 245.912 201.173 246.569 201.894C246.769 202.117 247.532 203.209 248.491 204.62L249.592 206.245C251.563 209.205 253.794 212.55 253.794 212.55L258.671 216.812C258.671 216.812 269.248 217.657 272.609 214.224C272.202 213.938 271.952 213.786 271.952 213.786L270.506 212.661C269.76 211.402 266.892 210.172 264.013 209.208C261.352 209.228 259.173 209.445 259.173 209.445L258.483 207.62L257.76 205.715L254.07 196.039C254.07 196.039 251.698 183.808 250.909 183.213C250.121 182.617 250.321 180.779 250.321 180.779C250.321 180.779 251.764 175.582 251.238 174.859C250.712 174.135 252.092 168.81 252.092 168.81C251.957 168.289 251.744 167.792 251.461 167.334L241.318 186.633C241.318 186.633 240.973 187.186 240.52 187.903Z" fill="black"/>
<path d="M252.22 168.418C252.22 168.418 250.84 173.743 251.365 174.466C251.891 175.19 250.445 180.386 250.445 180.386C250.445 180.386 250.251 182.228 251.037 182.82C251.822 183.412 254.198 195.647 254.198 195.647L259.288 209.066C259.288 209.066 275.217 207.487 273.578 212.486C271.938 217.485 258.791 216.433 258.791 216.433L253.928 212.157C253.928 212.157 247.357 202.225 246.699 201.501C246.042 200.778 240.851 188.612 240.851 188.612C240.851 188.612 240.588 186.178 239.47 184.928C238.353 183.679 239.208 181.564 239.208 181.564C239.208 181.564 237.828 165.659 239.273 163.751C240.719 161.844 250.708 162.695 252.22 168.418Z" fill="#EE8E9E"/>
<path opacity="0.1" d="M244.071 158.42L239.931 160.92C239.931 160.92 238.748 164.932 237.828 165.458C237.828 165.458 246.109 160.854 252.348 171.441C252.348 171.441 252.151 170.063 253.006 169.405C253.86 168.747 253.663 165.919 253.663 165.919C253.89 165.472 254.088 165.01 254.254 164.537C254.846 163.09 251.77 154.802 244.071 158.42Z" fill="black"/>
<path d="M243.942 158.158L239.802 160.657C239.802 160.657 238.619 164.67 237.699 165.196C237.699 165.196 245.98 160.591 252.22 171.178C252.22 171.178 252.022 169.8 252.877 169.143C253.731 168.485 253.534 165.656 253.534 165.656C253.761 165.209 253.959 164.748 254.125 164.275C254.73 162.828 251.628 154.54 243.942 158.158Z" fill="#434175"/>
<path d="M207.045 273.338C213.861 273.338 219.387 267.467 219.387 260.225C219.387 252.983 213.861 247.112 207.045 247.112C200.229 247.112 194.703 252.983 194.703 260.225C194.703 267.467 200.229 273.338 207.045 273.338Z" fill="#FBD56F"/>
<path opacity="0.1" d="M207.045 273.338C213.861 273.338 219.387 267.467 219.387 260.225C219.387 252.983 213.861 247.112 207.045 247.112C200.229 247.112 194.703 252.983 194.703 260.225C194.703 267.467 200.229 273.338 207.045 273.338Z" fill="black"/>
<path d="M209.174 273.338C215.99 273.338 221.515 267.598 221.515 260.518C221.515 253.438 215.99 247.698 209.174 247.698C202.358 247.698 196.832 253.438 196.832 260.518C196.832 267.598 202.358 273.338 209.174 273.338Z" fill="#FBD56F"/>
<path d="M30.3486 267.43C38.7672 267.43 45.5917 266.276 45.5917 264.852C45.5917 263.428 38.7672 262.273 30.3486 262.273C21.9301 262.273 15.1055 263.428 15.1055 264.852C15.1055 266.276 21.9301 267.43 30.3486 267.43Z" fill="#2D9CDB"/>
<path d="M36.6498 260.632C37.307 260.024 37.9149 259.316 38.1055 258.435C38.296 257.554 37.9214 256.521 37.0901 256.202C36.1569 255.843 35.158 256.491 34.4023 257.146C33.6465 257.8 32.7823 258.544 31.7933 258.405C32.3021 257.944 32.6827 257.359 32.8981 256.706C33.1135 256.054 33.1562 255.356 33.0222 254.682C32.9832 254.405 32.8696 254.144 32.6936 253.926C32.1777 253.373 31.238 253.597 30.617 254.048C28.6454 255.436 28.0967 258.116 28.0868 260.527C27.8864 259.655 28.054 258.751 28.0507 257.856C28.0474 256.962 27.801 255.975 27.0649 255.495C26.5958 255.243 26.0689 255.12 25.537 255.136C24.6498 255.103 23.6641 255.192 23.0595 255.84C22.307 256.649 22.5009 258.001 23.1548 258.889C23.8086 259.777 24.7977 260.329 25.721 260.944C26.4551 261.383 27.0817 261.981 27.5545 262.694C27.6109 262.799 27.656 262.909 27.6893 263.023H33.2457C34.4829 262.383 35.628 261.579 36.6498 260.632Z" fill="#2D9CDB"/>
<path d="M140.16 121.489L152.62 115.241L157.22 119.46L158.315 122.476L159.465 127.544L158.453 129.764L150.484 131.218C150.484 131.218 146.239 130.971 145.582 131.3C144.925 131.629 142.243 132.198 142.243 132.198L140.16 127.064V121.489Z" fill="#FBD56F"/>
</g>
<defs>
<linearGradient id="paint0_linear" x1="277.079" y1="280.168" x2="277.079" y2="114.394" gradientUnits="userSpaceOnUse">
<stop stop-color="#808080" stop-opacity="0.25"/>
<stop offset="0.54" stop-color="#808080" stop-opacity="0.12"/>
<stop offset="1" stop-color="#808080" stop-opacity="0.1"/>
</linearGradient>
<clipPath id="clip0">
<rect width="367.36" height="264.04" fill="white" transform="translate(0.730469 22.96)"/>
</clipPath>
</defs>
</svg>
