<svg width="416" height="310" viewBox="0 0 416 310" fill="none" xmlns="http://www.w3.org/2000/svg">
<circle cx="271.457" cy="144.121" r="144.121" fill="#2D9CDB" fill-opacity="0.1"/>
<g clip-path="url(#clip0)">
<g opacity="0.1">
<path opacity="0.1" d="M22.6069 104.425C26.0164 110.357 24.1278 118.057 20.4242 123.808C16.7206 129.559 11.4526 134.125 7.34792 139.612C-0.811381 150.56 -2.92057 167.847 7.36798 176.844C9.58413 178.782 12.3251 180.316 13.6755 182.929C15.5407 186.535 14.1602 190.88 12.7529 194.699L12.6359 195.014C7.31784 209.427 15.1529 225.401 29.837 229.923C37.9629 232.426 45.2965 236.483 50.7249 243.043C55.4681 248.778 58.209 255.853 61.3377 262.603C66.9934 274.798 74.2937 286.458 84.3816 295.337C94.4696 304.216 107.633 310.101 121.07 309.617C151.762 308.511 174.361 276.198 205.023 274.497C207.232 274.373 209.586 274.457 211.434 275.673C214.041 277.391 214.84 280.763 215.937 283.694C221.743 299.21 239.225 306.362 254.878 311.796L284.293 322.015C300.271 327.563 317.051 333.194 333.764 330.624C350.477 328.054 366.795 314.332 366.07 297.436C365.475 283.557 353.97 271.342 355.477 257.53C356.52 247.986 363.67 239.969 364.867 230.441C366.113 220.525 360.692 211.004 354.451 203.198C336.494 180.727 310.903 165.916 285.928 151.629C268.335 141.564 250.653 131.458 231.714 124.226C185.024 106.444 133.709 107.209 83.9705 102.357C75.4168 101.521 66.4753 100.539 58.6369 96.7589C52.6202 93.8582 47.9171 87.151 41.3155 85.7307C36.2849 84.6479 28.8442 86.8837 24.452 89.3266C16.4465 93.8114 18.6526 97.5443 22.6069 104.425Z" fill="#2D9CDB"/>
</g>
<path d="M330.629 64.5333H61.9873C60.7574 64.5385 59.5405 64.7861 58.4064 65.2618C57.2722 65.7376 56.2429 66.4321 55.3774 67.3058C54.5119 68.1795 53.8272 69.2152 53.3623 70.3536C52.8974 71.4921 52.6615 72.711 52.6681 73.9407V262.824C52.6615 264.053 52.8974 265.272 53.3623 266.411C53.8272 267.549 54.5119 268.585 55.3774 269.459C56.2429 270.332 57.2722 271.027 58.4064 271.503C59.5405 271.978 60.7574 272.226 61.9873 272.231H330.629C331.859 272.226 333.076 271.978 334.21 271.503C335.344 271.027 336.374 270.332 337.239 269.459C338.105 268.585 338.789 267.549 339.254 266.411C339.719 265.272 339.955 264.053 339.949 262.824V73.9407C339.955 72.711 339.719 71.4921 339.254 70.3536C338.789 69.2152 338.105 68.1795 337.239 67.3058C336.374 66.4321 335.344 65.7376 334.21 65.2618C333.076 64.7861 331.859 64.5385 330.629 64.5333Z" fill="url(#paint0_linear)"/>
<path d="M338.735 84.5444V260.571C338.735 263.021 337.762 265.371 336.029 267.103C334.296 268.835 331.946 269.808 329.496 269.808H63.2272C60.7769 269.808 58.427 268.835 56.6943 267.103C54.9617 265.371 53.9883 263.021 53.9883 260.571V84.5444H338.735Z" fill="#F6F7F9"/>
<path d="M123.545 175.274V269.806H63.2273C58.1264 269.806 53.9883 265.588 53.9883 260.388V175.274H123.545Z" fill="#DDE1EC"/>
<path d="M260.124 106.097H144.195V109.355H260.124V106.097Z" fill="#DDE1EC"/>
<path d="M214.113 129.276H144.195V132.534H214.113V129.276Z" fill="#DDE1EC"/>
<path d="M253.24 129.276H229.691V132.534H253.24V129.276Z" fill="#DDE1EC"/>
<g opacity="0.1">
<path opacity="0.1" d="M98.9081 210.587H75.3594V213.845H98.9081V210.587Z" fill="#2D9CDB"/>
</g>
<path d="M253.24 159.699H229.691V162.957H253.24V159.699Z" fill="#DDE1EC"/>
<path d="M253.24 190.125H229.691V193.383H253.24V190.125Z" fill="#DDE1EC"/>
<path d="M253.24 139.417H229.691V142.676H253.24V139.417Z" fill="#DDE1EC"/>
<path d="M293.814 139.417H270.266V142.676H293.814V139.417Z" fill="#DDE1EC"/>
<path d="M253.24 149.557H229.691V152.816H253.24V149.557Z" fill="#DDE1EC"/>
<path d="M293.814 149.557H270.266V152.816H293.814V149.557Z" fill="#DDE1EC"/>
<path d="M293.814 168.392H270.266V171.651H293.814V168.392Z" fill="#DDE1EC"/>
<path d="M293.814 178.534H270.266V181.792H293.814V178.534Z" fill="#DDE1EC"/>
<path d="M293.814 200.266H270.266V203.525H293.814V200.266Z" fill="#DDE1EC"/>
<path d="M214.113 139.417H144.195V142.676H214.113V139.417Z" fill="#DDE1EC"/>
<path d="M214.113 149.557H144.195V152.816H214.113V149.557Z" fill="#DDE1EC"/>
<path d="M214.113 159.699H144.195V162.957H214.113V159.699Z" fill="#DDE1EC"/>
<path d="M214.113 169.843H144.195V173.102H214.113V169.843Z" fill="#DDE1EC"/>
<path d="M214.113 179.98H144.195V183.239H214.113V179.98Z" fill="#DDE1EC"/>
<path d="M214.113 190.125H144.195V193.383H214.113V190.125Z" fill="#DDE1EC"/>
<path d="M214.113 200.266H144.195V203.525H214.113V200.266Z" fill="#DDE1EC"/>
<path d="M123.545 84.3641H53.9883V177.085H123.545V84.3641Z" fill="#2D9CDB"/>
<path d="M338.735 75.1278C338.734 72.6786 337.76 70.33 336.028 68.5984C334.295 66.8669 331.946 65.8941 329.496 65.8941H63.2272C60.7769 65.8941 58.427 66.8673 56.6943 68.5996C54.9617 70.3319 53.9883 72.6813 53.9883 75.1311V85.6346H338.735V75.1278Z" fill="#E8EAF1"/>
<path d="M65.2171 79.2955C67.2183 79.2955 68.8405 77.6736 68.8405 75.6729C68.8405 73.6722 67.2183 72.0503 65.2171 72.0503C63.216 72.0503 61.5938 73.6722 61.5938 75.6729C61.5938 77.6736 63.216 79.2955 65.2171 79.2955Z" fill="#FF5252"/>
<path d="M77.1703 79.2955C79.1714 79.2955 80.7936 77.6736 80.7936 75.6729C80.7936 73.6722 79.1714 72.0503 77.1703 72.0503C75.1691 72.0503 73.5469 73.6722 73.5469 75.6729C73.5469 77.6736 75.1691 79.2955 77.1703 79.2955Z" fill="#FFFF00"/>
<path d="M89.1273 79.2955C91.1284 79.2955 92.7507 77.6736 92.7507 75.6729C92.7507 73.6722 91.1284 72.0503 89.1273 72.0503C87.1262 72.0503 85.5039 73.6722 85.5039 75.6729C85.5039 77.6736 87.1262 79.2955 89.1273 79.2955Z" fill="#69F0AE"/>
<path d="M109.057 130.725C109.063 135.37 107.467 139.876 104.538 143.481C104.427 143.618 104.317 143.752 104.203 143.886C104.181 143.908 104.161 143.933 104.143 143.959C103.105 145.16 101.931 146.236 100.644 147.164L100.476 147.288C100.246 147.451 100.012 147.622 99.7745 147.762L99.6107 147.866L99.2598 148.083C99.2079 148.116 99.1543 148.146 99.0993 148.173C99.0558 148.204 99.01 148.232 98.9623 148.257C98.4475 148.558 97.916 148.835 97.3712 149.089C97.311 149.122 97.2442 149.149 97.1807 149.179C97.1172 149.209 97.0436 149.246 96.9701 149.273C96.8965 149.299 96.7528 149.37 96.6358 149.413C95.4684 149.907 94.2562 150.288 93.0158 150.549C91.8335 150.802 90.6309 150.949 89.4225 150.987H89.2386H88.7606C87.1659 150.993 85.576 150.81 84.0242 150.442L83.7334 150.372C83.0515 150.194 82.3829 149.987 81.7278 149.751C81.33 149.604 80.9356 149.443 80.5512 149.273C80.4543 149.229 80.3607 149.189 80.2637 149.142L79.9729 149.012L79.7189 148.882L79.4515 148.745L79.154 148.588L78.8197 148.397L78.7662 148.367C77.3414 147.559 76.0193 146.581 74.8286 145.456C74.7284 145.359 74.6248 145.266 74.5278 145.162C74.4309 145.059 74.3172 144.955 74.2169 144.848C71.9015 142.464 70.2073 139.548 69.2836 136.356C68.3598 133.163 68.2347 129.793 68.9193 126.542C69.6039 123.29 71.0771 120.256 73.2095 117.707C75.3419 115.158 78.0681 113.172 81.1483 111.923C84.2285 110.674 87.5684 110.202 90.8743 110.546C94.1801 110.891 97.3506 112.042 100.107 113.899C102.863 115.756 105.121 118.262 106.682 121.196C108.242 124.13 109.058 127.402 109.057 130.725Z" fill="white"/>
<path d="M100.177 138.851V138.878L100.201 138.901C100.194 138.881 100.184 138.868 100.177 138.851ZM79.7339 148.877C79.7005 148.409 79.667 147.988 79.637 147.627C79.6136 147.373 79.5902 147.145 79.5701 146.958C79.5681 146.95 79.5681 146.94 79.5701 146.932C79.5701 146.885 79.5701 146.841 79.5701 146.798C79.248 147.29 78.9833 147.817 78.7812 148.369L78.8347 148.399L79.169 148.589L79.4665 148.746L79.7339 148.883C79.7339 149.032 79.745 149.188 79.7673 149.351C79.7506 149.191 79.7439 149.037 79.7339 148.887V148.877ZM84.1829 129.771L84.1996 129.801C84.2008 129.809 84.2008 129.817 84.1996 129.824C84.1967 129.809 84.191 129.794 84.1829 129.781V129.771Z" fill="url(#paint1_linear)"/>
<path d="M90.0042 126.358C90.0042 126.358 88.7975 131.779 92.1134 134.643C95.4292 137.507 84.2816 139.749 82.3162 137.353C80.3507 134.957 83.68 133.734 83.68 133.734C83.68 133.734 85.3513 132.377 83.68 128.313L90.0042 126.358Z" fill="#E0A17E"/>
<path d="M93.0135 150.556C91.8312 150.809 90.6286 150.956 89.4201 150.994H89.2363H88.7583C87.1644 150.997 85.5757 150.812 84.0252 150.443L83.7344 150.372C83.0525 150.194 82.3839 149.987 81.7288 149.751L81.3945 144.738L82.8452 137.797L83.6976 133.707L83.9383 132.564L84.1823 132.898L84.2358 132.971L84.3026 133.058L86.9767 136.617L89.7143 133.67L89.8547 133.516L90.6068 132.704L90.8909 132.4L91.0246 133.433L91.5059 137.145L92.3984 143.993L93.0135 150.556Z" fill="#F0F1F5"/>
<path opacity="0.1" d="M100.472 147.289C100.241 147.453 100.007 147.623 99.7699 147.763L99.6061 147.867L99.2551 148.084C99.2032 148.117 99.1496 148.147 99.0946 148.174C99.0511 148.206 99.0053 148.234 98.9576 148.258C98.2211 147.63 97.668 146.815 97.3565 145.899C97.3172 145.782 97.2837 145.664 97.2562 145.544C97.2546 145.525 97.2546 145.506 97.2562 145.488L97.0657 145.989L96.4807 147.436C96.4807 147.436 96.6545 148.144 96.9654 149.267C96.8562 149.318 96.7448 149.365 96.6311 149.408C95.4637 149.902 94.2515 150.282 93.0111 150.544C91.8288 150.797 90.6262 150.943 89.4178 150.982H89.234C89.0649 149.428 89.0058 147.865 89.0568 146.303L89.498 137.891L89.722 133.647L89.8456 131.308C89.8456 131.308 89.8891 131.355 89.9727 131.432C90.0562 131.508 90.1131 131.565 90.2133 131.655C91.7052 132.959 93.5846 133.735 95.5615 133.864C96.1075 133.88 96.6425 134.022 97.1248 134.278C97.6072 134.534 98.0239 134.898 98.3426 135.342C98.9467 136.2 99.3353 137.192 99.4757 138.232L99.576 139.151L99.6027 139.412L99.6395 139.746L100.472 147.289Z" fill="black"/>
<path d="M100.642 147.168L100.475 147.292C100.244 147.455 100.01 147.626 99.7726 147.766L99.6088 147.87L99.2578 148.087C98.4718 147.455 97.8732 146.621 97.5264 145.674C97.5103 145.635 97.4969 145.595 97.4863 145.554C97.4495 145.437 97.4161 145.313 97.3893 145.193L97.2523 145.55L97.0651 146.035L96.6372 147.151C96.6372 147.151 96.8344 147.953 97.1821 149.19C97.1119 149.223 97.045 149.257 96.9715 149.283C96.898 149.31 96.7542 149.38 96.6372 149.424C95.4698 149.918 94.2576 150.298 93.0172 150.56C91.8349 150.813 90.6324 150.959 89.4239 150.998C89.2289 149.343 89.1585 147.677 89.2133 146.012L89.6412 137.861L89.8685 133.516L89.9788 131.468L89.9988 131.043C90.0166 131.063 90.0356 131.082 90.0557 131.1C91.5955 132.578 93.6081 133.464 95.7381 133.603C96.2764 133.619 96.8041 133.756 97.2813 134.006C97.7585 134.255 98.1726 134.61 98.4924 135.044C99.1133 135.91 99.5126 136.915 99.6556 137.971L99.8327 139.619V139.642L99.8695 139.976L100.642 147.168Z" fill="#293158"/>
<path opacity="0.1" d="M84.3863 132.063V132.267L84.3328 133.043L84.1456 135.696C84.1456 135.696 84.0353 136.461 83.9551 138.186C83.8381 140.458 83.7679 144.395 84.0387 150.45L83.7478 150.38C83.066 150.202 82.3974 149.995 81.7423 149.759C81.3445 149.612 80.9501 149.451 80.5657 149.281C80.4688 149.237 80.3752 149.197 80.2782 149.15C80.1813 147.814 80.0643 146.995 80.0643 146.995C80.0643 146.995 79.9741 147.109 79.837 147.329C79.7802 147.419 79.71 147.53 79.6365 147.663L79.6197 147.693C79.5551 147.805 79.486 147.932 79.4125 148.074C79.3289 148.241 79.2454 148.409 79.1651 148.619L78.8309 148.429L78.7774 148.399C77.3526 147.59 76.0305 146.613 74.8398 145.488C75.378 143.593 75.8426 141.688 76.0098 141.444C76.633 140.487 77.1117 139.443 77.4304 138.346C77.653 137.601 78.0383 136.915 78.5586 136.337C79.0789 135.759 79.721 135.304 80.4387 135.004C81.9384 134.302 83.2792 133.301 84.3796 132.063H84.3863Z" fill="black"/>
<path d="M84.3925 131.968C83.0987 133.063 81.6573 133.971 80.1106 134.665C79.3929 134.965 78.7508 135.42 78.2305 135.998C77.7102 136.576 77.3249 137.262 77.1022 138.007C76.7836 139.104 76.3049 140.148 75.6816 141.105C75.5178 141.349 75.0499 143.257 74.5117 145.155C74.6087 145.255 74.7123 145.352 74.8126 145.449C76.0032 146.574 77.3253 147.552 78.7501 148.36L78.8036 148.39C78.9986 147.893 79.2451 147.419 79.539 146.973L79.5557 146.946C79.6727 146.773 79.7462 146.679 79.7462 146.679C79.7462 146.679 79.7763 146.9 79.8198 147.297C79.8632 147.695 79.92 148.3 79.9735 149.002L80.2643 149.132C80.3579 149.179 80.4515 149.219 80.5518 149.262C80.9362 149.433 81.3306 149.597 81.7284 149.74C82.3769 149.979 83.0454 150.186 83.734 150.362C83.4599 144.366 83.52 140.416 83.6303 138.087C83.7172 136.209 83.8342 135.377 83.8342 135.377L84.2587 132.937L84.3791 132.249L84.4359 131.915L84.3925 131.968Z" fill="#293158"/>
<path opacity="0.1" d="M86.541 131.632C85.7894 131.633 85.0475 131.463 84.3716 131.134C84.2548 130.268 84.0221 129.422 83.6797 128.618L90.0039 126.663C89.7734 127.875 89.7294 129.114 89.8735 130.339C88.9624 131.17 87.7741 131.631 86.541 131.632Z" fill="black"/>
<path d="M86.5408 131.331C89.2859 131.331 91.5113 129.106 91.5113 126.362C91.5113 123.617 89.2859 121.393 86.5408 121.393C83.7957 121.393 81.5703 123.617 81.5703 126.362C81.5703 129.106 83.7957 131.331 86.5408 131.331Z" fill="#E0A17E"/>
<g opacity="0.1">
<path opacity="0.1" d="M96.6435 149.421C96.2524 148.048 96.0352 147.146 96.0352 147.146L96.7872 145.187C96.8461 145.462 96.9323 145.731 97.0446 145.989L97.0613 146.033L96.6335 147.149C96.6335 147.149 96.8307 147.951 97.1783 149.187C97.1081 149.221 97.0413 149.254 96.9677 149.281C96.8942 149.308 96.7505 149.378 96.6435 149.421Z" fill="black"/>
</g>
<path d="M102.508 140.062C102.508 140.062 102.057 135.694 102.508 133.586C102.959 131.477 97.2368 133.887 98.4401 136.747C99.084 138.333 99.8917 139.847 100.85 141.265L102.508 140.062Z" fill="#E0A17E"/>
<path opacity="0.1" d="M104.139 143.96C103.101 145.161 101.926 146.236 100.639 147.165L100.472 147.289C100.241 147.452 100.007 147.623 99.7698 147.763C99.231 147.124 98.7501 146.439 98.3325 145.715L98.2891 145.638L99.4957 139.312L99.6228 139.442C99.6762 139.492 99.7464 139.559 99.83 139.626H99.8467C100.472 140.16 101.792 140.963 102.427 139.098C102.535 138.771 102.612 138.436 102.658 138.095L102.782 138.556L102.855 138.827L104.192 143.87L104.139 143.96Z" fill="black"/>
<path d="M104.139 143.959C103.101 145.16 101.926 146.235 100.639 147.164L100.472 147.287C100.241 147.451 100.007 147.622 99.7698 147.762L99.6061 147.866C99.116 147.258 98.6756 146.612 98.2891 145.934L98.3325 145.71L99.4957 139.608C99.4957 139.608 99.5559 139.678 99.6595 139.775L99.8668 139.959C99.9537 140.032 100.054 140.112 100.164 140.186C100.856 140.661 101.909 141.018 102.444 139.351C102.542 139.041 102.614 138.723 102.658 138.401L102.812 138.97L104.139 143.959Z" fill="#293158"/>
<path opacity="0.02" d="M104.139 143.959C103.101 145.16 101.926 146.235 100.639 147.164L100.472 147.287C100.241 147.451 100.007 147.622 99.7698 147.762L99.6061 147.866C99.116 147.258 98.6756 146.612 98.2891 145.934L98.3325 145.71L99.4957 139.608C99.4957 139.608 99.5559 139.678 99.6595 139.775L99.8668 139.959C99.9537 140.032 100.054 140.112 100.164 140.186C100.856 140.661 101.909 141.018 102.444 139.351C102.542 139.041 102.614 138.723 102.658 138.401L102.812 138.97L104.139 143.959Z" fill="black"/>
<path opacity="0.1" d="M79.5714 146.96L79.5547 146.987C79.5547 146.97 79.5547 146.95 79.5547 146.937C79.7653 146.205 79.9558 145.711 80.1263 145.564C80.1263 145.564 80.3502 147.051 80.5508 149.28C80.4539 149.236 80.3603 149.196 80.2633 149.149L79.9725 149.019C79.9224 148.301 79.8689 147.716 79.8188 147.315C79.7686 146.914 79.7452 146.696 79.7452 146.696C79.7452 146.696 79.6884 146.787 79.5714 146.96Z" fill="black"/>
<path opacity="0.1" d="M86.6022 124.992C86.862 124.849 87.1612 124.795 87.4545 124.838C87.5812 124.892 87.6952 124.971 87.7888 125.072C88.1799 125.443 88.5676 125.874 89.0957 125.988C89.4219 126.037 89.7546 126.023 90.0751 125.944C90.6375 125.879 91.1833 125.713 91.6862 125.453C92.806 124.785 93.1637 123.338 93.2339 122.038C93.2573 121.6 93.167 121.035 92.7358 120.942C92.1876 120.825 91.7865 121.657 91.2317 121.566C91.063 121.526 90.9112 121.433 90.7971 121.302C90.4194 120.925 90.162 120.44 89.7943 120.059C89.2065 119.51 88.4449 119.184 87.6417 119.137C86.845 119.094 86.0463 119.169 85.2718 119.361C84.8447 119.431 84.4324 119.573 84.0518 119.779C83.8632 119.882 83.6997 120.025 83.5726 120.198C83.4455 120.371 83.3581 120.57 83.3164 120.781C83.2796 121.072 83.3565 121.373 83.2997 121.66C83.2435 121.854 83.148 122.035 83.0193 122.191C82.8905 122.346 82.7311 122.474 82.5509 122.566C82.2167 122.773 81.8223 122.9 81.4947 123.154C80.9741 123.558 80.613 124.133 80.4752 124.778C80.3415 125.419 80.3234 126.079 80.4217 126.726C80.5589 127.851 80.8725 128.947 81.3509 129.975C81.5091 130.333 81.7124 130.67 81.956 130.977C82.3134 131.367 82.7241 131.705 83.176 131.98C83.2578 132.054 83.3552 132.109 83.4611 132.141C83.5669 132.173 83.6785 132.18 83.7877 132.164C83.8503 132.141 83.9081 132.107 83.9582 132.063C84.386 131.706 84.4261 131.061 84.2924 130.516C84.1587 129.971 83.9314 129.453 83.9047 128.899C83.8876 128.743 83.9179 128.586 83.9916 128.447C84.0807 128.336 84.1816 128.234 84.2924 128.143C84.4372 127.977 84.5505 127.785 84.6267 127.579C84.8824 127.067 85.0572 126.519 85.1448 125.954C85.1932 125.489 85.0913 125.021 84.854 124.618C85.0836 124.833 85.3678 124.982 85.6759 125.048C85.984 125.114 86.3043 125.095 86.6022 124.992Z" fill="black"/>
<path d="M86.6022 124.817C86.862 124.675 87.1612 124.621 87.4545 124.664C87.5812 124.717 87.6952 124.797 87.7888 124.898C88.1799 125.268 88.5676 125.7 89.0957 125.813C89.4219 125.863 89.7546 125.848 90.0751 125.77C90.6375 125.705 91.1833 125.538 91.6862 125.279C92.806 124.61 93.1637 123.163 93.2339 121.863C93.2573 121.425 93.167 120.861 92.7358 120.767C92.1876 120.65 91.7865 121.482 91.2317 121.392C91.063 121.351 90.9112 121.259 90.7971 121.128C90.4194 120.75 90.162 120.266 89.7943 119.885C89.2065 119.335 88.4449 119.009 87.6417 118.962C86.845 118.919 86.0463 118.995 85.2718 119.186C84.8447 119.257 84.4324 119.398 84.0518 119.604C83.8632 119.707 83.6997 119.85 83.5726 120.024C83.4455 120.197 83.3581 120.396 83.3164 120.607C83.2796 120.897 83.3565 121.198 83.2997 121.485C83.2435 121.68 83.148 121.86 83.0193 122.016C82.8905 122.172 82.7311 122.299 82.5509 122.391C82.2167 122.598 81.8223 122.725 81.4947 122.979C80.9741 123.384 80.613 123.959 80.4752 124.603C80.3415 125.245 80.3234 125.904 80.4217 126.552C80.5589 127.677 80.8725 128.773 81.3509 129.8C81.5091 130.159 81.7124 130.496 81.956 130.803C82.3134 131.193 82.7241 131.53 83.176 131.805C83.2578 131.879 83.3552 131.934 83.4611 131.966C83.5669 131.998 83.6785 132.006 83.7877 131.989C83.8503 131.967 83.9081 131.933 83.9582 131.889C84.386 131.531 84.4261 130.886 84.2924 130.341C84.1587 129.797 83.9314 129.279 83.9047 128.724C83.8876 128.568 83.9179 128.411 83.9916 128.273C84.0807 128.161 84.1816 128.059 84.2924 127.969C84.4372 127.802 84.5505 127.611 84.6267 127.404C84.8824 126.893 85.0572 126.345 85.1448 125.78C85.1932 125.315 85.0913 124.846 84.854 124.443C85.0836 124.659 85.3678 124.808 85.6759 124.874C85.984 124.94 86.3043 124.92 86.6022 124.817Z" fill="#463E3B"/>
<path d="M59.2521 253.802C63.9023 253.802 67.6721 252.418 67.6721 250.711C67.6721 249.004 63.9023 247.62 59.2521 247.62C54.6018 247.62 50.832 249.004 50.832 250.711C50.832 252.418 54.6018 253.802 59.2521 253.802Z" fill="#CD9494"/>
<path opacity="0.05" d="M59.2523 251.942C61.6245 251.942 63.5475 251.236 63.5475 250.365C63.5475 249.493 61.6245 248.787 59.2523 248.787C56.8801 248.787 54.957 249.493 54.957 250.365C54.957 251.236 56.8801 251.942 59.2523 251.942Z" fill="black"/>
<path d="M50.8302 250.032C50.8302 250.032 60.1093 255.185 67.6703 250.721C67.6703 250.721 66.6407 268.59 61.4831 270.307H54.614C54.614 270.307 48.7712 258.266 50.8302 250.032Z" fill="#FF7361"/>
<path d="M66.5216 217.282C68.8848 225.914 58.8102 250.504 58.8102 250.504C58.8102 250.504 37.6214 234.463 35.2582 225.834C34.1239 221.689 34.6829 217.263 36.8124 213.53C38.9418 209.798 42.4672 207.064 46.613 205.93C50.7588 204.795 55.1854 205.354 58.9189 207.483C62.6525 209.612 65.3873 213.137 66.5216 217.282Z" fill="#2D9CDB"/>
<path opacity="0.1" d="M66.5216 217.282C68.8848 225.914 58.8102 250.504 58.8102 250.504C58.8102 250.504 37.6214 234.463 35.2582 225.834C34.1239 221.689 34.6829 217.263 36.8124 213.53C38.9418 209.798 42.4672 207.064 46.613 205.93C50.7588 204.795 55.1854 205.354 58.9189 207.483C62.6525 209.612 65.3873 213.137 66.5216 217.282Z" fill="black"/>
<path d="M46.6992 205.976C46.6992 205.976 59.8892 225.884 58.8964 250.547" stroke="#535461" stroke-miterlimit="10"/>
<path d="M69.8889 233.054C69.8889 233.054 57.9157 226.547 59.4433 250.562C59.4433 250.562 69.4209 250.204 72.9608 242.067C73.6524 240.484 73.7398 238.703 73.2063 237.061C72.6729 235.418 71.5556 234.028 70.0661 233.154L69.8889 233.054Z" fill="#2D9CDB"/>
<path d="M70.0843 233.095C70.0843 233.095 68.54 245.56 59.4414 250.563" stroke="#535461" stroke-miterlimit="10"/>
<path opacity="0.05" d="M66.5436 251.29C66.2094 255.401 64.7687 268.167 60.4534 269.607H54.293C54.4902 270.045 54.6105 270.296 54.6105 270.296H61.4863C66.6372 268.575 67.6701 250.699 67.6701 250.699C67.3049 250.915 66.9289 251.113 66.5436 251.29Z" fill="black"/>
<path d="M214.113 222.54H144.195V263.107H214.113V222.54Z" fill="#DDE1EC"/>
<path d="M328.943 142.469C328.952 142.337 328.952 142.206 328.943 142.074C328.822 140.444 327.271 139.264 325.734 138.636C324.196 138.007 322.478 137.7 321.118 136.747C318.818 135.137 318.109 132.126 317.902 129.372C317.839 128.516 317.812 127.661 317.809 126.802C317.805 125.943 317.862 124.994 317.942 124.092C318.076 122.595 318.297 121.044 318.277 119.543C318.355 118.112 318.079 116.683 317.474 115.383C316.111 112.689 313.049 111.312 310.214 110.139C309.124 109.688 308.008 109.23 306.825 109.18C305.575 109.127 304.358 109.531 303.175 109.932C301.296 110.567 299.391 111.393 297.449 111.824C296.359 112.064 295.166 111.884 294.106 112.268C292.027 113.03 291.582 114.898 291.616 116.947C291.616 117.077 291.616 117.204 291.616 117.334C291.409 117.144 291.195 116.964 290.977 116.79L290.85 116.69C290.628 116.509 290.39 116.339 290.138 116.178L290.018 116.101C289.507 115.77 288.972 115.479 288.417 115.229L288.333 115.192C288.055 115.07 287.772 114.958 287.484 114.858L287.431 114.838C286.836 114.631 286.226 114.47 285.606 114.357C283.653 113.995 281.641 114.117 279.746 114.713C277.851 115.308 276.131 116.358 274.736 117.772L272.439 120.112C262 117.772 261.532 126.839 261.532 126.839L261.609 126.822L261.583 126.886C261.82 128.033 262.12 129.166 262.482 130.281L181.868 212.602L173.719 237.853L178.295 236.222L199.199 228.756L274.054 152.307C279.656 156.287 285.479 161.621 285.479 161.621C285.479 161.621 281.869 163.529 283.206 172.272C284.84 182.966 282.384 198.188 282.384 198.188V208.033L282.845 207.906C282.788 208.24 282.728 208.575 282.671 208.959C281.91 213.905 281.813 218.932 282.384 223.904C283.62 234.35 288.561 248.614 288.561 248.614C288.561 248.614 290.413 253.626 290.827 257.653C290.892 258.449 291.07 259.231 291.355 259.976C292.285 262.185 292.775 264.554 292.799 266.951C292.799 271.322 293.371 277.882 295.975 284.576C298.064 289.949 298.836 293.097 299.067 294.935C297.586 296.894 295.65 299.029 294.123 299.243C291.241 299.644 285.679 300.045 289.386 304.868C289.516 305.033 289.66 305.186 289.818 305.325C287.003 305.78 283.908 306.782 286.916 310.692C290.623 315.515 312.45 313.306 312.45 313.306C312.45 313.306 312.591 310.632 312.45 307.685C313.981 307.578 314.927 307.481 314.927 307.481C314.927 307.481 315.546 295.828 312.868 294.421C312.373 294.475 311.888 294.594 311.424 294.775C311.137 293.164 310.916 291.162 310.779 289.679L311.839 289.598V272.12C311.839 272.12 310.602 261.273 306.073 256.45C305.495 255.848 304.998 255.174 304.592 254.445C304.625 253.052 304.629 251.103 304.612 248.854C304.792 248.55 305.006 248.268 305.25 248.012C305.25 248.012 307.721 245.004 316.164 225.912C321.144 214.653 320.035 208.153 318.287 204.711C317.952 203.488 317.083 199.996 315.947 193.566C314.506 185.328 316.154 177.291 316.154 177.291C316.154 177.291 321.502 163.429 323.979 157.805C324.553 156.45 324.791 154.977 324.674 153.51C325.319 153.039 325.63 152.254 325.908 151.505L328.445 144.738C328.719 144.006 329 143.244 328.939 142.465L328.943 142.469ZM294.487 130.284C294.763 130.714 295.07 131.123 295.406 131.507C295.406 131.507 295.029 131.113 294.404 130.478C294.434 130.415 294.46 130.348 294.487 130.284ZM282.013 144.176L288.995 137.045C291.409 139.251 293.992 141.503 296.152 143.358C295.946 144.308 295.674 145.243 295.336 146.155C294.4 146.619 293.163 146.77 291.659 145.951C289.276 144.664 284.877 144.283 282.013 144.176Z" fill="url(#paint2_linear)"/>
<path d="M276.396 117.859C276.396 117.859 271.218 120.847 272.813 125.045C272.813 125.045 278.191 126.639 280.38 130.622C282.57 134.606 299.504 148.942 299.504 148.942L311.851 142.756C311.851 142.756 307.556 137.022 293.968 133.018C293.968 133.018 285.946 124.433 283.168 122.842C280.39 121.251 276.396 117.859 276.396 117.859Z" fill="#FEBDD5"/>
<path opacity="0.05" d="M276.396 117.859C276.396 117.859 271.218 120.847 272.813 125.045C272.813 125.045 278.191 126.639 280.38 130.622C282.57 134.606 299.504 148.942 299.504 148.942L311.851 142.756C311.851 142.756 307.556 137.022 293.968 133.018C293.968 133.018 285.946 124.433 283.168 122.842C280.39 121.251 276.396 117.859 276.396 117.859Z" fill="black"/>
<path d="M184.14 213.395L273.982 119.365C276.106 117.145 279.023 115.859 282.094 115.789C285.165 115.719 288.139 116.87 290.361 118.99C292.581 121.113 293.867 124.03 293.937 127.101C294.008 130.171 292.856 133.144 290.736 135.366L200.906 229.41L176.258 238.433L184.14 213.395Z" fill="#2D9CDB"/>
<path opacity="0.1" d="M285.462 117.32C287.682 119.443 288.968 122.36 289.038 125.43C289.108 128.501 287.957 131.473 285.836 133.695L195.997 227.726L177.492 234.493L176.242 238.423L200.891 229.4L290.743 135.403C292.864 133.181 294.015 130.208 293.945 127.138C293.875 124.068 292.589 121.151 290.369 119.028C288.518 117.255 286.129 116.148 283.58 115.883C284.254 116.297 284.885 116.778 285.462 117.32Z" fill="white"/>
<path d="M184.14 213.399L200.906 229.41L180.683 236.808L176.258 238.426L179.062 229.527L184.14 213.399Z" fill="#EFC8C4"/>
<path d="M179.06 229.522C179.674 229.641 180.259 229.876 180.785 230.213C181.393 230.651 181.834 231.41 181.667 232.138C181.503 232.592 181.268 233.017 180.972 233.398C180.67 233.908 180.487 234.479 180.436 235.069C180.386 235.66 180.47 236.254 180.681 236.807L176.242 238.424L179.06 229.522Z" fill="#727A9C"/>
<path d="M308.663 287.728C308.663 287.728 309.262 296.49 310.258 297.486C311.254 298.482 301.293 299.08 301.293 299.08L302.687 287.718L308.663 287.728Z" fill="#FFB9B9"/>
<path opacity="0.05" d="M308.663 287.728C308.663 287.728 309.262 296.49 310.258 297.486C311.254 298.482 301.293 299.08 301.293 299.08L302.687 287.718L308.663 287.728Z" fill="black"/>
<path d="M310.855 294.499C310.855 294.499 309.461 294.499 304.48 297.089C304.48 297.089 301.094 296.49 299.7 291.711C299.7 291.711 295.519 298.88 292.728 299.277C289.937 299.675 284.562 300.073 288.145 304.855C291.728 309.637 312.843 307.445 312.843 307.445C312.843 307.445 313.445 295.892 310.855 294.499Z" fill="#CBCDDA"/>
<path opacity="0.05" d="M310.855 294.499C310.855 294.499 309.461 294.499 304.48 297.089C304.48 297.089 301.094 296.49 299.7 291.711C299.7 291.711 295.519 298.88 292.728 299.277C289.937 299.675 284.562 300.073 288.145 304.855C291.728 309.637 312.843 307.445 312.843 307.445C312.843 307.445 313.445 295.892 310.855 294.499Z" fill="black"/>
<path d="M307.865 301.268L306.471 305.051L297.309 302.461L297.83 298.705L297.957 297.799L298.291 295.293C298.291 295.293 306.06 293.288 306.06 294.29C306.165 295.111 306.336 295.923 306.571 296.717C306.905 297.94 307.29 299.337 307.574 300.256C307.748 300.87 307.865 301.268 307.865 301.268Z" fill="#FFB9B9"/>
<path d="M302.869 249.332C302.241 250.395 301.532 252.387 302.852 254.873C303.243 255.593 303.724 256.26 304.283 256.858C308.665 261.637 309.862 272.391 309.862 272.391V289.715L306.874 289.946L302.094 290.314L294.907 260.845C294.907 260.845 290.726 239.336 292.718 235.553C294.71 231.77 296.502 208.073 296.502 208.073L298.156 206.362L302.08 202.298H313.445C314.354 202.95 315.108 203.793 315.655 204.768C317.56 207.923 319.271 214.483 314.044 226.594C305.878 245.512 303.488 248.5 303.488 248.5C303.251 248.753 303.043 249.032 302.869 249.332Z" fill="#4C4C78"/>
<path opacity="0.05" d="M302.869 249.332C302.241 250.395 301.532 252.387 302.852 254.873C303.243 255.593 303.724 256.26 304.283 256.858C308.665 261.637 309.862 272.391 309.862 272.391V289.715L306.874 289.946L302.094 290.314L294.907 260.845C294.907 260.845 290.726 239.336 292.718 235.553C294.71 231.77 296.502 208.073 296.502 208.073L298.156 206.362L302.08 202.298H313.445C314.354 202.95 315.108 203.793 315.655 204.768C317.56 207.923 319.271 214.483 314.044 226.594C305.878 245.512 303.488 248.5 303.488 248.5C303.251 248.753 303.043 249.032 302.869 249.332Z" fill="black"/>
<path opacity="0.1" d="M306.584 296.723L297.957 297.799L298.291 295.293C298.291 295.293 306.06 293.288 306.06 294.29C306.169 295.114 306.344 295.928 306.584 296.723Z" fill="black"/>
<path d="M302.288 223.803C302.288 223.803 302.782 239.48 302.866 249.332C302.883 251.561 302.866 253.493 302.849 254.873C302.861 255.605 302.807 256.336 302.689 257.058C302.09 258.85 303.287 262.833 303.287 262.833C308.268 275.977 306.874 287.526 306.874 287.526V296.289L297.307 297.485C297.307 297.485 298.902 296.289 294.519 284.739C292.002 278.102 291.458 271.602 291.448 267.268C291.425 264.896 290.95 262.551 290.05 260.357C289.779 259.615 289.613 258.839 289.556 258.051C289.158 254.067 287.366 249.088 287.366 249.088C287.366 249.088 282.586 234.949 281.39 224.592C280.837 219.663 280.931 214.683 281.667 209.778C281.843 208.531 282.083 207.294 282.386 206.071C282.386 206.071 301.856 193.82 309.21 202.288C309.922 203.116 310.487 204.058 310.882 205.075C311.285 206.08 311.6 207.117 311.821 208.177C314.08 219.426 302.288 223.803 302.288 223.803Z" fill="#4C4C78"/>
<path d="M301.689 136.58C307.3 136.58 311.848 132.033 311.848 126.424C311.848 120.815 307.3 116.268 301.689 116.268C296.079 116.268 291.531 120.815 291.531 126.424C291.531 132.033 296.079 136.58 301.689 136.58Z" fill="#FFB9B9"/>
<path d="M296.117 132.794C296.117 132.794 300.299 144.544 296.117 150.716C291.936 156.889 309.461 154.897 309.461 154.897L316.233 146.733C316.233 146.733 308.265 146.733 307.877 132.794C307.489 118.855 296.117 132.794 296.117 132.794Z" fill="#FFB9B9"/>
<path opacity="0.1" d="M316.23 207.076C314.786 207.576 313.301 207.948 311.792 208.189C309.311 208.57 306.386 208.586 304.675 207.076C303.672 206.18 301.162 206.073 298.16 206.357C291.839 206.962 283.282 209.322 281.645 209.786C281.821 208.539 282.061 207.302 282.363 206.08C282.363 206.08 301.834 193.829 309.188 202.297H313.436C314.345 202.949 315.099 203.792 315.646 204.767C316.017 206.351 316.23 207.076 316.23 207.076Z" fill="black"/>
<path opacity="0.1" d="M307.865 301.268L306.471 305.051L297.309 302.461L297.83 298.705C299.404 302.187 302.089 302.658 302.089 302.658C304.983 301.154 306.668 300.523 307.57 300.259C307.748 300.87 307.865 301.268 307.865 301.268Z" fill="black"/>
<path d="M308.463 300.274C308.463 300.274 307.069 300.274 302.088 302.864C302.088 302.864 298.702 302.266 297.308 297.487C297.308 297.487 293.127 304.655 290.336 305.053C287.545 305.451 282.17 305.842 285.756 310.631C289.343 315.42 310.455 313.221 310.455 313.221C310.455 313.221 311.053 301.668 308.463 300.274Z" fill="#CBCDDA"/>
<path d="M261.211 128.369C261.211 128.369 261.662 119.382 271.76 121.701L269.17 126.557L261.211 128.369Z" fill="#FFB9B9"/>
<path d="M308.277 149.126C308.277 149.126 298.516 147.532 295.926 145.541C295.926 145.541 293.92 149.324 290.347 147.332C286.774 145.34 278.397 145.541 278.397 145.541C278.397 145.541 271.424 141.758 270.041 133.192C270.041 133.192 268.647 128.016 269.038 126.622C269.038 126.622 263.86 121.245 261.27 128.413C262.272 133.393 263.061 132.995 262.864 136.975L266.049 145.738C266.049 145.738 266.25 148.725 272.026 152.709C277.802 156.692 284.377 162.865 284.377 162.865C284.377 162.865 280.891 164.756 282.188 173.419C283.769 184.006 281.392 199.108 281.392 199.108V208.866C281.392 208.866 301.311 203.091 304.697 206.079C308.083 209.066 316.249 206.079 316.249 206.079C316.249 206.079 315.246 202.693 313.859 194.529C312.472 186.365 314.059 178.398 314.059 178.398C314.059 178.398 319.237 164.656 321.627 159.082C324.017 153.508 319.835 145.938 315.65 143.151C311.465 140.364 309.911 142.038 309.911 142.038C309.911 142.038 317.228 147.335 308.277 149.126Z" fill="#FEBDD5"/>
<path opacity="0.1" d="M290.705 123.939C290.701 124.354 290.772 124.766 290.912 125.156C291.144 125.599 291.461 125.993 291.844 126.315C293.335 127.772 294.645 129.503 295.17 131.522C295.525 132.889 295.505 134.319 295.484 135.733C295.398 141.451 295.15 147.623 291.627 152.108C290.33 153.762 288.659 155.076 287.091 156.476C286.871 156.64 286.706 156.867 286.617 157.127C286.573 157.399 286.625 157.678 286.764 157.916C287.492 159.43 289.027 160.359 290.481 161.201C291.149 161.585 291.844 161.983 292.613 162.007C294.425 162.067 295.622 160.152 297.269 159.4C299.669 158.304 302.36 159.828 304.743 160.964C306.468 161.785 308.277 162.416 310.138 162.845C312.689 163.434 315.57 163.577 317.716 162.083C318.957 161.21 319.804 159.883 320.076 158.391C320.25 157.418 320.223 156.289 320.958 155.63C321.34 155.296 321.858 155.149 322.265 154.848C322.904 154.38 323.205 153.595 323.475 152.843L325.929 146.136C326.245 145.427 326.408 144.66 326.407 143.884C326.29 142.269 324.799 141.096 323.305 140.475C321.811 139.853 320.156 139.549 318.839 138.603C316.616 137.006 315.928 134.022 315.727 131.291C315.59 129.416 315.604 127.533 315.767 125.66C316.011 122.883 316.553 119.922 315.316 117.423C313.996 114.749 311.034 113.389 308.297 112.226C307.244 111.778 306.161 111.327 305.018 111.277C303.808 111.223 302.631 111.611 301.488 112.022C299.669 112.654 297.811 113.469 295.949 113.897C294.896 114.138 293.74 113.957 292.723 114.338C288.99 115.742 290.705 120.935 290.705 123.939Z" fill="black"/>
<path d="M290.704 123.542C290.701 123.956 290.771 124.368 290.911 124.758C291.143 125.202 291.46 125.596 291.844 125.918C293.335 127.375 294.645 129.106 295.17 131.125C295.524 132.491 295.504 133.922 295.484 135.335C295.397 141.053 295.15 147.226 291.627 151.711C290.33 153.365 288.658 154.678 287.091 156.078C286.871 156.239 286.705 156.461 286.613 156.717C286.569 156.989 286.621 157.267 286.76 157.505C287.488 159.019 289.023 159.948 290.477 160.791C291.145 161.175 291.84 161.573 292.609 161.596C294.421 161.656 295.618 159.741 297.266 158.989C299.666 157.893 302.356 159.417 304.74 160.553C306.464 161.374 308.273 162.005 310.135 162.435C312.685 163.023 315.566 163.167 317.712 161.673C318.953 160.799 319.8 159.473 320.072 157.98C320.246 157.008 320.219 155.878 320.955 155.22C321.336 154.885 321.854 154.738 322.262 154.438C322.9 153.97 323.201 153.184 323.472 152.433L325.925 145.725C326.241 145.017 326.404 144.249 326.403 143.473C326.286 141.859 324.795 140.686 323.301 140.064C321.807 139.443 320.152 139.139 318.835 138.193C316.613 136.595 315.924 133.611 315.723 130.881C315.586 129.006 315.6 127.123 315.764 125.25C316.008 122.473 316.549 119.512 315.312 117.012C313.992 114.338 311.03 112.978 308.293 111.815C307.24 111.367 306.157 110.916 305.014 110.866C303.804 110.813 302.627 111.2 301.484 111.611C299.666 112.243 297.807 113.058 295.945 113.486C294.892 113.727 293.736 113.546 292.72 113.927C288.989 115.354 290.704 120.538 290.704 123.542Z" fill="#B96B6B"/>
<path opacity="0.05" d="M282.676 177.891C282.676 177.891 284.264 177.513 292.232 176.31C300.201 175.107 314.143 177.904 314.143 177.904" fill="black"/>
</g>
<defs>
<linearGradient id="paint0_linear" x1="196.31" y1="272.231" x2="196.31" y2="64.5333" gradientUnits="userSpaceOnUse">
<stop stop-color="#808080" stop-opacity="0.25"/>
<stop offset="0.54" stop-color="#808080" stop-opacity="0.12"/>
<stop offset="1" stop-color="#808080" stop-opacity="0.1"/>
</linearGradient>
<linearGradient id="paint1_linear" x1="-7018.68" y1="6096.61" x2="-7018.68" y2="4948.82" gradientUnits="userSpaceOnUse">
<stop stop-color="#808080" stop-opacity="0.25"/>
<stop offset="0.54" stop-color="#808080" stop-opacity="0.12"/>
<stop offset="1" stop-color="#808080" stop-opacity="0.1"/>
</linearGradient>
<linearGradient id="paint2_linear" x1="124925" y1="163173" x2="124925" y2="37864.4" gradientUnits="userSpaceOnUse">
<stop stop-color="#808080" stop-opacity="0.25"/>
<stop offset="0.54" stop-color="#808080" stop-opacity="0.12"/>
<stop offset="1" stop-color="#808080" stop-opacity="0.1"/>
</linearGradient>
<clipPath id="clip0">
<rect width="365.681" height="266.732" fill="white" transform="translate(0.421875 64.5333)"/>
</clipPath>
</defs>
</svg>
