<svg width="20" height="20" viewBox="0 0 20 20" fill="none" xmlns="http://www.w3.org/2000/svg">
<circle cx="10" cy="10" r="10" fill="white"/>
<path d="M20 10C20 8.22581 19.5161 6.53226 18.629 5C17.7419 3.46774 16.5323 2.25806 15 1.37097C13.4677 0.483871 11.7742 0 10 0C8.18548 0 6.53226 0.483871 5 1.37097C3.46774 2.25806 2.21774 3.46774 1.33065 5C0.443548 6.53226 0 8.22581 0 10C0 11.8145 0.443548 13.4677 1.33065 15C2.21774 16.5323 3.46774 17.7823 5 18.6694C6.53226 19.5565 8.18548 20 10 20C11.7742 20 13.4677 19.5565 15 18.6694C16.5323 17.7823 17.7419 16.5323 18.629 15C19.5161 13.4677 20 11.8145 20 10ZM14.2742 8.58871C14.1129 9.47581 13.6694 10.0403 12.9032 10.2016C13.9516 10.7661 14.3145 11.6532 13.9113 12.8629C13.5887 13.6694 13.1048 14.1532 12.4597 14.3548C11.8548 14.5565 11.0484 14.5565 10.0403 14.3145L9.55645 16.129L8.46774 15.8871L8.91129 14.0726L8.06452 13.871L7.58065 15.6452L6.49194 15.3629L6.93548 13.5484L4.75806 12.9839L5.28226 11.7339C5.80645 11.8952 6.08871 11.9758 6.08871 11.9355C6.33065 12.0161 6.49194 11.9355 6.57258 11.6935L7.29839 8.79032L7.41935 8.83064L7.29839 8.79032L7.82258 6.73387C7.82258 6.41129 7.66129 6.20968 7.29839 6.08871C7.29839 6.08871 7.17742 6.08871 6.93548 6.00806L6.53226 5.92742L6.81452 4.75806L9.03226 5.28226L9.47581 3.46774L10.5645 3.75L10.121 5.52419L11.0081 5.72581L11.4516 3.99194L12.5403 4.23387L12.0968 6.04839C12.8226 6.33065 13.3871 6.65323 13.7903 6.97581C14.1935 7.45968 14.3548 7.98387 14.2742 8.58871ZM11.7742 12.0968C11.8952 11.5323 11.6532 11.0887 11.0081 10.7258C10.6048 10.5645 10.0403 10.3629 9.27419 10.1613L8.99193 10.121L8.3871 12.5403L8.62903 12.5806C9.39516 12.8226 10 12.9032 10.4032 12.9032C11.1694 12.9032 11.6129 12.6613 11.7742 12.0968ZM12.1371 8.54839C12.2177 8.06452 12.0161 7.66129 11.4919 7.33871C11.1694 7.17742 10.6855 7.01613 10.0403 6.85484L9.83871 6.81452L9.27419 8.99193L9.47581 9.07258C10.121 9.23387 10.6048 9.31452 10.9677 9.31452C11.6129 9.31452 11.9758 9.03226 12.1371 8.54839Z" fill="#2D9CDB"/>
</svg>
