<svg width="27" height="22" viewBox="0 0 27 22" fill="none" xmlns="http://www.w3.org/2000/svg">
    <path d="M0 19.25V11H27V19.25C27 19.9062 26.7656 20.4219 26.3438 20.8438C25.875 21.3125 25.3594 21.5 24.75 21.5H2.25C1.59375 21.5 1.07812 21.3125 0.65625 20.8438C0.1875 20.4219 0 19.9062 0 19.25ZM9 16.0625V17.9375C9 18.125 9.04688 18.2656 9.14062 18.3594C9.23438 18.4531 9.375 18.5 9.5625 18.5H15.9375C16.0781 18.5 16.2188 18.4531 16.3125 18.3594C16.4062 18.2656 16.5 18.125 16.5 17.9375V16.0625C16.5 15.9219 16.4062 15.7812 16.3125 15.6875C16.2188 15.5938 16.0781 15.5 15.9375 15.5H9.5625C9.375 15.5 9.23438 15.5938 9.14062 15.6875C9.04688 15.7812 9 15.9219 9 16.0625ZM3 16.0625V17.9375C3 18.125 3.04688 18.2656 3.14062 18.3594C3.23438 18.4531 3.375 18.5 3.5625 18.5H6.9375C7.07812 18.5 7.21875 18.4531 7.3125 18.3594C7.40625 18.2656 7.5 18.125 7.5 17.9375V16.0625C7.5 15.9219 7.40625 15.7812 7.3125 15.6875C7.21875 15.5938 7.07812 15.5 6.9375 15.5H3.5625C3.375 15.5 3.23438 15.5938 3.14062 15.6875C3.04688 15.7812 3 15.9219 3 16.0625ZM27 2.75C27 2.14062 26.7656 1.625 26.3438 1.15625C25.875 0.734375 25.3594 0.5 24.75 0.5H2.25C1.59375 0.5 1.07812 0.734375 0.65625 1.15625C0.1875 1.625 0 2.14062 0 2.75V5H27V2.75Z" fill="#2D9CDB"/>
</svg>
