<svg width="361" height="217" viewBox="0 0 361 217" fill="none" xmlns="http://www.w3.org/2000/svg">
<rect width="360.88" height="217" rx="12" fill="white"/>
<rect x="0.5" y="0.5" width="359.88" height="216" rx="11.5" stroke="black" stroke-opacity="0.3"/>
<path d="M30.4916 17.9357C30.3796 17.6417 30.2396 17.5577 29.9036 17.5577H29.1616C28.8256 17.5577 28.6996 17.6277 28.5736 17.9497L25.0736 27.0497C24.9616 27.3577 25.0736 27.5117 25.3956 27.5117H26.0396C26.6136 27.5117 26.7956 27.4277 26.9076 27.0917L27.5656 25.2857H31.4296L32.0736 27.0917C32.1856 27.4277 32.3676 27.5117 32.9416 27.5117H33.6696C33.9916 27.5117 34.1036 27.3577 33.9916 27.0497L30.4916 17.9357ZM30.9396 23.8437H28.0556L29.1336 20.8757C29.3436 20.2737 29.4416 19.7137 29.4416 19.1817H29.5396L29.5536 19.4197C29.5956 19.7417 29.7076 20.3857 29.8756 20.8897L30.9396 23.8437ZM35.3105 20.4557C34.8625 20.6377 34.7645 20.8057 34.7645 21.2537V30.1577C34.7645 30.4797 34.8765 30.5917 35.1985 30.5917H35.9685C36.2905 30.5917 36.3885 30.4797 36.3885 30.1577V27.4697C37.0325 27.6377 37.5225 27.7217 37.8585 27.7217C39.9445 27.7217 40.9805 26.7417 40.9805 24.7957V22.8777C40.9805 21.0437 40.0005 20.0497 38.0265 20.0497C36.9485 20.0497 36.0525 20.1897 35.3105 20.4557ZM39.3565 24.7397C39.3565 25.7337 38.8245 26.2377 37.7465 26.2377C37.3825 26.2377 36.9345 26.1677 36.3885 26.0277V21.8697C36.3885 21.7857 36.4305 21.7297 36.5285 21.6877C36.8925 21.5897 37.3125 21.5337 37.7885 21.5337C38.8385 21.5337 39.3565 21.9957 39.3565 22.9197V24.7397ZM42.8984 20.4557C42.4504 20.6377 42.3524 20.8057 42.3524 21.2537V30.1577C42.3524 30.4797 42.4644 30.5917 42.7864 30.5917H43.5564C43.8784 30.5917 43.9764 30.4797 43.9764 30.1577V27.4697C44.6204 27.6377 45.1104 27.7217 45.4464 27.7217C47.5324 27.7217 48.5684 26.7417 48.5684 24.7957V22.8777C48.5684 21.0437 47.5884 20.0497 45.6144 20.0497C44.5364 20.0497 43.6404 20.1897 42.8984 20.4557ZM46.9444 24.7397C46.9444 25.7337 46.4124 26.2377 45.3344 26.2377C44.9704 26.2377 44.5224 26.1677 43.9764 26.0277V21.8697C43.9764 21.7857 44.0184 21.7297 44.1164 21.6877C44.4804 21.5897 44.9004 21.5337 45.3764 21.5337C46.4264 21.5337 46.9444 21.9957 46.9444 22.9197V24.7397ZM52.9188 22.3037C52.9188 23.0177 53.1708 23.5497 53.5068 23.8437C53.6748 23.9977 53.8988 24.1237 54.1648 24.2217C54.7108 24.4317 55.0888 24.4877 55.7468 24.5577C56.9928 24.6837 57.4268 24.8377 57.4268 25.4537C57.4268 25.9997 56.9368 26.2797 55.9428 26.2797C55.1028 26.2797 54.5708 26.0277 54.3608 25.5097C54.2348 25.1877 54.0667 25.1317 53.7868 25.2437L53.1568 25.4397C52.8628 25.5377 52.7648 25.7337 52.8768 26.0277C53.3108 27.1617 54.3608 27.7217 55.9988 27.7217C57.9448 27.7217 59.0228 26.7977 59.0228 25.3837C59.0228 23.8157 58.0708 23.3117 56.1668 23.1297C54.9488 23.0177 54.5288 22.8777 54.5288 22.2617C54.5288 21.7577 54.9628 21.5057 55.8448 21.5057C56.5868 21.5057 57.0908 21.7437 57.3568 22.2337C57.5388 22.5277 57.6228 22.5557 57.9448 22.4297L58.5748 22.1777C58.8688 22.0377 58.9528 21.8277 58.7988 21.5477C58.3088 20.5537 57.3008 20.0497 55.8028 20.0497C53.9128 20.0497 52.9188 20.9177 52.9188 22.3037ZM61.2194 18.5797C60.8974 18.5797 60.7854 18.6777 60.7854 18.9997V20.2597H59.8194C59.4974 20.2597 59.3994 20.3577 59.3994 20.6797V21.3237C59.3994 21.6457 59.4974 21.7577 59.8194 21.7577H60.7854V24.6277C60.7854 25.8177 61.0234 26.6437 61.5134 27.0917C61.9894 27.5397 62.8154 27.7497 63.9914 27.7077C64.3274 27.6937 64.4394 27.5957 64.4394 27.2597V26.6157C64.4394 26.2797 64.3274 26.1817 63.9914 26.1817C63.3754 26.1817 62.9554 26.0837 62.7454 25.8737C62.5214 25.6637 62.4094 25.2297 62.4094 24.5717V21.7577H64.0054C64.3274 21.7577 64.4394 21.6457 64.4394 21.3237V20.6797C64.4394 20.3577 64.3274 20.2597 64.0054 20.2597H62.4094V18.9997C62.4094 18.6777 62.2974 18.5797 61.9754 18.5797H61.2194ZM65.2888 24.9217C65.2888 26.6717 66.4508 27.7217 68.5088 27.7217C70.5808 27.7217 71.7428 26.6717 71.7428 24.9217V22.8497C71.7428 21.0997 70.5808 20.0497 68.5088 20.0497C66.4508 20.0497 65.2888 21.0997 65.2888 22.8497V24.9217ZM70.1188 24.9217C70.1188 25.7617 69.5308 26.2517 68.5088 26.2517C67.4868 26.2517 66.9128 25.7617 66.9128 24.9217V22.8497C66.9128 21.9957 67.4868 21.5197 68.5088 21.5197C69.5308 21.5197 70.1188 21.9957 70.1188 22.8497V24.9217ZM76.2504 20.0497C75.2004 20.0777 74.3324 20.2177 73.6464 20.4697C73.1984 20.6517 73.1004 20.8197 73.1004 21.2677V27.0777C73.1004 27.3997 73.2124 27.5117 73.5344 27.5117H74.3044C74.6264 27.5117 74.7244 27.3997 74.7244 27.0777V21.8697C74.7244 21.7717 74.7664 21.7157 74.8644 21.7017C75.2284 21.5897 75.6764 21.5337 76.1944 21.5337H76.6984C77.0204 21.5337 77.1324 21.4217 77.1324 21.0997V20.4837C77.1324 20.1477 77.0204 20.0497 76.6984 20.0497H76.2504ZM77.6342 24.7257C77.6342 26.5597 78.6702 27.7217 80.8542 27.7217C82.3242 27.7217 83.3322 27.2737 83.8782 26.3777C84.0882 26.0557 84.0322 25.8317 83.7102 25.6777L83.2202 25.4117C82.8842 25.2297 82.7302 25.2577 82.5062 25.5797C82.1842 26.0697 81.6382 26.3217 80.8542 26.3217C79.8322 26.3217 79.2582 25.8317 79.2582 24.9217V24.4037H83.4862C83.9062 24.4037 84.1162 24.2077 84.1162 23.8017V22.9477C84.1162 21.2537 83.0102 20.0497 80.8822 20.0497C78.7682 20.0497 77.6342 21.1137 77.6342 23.0737V24.7257ZM82.4922 23.1577H79.2582V22.8497C79.2582 21.9397 79.8322 21.4217 80.8822 21.4217C81.9462 21.4217 82.4922 21.9397 82.4922 22.8497V23.1577ZM26.2216 36.9237C26.2216 37.6377 26.5296 38.3377 27.1456 38.9957C25.9136 39.6537 25.2976 40.5777 25.2976 41.7397C25.2976 42.6217 25.5776 43.3357 26.1376 43.8817C26.6976 44.4417 27.4256 44.7217 28.3076 44.7217C28.8536 44.7217 29.3296 44.6237 29.7636 44.4277C30.1976 44.2457 30.6876 43.8817 31.2616 43.3497L32.1576 44.2597C32.3256 44.4277 32.5356 44.5117 32.8016 44.5117H33.7956C34.1876 44.5117 34.2576 44.3717 34.0056 44.0917L32.3116 42.3137L33.2216 41.4317C33.4036 41.2497 33.4176 41.0817 33.2636 40.9137L32.7036 40.3537C32.5076 40.1577 32.3116 40.1577 32.1296 40.3537L31.2616 41.1937L29.5396 39.4297L29.6796 39.3597C30.9536 38.7437 31.5416 37.9737 31.5416 36.7977C31.5416 36.1117 31.2896 35.5377 30.7856 35.0617C30.2816 34.5997 29.6656 34.3617 28.9376 34.3617C28.0836 34.3617 27.4256 34.6137 26.9496 35.1037C26.4596 35.6077 26.2216 36.2097 26.2216 36.9237ZM30.0156 36.8117C30.0156 37.4137 29.7216 37.7217 29.0076 38.0577L28.5036 38.3237C27.9436 37.7497 27.7476 37.4277 27.7476 36.9377C27.7476 36.2797 28.1956 35.7757 28.9376 35.7757C29.5536 35.7757 30.0156 36.2517 30.0156 36.8117ZM30.2116 42.2017C29.4836 42.8877 29.0636 43.1817 28.3916 43.1817C27.5656 43.1817 26.9496 42.5937 26.9496 41.7677C26.9496 41.0537 27.3556 40.5077 28.1816 40.1157L30.2116 42.2017ZM38.8707 34.5437C38.2127 34.5437 38.0167 34.7537 38.0167 35.3837V35.5097C38.0167 36.1677 38.2407 36.3637 38.8707 36.3637H38.9687C39.6267 36.3637 39.8227 36.1677 39.8227 35.5097V35.3837C39.8227 34.7537 39.6267 34.5437 38.9687 34.5437H38.8707ZM38.5347 37.2597C38.2127 37.2597 38.1147 37.3577 38.1147 37.6797V44.0777C38.1147 44.3997 38.2127 44.5117 38.5347 44.5117H39.3047C39.6267 44.5117 39.7387 44.3997 39.7387 44.0777V37.6797C39.7387 37.3577 39.6267 37.2597 39.3047 37.2597H38.5347ZM41.1603 34.5717C40.8103 34.5717 40.6843 34.6977 40.6843 35.0477V35.7337C40.6843 36.0837 40.8103 36.2097 41.1603 36.2097H43.5683V44.0357C43.5683 44.3857 43.6943 44.5117 44.0443 44.5117H44.8563C45.2063 44.5117 45.3323 44.3857 45.3323 44.0357V36.2097H47.7403C48.0903 36.2097 48.2163 36.0837 48.2163 35.7337V35.0477C48.2163 34.6977 48.0903 34.5717 47.7403 34.5717H41.1603ZM53.0922 37.2597C52.7702 37.2597 52.6582 37.3577 52.6582 37.6797V42.8317C52.6582 42.9577 52.6022 43.0277 52.5042 43.0697C52.1262 43.1817 51.7062 43.2377 51.2162 43.2377C50.1942 43.2377 49.6902 42.7757 49.6902 41.8517V37.6797C49.6902 37.3577 49.5922 37.2597 49.2702 37.2597H48.5002C48.1782 37.2597 48.0662 37.3577 48.0662 37.6797V41.9077C48.0662 43.7137 49.0322 44.7217 50.9922 44.7217C52.0002 44.7217 52.9102 44.5537 53.7362 44.2317C54.1842 44.0497 54.2822 43.8957 54.2822 43.4477V37.6797C54.2822 37.3577 54.1702 37.2597 53.8482 37.2597H53.0922ZM56.3925 37.5257C55.9445 37.7077 55.8465 37.8757 55.8465 38.3237V44.0777C55.8465 44.3997 55.9585 44.5117 56.2805 44.5117H57.0505C57.3725 44.5117 57.4705 44.3997 57.4705 44.0777V38.8557C57.4705 38.7857 57.4985 38.7437 57.5685 38.7157C58.0165 38.5897 58.4645 38.5337 58.9125 38.5337C59.9345 38.5337 60.4385 38.9957 60.4385 39.9057V44.0777C60.4385 44.3997 60.5365 44.5117 60.8585 44.5117H61.6285C61.9505 44.5117 62.0625 44.3997 62.0625 44.0777V39.8637C62.0625 38.0577 61.1105 37.0497 59.1505 37.0497C58.1005 37.0497 57.1905 37.2037 56.3925 37.5257ZM63.3608 41.7257C63.3608 43.5597 64.3968 44.7217 66.5808 44.7217C68.0508 44.7217 69.0588 44.2737 69.6048 43.3777C69.8148 43.0557 69.7588 42.8317 69.4368 42.6777L68.9468 42.4117C68.6108 42.2297 68.4568 42.2577 68.2328 42.5797C67.9108 43.0697 67.3648 43.3217 66.5808 43.3217C65.5588 43.3217 64.9848 42.8317 64.9848 41.9217V41.4037H69.2128C69.6328 41.4037 69.8428 41.2077 69.8428 40.8017V39.9477C69.8428 38.2537 68.7368 37.0497 66.6088 37.0497C64.4948 37.0497 63.3608 38.1137 63.3608 40.0737V41.7257ZM68.2188 40.1577H64.9848V39.8497C64.9848 38.9397 65.5588 38.4217 66.6088 38.4217C67.6728 38.4217 68.2188 38.9397 68.2188 39.8497V40.1577ZM71.0203 39.3037C71.0203 40.0177 71.2723 40.5497 71.6083 40.8437C71.7763 40.9977 72.0003 41.1237 72.2663 41.2217C72.8123 41.4317 73.1903 41.4877 73.8483 41.5577C75.0943 41.6837 75.5283 41.8377 75.5283 42.4537C75.5283 42.9997 75.0383 43.2797 74.0443 43.2797C73.2043 43.2797 72.6723 43.0277 72.4623 42.5097C72.3363 42.1877 72.1683 42.1317 71.8883 42.2437L71.2583 42.4397C70.9643 42.5377 70.8663 42.7337 70.9783 43.0277C71.4123 44.1617 72.4623 44.7217 74.1003 44.7217C76.0463 44.7217 77.1243 43.7977 77.1243 42.3837C77.1243 40.8157 76.1723 40.3117 74.2683 40.1297C73.0503 40.0177 72.6303 39.8777 72.6303 39.2617C72.6303 38.7577 73.0643 38.5057 73.9463 38.5057C74.6883 38.5057 75.1923 38.7437 75.4583 39.2337C75.6403 39.5277 75.7243 39.5557 76.0463 39.4297L76.6763 39.1777C76.9703 39.0377 77.0543 38.8277 76.9003 38.5477C76.4103 37.5537 75.4023 37.0497 73.9043 37.0497C72.0143 37.0497 71.0203 37.9177 71.0203 39.3037Z" fill="#606470"/>
<path d="M71.4875 100.312L76.9355 92.56C77.1515 92.272 77.0315 91.96 76.6235 91.96H75.3275C74.6555 91.96 74.5355 92.032 74.1755 92.488L70.0475 98.488L65.9195 92.488C65.5595 92.032 65.4395 91.96 64.6955 91.96H63.4475C63.0395 91.96 62.8715 92.272 63.1355 92.56L68.5595 100.336L62.9435 108.352C62.6795 108.712 62.7995 109 63.2555 109H64.4555C65.2235 109 65.3675 108.952 65.6795 108.448L69.9275 102.112L74.2955 108.448C74.6075 108.928 74.7755 109 75.5195 109H76.8155C77.2955 109 77.4155 108.664 77.1275 108.352L71.4875 100.312ZM86.5343 100.312L91.9823 92.56C92.1983 92.272 92.0783 91.96 91.6703 91.96H90.3743C89.7023 91.96 89.5823 92.032 89.2223 92.488L85.0943 98.488L80.9663 92.488C80.6063 92.032 80.4863 91.96 79.7423 91.96H78.4943C78.0863 91.96 77.9183 92.272 78.1823 92.56L83.6063 100.336L77.9903 108.352C77.7263 108.712 77.8463 109 78.3023 109H79.5023C80.2703 109 80.4143 108.952 80.7263 108.448L84.9743 102.112L89.3423 108.448C89.6543 108.928 89.8223 109 90.5663 109H91.8623C92.3423 109 92.4623 108.664 92.1743 108.352L86.5343 100.312ZM93.2661 103.216C93.2661 107.056 95.6901 109.36 99.9861 109.36C104.282 109.36 106.706 107.056 106.706 103.216V97.744C106.706 93.904 104.282 91.6 99.9861 91.6C95.6901 91.6 93.2661 93.904 93.2661 97.744V103.216ZM104.378 103.216C104.378 105.784 102.794 107.2 99.9861 107.2C97.1781 107.2 95.5941 105.784 95.5941 103.216V97.744C95.5941 95.176 97.1781 93.76 99.9861 93.76C102.794 93.76 104.378 95.176 104.378 97.744V103.216ZM109.251 103.216C109.251 107.056 111.675 109.36 115.971 109.36C120.267 109.36 122.691 107.056 122.691 103.216V97.744C122.691 93.904 120.267 91.6 115.971 91.6C111.675 91.6 109.251 93.904 109.251 97.744V103.216ZM120.363 103.216C120.363 105.784 118.779 107.2 115.971 107.2C113.163 107.2 111.579 105.784 111.579 103.216V97.744C111.579 95.176 113.163 93.76 115.971 93.76C118.779 93.76 120.363 95.176 120.363 97.744V103.216ZM132.448 100.312L137.896 92.56C138.112 92.272 137.992 91.96 137.584 91.96H136.288C135.616 91.96 135.496 92.032 135.136 92.488L131.008 98.488L126.88 92.488C126.52 92.032 126.4 91.96 125.656 91.96H124.408C124 91.96 123.832 92.272 124.096 92.56L129.52 100.336L123.904 108.352C123.64 108.712 123.76 109 124.216 109H125.416C126.184 109 126.328 108.952 126.64 108.448L130.888 102.112L135.256 108.448C135.568 108.928 135.736 109 136.48 109H137.776C138.256 109 138.376 108.664 138.088 108.352L132.448 100.312ZM139.18 103.216C139.18 107.056 141.604 109.36 145.9 109.36C150.196 109.36 152.62 107.056 152.62 103.216V97.744C152.62 93.904 150.196 91.6 145.9 91.6C141.604 91.6 139.18 93.904 139.18 97.744V103.216ZM150.292 103.216C150.292 105.784 148.708 107.2 145.9 107.2C143.092 107.2 141.508 105.784 141.508 103.216V97.744C141.508 95.176 143.092 93.76 145.9 93.76C148.708 93.76 150.292 95.176 150.292 97.744V103.216ZM155.165 103.216C155.165 107.056 157.589 109.36 161.885 109.36C166.181 109.36 168.605 107.056 168.605 103.216V97.744C168.605 93.904 166.181 91.6 161.885 91.6C157.589 91.6 155.165 93.904 155.165 97.744V103.216ZM166.277 103.216C166.277 105.784 164.693 107.2 161.885 107.2C159.077 107.2 157.493 105.784 157.493 103.216V97.744C157.493 95.176 159.077 93.76 161.885 93.76C164.693 93.76 166.277 95.176 166.277 97.744V103.216ZM178.362 100.312L183.81 92.56C184.026 92.272 183.906 91.96 183.498 91.96H182.202C181.53 91.96 181.41 92.032 181.05 92.488L176.922 98.488L172.794 92.488C172.434 92.032 172.314 91.96 171.57 91.96H170.322C169.914 91.96 169.746 92.272 170.01 92.56L175.434 100.336L169.818 108.352C169.554 108.712 169.674 109 170.13 109H171.33C172.098 109 172.242 108.952 172.554 108.448L176.802 102.112L181.17 108.448C181.482 108.928 181.65 109 182.394 109H183.69C184.17 109 184.29 108.664 184.002 108.352L178.362 100.312ZM185.094 103.216C185.094 107.056 187.518 109.36 191.814 109.36C196.11 109.36 198.534 107.056 198.534 103.216V97.744C198.534 93.904 196.11 91.6 191.814 91.6C187.518 91.6 185.094 93.904 185.094 97.744V103.216ZM196.206 103.216C196.206 105.784 194.622 107.2 191.814 107.2C189.006 107.2 187.422 105.784 187.422 103.216V97.744C187.422 95.176 189.006 93.76 191.814 93.76C194.622 93.76 196.206 95.176 196.206 97.744V103.216ZM201.079 103.216C201.079 107.056 203.503 109.36 207.799 109.36C212.095 109.36 214.519 107.056 214.519 103.216V97.744C214.519 93.904 212.095 91.6 207.799 91.6C203.503 91.6 201.079 93.904 201.079 97.744V103.216ZM212.191 103.216C212.191 105.784 210.607 107.2 207.799 107.2C204.991 107.2 203.407 105.784 203.407 103.216V97.744C203.407 95.176 204.991 93.76 207.799 93.76C210.607 93.76 212.191 95.176 212.191 97.744V103.216ZM224.277 100.312L229.725 92.56C229.941 92.272 229.821 91.96 229.413 91.96H228.117C227.445 91.96 227.325 92.032 226.965 92.488L222.837 98.488L218.709 92.488C218.349 92.032 218.229 91.96 217.485 91.96H216.237C215.829 91.96 215.661 92.272 215.925 92.56L221.349 100.336L215.733 108.352C215.469 108.712 215.589 109 216.045 109H217.245C218.013 109 218.157 108.952 218.469 108.448L222.717 102.112L227.085 108.448C227.397 108.928 227.565 109 228.309 109H229.605C230.085 109 230.205 108.664 229.917 108.352L224.277 100.312ZM231.008 103.216C231.008 107.056 233.432 109.36 237.728 109.36C242.024 109.36 244.448 107.056 244.448 103.216V97.744C244.448 93.904 242.024 91.6 237.728 91.6C233.432 91.6 231.008 93.904 231.008 97.744V103.216ZM242.12 103.216C242.12 105.784 240.536 107.2 237.728 107.2C234.92 107.2 233.336 105.784 233.336 103.216V97.744C233.336 95.176 234.92 93.76 237.728 93.76C240.536 93.76 242.12 95.176 242.12 97.744V103.216ZM246.993 103.216C246.993 107.056 249.417 109.36 253.713 109.36C258.009 109.36 260.433 107.056 260.433 103.216V97.744C260.433 93.904 258.009 91.6 253.713 91.6C249.417 91.6 246.993 93.904 246.993 97.744V103.216ZM258.105 103.216C258.105 105.784 256.521 107.2 253.713 107.2C250.905 107.2 249.321 105.784 249.321 103.216V97.744C249.321 95.176 250.905 93.76 253.713 93.76C256.521 93.76 258.105 95.176 258.105 97.744V103.216ZM270.191 100.312L275.639 92.56C275.855 92.272 275.735 91.96 275.327 91.96H274.031C273.359 91.96 273.239 92.032 272.879 92.488L268.751 98.488L264.623 92.488C264.263 92.032 264.143 91.96 263.399 91.96H262.151C261.743 91.96 261.575 92.272 261.839 92.56L267.263 100.336L261.647 108.352C261.383 108.712 261.503 109 261.959 109H263.159C263.927 109 264.071 108.952 264.383 108.448L268.631 102.112L272.999 108.448C273.311 108.928 273.479 109 274.223 109H275.519C275.999 109 276.119 108.664 275.831 108.352L270.191 100.312ZM276.922 103.216C276.922 107.056 279.346 109.36 283.642 109.36C287.938 109.36 290.362 107.056 290.362 103.216V97.744C290.362 93.904 287.938 91.6 283.642 91.6C279.346 91.6 276.922 93.904 276.922 97.744V103.216ZM288.034 103.216C288.034 105.784 286.45 107.2 283.642 107.2C280.834 107.2 279.25 105.784 279.25 103.216V97.744C279.25 95.176 280.834 93.76 283.642 93.76C286.45 93.76 288.034 95.176 288.034 97.744V103.216ZM300.12 100.312L305.568 92.56C305.784 92.272 305.664 91.96 305.256 91.96H303.96C303.288 91.96 303.168 92.032 302.808 92.488L298.68 98.488L294.552 92.488C294.192 92.032 294.072 91.96 293.328 91.96H292.08C291.672 91.96 291.504 92.272 291.768 92.56L297.192 100.336L291.576 108.352C291.312 108.712 291.432 109 291.888 109H293.088C293.856 109 294 108.952 294.312 108.448L298.56 102.112L302.928 108.448C303.24 108.928 303.408 109 304.152 109H305.448C305.928 109 306.048 108.664 305.76 108.352L300.12 100.312Z" fill="#2D9CDB"/>
<path d="M61.1203 147.419H61.7877V191.019H61.1203V147.419ZM54.25 191.019H57.3536V147.419H54.25V191.019ZM75.0942 191.019H75.8706V147.419H75.0942V191.019ZM77.2032 191.019H80.3068V147.419H77.2032V191.019ZM68.5532 191.019H71.6569V147.419H68.5532V191.019ZM64.117 191.019H64.7822V147.419H64.117V191.019ZM66.226 191.019H66.8891V147.419H66.226V191.019ZM89.1771 191.019H92.2829V147.419H89.1771V191.019ZM98.1565 191.019H98.8238V147.419H98.1565V191.019ZM96.0517 191.019H96.7191V147.419H96.0517V191.019ZM82.6383 191.019H83.3014V147.419H82.6383V191.019ZM84.743 191.019H87.8488V147.419H84.743V191.019ZM109.81 191.019H112.911V147.419H109.81V191.019ZM114.241 147.419V191.019H117.345V147.419H114.241ZM105.592 191.019H106.366V147.419H105.592V191.019ZM101.157 191.019H101.825V147.419H101.157V191.019ZM103.262 191.019H103.927V147.419H103.262V191.019Z" fill="#323643"/>
<path d="M124.216 147.419H124.883V191.019H124.216V147.419ZM117.346 191.019H120.449V147.419H117.346V191.019ZM138.19 191.019H138.966V147.419H138.19V191.019ZM140.299 191.019H143.403V147.419H140.299V191.019ZM131.649 191.019H134.753V147.419H131.649V191.019ZM127.213 191.019H127.878V147.419H127.213V191.019ZM129.322 191.019H129.985V147.419H129.322V191.019ZM152.273 191.019H155.379V147.419H152.273V191.019ZM161.252 191.019H161.92V147.419H161.252V191.019ZM159.147 191.019H159.815V147.419H159.147V191.019ZM145.734 191.019H146.397V147.419H145.734V191.019ZM147.839 191.019H150.945V147.419H147.839V191.019ZM172.905 191.019H176.007V147.419H172.905V191.019ZM177.337 147.419V191.019H180.441V147.419H177.337ZM168.687 191.019H169.462V147.419H168.687V191.019ZM164.253 191.019H164.921V147.419H164.253V191.019ZM166.358 191.019H167.023V147.419H166.358V191.019Z" fill="#323643"/>
<path d="M187.312 147.419H187.979V191.019H187.312V147.419ZM180.441 191.019H183.545V147.419H180.441V191.019ZM201.286 191.019H202.062V147.419H201.286V191.019ZM203.395 191.019H206.498V147.419H203.395V191.019ZM194.745 191.019H197.848V147.419H194.745V191.019ZM190.308 191.019H190.974V147.419H190.308V191.019ZM192.417 191.019H193.081V147.419H192.417V191.019ZM215.369 191.019H218.474V147.419H215.369V191.019ZM224.348 191.019H225.015V147.419H224.348V191.019ZM222.243 191.019H222.91V147.419H222.243V191.019ZM208.83 191.019H209.493V147.419H208.83V191.019ZM210.934 191.019H214.04V147.419H210.934V191.019ZM236.001 191.019H239.102V147.419H236.001V191.019ZM240.433 147.419V191.019H243.537V147.419H240.433ZM231.783 191.019H232.557V147.419H231.783V191.019ZM227.349 191.019H228.016V147.419H227.349V191.019ZM229.454 191.019H230.119V147.419H229.454V191.019Z" fill="#323643"/>
<path d="M250.406 147.419H251.073V191.019H250.406V147.419ZM243.535 191.019H246.639V147.419H243.535V191.019ZM264.379 191.019H265.156V147.419H264.379V191.019ZM266.488 191.019H269.592V147.419H266.488V191.019ZM257.838 191.019H260.942V147.419H257.838V191.019ZM253.402 191.019H254.067V147.419H253.402V191.019ZM255.511 191.019H256.174V147.419H255.511V191.019ZM278.462 191.019H281.568V147.419H278.462V191.019ZM287.442 191.019H288.109V147.419H287.442V191.019ZM285.337 191.019H286.004V147.419H285.337V191.019ZM271.923 191.019H272.587V147.419H271.923V191.019ZM274.028 191.019H277.134V147.419H274.028V191.019ZM299.095 191.019H302.196V147.419H299.095V191.019ZM303.527 147.419V191.019H306.63V147.419H303.527ZM294.877 191.019H295.651V147.419H294.877V191.019ZM290.443 191.019H291.11V147.419H290.443V191.019ZM292.547 191.019H293.213V147.419H292.547V191.019Z" fill="#323643"/>
</svg>
