<svg width="356" height="277" viewBox="0 0 356 277" fill="none" xmlns="http://www.w3.org/2000/svg">
<circle cx="221.895" cy="133.684" r="133.684" fill="#2D9CDB" fill-opacity="0.1"/>
<g clip-path="url(#clip0)">
<path d="M165.724 285.326C227.581 285.326 277.725 271.089 277.725 253.527C277.725 235.964 227.581 221.727 165.724 221.727C103.867 221.727 53.7227 235.964 53.7227 253.527C53.7227 271.089 103.867 285.326 165.724 285.326Z" fill="#F5F5F5"/>
<path d="M272.286 129.821C272.286 129.821 252.445 149.537 263.646 178.793C274.846 208.048 244.445 256.702 244.445 256.702C244.445 256.702 244.765 256.654 245.377 256.549C286.126 249.401 306.373 203.088 283.713 168.684C275.3 155.894 268.372 140.888 272.286 129.821Z" fill="#2D9CDB"/>
<path d="M272.286 129.821C272.286 129.821 261.086 153.989 272.286 173.705C283.486 193.421 274.206 248.752 244.445 256.702" stroke="#535461" stroke-width="2" stroke-miterlimit="10"/>
<path d="M307.623 209.567C307.623 209.567 284.983 205.983 282.919 226.147C280.855 246.311 239.398 249.103 239.398 249.103C239.398 249.103 239.667 249.288 240.176 249.619C274.417 271.955 307.15 263.846 302.218 234.186C300.372 223.161 300.519 212.086 307.623 209.567Z" fill="#2D9CDB"/>
<path opacity="0.2" d="M307.623 209.567C307.623 209.567 284.983 205.983 282.919 226.147C280.855 246.311 239.398 249.103 239.398 249.103C239.398 249.103 239.667 249.288 240.176 249.619C274.417 271.955 307.15 263.846 302.218 234.186C300.372 223.161 300.519 212.086 307.623 209.567Z" fill="#F5F5F5"/>
<path d="M307.62 209.566C307.62 209.566 290.046 213.401 291.489 229.282C292.932 245.163 265.38 264.192 239.383 249.096" stroke="#535461" stroke-width="2" stroke-miterlimit="10"/>
<path opacity="0.2" d="M48.867 53.8983C46.2878 53.8092 43.6445 53.8983 41.2253 54.795C34.6428 57.234 31.5228 65.2126 32.5372 72.1226C33.5516 79.0327 37.7244 85.0332 42.0541 90.5314C46.3838 96.0296 51.075 101.458 53.4494 108.021C54.6335 111.3 55.1871 114.973 53.9839 118.245C52.1278 123.291 46.531 126.112 41.1581 126.697C35.7852 127.282 30.3899 126.141 24.9979 125.743C22.7354 125.584 20.409 125.565 18.2778 126.303C15.9386 127.107 13.9897 128.748 12.1977 130.459C5.20562 137.169 -0.391249 146.327 0.514363 155.943C1.53838 166.844 10.6713 175.462 20.6746 180.082C23.9867 181.615 27.4907 182.855 30.4059 185.043C38.086 190.811 39.8109 201.62 39.0461 211.163C38.2812 220.706 35.6764 230.259 37.126 239.719C38.8317 250.722 46.3806 260.659 56.5631 265.302C65.6352 269.436 76.989 269.178 85.0435 263.33C88.9699 260.468 91.9395 256.522 94.522 252.43C98.4198 246.255 101.582 239.652 103.946 232.752C105.069 229.473 106.125 225.947 108.746 223.667C110.346 222.264 112.42 221.479 114.471 220.868C120.654 219.03 127.166 218.525 133.406 216.89C139.646 215.256 145.924 212.209 149.316 206.762C154.116 199.032 151.876 189.145 151.899 180.05C151.937 159.33 164.414 140.778 169.019 120.585C170.523 113.984 171.083 106.679 167.723 100.793C165.438 96.7768 161.588 93.9149 157.54 91.6889C148.644 86.779 138.532 84.5944 128.583 82.467C114.756 79.516 97.9652 79.1344 87.2483 69.5882C76.9633 60.4299 62.8928 53.8983 48.867 53.8983Z" fill="#2D9CDB"/>
<g opacity="0.5">
<path opacity="0.5" d="M99.0246 134.1C99.0238 129.105 98.2367 124.142 96.6917 119.389L92.8517 107.556C92.8517 107.359 92.8517 107.165 92.8517 106.971C92.9701 99.3871 87.0212 95.6029 84.73 96.0131C82.3843 96.4329 75.8754 93.1893 75.8754 93.1893V93.2784C75.4292 92.7679 75.0267 92.2211 74.6722 91.6439C75.7968 90.83 76.7463 89.8009 77.465 88.6171C78.1836 87.4333 78.6568 86.1187 78.8569 84.7506C79.0569 83.3824 78.9797 81.9883 78.6299 80.6503C78.28 79.3122 77.6644 78.0571 76.8195 76.9588C77.523 76.4335 78.0595 75.7182 78.3651 74.8982C78.8963 73.4132 78.4899 71.7182 77.6259 70.3954C77.2585 69.8432 76.829 69.3343 76.3459 68.8785C75.614 68.158 74.8146 67.5085 73.9586 66.9388C71.8242 65.4696 69.4786 64.2072 66.9185 63.7588C66.4755 63.6549 66.0143 63.6549 65.5713 63.7588C65.1868 63.913 64.8208 64.1092 64.4801 64.3439C62.7265 65.3361 60.544 64.9068 58.5216 64.8018C56.4992 64.6969 54.0416 65.2597 53.4016 67.1455C53.2031 67.7274 53.2159 68.357 53.0815 68.9549C52.7615 70.4176 51.6255 71.5529 50.7487 72.7708C49.8719 73.9887 49.2159 75.6328 49.9455 76.9556C50.1951 77.4008 50.5855 77.8111 50.5855 78.3198C50.5855 78.6855 50.3679 79.0131 50.2655 79.3629C50.0447 80.1579 50.4607 80.9529 51.1007 81.5284C51.3765 81.8239 51.7012 82.0702 52.0607 82.2566C53.0751 82.7718 54.2432 82.9308 55.2768 83.4078C55.7927 83.6486 56.266 83.9707 56.6784 84.3618C57.1835 84.8872 57.5783 85.5073 57.8399 86.186C58.1014 86.8646 58.2243 87.5881 58.2016 88.3145L58.416 88.3367C58.416 88.4003 58.416 88.4607 58.416 88.5243C58.64 88.5498 58.8768 88.572 59.1104 88.5816C59.4465 89.1206 59.831 89.6283 60.2592 90.0984C60.1867 90.3698 60.1046 90.6454 60.0128 90.9252C59.2608 91.4435 53.1103 95.5139 46.115 94.5345C38.6493 93.4883 34.3805 125.924 34.3805 125.924C34.1038 127.779 33.969 129.652 33.9773 131.527C33.9453 136.297 34.9533 142.539 40.5694 141.62L43.555 140.644V156.687C43.555 156.687 43.9806 161.081 42.4894 164.001C40.9982 166.92 47.1839 165.883 47.1839 165.883C47.1839 165.883 47.4207 166.128 47.8559 166.545L47.7183 166.929L47.9007 167.114C47.0871 169.878 45.9902 172.551 44.627 175.092L44.803 175.181C44.691 175.395 44.627 175.499 44.627 175.499C44.627 175.499 46.9247 176.666 50.0863 178.171C52.6271 186.706 58.1888 206.472 56.3584 210.237L56.4096 210.345C56.752 211.051 58.6656 215.214 58.2784 219.027C57.9296 222.436 62.6785 237.925 64.4513 243.551L63.6129 243.719L66.5985 254.391L65.9585 261.298C65.9585 261.298 62.3329 270.924 70.8642 269.041C79.3955 267.159 77.0499 259.415 77.0499 259.415L77.2643 243.719C77.2643 243.719 76.4419 243.264 75.4274 242.829C74.7298 240.956 73.2098 236.529 73.2098 233.467C73.2098 229.492 70.4354 212.33 70.4354 212.33V212.295V212.228V212.209L70.4194 211.98V211.942C70.4194 211.729 70.3842 211.436 70.3586 211.08V211.061C70.0386 206.421 69.0786 190.658 69.7794 182.441C70.3957 182.024 71.0368 181.643 71.6994 181.303C73.7762 186.518 79.1299 200.608 78.7875 206.52C78.3619 213.834 78.6819 208.091 78.7875 207.156C78.8195 206.867 78.8419 207.216 78.8515 208.002C78.8515 208.145 78.8515 208.304 78.8515 208.472C78.8515 208.641 78.8515 208.829 78.8515 209.023C78.8515 209.217 78.8515 209.426 78.8515 209.659C78.8515 209.769 78.8515 209.881 78.8515 209.996C78.8515 210.225 78.8515 210.464 78.8515 210.714C78.8515 210.839 78.8515 210.967 78.8515 211.096C78.8515 211.732 78.8515 212.438 78.8291 213.172C78.8291 213.319 78.8291 213.467 78.8291 213.618C78.8291 214.066 78.8291 214.524 78.8067 214.988C78.8067 215.624 78.7811 216.241 78.7683 216.88C78.7363 218.311 78.6947 219.758 78.6435 221.113C78.6435 221.263 78.6381 221.413 78.6275 221.561C78.6168 221.858 78.6051 222.148 78.5923 222.432C78.5795 222.717 78.5667 222.994 78.5539 223.266C78.5411 223.535 78.5272 223.797 78.5123 224.051C78.4963 224.35 78.4771 224.636 78.4611 224.91L77.3027 224.744L77.0563 227.39C76.6681 231.591 77.2144 235.824 78.6563 239.792C79.0531 240.879 79.3603 241.779 79.4275 242.101C79.6419 243.147 79.4275 250.686 79.4275 250.686C79.4275 250.686 80.7075 260.522 86.682 258.636C89.37 257.787 90.6756 255.205 91.2997 252.617C91.992 249.616 91.7338 246.476 90.5604 243.627C89.7124 241.509 88.8452 238.539 89.4564 236.243C90.522 232.268 90.522 226.617 90.522 226.617L89.8628 226.525C90.0271 226.215 90.1756 225.896 90.3076 225.571C90.3076 225.571 90.0932 211.131 92.0133 209.248C93.0693 208.212 92.9733 205.722 92.6533 203.687C92.1961 200.741 92.0887 197.753 92.3333 194.783C92.4645 193.253 92.6533 191.921 92.8741 191.447C93.4373 190.34 94.0005 179.185 91.5077 173.817L92.0197 173.658L91.9397 173.264L92.0197 173.238C92.3957 174.236 92.8229 175.213 93.2997 176.167C93.4256 176.265 93.5705 176.337 93.7253 176.377C100.634 175.172 100.913 168.764 100.529 165.266C100.82 165.406 100.98 165.495 100.98 165.495L101.62 156.273C102.276 154.801 102.519 152.922 102.503 150.89C102.532 143.627 99.0246 134.1 99.0246 134.1ZM91.4085 160.312C90.9348 156.296 90.2788 152.515 90.2788 152.515L87.0788 141.213V137.098L92.1541 155.924L91.4085 160.312Z" fill="url(#paint0_linear)"/>
</g>
<path d="M77.021 222.044L76.7842 224.629C76.4106 228.737 76.9401 232.876 78.3363 236.761C78.7171 237.826 79.0147 238.703 79.0787 239.018C79.2835 240.042 79.0787 247.404 79.0787 247.404C79.0787 247.404 80.3139 257.017 86.0771 255.176C88.6692 254.349 89.9172 251.821 90.5316 249.293C91.1977 246.361 90.9476 243.297 89.8148 240.51C88.9956 238.44 88.1572 235.53 88.7492 233.294C89.7796 229.408 89.7796 223.888 89.7796 223.888L77.021 222.044Z" fill="#5A5773"/>
<path d="M70.8477 177.665C70.8477 177.665 78.8734 197.095 78.4606 204.25C78.0478 211.404 78.3582 205.782 78.4606 204.863C78.643 203.226 78.4606 222.671 77.843 224.897C77.843 224.897 86.2815 231.031 89.5743 222.852C89.5743 222.852 89.3695 208.743 91.2192 206.902C92.2368 205.89 92.1376 203.455 91.8368 201.467C91.3928 198.592 91.2854 195.676 91.5168 192.776C91.6416 191.282 91.8144 189.965 92.0384 189.517C92.656 188.289 93.2736 174.383 89.5679 170.497L70.8477 177.665Z" fill="#605D82"/>
<path opacity="0.1" d="M78.8741 224.906C79.4917 222.658 79.6741 203.225 79.4917 204.872C79.3893 205.791 79.0789 211.417 79.4917 204.259C79.9045 197.101 71.8788 177.674 71.8788 177.674L89.8342 170.812C89.751 170.707 89.6646 170.608 89.5782 170.516L70.8516 177.674C70.8516 177.674 78.8773 197.104 78.4645 204.259C78.0517 211.414 78.3621 205.791 78.4645 204.872C78.6469 203.235 78.4645 222.68 77.8468 224.906C77.8468 224.906 81.2165 227.355 84.5285 227.094C81.5813 226.875 78.8741 224.906 78.8741 224.906Z" fill="black"/>
<path d="M63.8477 240.653L66.7277 251.084L66.1101 257.832C66.1101 257.832 62.6124 267.238 70.8429 265.397C79.0734 263.556 76.811 255.99 76.811 255.99L77.0158 240.653C77.0158 240.653 73.723 238.812 72.283 239.019C70.8429 239.226 63.8477 240.653 63.8477 240.653Z" fill="#5A5773"/>
<path d="M49.6523 172.757C49.6523 172.757 59.1181 203.228 56.8556 207.931C56.8556 207.931 59.1181 212.431 58.7085 216.517C58.2988 220.603 65.2941 242.488 65.2941 242.488L75.5855 240.646C75.5855 240.646 73.115 234.512 73.115 230.626C73.115 226.74 70.4398 209.957 70.4398 209.957C70.4398 209.957 68.1774 179.28 70.8526 176.007L49.6523 172.757Z" fill="#605D82"/>
<g opacity="0.1">
<path opacity="0.1" d="M70.0541 178.501C68.3484 185.446 70.2333 211.004 70.2333 211.004C70.2333 211.004 72.9085 227.772 72.9085 231.673C72.9085 234.64 74.3453 238.914 75.027 240.771L75.5838 240.673C75.5838 240.673 73.1133 234.539 73.1133 230.653C73.1133 226.767 70.4381 209.983 70.4381 209.983C70.4381 209.983 68.7165 186.626 70.0541 178.501Z" fill="black"/>
<path opacity="0.1" d="M56.8555 207.932L56.907 208.037C56.9231 207.932 56.9392 207.82 56.9489 207.717C56.9215 207.79 56.8903 207.862 56.8555 207.932Z" fill="black"/>
<path opacity="0.1" d="M70.3854 177.012C70.4789 176.659 70.6361 176.326 70.8494 176.03L49.6523 172.757C49.6523 172.757 49.7771 173.155 49.9915 173.864L70.3854 177.012Z" fill="black"/>
</g>
<path d="M99.0408 161.714C99.0408 161.714 102.129 173.162 92.8679 174.803C92.7176 174.764 92.5771 174.695 92.4551 174.599C92.4551 174.599 87.1046 164.169 91.2199 160.08L99.0408 161.714Z" fill="#A1616A"/>
<path d="M61.1749 85.6467C61.1749 85.6467 61.7925 94.2326 55.002 98.3252C48.2115 102.418 69.4022 113.662 69.4022 113.662L80.516 96.0738C80.516 96.0738 75.7863 96.6812 72.9063 88.5087L61.1749 85.6467Z" fill="#A1616A"/>
<path opacity="0.1" d="M56.6464 98.9329C56.6464 98.9329 67.1425 120.611 76.6083 100.16L91.2197 172.142C91.2197 172.142 68.5794 179.097 68.3778 182.369C68.1762 185.641 45.5391 173.986 45.5391 173.986C45.5391 173.986 50.4767 164.987 49.2447 159.467C48.0127 153.946 56.6464 98.9329 56.6464 98.9329Z" fill="black"/>
<path d="M56.6464 98.5212C56.6464 98.5212 67.1425 120.199 76.6083 99.7486L91.2197 171.733C91.2197 171.733 68.5794 178.688 68.3778 181.96C68.1762 185.232 45.5391 173.575 45.5391 173.575C45.5391 173.575 50.4767 164.575 49.2447 159.055C48.0127 153.535 56.6464 98.5212 56.6464 98.5212Z" fill="#E1E7EF"/>
<path d="M66.9361 246.38C66.9361 246.38 64.2609 240.449 70.4338 240.449C76.6066 240.449 75.5794 245.766 75.5794 245.766L66.9361 246.38Z" fill="#5A5773"/>
<path d="M80.9294 231.04C80.9294 231.04 78.459 224.699 84.635 224.495C90.8111 224.292 87.7231 230.219 87.7231 230.219L80.9294 231.04Z" fill="#5A5773"/>
<path opacity="0.1" d="M75.6836 93.9137C75.6836 93.9137 81.9589 97.0937 84.2245 96.6739C86.4901 96.2541 92.455 100.15 92.0454 107.921L95.7638 119.516C97.2513 124.164 98.0069 129.014 98.0039 133.892C98.0039 133.892 103.354 148.615 100.474 155.16L99.8567 164.159C99.8567 164.159 95.1238 161.501 90.183 162.318L91.4278 154.969L85.8597 134.105L76.5988 111.814L75.6836 93.9137Z" fill="black"/>
<path d="M75.6836 93.5098C75.6836 93.5098 81.9589 96.6897 84.2245 96.27C86.4901 95.8502 92.455 99.7457 92.0454 107.517L95.7638 119.112C97.2513 123.761 98.0069 128.61 98.0039 133.488C98.0039 133.488 103.354 148.211 100.474 154.756L99.8567 163.755C99.8567 163.755 95.1238 161.097 90.183 161.914L91.4182 154.552L85.8597 133.695L76.6084 111.403L75.6836 93.5098Z" fill="#67647E"/>
<path opacity="0.1" d="M86.0773 118.359V141.468L89.1654 152.512C89.1654 152.512 91.223 164.576 90.6054 168.259C89.9878 171.941 80.1093 172.758 77.434 169.69C74.7588 166.621 76.1988 140.434 76.1988 140.434L75.6836 102.1L76.0964 100.872L86.0773 118.359Z" fill="black"/>
<path d="M86.4992 117.337V140.446L89.5872 151.49C89.5872 151.49 91.6449 163.555 91.0273 167.237C90.4096 170.92 80.5311 171.737 77.8559 168.668C75.1807 165.599 76.6207 139.413 76.6207 139.413L76.1055 101.069L86.4992 117.337Z" fill="#67647E"/>
<path opacity="0.1" d="M45.0195 136.561L51.6052 156.913L48.5172 165.604C48.5172 165.604 63.1286 180.94 72.3895 173.579C72.3895 173.579 73.4199 142.288 71.3591 134.926C69.2982 127.565 59.4229 102.809 59.4229 102.809L57.3781 96.2741L46.4724 102.408L45.0195 136.561Z" fill="black"/>
<path d="M44.5054 135.536V155.57C44.5054 155.57 44.9182 159.866 43.475 162.728C42.0318 165.59 48.0031 164.569 48.0031 164.569C48.0031 164.569 62.6145 179.906 71.8754 172.545C71.8754 172.545 72.9058 141.254 70.845 133.892C68.7842 126.531 58.9088 101.775 58.9088 101.775L56.8512 95.2303L45.9454 101.364L44.5054 135.536Z" fill="#67647E"/>
<path opacity="0.1" d="M60.4538 91.6723C60.4538 91.6723 54.1786 96.2737 46.9753 95.2498C39.772 94.2258 35.6567 125.927 35.6567 125.927C35.6567 125.927 32.9815 142.288 41.6248 140.857L60.7642 134.516C60.7642 134.516 56.649 130.22 57.2666 124.699L48.0025 128.379L48.4185 110.793L60.4538 91.6723Z" fill="black"/>
<path opacity="0.1" d="M36.0669 125.516C36.0669 125.516 33.3916 141.877 42.0349 140.446L61.1744 134.105C61.1744 134.105 57.0591 129.812 57.6767 124.289L48.419 127.971L36.0669 125.516Z" fill="black"/>
<path d="M57.2227 126.446C57.2227 126.446 63.6451 118.054 68.3748 122.083C73.1045 126.112 58.9187 133.496 58.9187 133.496L57.2227 126.446Z" fill="#A1616A"/>
<path d="M60.4538 91.2627C60.4538 91.2627 54.1786 95.8641 46.9753 94.8401C39.772 93.8162 35.6567 125.517 35.6567 125.517C35.6567 125.517 32.9815 141.878 41.6248 140.447L60.7642 134.106C60.7642 134.106 56.649 129.81 57.2666 124.29L48.0025 127.972L48.4185 110.384L58.9146 101.798L60.4538 91.2627Z" fill="#67647E"/>
<path opacity="0.1" d="M73.1111 88.9091L61.3797 86.0472C61.3797 86.0472 61.991 86.7341 61.2773 89.4211C63.1654 91.5739 65.4854 94.4327 68.583 94.4327C70.7998 94.4369 72.958 93.7261 74.7335 92.4071C74.071 91.3008 73.5272 90.1284 73.1111 88.9091Z" fill="black"/>
<path d="M68.3773 94.0246C74.061 94.0246 78.6686 89.4459 78.6686 83.7979C78.6686 78.1498 74.061 73.5711 68.3773 73.5711C62.6935 73.5711 58.0859 78.1498 58.0859 83.7979C58.0859 89.4459 62.6935 94.0246 68.3773 94.0246Z" fill="#A1616A"/>
<path opacity="0.1" d="M72.2782 79.3597C74.6654 78.9559 77.2895 77.9033 78.0895 75.6328C78.6015 74.1796 78.2111 72.526 77.3759 71.2318C76.5407 69.9375 75.3119 68.9422 74.0446 68.0518C71.987 66.6144 69.7182 65.3806 67.2414 64.9482C66.8143 64.8467 66.3692 64.8467 65.9421 64.9482C65.5708 65.0992 65.2176 65.2912 64.8893 65.5205C63.1965 66.4904 61.0909 66.0707 59.1293 65.9689C57.1676 65.8672 54.8156 66.4173 54.198 68.2585C54.006 68.8277 54.0188 69.4414 53.878 70.0265C53.558 71.4575 52.4732 72.5705 51.638 73.763C50.8027 74.9555 50.1595 76.5677 50.8636 77.8524C51.1036 78.2881 51.5036 78.6888 51.5036 79.1848C51.4418 79.5374 51.3342 79.8805 51.1836 80.2056C50.8924 81.2613 51.7404 82.3266 52.7196 82.8291C53.6988 83.3315 54.8252 83.4873 55.8236 83.9548C56.7581 84.413 57.5405 85.1283 58.0777 86.0156C58.6149 86.903 58.8844 87.9249 58.854 88.96C59.7629 89.065 60.8221 89.119 61.4365 88.4449C61.7117 88.1428 61.8461 87.7389 62.0957 87.4178C62.4157 86.998 62.9149 86.75 63.3245 86.4129C65.4781 84.6544 63.9485 82.2249 65.1677 80.3296C65.8077 79.3534 66.8253 79.6523 67.8558 79.6682C69.3364 79.7026 70.817 79.5993 72.2782 79.3597Z" fill="black"/>
<path d="M72.0751 79.156C74.4623 78.7521 77.0864 77.6995 77.8864 75.429C78.3984 73.9758 78.008 72.3222 77.1728 71.028C76.3376 69.7337 75.1087 68.7384 73.8415 67.848C71.7839 66.4107 69.5151 65.1768 67.0382 64.7444C66.6112 64.6429 66.1661 64.6429 65.739 64.7444C65.3676 64.8954 65.0145 65.0874 64.6862 65.3168C62.9934 66.2867 60.8878 65.8669 58.9261 65.7651C56.9645 65.6634 54.6125 66.2135 53.9949 68.0547C53.8029 68.6239 53.8157 69.2377 53.6749 69.8228C53.3549 71.2538 52.27 72.3667 51.4348 73.5592C50.5996 74.7517 49.9564 76.364 50.6604 77.6487C50.9004 78.0843 51.3004 78.485 51.3004 78.9811C51.2387 79.3336 51.1311 79.6768 50.9804 80.0018C50.6892 81.0576 51.5372 82.1229 52.5164 82.6253C53.4957 83.1277 54.6221 83.2835 55.6205 83.751C56.5588 84.2088 57.3445 84.9255 57.8837 85.8154C58.4228 86.7053 58.6925 87.7307 58.6605 88.769C59.5693 88.8739 60.6286 88.928 61.243 88.2538C61.5182 87.9517 61.6526 87.5479 61.9022 87.2267C62.2222 86.8069 62.7214 86.5589 63.131 86.2218C65.2846 84.4633 63.755 82.0338 64.9742 80.1386C65.6142 79.1623 66.6318 79.4612 67.6622 79.4771C69.1401 79.5068 70.6174 79.3992 72.0751 79.156Z" fill="#4A4347"/>
<path opacity="0.1" d="M84.5312 113.554C84.5312 113.554 86.7937 125.212 85.7665 129.711C85.1389 132.329 85.2317 135.066 86.0353 137.636" fill="black"/>
<path opacity="0.1" d="M47.9575 118.46C47.9575 118.46 46.9719 126.231 48.6135 127.866L47.9575 118.46Z" fill="black"/>
<path d="M105.421 214.238C105.549 214.238 105.671 214.187 105.761 214.098C105.851 214.008 105.901 213.887 105.901 213.761C105.901 213.634 105.851 213.513 105.761 213.423C105.671 213.334 105.549 213.284 105.421 213.284C105.294 213.284 105.172 213.334 105.082 213.423C104.992 213.513 104.941 213.634 104.941 213.761C104.941 213.887 104.992 214.008 105.082 214.098C105.172 214.187 105.294 214.238 105.421 214.238Z" fill="black"/>
<g opacity="0.5">
<path opacity="0.5" d="M253.223 158.667V158.403L165.913 91.6872C165.858 91.6466 165.791 91.6248 165.722 91.6248C165.654 91.6248 165.587 91.6466 165.532 91.6872L78.2188 158.403V261.815H78.3852V261.98H253.392V158.568L253.223 158.667Z" fill="url(#paint1_linear)"/>
</g>
<path d="M250.208 258.932H81.2461V159.081L165.727 94.5276L250.208 159.081V258.932Z" fill="white"/>
<path d="M244.126 253.013H87.3242V160.349L165.725 100.442L244.126 160.349V253.013Z" fill="#E0E0E0"/>
<path d="M192.325 99.0586L96.6758 123.976L128.568 244.864L224.217 219.946L192.325 99.0586Z" fill="#2D9CDB"/>
<path d="M215.647 117.423H116.766V242.396H215.647V117.423Z" fill="#F5F5F5"/>
<path opacity="0.05" d="M82.043 159.24L166.524 209.165L82.043 259.09V159.24Z" fill="black"/>
<path d="M81.4062 159.24L165.887 209.165L81.4062 259.09V159.24Z" fill="white"/>
<path opacity="0.05" d="M249.727 159.24L165.246 209.165L249.727 259.09V159.24Z" fill="black"/>
<path d="M250.368 159.24L165.887 209.165L250.368 259.09V159.24Z" fill="white"/>
<path opacity="0.05" d="M81.4062 257.5L165.887 191.993L250.368 257.5H81.4062Z" fill="black"/>
<path d="M81.4062 259.092L165.887 193.584L250.368 259.092H81.4062Z" fill="white"/>
<path d="M98.5726 266.675C98.5726 266.675 94.3294 252.365 99.3694 241.827C101.511 237.422 102.157 232.445 101.209 227.644C100.742 225.369 100.066 223.141 99.1902 220.989" stroke="#535461" stroke-width="2" stroke-miterlimit="10"/>
<path d="M102.322 214.329C102.322 216.085 99.1219 221.17 99.1219 221.17C99.1219 221.17 95.9219 216.082 95.9219 214.329C95.9219 213.486 96.259 212.677 96.8591 212.081C97.4593 211.485 98.2732 211.15 99.1219 211.15C99.9706 211.15 100.785 211.485 101.385 212.081C101.985 212.677 102.322 213.486 102.322 214.329Z" fill="#2D9CDB"/>
<path d="M107.617 224.048C106.657 225.521 101.191 228.065 101.191 228.065C101.191 228.065 101.291 222.067 102.251 220.595C102.729 219.929 103.448 219.472 104.257 219.319C105.066 219.166 105.903 219.329 106.594 219.774C107.285 220.219 107.777 220.911 107.968 221.707C108.158 222.504 108.033 223.342 107.617 224.048Z" fill="#2D9CDB"/>
<path d="M107.376 240.65C105.799 241.438 99.7891 240.894 99.7891 240.894C99.7891 240.894 102.922 235.768 104.496 234.98C104.873 234.77 105.289 234.639 105.718 234.593C106.147 234.547 106.582 234.588 106.994 234.714C107.407 234.839 107.79 235.047 108.121 235.323C108.451 235.599 108.721 235.939 108.916 236.323C109.11 236.706 109.225 237.124 109.252 237.552C109.28 237.98 109.22 238.41 109.076 238.814C108.932 239.219 108.707 239.59 108.415 239.906C108.123 240.222 107.77 240.476 107.376 240.653V240.65Z" fill="#2D9CDB"/>
<path d="M104.355 253.177C102.934 254.22 96.918 254.69 96.918 254.69C96.918 254.69 99.1324 249.113 100.553 248.07C101.237 247.617 102.07 247.442 102.879 247.582C103.689 247.723 104.413 248.167 104.902 248.824C105.391 249.481 105.606 250.299 105.505 251.109C105.403 251.919 104.991 252.66 104.355 253.177Z" fill="#2D9CDB"/>
<path d="M94.4703 228.4C95.7504 229.621 101.635 230.89 101.635 230.89C101.635 230.89 100.192 225.067 98.9248 223.846C98.3084 223.305 97.5059 223.02 96.6838 223.051C95.8618 223.082 95.0833 223.427 94.5101 224.013C93.9369 224.6 93.613 225.383 93.6056 226.2C93.5982 227.018 93.9079 227.807 94.4703 228.403V228.4Z" fill="#2D9CDB"/>
<path d="M91.122 243.096C92.6996 243.884 98.7093 243.341 98.7093 243.341C98.7093 243.341 95.5765 238.215 94.002 237.426C93.2502 237.088 92.3963 237.052 91.6185 237.325C90.8406 237.599 90.1989 238.16 89.8274 238.891C89.4558 239.623 89.383 240.47 89.6242 241.254C89.8655 242.038 90.402 242.699 91.122 243.099V243.096Z" fill="#2D9CDB"/>
<path d="M89.842 257.818C91.2629 258.861 97.279 259.331 97.279 259.331C97.279 259.331 95.0645 253.754 93.6437 252.711C93.3083 252.438 92.9206 252.236 92.5042 252.117C92.0879 251.998 91.6515 251.964 91.2215 252.017C90.7915 252.07 90.3769 252.21 90.0029 252.427C89.6288 252.645 89.303 252.935 89.0454 253.281C88.7877 253.628 88.6034 254.022 88.5037 254.441C88.4041 254.86 88.3911 255.295 88.4656 255.719C88.5401 256.143 88.7005 256.548 88.9371 256.909C89.1737 257.27 89.4816 257.579 89.842 257.818Z" fill="#2D9CDB"/>
<path opacity="0.5" d="M162.204 123.147H122.523V126.327H162.204V123.147Z" fill="#2D9CDB"/>
<path opacity="0.5" d="M208.285 135.867H122.523V139.047H208.285V135.867Z" fill="#2D9CDB"/>
<path opacity="0.5" d="M208.285 144.135H122.523V147.315H208.285V144.135Z" fill="#2D9CDB"/>
<path opacity="0.4" d="M208.285 152.404H122.523V155.584H208.285V152.404Z" fill="#2D9CDB"/>
<path opacity="0.4" d="M208.285 160.671H122.523V163.851H208.285V160.671Z" fill="#2D9CDB"/>
<path opacity="0.3" d="M171.484 168.938H122.523V172.118H171.484V168.938Z" fill="#2D9CDB"/>
<path opacity="0.3" d="M189.404 177.207H122.523V180.387H189.404V177.207Z" fill="#2D9CDB"/>
</g>
<defs>
<linearGradient id="paint0_linear" x1="33.9805" y1="166.5" x2="102.468" y2="166.5" gradientUnits="userSpaceOnUse">
<stop stop-color="#808080" stop-opacity="0.25"/>
<stop offset="0.54" stop-color="#808080" stop-opacity="0.12"/>
<stop offset="1" stop-color="#808080" stop-opacity="0.1"/>
</linearGradient>
<linearGradient id="paint1_linear" x1="111634" y1="126249" x2="111634" y2="34980.5" gradientUnits="userSpaceOnUse">
<stop stop-color="#808080" stop-opacity="0.25"/>
<stop offset="0.54" stop-color="#808080" stop-opacity="0.12"/>
<stop offset="1" stop-color="#808080" stop-opacity="0.1"/>
</linearGradient>
<clipPath id="clip0">
<rect width="307.274" height="231.453" fill="white" transform="translate(0.417969 53.8719)"/>
</clipPath>
</defs>
</svg>
