<svg width="9" height="14" viewBox="0 0 9 14" fill="none" xmlns="http://www.w3.org/2000/svg">
<path d="M8.10059 4.375C8.34668 4.375 8.53809 4.48438 8.6748 4.70312C8.78418 4.92188 8.78418 5.14062 8.6748 5.35938L3.8623 13.6719C3.72559 13.8906 3.53418 14 3.28809 14C3.06934 14 2.87793 13.918 2.76855 13.7539C2.63184 13.5898 2.60449 13.3984 2.65918 13.1797L3.91699 7.875H0.663086C0.444336 7.875 0.280273 7.82031 0.170898 7.65625C0.0341797 7.51953 -0.0205078 7.35547 0.00683594 7.13672L0.881836 0.574219C0.881836 0.410156 0.963867 0.273438 1.10059 0.164062C1.20996 0.0546875 1.37402 0 1.53809 0H5.25684C5.47559 0 5.63965 0.109375 5.77637 0.273438C5.88574 0.4375 5.94043 0.628906 5.88574 0.820312L4.95605 4.375H8.10059Z" fill="#2D9CDB"/>
</svg>
