<svg width="436" height="282" viewBox="0 0 436 282" fill="none" xmlns="http://www.w3.org/2000/svg">
    <g clip-path="url(#clip0)">
        <path d="M436 278.812H0V282H436V278.812Z" fill="#85848B"/>
        <path d="M345.423 222.533C345.423 224.985 331.137 232.132 314.168 232.132C297.199 232.132 283.977 224.985 283.977 222.533C283.977 220.081 297.731 220.87 314.717 220.87C331.702 220.87 345.423 220.077 345.423 222.533Z" fill="#504F60"/>
        <path opacity="0.2" d="M345.423 222.532C345.423 224.984 331.137 232.132 314.168 232.132C297.199 232.132 283.977 224.984 283.977 222.532" fill="black"/>
        <path d="M174.532 177.543C177.286 177.896 180.144 178.12 182.781 177.264C183.197 177.136 183.654 176.849 183.612 176.433C183.583 176.282 183.519 176.14 183.425 176.018C182.431 174.526 181.596 172.934 180.933 171.268C180.907 171.181 180.853 171.105 180.779 171.052C180.693 171.021 180.599 171.021 180.513 171.052C179.296 171.372 178.245 172.157 177.036 172.494C176.42 172.663 175.777 172.711 175.142 172.635C174.594 172.573 173.846 172.12 173.348 172.178C173.63 173.994 174.32 175.689 174.532 177.543Z" fill="#2D9CDB"/>
        <path d="M226.618 172.943C228.433 171.696 230.315 170.387 231.387 168.463C231.463 168.348 231.508 168.214 231.516 168.076C231.497 167.941 231.444 167.812 231.362 167.702C230.341 166.079 229.027 164.66 227.486 163.518C226.682 164.086 225.956 164.756 225.326 165.512C224.869 165.994 223.606 166.759 223.594 167.495C223.594 167.91 224.076 168.392 224.3 168.741C224.603 169.19 224.89 169.647 225.164 170.113C225.322 170.341 226.763 172.851 226.618 172.943Z" fill="#2D9CDB"/>
        <path d="M185.33 183.108C185.362 183.536 185.245 183.962 184.997 184.313C184.804 184.508 184.563 184.651 184.3 184.728C180.449 186.108 175.991 184.388 172.149 185.746C171.36 186.025 170.612 186.428 169.819 186.694C168.873 186.978 167.897 187.151 166.911 187.209C165.552 187.338 164.186 187.421 162.823 187.459C161.788 187.532 160.748 187.441 159.741 187.189C159.237 187.06 158.767 186.826 158.36 186.503C157.952 186.18 157.618 185.775 157.377 185.314C157.168 184.901 157.127 184.423 157.261 183.98C157.321 183.828 157.407 183.688 157.514 183.565C157.775 183.273 158.08 183.024 158.42 182.829L159.836 181.915C160.501 181.445 161.222 181.062 161.984 180.776C162.545 180.593 163.139 180.514 163.708 180.361C165.698 179.779 167.218 178.2 168.631 176.683L170.558 174.626C170.738 174.4 170.967 174.216 171.227 174.09C171.494 174.001 171.778 173.974 172.058 174.011C173.93 174.145 175.738 174.751 177.312 175.773C177.715 176.075 178.15 176.331 178.609 176.537C179.738 176.978 181.188 176.646 182.231 176.089C182.725 175.823 182.617 175.673 182.825 175.199C183.033 174.726 183.539 174.422 183.98 174.854C184.113 175.004 184.207 175.184 184.254 175.378C184.669 176.749 184.511 178.225 184.511 179.663C184.499 179.887 184.527 180.113 184.595 180.327C184.701 180.544 184.827 180.75 184.973 180.943C185.002 180.993 185.029 181.046 185.051 181.1C185.306 181.737 185.401 182.426 185.33 183.108Z" fill="#514E7F"/>
        <path d="M185.33 183.107C185.362 183.535 185.245 183.961 184.997 184.312C184.804 184.507 184.563 184.65 184.3 184.728C180.449 186.108 175.991 184.387 172.149 185.746C171.36 186.024 170.612 186.427 169.819 186.693C168.873 186.978 167.897 187.151 166.911 187.209C165.552 187.338 164.186 187.421 162.823 187.458C161.788 187.531 160.748 187.44 159.741 187.188C159.237 187.059 158.767 186.826 158.36 186.503C157.952 186.18 157.618 185.775 157.377 185.314C157.168 184.901 157.127 184.423 157.261 183.98C157.321 183.828 157.407 183.687 157.514 183.564C157.739 184.034 157.901 184.657 158.042 184.882C158.233 185.214 158.492 185.502 158.803 185.726C159.114 185.951 159.469 186.106 159.845 186.182C160.407 186.217 160.971 186.145 161.506 185.97C164.996 185.106 168.705 185.094 172.058 183.784C173.208 183.331 174.305 182.729 175.514 182.455C176.723 182.18 178.006 182.255 179.252 182.151C181.221 181.993 183.128 181.399 185.068 181.087C185.319 181.729 185.408 182.423 185.33 183.107Z" fill="#464353"/>
        <path d="M235.437 172.689C235.254 174.152 234.328 175.411 233.31 176.479C232.293 177.547 231.142 178.507 230.332 179.737C229.335 181.262 228.886 183.153 227.59 184.441C227.093 184.91 226.534 185.308 225.929 185.626C225.251 186.026 224.534 186.356 223.789 186.611C221.853 187.23 219.768 187.089 217.745 186.939C217.088 186.933 216.438 186.807 215.826 186.569C215.547 186.427 215.28 186.263 215.028 186.079C214.521 185.766 214.094 185.339 213.782 184.832C213.629 184.556 213.586 184.232 213.662 183.926C213.777 183.589 213.976 183.286 214.239 183.045C214.694 182.571 215.183 182.131 215.701 181.728C216.412 181.269 217.053 180.709 217.604 180.065C217.942 179.557 218.19 178.995 218.339 178.403C218.633 177.366 218.813 176.3 218.875 175.224C218.873 174.509 218.946 173.796 219.095 173.096C219.403 171.999 220.217 171.019 220.125 169.884C220.088 169.722 220.103 169.552 220.167 169.398C220.264 169.278 220.398 169.194 220.549 169.161C221.184 168.908 221.853 168.752 222.535 168.7C222.876 168.676 223.219 168.729 223.538 168.854C223.857 168.979 224.144 169.173 224.379 169.423C224.662 169.764 224.848 170.254 225.264 170.387C225.47 170.443 225.686 170.452 225.895 170.412C226.917 170.308 227.997 170.179 228.803 169.518C229.176 169.184 229.475 168.776 229.682 168.321C229.89 167.865 230 167.372 230.008 166.871C230.008 166.493 229.837 166.098 230.423 166.04C230.864 165.982 231.212 166.456 231.437 166.746C232.247 167.831 233.078 168.966 233.381 170.287C233.499 170.241 233.624 170.217 233.751 170.216C234.01 170.214 234.266 170.275 234.496 170.393C234.727 170.51 234.926 170.682 235.076 170.894C235.407 171.43 235.535 172.067 235.437 172.689Z" fill="#514E7F"/>
        <path d="M235.44 172.689C235.257 174.152 234.331 175.411 233.313 176.479C232.295 177.547 231.145 178.507 230.335 179.737C229.338 181.262 228.889 183.153 227.593 184.442C227.096 184.91 226.537 185.308 225.932 185.626C225.254 186.026 224.537 186.356 223.792 186.611C221.856 187.23 219.771 187.089 217.748 186.939C217.091 186.933 216.441 186.807 215.829 186.569C215.55 186.428 215.284 186.264 215.031 186.079C214.524 185.766 214.097 185.339 213.785 184.832C214.175 184.645 214.599 184.543 215.031 184.533C215.929 184.583 216.585 185.431 217.445 185.692C218.67 186.062 219.892 185.198 221.134 184.903C221.944 184.712 222.795 184.761 223.597 184.487C224.265 184.229 224.882 183.855 225.421 183.382C226.158 182.854 226.815 182.221 227.369 181.503C227.829 180.785 228.212 180.021 228.511 179.222C229.167 177.691 229.939 176.213 230.821 174.8C230.951 174.577 231.109 174.37 231.29 174.185C231.485 174.007 231.706 173.882 231.926 173.724C232.757 173.097 233.101 172.062 233.392 171.048C233.471 170.74 233.581 170.44 233.72 170.154C233.979 170.152 234.235 170.212 234.466 170.33C234.697 170.448 234.896 170.62 235.045 170.832C235.403 171.38 235.544 172.043 235.44 172.689Z" fill="#464353"/>
        <path d="M148.331 43.1234C149.365 43.8985 150.216 44.8916 150.824 46.0324C151.405 47.171 154.758 56.006 154.562 57.2901C155.655 56.1889 159.963 56.0102 161.068 54.9089C161.529 54.4476 164.017 52.1454 164.391 51.6093C164.765 51.0732 167.54 49.947 167.843 49.3819C168.977 47.3497 159.801 39.6493 160.976 37.6421C161.041 37.5499 161.075 37.4391 161.072 37.3262C161.045 37.2315 160.992 37.1464 160.918 37.0811C160.166 36.3123 159.169 35.8344 158.264 35.265C157.358 34.6957 156.486 33.902 156.241 32.8547C155.377 33.2524 154.584 33.7886 153.893 34.4422C152.21 35.8856 150.555 37.3581 148.929 38.8597C148.294 39.4498 147.064 40.2352 146.769 41.0788C146.42 41.9848 147.725 42.6289 148.331 43.1234Z" fill="#A1616A"/>
        <path d="M163.186 39.853C161.778 40.7995 160.462 41.8764 159.256 43.0695C158.118 44.1957 157.038 45.5006 156.764 47.0756C156.648 47.6948 156.664 48.3223 156.569 48.9498C156.153 51.6718 153.802 53.6665 152.764 56.2139C152.463 57.0002 152.241 57.8146 152.103 58.645C151.811 60.2191 151.651 61.8149 151.625 63.4157C151.6 64.9658 153.121 66.0338 153.677 67.48C154.234 68.9261 154.384 70.4139 154.666 71.8974C155.198 74.6984 156.174 77.3996 157.158 80.0841C159.206 85.7442 165.845 101.39 167.893 107.054C174.169 105.479 190.877 101.86 196.435 98.5395C198.288 97.4341 183.578 84.9629 185.56 84.1027C185.673 84.085 185.781 84.0413 185.874 83.9749C185.967 83.9085 186.044 83.8213 186.098 83.7201C186.152 83.619 186.182 83.5066 186.185 83.392C186.188 83.2774 186.165 83.1636 186.116 83.0596C184.135 74.3909 177.937 67.268 175.125 58.8278C174.149 55.8981 172.396 53.3964 171.066 50.6121C169.862 48.0896 169.218 45.3011 167.776 42.9033C167.504 42.4093 167.149 41.9663 166.725 41.5943C166.366 41.3185 165.977 41.083 165.566 40.8919C164.744 40.493 163.979 40.2561 163.186 39.853Z" fill="#514E7F"/>
        <path d="M148.664 42.1385C154.09 42.1385 158.488 37.7383 158.488 32.3103C158.488 26.8824 154.09 22.4822 148.664 22.4822C143.238 22.4822 138.84 26.8824 138.84 32.3103C138.84 37.7383 143.238 42.1385 148.664 42.1385Z" fill="#A1616A"/>
        <path d="M158.66 36.9275C159.15 36.4757 159.765 36.183 160.424 36.0881C161.083 35.9931 161.756 36.1003 162.353 36.3956C163.018 36.7405 163.599 37.4386 163.45 38.17L168.322 38.2448C169.098 38.2236 169.873 38.2948 170.632 38.4568C171.396 38.6231 172.077 39.0508 172.56 39.6661C172.618 39.745 172.684 39.8406 172.784 39.8531C172.865 39.8544 172.944 39.828 173.008 39.7783C173.758 39.4022 174.602 39.2576 175.434 39.3627C178.068 39.5331 180.502 40.8505 182.567 42.4961C182.939 42.7521 183.228 43.112 183.397 43.5309C183.568 44.0836 183.364 44.7776 183.813 45.1724C183.813 49.7436 185.383 54.0156 186.43 58.4705C186.617 59.2643 187.377 59.9666 187.905 60.5899C188.556 61.281 189.089 62.0759 189.479 62.942C190.368 65.2526 189.143 67.9704 190.007 70.2893C190.372 71.27 191.078 72.0762 191.668 72.9281C192.446 73.9118 192.937 75.0909 193.089 76.3358C193.126 76.8926 193.056 77.4537 193.089 77.998C193.145 78.7468 193.284 79.487 193.504 80.2047C193.859 81.5456 194.23 82.8851 194.618 84.2232C195.249 86.3842 196.071 88.7155 198.007 89.8666C193.334 90.6604 188.407 91.4375 183.954 89.8126C183.333 89.6007 182.743 89.3057 182.201 88.9358C180.594 87.7888 179.817 85.8273 179.123 83.9739C178.35 81.8961 177.565 79.7808 177.407 77.57C177.409 76.8669 177.31 76.1671 177.112 75.4922C176.66 74.287 175.451 73.5598 174.354 72.8907C173.116 72.2119 171.994 71.3392 171.031 70.3059C170.553 69.7854 170.187 69.1724 169.956 68.5048C169.724 67.8372 169.632 67.1291 169.685 66.4245C169.768 65.7388 170.038 65.0781 170.063 64.3882C170.088 63.6984 169.781 62.9088 169.12 62.7259C165.718 61.6953 164.094 57.6643 163.338 54.1902C163.011 52.3946 162.865 50.5709 162.901 48.7462L162.856 45.2015C162.386 44.7741 162.009 44.2557 161.746 43.6778C161.483 43.0998 161.341 42.4743 161.327 41.8395C161.372 41.4691 161.365 41.0942 161.306 40.7258C161.142 40.2754 160.874 39.8698 160.525 39.5414C159.774 38.7702 159.145 37.8887 158.66 36.9275Z" fill="#464353"/>
        <path d="M148.196 48.1644C148.084 49.2615 148.333 50.3877 148.088 51.464C147.992 51.8796 147.826 52.2952 147.706 52.6816C147.337 54.2308 147.497 55.8587 148.158 57.3069C148.819 58.7409 149.61 60.1112 150.522 61.4003C150.83 61.8403 151.084 62.3162 151.278 62.8173C151.435 63.3436 151.533 63.8859 151.569 64.4339C151.809 66.6346 152.195 68.8169 152.724 70.9666C153.189 72.8284 158.473 88.7446 159.702 90.2199C159.926 90.5465 160.264 90.7766 160.65 90.864C160.928 90.8745 161.204 90.8174 161.455 90.6978L163.948 89.742C164.16 89.6771 164.356 89.5696 164.525 89.4261C164.759 89.1531 164.886 88.8047 164.883 88.4454C165.061 86.4174 159.765 70.389 159.092 68.4732C157.056 62.6885 154.348 57.1116 153.023 51.1233C152.653 49.461 152.458 46.9011 151.241 45.5754C150.738 45.0269 150.908 45.2596 150.306 45.5464C150.002 45.6785 149.707 45.8327 149.425 46.0076C149.073 46.2528 148.779 46.5737 148.567 46.9469C148.354 47.32 148.227 47.736 148.196 48.1644Z" fill="#464353"/>
        <path d="M155.761 59.1393C156.43 62.6758 157.119 66.204 157.805 69.7404L167.559 67.1847C167.637 66.1624 167.093 65.2149 166.728 64.2757C165.839 62.0441 165.818 59.559 165.099 57.2651C164.555 55.5197 163.608 53.9156 163.097 52.1578C162.802 51.1355 162.653 50.0799 162.362 49.0452C162.05 48.029 161.667 47.0361 161.215 46.0739C160.668 44.6783 159.954 43.3542 159.088 42.1301C157.842 42.5956 156.513 43.1358 155.803 44.262C155.438 44.8966 155.23 45.6088 155.196 46.3398C155.026 48.5299 155.819 50.7324 155.557 52.91C155.288 54.9837 155.357 57.0876 155.761 59.1393Z" fill="#2D9CDB"/>
        <path d="M167.721 106.182C168.269 108.26 167.476 110.446 166.827 112.503C165.852 115.601 165.187 118.789 164.842 122.019C164.8 122.841 164.634 123.652 164.352 124.425C164.044 125.119 163.521 125.705 163.164 126.366C162.183 128.103 162.208 130.222 162.42 132.209C162.561 133.518 162.773 134.823 163.035 136.111C163.355 137.686 163.749 139.332 163.288 140.869C164.061 140.699 164.584 141.7 164.534 142.486C164.485 143.271 164.231 144.148 164.609 144.825C165.565 145.175 165.573 146.488 165.544 147.506C165.56 149.271 165.783 151.029 166.209 152.742C167.654 159.696 169.188 166.63 170.811 173.545C174.321 174.634 178.421 175.769 181.77 174.26C182.393 173.982 183.016 173.537 183.157 172.864C183.194 172.501 183.148 172.135 183.024 171.792L181.437 166.015C181.051 164.619 180.665 163.177 180.868 161.743C181.022 160.675 181.487 159.524 180.964 158.581C180.785 158.257 180.503 158.003 180.295 157.696C179.464 156.478 179.9 154.849 179.967 153.374C179.993 153.043 179.97 152.709 179.9 152.385C179.786 152.005 179.627 151.641 179.427 151.3C178.115 148.753 177.486 145.91 177.599 143.047C177.649 142.682 177.598 142.31 177.454 141.971C177.353 141.831 177.262 141.683 177.183 141.53C177.122 141.263 177.152 140.983 177.271 140.736C176.795 140.375 176.365 139.956 175.991 139.49C176.222 139.346 176.417 139.153 176.561 138.923C176.706 138.693 176.796 138.434 176.826 138.164C176.855 137.894 176.823 137.621 176.732 137.366C176.641 137.11 176.493 136.879 176.299 136.689C176.468 136.655 176.625 136.574 176.751 136.456C176.878 136.338 176.969 136.188 177.015 136.021C177.061 135.855 177.06 135.678 177.012 135.512C176.964 135.346 176.871 135.197 176.743 135.08C176.54 134.939 176.27 134.877 176.124 134.665C175.9 134.357 176.083 133.929 176.265 133.601L177.233 131.851C177.956 130.551 178.118 128.942 178.895 127.696C180.008 125.88 180.735 123.856 181.454 121.853L184.25 114.136L186.131 115.769C186.758 116.248 187.283 116.847 187.677 117.531C187.944 118.207 188.113 118.918 188.179 119.642C188.869 123.831 191.502 127.463 192.479 131.59C192.695 132.508 192.84 133.472 193.368 134.258C193.556 134.499 193.726 134.754 193.874 135.022C194.012 135.431 194.083 135.859 194.086 136.29C194.173 137.134 194.441 137.949 194.871 138.681C195.301 139.412 195.884 140.042 196.579 140.529C197.505 141.164 198.656 141.601 199.158 142.606C199.259 142.918 199.398 143.215 199.574 143.491C200.022 144.032 200.99 144.094 201.181 144.771C201.289 145.15 201.09 145.603 201.302 145.935C201.422 146.089 201.581 146.208 201.763 146.28L204.467 147.631C207.491 149.143 209.037 152.617 211.267 155.148C212.038 155.972 212.72 156.875 213.303 157.841C214.267 159.566 214.711 161.731 216.339 162.828C216.777 163.055 217.176 163.351 217.519 163.705C218.03 164.378 217.843 165.321 217.889 166.169C217.935 167.017 218.583 168.027 219.389 167.769C219.106 168.796 219.106 169.88 219.389 170.906C222.927 170.725 226.301 169.358 228.968 167.025C229.757 166.335 230.517 165.454 230.526 164.407C230.538 164.226 230.497 164.046 230.409 163.888C230.25 163.683 230.039 163.524 229.799 163.426C227.269 162.055 226.509 158.876 225.229 156.295C224.112 154.018 222.458 152.056 221.075 149.941C218.068 145.391 216.015 139.884 211.467 136.88C210.466 136.219 209.303 135.633 208.8 134.54C208.522 133.929 208.488 133.231 208.268 132.599C208.048 131.968 207.52 131.353 206.848 131.353C207.221 130.439 207.147 129.325 207.172 128.336C207.197 127.897 207.146 127.457 207.022 127.035C206.849 126.581 206.625 126.149 206.353 125.747C205.166 123.737 204.573 121.431 204.642 119.098C204.675 117.897 204.887 116.658 204.525 115.511C204.343 114.934 204.023 114.406 203.803 113.849C203.471 112.84 203.296 111.786 203.283 110.724L203.034 106.73C202.996 105.4 202.824 104.078 202.519 102.782C201.688 99.6824 200.857 86.6959 198.012 85.2331C195.166 83.7703 190.277 93.7647 187.074 93.96C185.657 94.019 184.257 94.2893 182.92 94.762C180.789 95.5599 179.003 97.0477 177.262 98.5022L171.372 103.452C170.126 104.478 169.096 105.459 167.721 106.182Z" fill="#464353"/>
        <path d="M139.448 21.3976C140.744 19.6273 142.97 18.6881 145.164 18.6092C147.357 18.5302 149.517 19.2201 151.482 20.1966C152.062 20.5266 152.682 20.7808 153.326 20.953C154.365 21.1649 155.52 20.8823 156.459 21.3685C157.705 22.0293 157.946 23.7123 157.838 25.1087C157.73 26.505 157.468 28.055 158.212 29.2643C158.475 29.6092 158.715 29.9716 158.93 30.349C159.25 31.0679 159.063 31.899 158.872 32.6595C158.386 32.244 158.112 31.6164 157.68 31.1344C157.248 30.6523 156.496 30.3282 155.96 30.6897C155.424 31.0513 155.433 31.7079 155.403 32.298C155.374 32.8881 155.225 33.5945 154.668 33.7857C154.436 33.8386 154.193 33.8206 153.971 33.7339C153.748 33.6472 153.557 33.4959 153.422 33.2995C152.471 32.1359 152.853 30.2783 151.91 29.1064C151.374 28.4415 150.481 28.1174 149.987 27.4192C149.596 26.8707 149.496 26.1725 149.156 25.5824C148.815 24.9923 148.022 24.5601 147.494 24.9674C147.314 25.1394 147.164 25.3403 147.05 25.5616C146.721 26.033 146.242 26.3797 145.692 26.5456C145.142 26.7115 144.552 26.6869 144.017 26.4759C143.609 26.225 143.167 26.0333 142.705 25.9065C142.402 25.8914 142.101 25.9612 141.836 26.1081C141.571 26.2549 141.353 26.473 141.205 26.7377C140.907 27.2664 140.763 27.8683 140.79 28.4748C140.79 29.3059 140.939 30.191 140.466 30.856C140.285 31.1063 140.06 31.3205 139.801 31.4876C139.107 31.9323 138.139 32.2315 137.5 31.7245C137.283 31.5225 137.121 31.268 137.031 30.9857C136.941 30.7033 136.925 30.4025 136.984 30.1121C137.109 29.5337 137.273 28.9644 137.475 28.4083C137.84 27.12 137.362 25.6697 137.761 24.4562C138.179 23.3634 138.747 22.334 139.448 21.3976Z" fill="#464353"/>
        <path d="M144.711 50.7159C144.648 51.0188 144.68 51.3335 144.802 51.6177C144.926 51.8112 145.094 51.9723 145.292 52.0873C146.689 52.9579 148.278 53.4729 149.92 53.5875C150.143 53.5913 150.363 53.6483 150.56 53.7537C150.95 54.0113 150.975 54.5848 150.83 55.0419C150.636 55.4732 150.535 55.9405 150.535 56.4133C150.655 57.2819 151.685 57.66 152.554 57.7889C153.771 57.9426 155.104 57.8637 156.068 57.1032C156.721 56.5075 157.218 55.7614 157.518 54.9297C159.902 49.4484 160.737 43.3894 163.151 37.9247C163.333 37.5679 163.456 37.1831 163.512 36.7861C163.537 36.5873 163.509 36.3854 163.43 36.2012C163.352 36.0171 163.225 35.8574 163.063 35.7388C162.615 35.4604 161.917 35.6183 161.614 35.182C161.464 34.9617 161.481 34.6625 161.348 34.4298C161.069 33.9353 160.338 34.0142 159.84 33.7275C159.449 33.5197 159.179 33.0917 158.743 33.0085C158.529 32.9964 158.315 33.0345 158.118 33.1196C157.921 33.2047 157.747 33.3346 157.609 33.4989C156.193 34.8204 155.449 36.6946 154.66 38.4649C153.455 41.1786 152.044 43.796 150.439 46.2942C150.626 46.0033 149.542 43.8008 149.118 43.7053C148.375 43.5557 147.423 44.8605 147.02 45.3468C145.756 46.8804 144.955 48.7429 144.711 50.7159Z" fill="#2D9CDB"/>
        <path opacity="0.1" d="M159.804 34.1138C159.505 34.1187 159.212 34.1908 158.945 34.3246C158.678 34.4584 158.445 34.6505 158.262 34.8867C157.818 35.4644 157.731 36.229 157.619 36.9646C157.241 39.2949 156.409 41.5285 155.172 43.5388" fill="black"/>
        <path opacity="0.1" d="M161.919 35.7722C161.507 35.7814 161.105 35.8977 160.751 36.1098C160.398 36.3218 160.106 36.6223 159.904 36.9815C159.629 37.6352 159.458 38.3279 159.398 39.0344C159.041 40.6009 158.354 42.0731 157.383 43.3522" fill="black"/>
        <path d="M260.644 117.016V111.854C260.643 108.055 259.133 104.411 256.447 101.725C253.761 99.0386 250.119 97.5295 246.321 97.5295H42.5692C38.7712 97.5295 35.1287 99.0386 32.4427 101.725C29.7567 104.411 28.2472 108.055 28.2461 111.854V121.371L260.644 117.016Z" fill="#33323D"/>
        <path d="M99.252 91.479C99.252 91.479 98.6705 127.575 105.068 139.452C111.465 151.329 114.207 202.997 114.207 202.997C114.207 202.997 181.269 209.937 228.002 194.685C274.735 179.434 374.175 173.196 374.175 173.196L357.418 60.2076C357.418 60.2076 274.632 54.8966 227.537 77.3664C180.443 99.8361 99.252 91.479 99.252 91.479Z" fill="#8DD070"/>
        <path opacity="0.1" d="M99.252 91.479C99.252 91.479 98.6705 127.575 105.068 139.452C111.465 151.329 114.207 202.997 114.207 202.997C114.207 202.997 181.269 209.937 228.002 194.685C274.735 179.434 374.175 173.196 374.175 173.196L357.418 60.2076C357.418 60.2076 274.632 54.8966 227.537 77.3664C180.443 99.8361 99.252 91.479 99.252 91.479Z" fill="black"/>
        <path d="M114.096 104.665C114.096 104.665 111.999 134.448 117.262 143.965C122.525 153.481 122.77 195.965 122.77 195.965C122.77 195.965 183.124 198.766 226.056 184.146C268.988 169.526 359.206 160.043 359.206 160.043L348.953 67.6417C348.953 67.6417 274.305 66.8729 230.738 87.4518C187.17 108.031 114.096 104.665 114.096 104.665Z" fill="#8DD070"/>
        <path opacity="0.1" d="M230.071 167.228C238.659 166.158 243.761 150.354 241.466 131.929C239.172 113.504 230.351 99.4351 221.764 100.505C213.176 101.575 208.075 117.379 210.369 135.804C212.663 154.229 221.484 168.298 230.071 167.228Z" fill="black"/>
        <path opacity="0.2" d="M312.03 5.16553C312.03 5.16553 231.604 25.5283 193.677 61.371C155.751 97.2137 75.9102 114.185 75.9102 114.185C75.9102 114.185 86.4282 148.715 96.157 158.057C105.886 167.399 124.338 215.738 124.338 215.738C124.338 215.738 190.292 201.75 230.087 172.876C269.883 144.002 362.63 107.536 362.63 107.536L312.03 5.16553Z" fill="black"/>
        <path d="M74.7031 109.016C74.7031 109.016 85.217 143.549 94.9375 152.891C104.658 162.233 123.118 210.568 123.118 210.568C123.118 210.568 189.081 196.584 228.88 167.711C268.68 138.837 361.419 102.383 361.419 102.383L310.819 0C310.819 0 230.397 20.3628 192.47 56.2055C154.544 92.0482 74.7031 109.016 74.7031 109.016Z" fill="#8DD070"/>
        <path opacity="0.1" d="M74.7031 109.016C74.7031 109.016 85.217 143.549 94.9375 152.891C104.658 162.233 123.118 210.568 123.118 210.568C123.118 210.568 189.081 196.584 228.88 167.711C268.68 138.837 361.419 102.383 361.419 102.383L310.819 0C310.819 0 230.397 20.3628 192.47 56.2055C154.544 92.0482 74.7031 109.016 74.7031 109.016Z" fill="black"/>
        <path d="M92.8594 117.011C92.8594 117.011 100 146.005 107.93 153.444C115.86 160.883 129.116 201.234 129.116 201.234C129.116 201.234 187.414 185.368 223.791 158.273C260.168 131.178 343.132 94.4958 343.132 94.4958L305.036 9.67017C305.036 9.67017 233.756 31.849 198.601 64.8118C163.445 97.7746 92.8594 117.011 92.8594 117.011Z" fill="#8DD070"/>
        <path opacity="0.1" d="M222.445 140.951C230.29 137.297 230.298 120.689 222.463 103.857C214.628 87.0251 201.917 76.3427 194.072 79.9973C186.227 83.6519 186.219 100.26 194.054 117.091C201.889 133.923 214.6 144.606 222.445 140.951Z" fill="black"/>
        <path opacity="0.1" d="M266.143 122.081V265.452C266.143 267.08 265.823 268.693 265.2 270.197C264.577 271.701 263.663 273.068 262.512 274.219C261.361 275.37 259.995 276.283 258.491 276.906C256.987 277.529 255.375 277.849 253.748 277.849H40.6452C37.3595 277.848 34.2087 276.541 31.8857 274.216C29.5628 271.892 28.2578 268.739 28.2578 265.452V107.628C34.3643 109.897 34.3643 109.897 40.6452 109.706H253.748C257.031 109.706 260.18 111.009 262.504 113.329C264.828 115.649 266.137 118.797 266.143 122.081Z" fill="black"/>
        <path d="M266.143 123.906V267.276C266.142 270.565 264.836 273.718 262.511 276.042C260.187 278.367 257.034 279.673 253.748 279.673H40.6452C37.3595 279.672 34.2087 278.365 31.8857 276.04C29.5628 273.716 28.2578 270.563 28.2578 267.276V109.448C34.3643 111.713 34.3643 111.713 40.6452 111.526H253.748C257.031 111.526 260.181 112.829 262.505 115.151C264.829 117.472 266.138 120.62 266.143 123.906Z" fill="#504F60"/>
        <path opacity="0.1" d="M265.538 176.912V222.761H221.09C215.066 222.68 209.316 220.229 205.084 215.939C200.853 211.648 198.48 205.864 198.48 199.836C198.48 193.809 200.853 188.025 205.084 183.734C209.316 179.444 215.066 176.993 221.09 176.912H265.538Z" fill="black"/>
        <path d="M266.147 175.689V221.547H221.699C215.675 221.466 209.925 219.015 205.694 214.725C201.462 210.434 199.09 204.65 199.09 198.623C199.09 192.595 201.462 186.811 205.694 182.52C209.925 178.23 215.675 175.779 221.699 175.698L266.147 175.689Z" fill="#33323D"/>
        <path opacity="0.1" d="M223.83 208.777C228.765 208.777 232.765 204.775 232.765 199.838C232.765 194.901 228.765 190.899 223.83 190.899C218.895 190.899 214.895 194.901 214.895 199.838C214.895 204.775 218.895 208.777 223.83 208.777Z" fill="black"/>
        <path d="M224.435 207.563C229.37 207.563 233.371 203.561 233.371 198.624C233.371 193.688 229.37 189.686 224.435 189.686C219.5 189.686 215.5 193.688 215.5 198.624C215.5 203.561 219.5 207.563 224.435 207.563Z" fill="#2D9CDB"/>
        <path d="M343.297 175.295C343.65 179.122 340.755 182.837 341.598 186.586C341.781 187.388 342.126 188.144 342.25 188.954C342.599 191.182 341.274 193.289 340.007 195.15L329.124 211.125C328.688 211.827 328.166 212.472 327.57 213.045C325.493 214.898 322.369 214.707 319.636 215.26C317.714 215.65 315.9 216.452 314.319 217.612C314.252 217.668 314.21 217.748 314.201 217.835C314.192 217.921 314.216 218.008 314.269 218.077C314.72 218.693 315.319 219.185 316.01 219.51C316.701 219.834 317.462 219.98 318.223 219.935C318.51 220.313 318.223 220.866 317.808 221.136C317.222 221.551 316.421 221.651 316.304 222.64C316.263 222.985 316.333 223.335 316.504 223.638C316.942 224.309 317.624 224.785 318.406 224.963C322.174 226.114 326.245 224.091 329.065 221.335C331.886 218.58 333.909 215.102 336.676 212.297C338.208 210.747 339.949 209.417 341.528 207.913C344.676 204.912 347.123 201.263 349.487 197.611C350.197 196.509 350.912 195.379 351.211 194.103C351.51 192.827 351.368 191.539 351.705 190.305C352.145 188.684 353.329 187.396 354.314 186.037C356.245 183.377 357.533 180.124 357.28 176.849C357.026 173.574 354.995 170.337 351.904 169.223C350.947 168.838 349.89 168.774 348.893 169.04C347.626 169.431 346.691 170.478 345.827 171.48L343.75 173.869C343.232 174.394 342.823 175.015 342.545 175.698C342.412 176.041 342.381 176.415 342.454 176.775C342.528 177.135 342.704 177.467 342.961 177.73" fill="#FBBEBE"/>
        <path opacity="0.05" d="M343.297 175.295C343.65 179.122 340.755 182.837 341.598 186.586C341.781 187.388 342.126 188.144 342.25 188.954C342.599 191.182 341.274 193.289 340.007 195.15L329.124 211.125C328.688 211.827 328.166 212.472 327.57 213.045C325.493 214.898 322.369 214.707 319.636 215.26C317.714 215.65 315.9 216.452 314.319 217.612C314.252 217.668 314.21 217.748 314.201 217.835C314.192 217.921 314.216 218.008 314.269 218.077C314.72 218.693 315.319 219.185 316.01 219.51C316.701 219.834 317.462 219.98 318.223 219.935C318.51 220.313 318.223 220.866 317.808 221.136C317.222 221.551 316.421 221.651 316.304 222.64C316.263 222.985 316.333 223.335 316.504 223.638C316.942 224.309 317.624 224.785 318.406 224.963C322.174 226.114 326.245 224.091 329.065 221.335C331.886 218.58 333.909 215.102 336.676 212.297C338.208 210.747 339.949 209.417 341.528 207.913C344.676 204.912 347.123 201.263 349.487 197.611C350.197 196.509 350.912 195.379 351.211 194.103C351.51 192.827 351.368 191.539 351.705 190.305C352.145 188.684 353.329 187.396 354.314 186.037C356.245 183.377 357.533 180.124 357.28 176.849C357.026 173.574 354.995 170.337 351.904 169.223C350.947 168.838 349.89 168.774 348.893 169.04C347.626 169.431 346.691 170.478 345.827 171.48L343.75 173.869C343.232 174.394 342.823 175.015 342.545 175.698C342.412 176.041 342.381 176.415 342.454 176.775C342.528 177.135 342.704 177.467 342.961 177.73" fill="black"/>
        <path d="M351.538 273.826C349.162 275.276 346.2 275.363 343.437 275.027C342.993 274.973 342.465 274.939 342.191 275.284C341.776 275.783 342.266 276.531 342.773 276.918C344.402 278.141 346.316 278.929 348.335 279.207C350.137 279.463 351.956 279.584 353.777 279.569C358.762 279.656 363.746 279.739 368.652 279.024C368.943 279.002 369.226 278.92 369.483 278.783C369.8 278.561 370.019 278.227 370.098 277.848C370.435 276.568 369.787 275.197 368.806 274.308C367.826 273.418 366.567 272.924 365.338 272.446L361.017 270.763C360.004 270.368 358.379 269.321 357.279 269.404C355.21 269.554 353.253 272.82 351.538 273.826Z" fill="#3F3D56"/>
        <path opacity="0.05" d="M351.538 273.826C349.162 275.276 346.2 275.363 343.437 275.027C342.993 274.973 342.465 274.939 342.191 275.284C341.776 275.783 342.266 276.531 342.773 276.918C344.402 278.141 346.316 278.929 348.335 279.207C350.137 279.463 351.956 279.584 353.777 279.569C358.762 279.656 363.746 279.739 368.652 279.024C368.943 279.002 369.226 278.92 369.483 278.783C369.8 278.561 370.019 278.227 370.098 277.848C370.435 276.568 369.787 275.197 368.806 274.308C367.826 273.418 366.567 272.924 365.338 272.446L361.017 270.763C360.004 270.368 358.379 269.321 357.279 269.404C355.21 269.554 353.253 272.82 351.538 273.826Z" fill="black"/>
        <path d="M354.563 216.452C352.764 218.846 350.903 221.61 351.348 224.573C351.589 226.168 352.482 227.577 353.138 229.052C354.027 231.055 354.492 233.208 354.949 235.352C355.622 238.486 356.299 241.628 356.711 244.811C357.18 248.405 354.974 258.807 354.771 262.427C354.721 263.299 354.617 264.243 354.011 264.87C353.774 265.12 353.458 265.319 353.35 265.643C353.287 265.955 353.338 266.28 353.495 266.557C354.509 268.843 356.582 270.547 358.896 271.519C361.209 272.492 366.788 274.171 369.31 274.258C369.642 274.295 369.979 274.25 370.29 274.129C370.626 273.924 370.89 273.621 371.046 273.261C372.853 269.803 371.117 257.511 371.142 253.608C371.167 250.354 371.935 247.121 371.794 243.872C371.678 241.262 370.963 238.71 370.726 236.109C370.311 231.845 371.092 227.561 371.877 223.347C372.475 220.114 373.078 216.88 373.846 213.689C374.315 211.74 374.86 209.774 375.923 208.083C376.754 206.741 377.921 205.619 378.889 204.343C381.575 200.819 382.769 196.38 382.212 191.984C382.154 191.568 375.981 193.551 375.437 193.787C373.217 194.728 371.174 196.042 369.397 197.673C367.968 199.036 366.842 200.856 365.592 202.381C363.822 204.539 362.075 206.713 360.35 208.902C358.381 211.403 356.452 213.92 354.563 216.452Z" fill="#464353"/>
        <path opacity="0.05" d="M354.563 216.307C352.764 218.701 350.903 221.468 351.348 224.427C351.589 226.027 352.482 227.436 353.138 228.911C354.027 230.91 354.492 233.067 354.949 235.207C355.622 238.345 356.299 241.486 356.711 244.665C357.18 248.264 354.974 258.662 354.771 262.281C354.721 263.154 354.617 264.101 354.011 264.729C353.774 264.974 353.458 265.174 353.35 265.498C353.286 265.81 353.338 266.135 353.495 266.412C354.509 268.702 356.582 270.401 358.896 271.399C361.209 272.396 366.788 273.265 369.31 273.348C369.642 273.384 369.979 273.34 370.29 273.219C370.626 273.017 370.891 272.715 371.046 272.355C372.853 268.897 371.117 257.394 371.142 253.488C371.167 250.23 371.935 247.001 371.794 243.747C371.678 241.137 370.963 238.586 370.726 235.988C370.311 231.721 371.092 227.436 371.877 223.222C372.475 219.993 373.078 216.76 373.846 213.564C374.315 211.615 374.86 209.65 375.923 207.958C376.754 206.616 377.921 205.494 378.889 204.218C381.576 200.695 382.77 196.256 382.212 191.859C382.154 191.444 375.981 193.426 375.437 193.663C373.217 194.606 371.175 195.922 369.397 197.553C367.968 198.911 366.842 200.732 365.592 202.257C363.822 204.415 362.075 206.59 360.35 208.781C358.381 211.264 356.452 213.772 354.563 216.307Z" fill="black"/>
        <path d="M334.551 163.734C340.119 163.734 344.632 159.218 344.632 153.648C344.632 148.078 340.119 143.562 334.551 143.562C328.983 143.562 324.469 148.078 324.469 153.648C324.469 159.218 328.983 163.734 334.551 163.734Z" fill="#FBBEBE"/>
        <path d="M343.631 153.224C344.563 154.71 345.784 155.994 347.222 156.998C348.66 158.001 350.286 158.705 352.002 159.067L351.242 161.83C349.929 166.576 348.454 171.596 344.79 174.888C345.206 173.279 344.674 171.563 343.768 170.167C342.863 168.77 341.592 167.673 340.346 166.589L334.542 161.56C334.375 161.424 334.234 161.258 334.127 161.07C333.984 160.715 333.984 160.319 334.127 159.965C334.866 157.662 336.977 156.224 338.696 154.67C339.559 153.866 340.33 152.969 340.994 151.994C342.153 150.34 342.871 152.002 343.631 153.224Z" fill="#FBBEBE"/>
        <path d="M321.271 143.508L321.043 141.613C322.634 142.029 324.146 140.674 325.163 139.273C326.181 137.873 327.124 136.223 328.674 135.637C330.555 134.931 332.549 136.053 334.348 137C336.362 138.118 338.572 138.838 340.857 139.12C341.222 139.132 341.584 139.19 341.933 139.294C343.105 139.71 343.661 141.181 343.832 142.515C344.002 143.849 343.956 145.266 344.534 146.454C344.949 147.356 345.722 148.025 346.195 148.915C347.441 151.3 346.237 154.562 347.537 156.902L344.305 153.939C344.01 153.669 343.595 153.386 343.267 153.615C343.009 153.797 342.988 154.192 342.885 154.508C342.573 155.431 341.418 155.705 340.583 155.339C339.748 154.973 339.138 154.18 338.506 153.457C337.077 151.769 335.374 150.286 333.38 149.567C332.506 149.24 331.573 149.103 330.641 149.165C329.71 149.226 328.803 149.485 327.98 149.924C326.472 150.776 325.367 152.763 323.518 152.833C320.984 152.929 319.929 148.208 318.758 146.342C319.187 146.019 319.488 145.556 319.61 145.033C319.731 144.511 319.665 143.962 319.422 143.483C319.593 143.412 321.234 143.217 321.271 143.508Z" fill="#464353"/>
        <path d="M196.571 84.5431C195.761 85.2639 195.012 86.0506 194.332 86.8952C193.647 87.7516 193.283 88.8201 193.301 89.9164C193.305 90.2344 193.407 90.5435 193.592 90.8016C193.687 90.9251 193.818 91.0159 193.967 91.0614C194.116 91.1068 194.275 91.1046 194.423 91.0551C194.59 90.9699 194.733 90.8442 194.838 90.6894C195.278 90.1616 195.743 89.6567 196.234 89.1767C196.413 88.998 196.65 88.811 196.891 88.8775C196.999 88.9158 197.096 88.98 197.173 89.0645C197.453 89.3062 197.656 89.6238 197.759 89.9787C197.904 90.6146 197.534 91.2504 197.115 91.7491C196.695 92.2477 196.201 92.7256 196.031 93.3531C195.966 93.5189 195.966 93.7027 196.031 93.8684C196.111 93.9883 196.223 94.0834 196.355 94.1427C196.95 94.4704 197.609 94.6633 198.287 94.7078C198.964 94.7523 199.644 94.6474 200.276 94.4004C201.107 94.0638 201.846 93.4861 202.702 93.1869C203.073 93.0855 203.432 92.9462 203.774 92.7714C204.019 92.6084 204.229 92.3985 204.392 92.1538C204.555 91.9092 204.668 91.6346 204.725 91.346C204.833 90.7692 204.854 90.1794 204.787 89.5964C204.684 87.3389 204.201 85.1149 203.358 83.018C203.31 82.8827 203.227 82.7625 203.117 82.6689C202.993 82.5927 202.848 82.5538 202.702 82.5567C201.639 82.4445 199.894 81.9001 198.868 82.2949C198.509 82.4917 198.199 82.7674 197.962 83.1011C197.771 83.313 196.571 84.2647 196.571 84.5431Z" fill="#A1616A"/>
        <path d="M196.231 83.604C196.231 82.59 194.985 80.1424 196.967 79.9803C196.967 78.8957 195.434 78.2224 195.721 77.0713C195.812 76.689 196.136 76.3773 196.173 75.9867C196.298 74.8771 194.296 74.2745 194.628 73.2107C194.753 72.7951 195.193 72.5541 195.288 72.1427C195.513 71.1827 193.797 70.7547 193.764 69.7698C193.764 69.4373 193.951 69.1257 193.934 68.7932C193.934 68.3776 193.573 68.0618 193.373 67.7003C192.854 66.7736 193.108 65.3398 192.16 64.8619C192.788 64.916 192.991 63.9851 192.734 63.4158C192.476 62.8464 191.949 62.3519 191.945 61.7203C191.976 61.4914 191.976 61.2593 191.945 61.0304C191.77 60.4237 190.777 60.3738 190.611 59.7837C190.59 59.5572 190.583 59.3296 190.59 59.1022C190.524 58.6326 190.042 58.3334 189.589 58.2004C189.119 58.1205 188.666 57.9588 188.252 57.7225C187.961 57.5023 187.624 57.1366 187.313 57.3069C187.196 57.3776 187.138 57.5106 187.051 57.6103C186.677 58.0466 185.963 57.8555 185.493 57.5355C184.106 56.5922 183.416 54.9008 183.121 53.251C182.826 51.6012 182.835 49.8974 182.465 48.2642C182.352 47.7552 182.202 47.2552 182.016 46.7682C181.858 46.3526 181.352 45.7001 181.318 45.2804C181.244 44.3246 183.221 44.9771 183.973 45.0726C184.703 45.144 185.425 45.2831 186.129 45.4882C186.88 45.7723 187.617 46.0955 188.335 46.4565C191.334 47.7821 194.956 47.9442 197.366 50.1717C198.159 50.9031 198.828 51.863 199.858 52.1955C200.33 52.2861 200.797 52.4068 201.254 52.557C202.396 53.0931 202.575 54.6099 203.198 55.707C203.394 55.9967 203.565 56.3026 203.709 56.6213C203.829 56.9971 203.885 57.3904 203.875 57.7848L203.962 60.6647C204.103 65.4895 204.245 70.3267 203.73 75.1223C203.563 76.7056 203.314 78.3346 203.784 79.8556C203.908 80.2712 204.083 80.6618 204.199 81.0815C204.302 81.5736 204.355 82.0749 204.357 82.5776L204.423 84.4435C204.446 84.5886 204.414 84.737 204.332 84.859C204.262 84.9154 204.181 84.9556 204.094 84.9764C204.007 84.9973 203.917 84.9983 203.829 84.9796C201.233 84.7468 198.608 83.284 196.157 84.1692" fill="#464353"/>
        <path d="M314.715 226.975C331.683 226.975 345.439 224.986 345.439 222.532C345.439 220.079 331.683 218.09 314.715 218.09C297.747 218.09 283.992 220.079 283.992 222.532C283.992 224.986 297.747 226.975 314.715 226.975Z" fill="#504F60"/>
        <path d="M341.147 222.748C340.607 220.434 340.27 218.402 340.27 218.402C340.27 218.402 340.395 215.883 339.265 213.992V213.361V208.706C339.587 207.861 339.98 207.045 340.441 206.267C341.271 204.804 340.441 199.443 340.441 199.443C340.441 199.443 337.338 191.884 338.09 187.089C338.841 182.293 331.717 165.795 331.717 165.795C331.761 164.204 331.985 162.623 332.386 161.082C332.462 160.758 332.493 160.426 332.477 160.093C332.477 160.052 332.477 160.014 332.477 159.973C332.477 159.931 332.477 159.998 332.477 160.01C332.369 156.848 329.869 150.922 329.869 150.922L330.205 139.627C330.205 139.627 331.8 132.977 329.2 124.022C328.29 120.901 327.709 118.404 327.339 116.475C327.297 116.259 327.256 116.06 327.223 115.848C332.577 115.017 336.669 114.352 336.669 114.352C336.669 114.352 333.562 101.349 331.464 99.0713C329.366 96.794 327.688 89.6421 327.688 89.6421C327.688 89.6421 326.595 80.4622 328.361 77.7776C330.126 75.0931 330.375 70.4636 330.375 70.4636C330.375 70.4636 334.401 67.5547 334.908 66.2373C335.414 64.92 336.249 62.011 336.249 60.4692C336.249 58.9275 335.747 57.5603 335.913 56.7291C336.079 55.898 334.737 52.827 335.41 51.3642C335.584 50.9148 335.674 50.4373 335.676 49.9554C335.678 49.9416 335.678 49.9276 335.676 49.9138C335.682 48.6337 335.564 47.3561 335.323 46.0989C334.159 45.1153 332.8 44.3888 331.335 43.9671L331.248 43.618L331.019 42.7037C330.892 42.6194 330.76 42.5417 330.625 42.471V42.1386L330.587 40.8171L331.219 37.8499C332.465 32.6885 325.573 31.9197 325.573 31.9197C325.155 31.128 324.46 30.5184 323.621 30.2076C322.238 29.7214 323.393 37.9704 324.036 38.519C324.522 38.9345 326.026 41.5027 326.753 42.7744L326.869 42.9822C326.756 43.0845 326.65 43.1957 326.554 43.3146L326.815 45.1057L326.857 45.38C326.4 45.9474 326.029 46.5789 325.756 47.2542C325.756 47.2542 327.002 48.6339 326.766 50.1632C326.529 51.6925 327.152 53.6332 327.181 53.737C327.106 53.6498 326.221 52.694 325.337 52.9267C324.452 53.1594 321.98 53.9033 321.98 53.9033C321.98 53.9033 320.136 54.2274 320.319 54.6347C320.501 55.0419 319.072 56.8289 319.072 56.8289L314.112 52.1246C314.063 51.9834 314.009 51.8421 313.967 51.7091C313.765 51.0308 313.626 50.3352 313.552 49.6312C314.092 49.5027 314.623 49.3347 315.138 49.1284C315.66 48.9494 316.13 48.6472 316.509 48.2474C317.012 47.6531 317.107 46.8469 317.311 46.1072C317.701 44.661 318.557 43.3769 319.151 42.0014C320.157 39.6771 320.481 37.1144 320.086 34.6126C320.01 33.8417 319.749 33.1004 319.326 32.4517C318.516 31.338 317.045 30.885 315.978 29.9957C314.91 29.1064 314.22 27.7475 312.974 27.0867C311.848 26.4841 310.482 26.5548 309.211 26.7626C306.728 27.1721 304.343 28.0402 302.178 29.3224C301.455 29.738 300.657 30.2492 299.827 30.0954C299.112 29.9666 298.58 29.3973 298.132 28.8487C298.137 28.826 298.144 28.8038 298.153 28.7822C298.132 28.762 298.114 28.7397 298.099 28.7157C297.573 29.8828 297.309 31.1509 297.326 32.4309C297.326 32.6304 297.326 32.8465 297.351 33.0252V33.2329C297.351 33.2911 297.351 33.3493 297.351 33.4033C297.351 33.4919 297.338 33.58 297.313 33.6651C297.209 33.9193 297.05 34.1477 296.848 34.3342C296.696 34.5075 296.557 34.6922 296.433 34.8869C296.433 34.8204 296.474 34.7539 296.499 34.6833C296.182 35.146 296.004 35.6894 295.984 36.25C295.961 36.658 296.095 37.0595 296.358 37.372C296.607 37.6136 296.878 37.8307 297.168 38.0203C297.069 38.5689 297.019 39.1251 297.019 39.6826C297.028 41.3351 297.463 42.9572 298.283 44.3921C299.102 45.827 300.278 47.0261 301.696 47.8734C301.754 48.0105 301.808 48.1518 301.862 48.289C302.498 49.9512 302.975 51.9044 302.764 53.6913C302.764 53.8202 302.726 53.9531 302.705 54.082C302.685 54.2108 302.581 54.2191 302.527 54.2897C302.527 54.2897 294.331 54.3729 292.403 52.6275C290.476 50.8821 287.535 56.8954 287.535 56.8954C287.535 56.8954 284.598 57.4647 284.008 56.8954C283.418 56.326 279.983 56.8164 279.983 56.8164C278.575 55.5642 276.744 54.8955 274.861 54.9463C273.72 54.079 272.461 53.3793 271.122 52.8685L271.031 52.8353C270.44 52.6198 269.808 52.5403 269.182 52.6025C269.182 52.6025 265.153 49.278 263.977 47.4828C262.802 45.6875 257.206 39.0592 257.181 39.0301V38.7101L257.119 37.746C256.953 37.7721 256.785 37.786 256.616 37.7876C256.587 37.692 256.546 37.5798 256.504 37.451C256.182 36.5105 255.784 35.5975 255.316 34.7207C255.316 34.7207 255.316 33.5031 255.669 33.1955C256.022 32.888 255.524 28.4207 255.524 28.4207C255.524 28.4207 251.893 19.9306 248.641 26.268C248.641 26.268 242.493 30.3697 247.652 35.1487C247.652 35.1487 249.729 36.1461 250.003 36.9356C250.194 37.4468 250.892 38.8805 251.361 39.8446L251.573 40.2602L251.515 40.3101L251.59 41.1079L251.623 41.4155C250.651 41.9682 249.991 42.5167 250.153 42.9281C250.439 43.6322 250.636 44.3693 250.738 45.1223C250.738 45.1223 257.875 54.0653 258.797 57.8844C258.797 57.8844 277.935 69.2626 284.228 70.073L283.115 75.7455C282.953 77.2848 282.87 78.8313 282.866 80.3791C282.949 81.5967 282.11 87.1237 282.11 87.1237C282.11 87.1237 281.017 95.2522 280.095 96.3909C279.173 97.5296 279.339 102.404 279.339 102.404C279.121 104.738 278.704 107.048 278.093 109.311C277.171 112.399 277.839 116.222 277.839 116.222C277.839 116.222 274.653 123.536 282.288 118.578C282.288 118.578 286.027 118.345 290.355 118.196C290.355 118.337 290.355 118.482 290.355 118.611C290.355 119.168 290.355 119.771 290.326 120.402C290.268 124.591 290.243 130.376 290.434 134.731C290.771 142.452 293.122 157.733 293.122 157.733V165.425C292.97 166.146 292.895 166.882 292.898 167.619C292.848 170.326 293.568 172.99 294.975 175.303L295.565 180.423C295.565 180.423 296.944 183.797 296.969 185.825C296.963 185.989 296.944 186.151 296.911 186.311C296.857 186.57 296.834 186.833 296.844 187.097C296.765 189.424 298.165 194.993 298.165 194.993C298.165 194.993 298.248 200.599 299.087 200.927C299.806 201.205 298.128 204.156 297.629 205.004C297.616 204.952 297.606 204.899 297.6 204.846L297.496 205.012C297.323 205.466 297.234 205.947 297.235 206.433C297.187 206.816 297.25 207.204 297.414 207.553C297.579 207.902 297.839 208.197 298.165 208.403C299.76 209.38 300.616 210.19 299.262 210.514C298.764 210.591 298.27 210.695 297.783 210.826C297.783 210.763 297.733 210.697 297.712 210.639C297.521 210.713 297.362 210.852 297.261 211.031C297.16 211.209 297.125 211.417 297.16 211.619C297.173 212.279 297.342 212.925 297.654 213.506C298.996 216.515 299.926 217.662 299.926 217.662L300.57 217.591C300.475 217.837 300.35 218.07 300.196 218.285C299.951 218.634 299.627 218.919 299.249 219.116C298.897 219.327 298.505 219.461 298.099 219.511C297.644 219.526 297.197 219.636 296.787 219.835C296.378 220.035 296.015 220.318 295.722 220.666C294.892 221.751 294.36 223.226 296.013 224.523L302.016 226.601C302.016 226.601 312.343 227.943 311.794 225.624C311.246 223.305 310.914 221.277 310.914 221.277C310.958 219.861 310.674 218.455 310.083 217.167C309.975 216.957 309.853 216.754 309.717 216.561L310.083 216.523C310.083 216.523 310.839 211.399 311.844 210.427C312.077 210.202 312.131 210.011 312.077 209.895C312.181 209.616 311.915 209.454 311.578 209.359L311.504 209.562C311.175 209.491 310.839 209.453 310.503 209.45C310.503 209.45 310.166 206.77 311.259 205.793C311.347 205.682 311.411 205.554 311.447 205.416C311.484 205.279 311.492 205.136 311.47 204.995C311.479 204.628 311.44 204.26 311.354 203.902C311.343 203.925 311.331 203.948 311.317 203.969C310.768 201.534 308.907 197.665 308.907 197.665C308.907 197.665 308.824 195.229 309.497 194.253C310.17 193.276 309.41 181.005 309.41 181.005C309.41 181.005 309.663 175.074 308.907 172.311C308.151 169.547 309.83 166.294 309.83 166.294C309.83 166.294 309.83 166.231 309.83 166.119V166.077L309.734 165.142C309.732 165.162 309.732 165.181 309.734 165.201C309.564 163.63 309.244 160.783 309.007 159.47C308.671 157.6 309.094 148.665 309.094 148.665L310.602 144.842L313.29 151.429L316.144 160.205C316.144 160.205 317.556 162.059 317.589 163.946C317.589 164.037 317.589 164.128 317.589 164.22C317.566 164.414 317.555 164.61 317.556 164.806C317.505 165.915 317.81 167.011 318.424 167.935C318.424 167.935 319.18 172.091 320.356 173.134C321.532 174.177 321.531 176.221 321.531 176.221C321.531 176.221 322.956 182.239 323.609 183.286C324.173 184.175 324.203 186.611 324.198 187.371C324.198 187.508 324.198 187.587 324.198 187.587C324.198 187.587 324.398 189.74 324.389 191.543C324.389 191.768 324.389 191.984 324.389 192.188C324.391 192.172 324.391 192.157 324.389 192.142C324.389 192.635 324.331 193.126 324.215 193.605L324.19 193.688C324.19 193.584 324.19 193.484 324.219 193.384C323.927 194.609 323.788 195.865 323.804 197.124C323.766 199.285 324.095 201.845 325.403 203.358C327.671 205.959 329.096 205.635 329.096 205.635C329.096 205.635 328.008 208.885 326.662 209.537C326.611 209.562 326.563 209.592 326.521 209.629C326.521 209.562 326.496 209.5 326.487 209.438C326.337 209.6 326.223 209.792 326.151 210.001C326.08 210.209 326.053 210.431 326.072 210.651C325.976 212.081 326.878 214.391 327.733 215.468C328.051 215.779 328.441 216.007 328.868 216.133C328.8 216.18 328.729 216.223 328.656 216.261C328.506 216.343 328.352 216.417 328.195 216.482C327.976 216.574 327.745 216.635 327.509 216.66C327.054 216.672 326.606 216.782 326.196 216.981C325.787 217.18 325.424 217.465 325.133 217.816C324.302 218.896 323.771 220.371 325.424 221.668L331.426 223.746C331.426 223.746 341.687 225.063 341.147 222.748Z" fill="url(#paint0_linear)"/>
        <path d="M301.719 226.588L295.904 224.51C294.3 223.214 294.811 221.739 295.621 220.654C295.9 220.308 296.25 220.026 296.647 219.827C297.044 219.627 297.479 219.515 297.923 219.499C298.316 219.448 298.695 219.314 299.032 219.104C299.4 218.903 299.716 218.619 299.954 218.273C300.378 217.599 300.607 216.821 300.614 216.024C300.614 216.024 306.995 214.154 308.74 216.024C309.051 216.363 309.311 216.745 309.512 217.159C310.092 218.45 310.376 219.854 310.343 221.269C310.343 221.269 310.667 223.297 311.195 225.616C311.722 227.935 301.719 226.588 301.719 226.588Z" fill="#2D293D"/>
        <path d="M330.153 223.721L324.337 221.643C322.734 220.347 323.245 218.871 324.055 217.791C324.332 217.444 324.68 217.161 325.077 216.961C325.473 216.762 325.908 216.651 326.352 216.636C326.582 216.612 326.806 216.552 327.017 216.457C327.17 216.392 327.32 216.319 327.465 216.237C329.09 215.343 329.048 213.149 329.048 213.149C329.048 213.149 335.425 211.279 337.173 213.149C337.407 213.402 337.612 213.681 337.784 213.98C338.877 215.871 338.756 218.393 338.756 218.393C338.756 218.393 339.08 220.426 339.587 222.74C340.094 225.055 330.153 223.721 330.153 223.721Z" fill="#2D293D"/>
        <path opacity="0.1" d="M308.746 216.02C309.058 216.359 309.318 216.741 309.519 217.155L299.965 218.264C300.389 217.591 300.618 216.812 300.625 216.016C300.625 216.016 307.002 214.15 308.746 216.02Z" fill="black"/>
        <path opacity="0.1" d="M337.791 213.988V215.78C336.304 218.227 329.113 217.691 327.023 216.465C327.177 216.4 327.327 216.327 327.472 216.245C329.096 215.352 329.055 213.157 329.055 213.157C329.055 213.157 335.431 211.287 337.18 213.157C337.414 213.411 337.619 213.689 337.791 213.988Z" fill="black"/>
        <path d="M338.923 206.267C338.479 207.048 338.099 207.863 337.789 208.706V215.127C336.161 217.807 327.716 216.914 326.573 215.451C325.431 213.988 324.239 210.182 325.522 209.521C326.806 208.86 327.878 205.619 327.878 205.619C327.878 205.619 326.494 205.943 324.301 203.341C322.108 200.74 322.76 194.972 323.167 193.592C323.574 192.213 323.167 187.579 323.167 187.579C323.167 187.579 323.25 184.325 322.602 183.27C321.954 182.214 320.571 176.205 320.571 176.205C320.571 176.205 320.571 174.173 319.432 173.117C318.294 172.062 317.563 167.914 317.563 167.914C316.898 166.878 316.611 165.643 316.753 164.419C316.994 162.387 315.37 160.193 315.37 160.193L312.607 151.412L310.007 144.83L308.545 148.649C308.545 148.649 308.129 157.587 308.466 159.453C308.802 161.319 309.297 166.281 309.297 166.281C309.297 166.281 307.672 169.531 308.403 172.294C309.135 175.058 308.869 180.996 308.869 180.996C308.869 180.996 309.6 193.264 308.948 194.241C308.295 195.217 308.379 197.656 308.379 197.656C308.379 197.656 311.702 204.804 310.655 205.781C309.608 206.757 309.924 209.438 309.924 209.438C309.924 209.438 312.196 209.438 311.224 210.414C310.252 211.391 309.517 216.511 309.517 216.511L299.692 217.662C299.692 217.662 298.795 216.527 297.495 213.506C296.195 210.485 297.736 210.826 299.044 210.498C300.353 210.169 299.526 209.363 297.981 208.386C296.436 207.41 297.333 205.216 297.333 205.216C297.333 205.216 299.688 201.235 298.874 200.91C298.06 200.586 297.981 194.976 297.981 194.976C297.981 194.976 296.357 188.327 296.764 186.523C297.171 184.72 295.464 180.431 295.464 180.431L294.895 175.311C293.156 172.406 292.522 168.972 293.108 165.637V157.741C293.108 157.741 290.832 142.465 290.508 134.744C290.3 129.798 290.358 123.05 290.425 118.84C290.466 116.48 290.508 114.913 290.508 114.913L325.601 111.256C325.601 111.256 325.568 112.877 326.237 116.471C326.598 118.399 327.159 120.897 328.04 124.018C330.557 132.957 329.016 139.618 329.016 139.618L328.688 150.918C328.688 150.918 331.774 158.473 331.126 161.074C330.734 162.619 330.514 164.202 330.47 165.795C330.47 165.795 337.374 182.293 336.643 187.089C335.912 191.884 338.915 199.443 338.915 199.443C338.915 199.443 339.737 204.804 338.923 206.267Z" fill="#464353"/>
        <path opacity="0.05" d="M318.859 163.929L329.544 162.503C329.544 162.503 323.491 168.683 318.859 163.929Z" fill="black"/>
        <path opacity="0.1" d="M327.999 152.06C327.999 152.06 328.365 155.842 326.051 157.263C326.051 157.263 330.192 156.615 327.999 152.06Z" fill="black"/>
        <path opacity="0.1" d="M327.344 140.034C327.344 140.034 318.413 147.389 315.164 146.779C311.916 146.168 327.344 140.034 327.344 140.034Z" fill="black"/>
        <path opacity="0.1" d="M305.616 167.378C305.616 167.378 298.833 168.92 298.629 171.646C298.426 174.372 305.616 167.378 305.616 167.378Z" fill="black"/>
        <path opacity="0.05" d="M307.107 201.271C307.107 201.271 297.523 203.058 300.244 204.276C302.965 205.494 307.435 206.47 307.435 206.47C307.435 206.47 310.53 206.632 307.107 201.271Z" fill="black"/>
        <g opacity="0.05">
            <path opacity="0.05" d="M298.311 206.213C298.07 206.063 297.866 205.86 297.714 205.619C297.563 205.379 297.467 205.108 297.435 204.825L297.335 204.996C297.335 204.996 296.442 207.19 297.987 208.162C298.162 208.274 298.332 208.387 298.486 208.495C298.772 208.441 299.08 208.399 299.374 208.324C300.683 208 299.856 207.19 298.311 206.213Z" fill="black"/>
            <path opacity="0.05" d="M310.656 205.561C310.921 205.32 310.913 204.696 310.751 203.898C310.336 204.526 310.215 205.507 310.207 206.251C310.308 205.992 310.461 205.758 310.656 205.561Z" fill="black"/>
            <path opacity="0.05" d="M309.183 165.13C308.83 166.091 308.612 167.097 308.535 168.118C308.72 167.412 308.969 166.725 309.279 166.065L309.183 165.13Z" fill="black"/>
            <path opacity="0.05" d="M331.132 160.866C331.196 160.574 331.225 160.276 331.219 159.977C331.098 160.584 331.015 161.145 330.953 161.639C331.007 161.386 331.065 161.145 331.132 160.866Z" fill="black"/>
            <path opacity="0.05" d="M308.955 194.024C309.088 193.825 309.163 193.151 309.196 192.216C308.895 192.94 308.736 193.714 308.727 194.498C308.783 194.331 308.86 194.172 308.955 194.024Z" fill="black"/>
            <path opacity="0.05" d="M310.947 209.351C310.443 210.981 310.069 212.648 309.829 214.337L300.005 215.472C300.005 215.472 299.108 214.337 297.807 211.316C297.702 211.083 297.61 210.844 297.529 210.601C296.939 210.872 296.698 211.482 297.479 213.265C298.779 216.274 299.681 217.421 299.681 217.421L309.505 216.282C309.505 216.282 310.236 211.162 311.208 210.186C311.707 209.716 311.399 209.471 310.947 209.351Z" fill="black"/>
            <path opacity="0.05" d="M297.987 194.756C297.987 194.756 298.066 200.362 298.88 200.686C299.295 199.759 299.565 198.878 299.2 198.733C298.369 198.409 298.306 192.798 298.306 192.798C298.306 192.798 296.682 186.149 297.089 184.346C297.496 182.542 295.789 178.253 295.789 178.253L295.22 173.134C293.482 170.228 292.848 166.794 293.434 163.459V155.563C293.434 155.563 291.157 140.287 290.833 132.566C290.626 127.621 290.684 120.872 290.75 116.662C290.75 115.902 290.775 115.229 290.788 114.659L290.509 114.688C290.509 114.688 290.464 116.251 290.426 118.615C290.36 122.825 290.297 129.574 290.509 134.515C290.833 142.236 293.106 157.517 293.106 157.517V165.412C292.523 168.746 293.158 172.179 294.896 175.083L295.461 180.202C295.461 180.202 297.168 184.508 296.761 186.299C296.354 188.09 297.987 194.756 297.987 194.756Z" fill="black"/>
            <path opacity="0.05" d="M326.906 213.282C326.108 212.126 325.576 210.807 325.349 209.421C324.347 210.327 325.498 213.843 326.595 215.239C327.729 216.702 336.178 217.595 337.811 214.911V213.365C335.597 215.538 327.978 214.665 326.906 213.282Z" fill="black"/>
            <path opacity="0.05" d="M339.251 204.097C338.806 204.878 338.425 205.694 338.113 206.537V207.688C338.3 207.273 338.562 206.716 338.944 206.059C339.201 205.419 339.323 204.733 339.301 204.043C339.301 204.043 339.264 204.081 339.251 204.097Z" fill="black"/>
            <path opacity="0.05" d="M327.407 205.382C327.716 204.755 327.984 204.11 328.209 203.449C328.209 203.449 326.826 203.773 324.632 201.172C323.037 199.281 322.946 195.707 323.174 193.372C322.759 194.755 322.115 200.524 324.308 203.125C325.741 204.825 326.826 205.273 327.407 205.382Z" fill="black"/>
            <path opacity="0.05" d="M323.168 187.359C323.312 188.96 323.366 190.568 323.33 192.175C323.371 191.921 323.426 191.67 323.497 191.423C323.912 190.039 323.497 185.41 323.497 185.41C323.497 185.41 323.58 182.156 322.927 181.1C322.275 180.045 320.917 174.027 320.917 174.027C320.917 174.027 320.917 171.995 319.779 170.94C318.64 169.884 317.909 165.737 317.909 165.737C317.238 164.702 316.944 163.468 317.079 162.242C317.324 160.21 315.699 158.015 315.699 158.015L312.937 149.239L310.337 142.656L308.87 146.479C308.87 146.479 308.87 146.961 308.82 147.726L310.008 144.622L312.609 151.192L315.371 159.969C315.371 159.969 316.995 162.163 316.75 164.195C316.616 165.421 316.91 166.656 317.581 167.69C317.581 167.69 318.312 171.846 319.45 172.893C320.589 173.94 320.585 175.98 320.585 175.98C320.585 175.98 321.968 181.994 322.616 183.045C323.264 184.096 323.168 187.359 323.168 187.359Z" fill="black"/>
        </g>
        <path d="M329.988 37.8374L329.377 40.8045L329.414 42.126L329.439 43.0984L326.05 43.4475L325.672 42.7452C324.97 41.4736 323.512 38.8887 323.042 38.4898C322.415 37.9662 321.297 29.713 322.627 30.2034C323.445 30.5195 324.117 31.1281 324.513 31.9114C324.513 31.9114 331.188 32.676 329.988 37.8374Z" fill="#FFCDD3"/>
        <path opacity="0.1" d="M329.44 43.0986L326.05 43.4476L325.672 42.7453C326.128 42.2261 326.75 41.881 327.431 41.7689C328.113 41.6567 328.812 41.7844 329.411 42.1303L329.44 43.0986Z" fill="black"/>
        <path d="M330.295 44.7068L325.826 45.7416L325.73 45.0767L325.477 43.2856C325.477 43.2856 327.246 40.9252 329.805 42.6955L330.029 43.6056L330.295 44.7068Z" fill="#2D9CDB"/>
        <path d="M257.891 38.1616L253.118 40.7215L252.702 39.8239C252.25 38.8722 251.573 37.4385 251.386 36.9149C251.103 36.1253 249.113 35.128 249.113 35.128C244.129 30.3531 250.069 26.2473 250.069 26.2473C253.218 19.9099 256.715 28.3999 256.715 28.3999C256.715 28.3999 257.205 32.8756 256.861 33.1748C256.516 33.474 256.516 34.6999 256.516 34.6999C256.971 35.5782 257.356 36.4912 257.667 37.4302C257.812 37.8832 257.891 38.1616 257.891 38.1616Z" fill="#FFCDD3"/>
        <path opacity="0.1" d="M257.892 38.1615L253.119 40.7214L252.703 39.8238C253.376 39.2586 255.765 37.3304 256.55 37.4093C256.925 37.4561 257.303 37.4659 257.68 37.4384C257.813 37.8831 257.892 38.1615 257.892 38.1615Z" fill="black"/>
        <path d="M258.378 39.6035L253.015 42.2465L252.907 41.0954L252.832 40.2975C252.832 40.2975 255.939 37.6337 256.857 37.7376C257.322 37.8049 257.793 37.8049 258.257 37.7376L258.32 38.7017L258.378 39.6035Z" fill="#2D9CDB"/>
        <path d="M316.991 57.5479C316.991 57.5479 293.612 60.1868 297.982 58.7655C301.023 57.7723 302.231 55.8565 302.485 53.6956C302.693 51.8962 302.227 49.9555 301.617 48.2932C301.067 46.8185 300.371 45.4027 299.54 44.0669C299.54 44.0669 317.402 34.2345 313.834 43.1734C313.283 44.5254 312.942 45.9533 312.82 47.408C312.713 48.8537 312.869 50.3069 313.281 51.6967C313.955 53.9518 315.239 55.9768 316.991 57.5479Z" fill="#FFCDD3"/>
        <path opacity="0.1" d="M313.821 43.1609C313.27 44.513 312.929 45.9408 312.807 47.3956C311.125 48.8127 309.28 48.7171 306.908 48.7171C305.089 48.7171 303.07 49.1576 301.616 48.2807C301.067 46.8061 300.371 45.3902 299.539 44.0544C299.539 44.0544 317.397 34.2221 313.821 43.1609Z" fill="black"/>
        <path d="M306.592 49.3405C311.931 49.3405 316.259 45.011 316.259 39.6703C316.259 34.3295 311.931 30 306.592 30C301.254 30 296.926 34.3295 296.926 39.6703C296.926 45.011 301.254 49.3405 306.592 49.3405Z" fill="#FFCDD3"/>
        <path opacity="0.1" d="M316.991 57.5478C316.991 57.5478 293.612 60.1867 297.982 58.7654C301.023 57.7722 302.231 55.8565 302.485 53.6955C303.648 52.4488 305.987 51.5221 307.47 51.04C308.841 50.5788 310.321 50.5541 311.707 50.9694C312.252 51.1336 312.771 51.3743 313.248 51.6842C313.929 53.9476 315.225 55.9775 316.991 57.5478Z" fill="black"/>
        <path opacity="0.1" d="M330.296 44.7067L325.826 45.7415L325.73 45.0766C326.209 44.419 326.879 43.9249 327.648 43.6616C328.417 43.3984 329.249 43.3788 330.03 43.6055L330.296 44.7067Z" fill="black"/>
        <path opacity="0.1" d="M258.377 39.6034L253.014 42.2465L252.906 41.0953C254.643 40.161 256.449 39.3594 258.306 38.6975L258.377 39.6034Z" fill="black"/>
        <path opacity="0.1" d="M326.238 116.48C317.178 117.926 304.3 119.771 302.257 119.147C300.558 118.632 295.141 118.686 290.426 118.848C290.467 116.488 290.509 114.921 290.509 114.921L325.602 111.264C325.602 111.264 325.569 112.885 326.238 116.48Z" fill="black"/>
        <path d="M335.269 114.352C335.269 114.352 305.455 119.471 302.257 118.507C299.058 117.543 282.629 118.586 282.629 118.586C275.234 123.544 278.321 116.23 278.321 116.23C278.321 116.23 277.673 112.411 278.566 109.323C279.166 107.056 279.576 104.743 279.791 102.408C279.791 102.408 279.629 97.5295 280.523 96.3908C281.416 95.2522 282.475 87.1278 282.475 87.1278C282.475 87.1278 283.285 81.6008 283.206 80.3832C283.127 79.1656 283.447 75.7496 283.447 75.7496L284.506 70.0605C278.412 69.2501 259.889 57.8719 259.889 57.8719C258.996 54.0528 252.092 45.114 252.092 45.114C251.992 44.3623 251.801 43.6255 251.523 42.9198C251.037 41.619 258.348 39.0176 258.348 39.0176C258.348 39.0176 263.79 45.6667 264.928 47.4702C266.066 49.2738 269.963 52.59 269.963 52.59C270.568 52.5277 271.18 52.6074 271.749 52.8227L271.845 52.8518C273.151 53.3647 274.375 54.0646 275.48 54.9297C277.311 54.8862 279.089 55.5568 280.435 56.7997C280.435 56.7997 283.759 56.3093 284.336 56.8787C284.913 57.448 287.746 56.8787 287.746 56.8787C287.746 56.8787 290.588 50.8654 292.457 52.6108C294.326 54.3562 302.257 54.2731 302.257 54.2731C303.312 52.8684 305.883 51.8628 307.491 51.3641C308.862 50.9047 310.342 50.8801 311.728 51.2934C312.326 51.4719 312.888 51.7532 313.389 52.1246L318.212 56.8371C318.212 56.8371 319.591 55.046 319.429 54.6429C319.267 54.2398 321.054 53.9115 321.054 53.9115C321.054 53.9115 323.409 53.1801 324.302 52.9349C325.195 52.6897 326.014 53.658 326.088 53.7453C326.059 53.6414 325.449 51.6675 325.673 50.1714C325.897 48.6754 324.697 47.2624 324.697 47.2624C327.538 40.2726 333.956 46.1238 333.956 46.1238C333.956 46.1238 334.687 49.9428 334.039 51.4056C333.391 52.8684 334.687 55.9561 334.525 56.7706C334.363 57.5851 334.853 58.9648 334.853 60.5107C334.853 62.0566 334.023 64.9781 333.553 66.2788C333.084 67.5795 329.166 70.5051 329.166 70.5051C329.166 70.5051 328.921 75.1387 327.214 77.8191C325.507 80.4995 326.578 89.6669 326.578 89.6669C326.578 89.6669 328.203 96.8189 330.234 99.0962C332.265 101.373 335.269 114.352 335.269 114.352Z" fill="#3F3D56"/>
        <path opacity="0.1" d="M291.809 60.8764C291.809 60.8764 290.916 58.196 290.101 57.9675C289.293 57.67 288.506 57.3173 287.746 56.9119L288.269 55.9104C288.269 55.9104 291.319 56.7415 291.809 57.6433C292.299 58.5451 291.809 60.8764 291.809 60.8764Z" fill="black"/>
        <path opacity="0.1" d="M275.48 54.9463C275.318 55.7774 268.086 56.4881 268.086 56.4881L271.742 52.8228L271.833 52.856C273.144 53.3716 274.373 54.0758 275.48 54.9463Z" fill="black"/>
        <path d="M254.558 44.4408C254.916 44.4408 255.206 44.1506 255.206 43.7926C255.206 43.4345 254.916 43.1443 254.558 43.1443C254.2 43.1443 253.91 43.4345 253.91 43.7926C253.91 44.1506 254.2 44.4408 254.558 44.4408Z" fill="#575988"/>
        <path d="M255.39 45.7416C255.748 45.7416 256.038 45.4514 256.038 45.0934C256.038 44.7353 255.748 44.4451 255.39 44.4451C255.032 44.4451 254.742 44.7353 254.742 45.0934C254.742 45.4514 255.032 45.7416 255.39 45.7416Z" fill="#575988"/>
        <path d="M256.203 46.9426C256.561 46.9426 256.851 46.6523 256.851 46.2943C256.851 45.9362 256.561 45.646 256.203 45.646C255.845 45.646 255.555 45.9362 255.555 46.2943C255.555 46.6523 255.845 46.9426 256.203 46.9426Z" fill="#575988"/>
        <path d="M257.058 48.2392C257.416 48.2392 257.706 47.9489 257.706 47.5909C257.706 47.2329 257.416 46.9426 257.058 46.9426C256.7 46.9426 256.41 47.2329 256.41 47.5909C256.41 47.9489 256.7 48.2392 257.058 48.2392Z" fill="#575988"/>
        <path d="M333.633 48.048C333.924 48.048 334.161 47.8117 334.161 47.5202C334.161 47.2287 333.924 46.9924 333.633 46.9924C333.342 46.9924 333.105 47.2287 333.105 47.5202C333.105 47.8117 333.342 48.048 333.633 48.048Z" fill="#575988"/>
        <path d="M333.715 49.2489C334.006 49.2489 334.243 49.0126 334.243 48.7211C334.243 48.4297 334.006 48.1934 333.715 48.1934C333.424 48.1934 333.188 48.4297 333.188 48.7211C333.188 49.0126 333.424 49.2489 333.715 49.2489Z" fill="#575988"/>
        <path d="M333.785 50.4457C334.077 50.4457 334.313 50.2094 334.313 49.9179C334.313 49.6264 334.077 49.3901 333.785 49.3901C333.494 49.3901 333.258 49.6264 333.258 49.9179C333.258 50.2094 333.494 50.4457 333.785 50.4457Z" fill="#575988"/>
        <path opacity="0.1" d="M291.84 82.9017C291.761 82.8061 310.076 105.941 324.291 92.5719C324.304 92.5761 301.843 95.6222 291.84 82.9017Z" fill="black"/>
        <path opacity="0.1" d="M281.328 94.928C281.328 94.928 292.286 95.2272 293.433 98.3813V101.664C293.121 101.838 292.77 101.928 292.413 101.928C292.056 101.928 291.705 101.838 291.393 101.664C290.288 101.066 283.663 97.6998 281.328 99.3205V94.928Z" fill="black"/>
        <path d="M281.531 94.928C281.531 94.928 292.012 95.2147 293.109 98.2234V101.348C292.81 101.514 292.474 101.601 292.132 101.601C291.791 101.601 291.455 101.514 291.156 101.348C290.101 100.783 283.766 97.571 281.531 99.1169V94.928Z" fill="#3F3D56"/>
        <path opacity="0.1" d="M287.312 71.1243C288.432 73.7168 289.859 76.1653 291.562 78.4175C293.414 80.9068 295.659 83.0781 298.209 84.8463C298.209 84.8463 287.495 72.6286 287.312 71.1243Z" fill="black"/>
        <path opacity="0.1" d="M283.727 58.3875C283.727 58.3875 285.554 66.2832 290.265 68.9636L283.727 58.3875Z" fill="black"/>
        <path opacity="0.1" d="M280.921 59.1851C280.875 59.0396 279.297 65.4186 286.994 68.9634C286.994 68.9634 283.725 67.8538 280.921 59.1851Z" fill="black"/>
        <path opacity="0.1" d="M328.772 53.8908C328.652 53.8908 332.569 56.3842 333.637 57.5477C333.637 57.5477 331.086 53.7245 328.772 53.8908Z" fill="black"/>
        <path d="M303.981 48.4345C303.982 48.6454 304.027 48.8538 304.113 49.0464C304.199 49.239 304.325 49.4117 304.481 49.5534C304.637 49.6952 304.821 49.803 305.021 49.8701C305.221 49.9371 305.432 49.962 305.642 49.943C308.588 50.1258 311.657 50.2547 314.366 49.1118C314.874 48.9304 315.33 48.6281 315.695 48.2308C316.177 47.6366 316.273 46.8304 316.468 46.0907C316.85 44.6445 317.664 43.3604 318.25 41.9849C319.241 39.6609 319.573 37.1088 319.209 34.6085C319.133 33.8421 318.88 33.1039 318.47 32.4517C317.689 31.3339 316.264 30.8809 315.23 29.9916C314.195 29.1023 313.531 27.7434 312.322 27.0826C311.234 26.4759 309.9 26.5507 308.675 26.7585C306.264 27.1679 303.955 28.0355 301.87 29.3142C301.168 29.7298 300.4 30.2409 299.594 30.0872C298.888 29.9542 298.373 29.3599 297.932 28.8031C297.366 30.1329 297.128 31.5797 297.239 33.0211C297.269 33.2326 297.262 33.4478 297.218 33.6569C297.116 33.9096 296.962 34.1377 296.765 34.3259C296.038 35.1571 295.585 36.5077 296.304 37.3637C296.616 37.7336 297.097 37.9372 297.401 38.3154C297.945 38.9928 297.762 39.9777 297.75 40.842C297.72 41.1439 297.796 41.4467 297.966 41.6981C298.123 41.8447 298.315 41.9481 298.524 41.9983C298.733 42.0486 298.951 42.0439 299.158 41.9849C299.569 41.8608 300.001 41.8199 300.429 41.8643C300.879 42.0109 301.268 42.3033 301.534 42.6955C302.876 44.445 303.407 46.3483 303.981 48.4345Z" fill="#2D293D"/>
        <g opacity="0.1">
            <path opacity="0.1" d="M316.04 47.4953C315.675 47.8925 315.218 48.1949 314.71 48.3763C311.985 49.5108 308.92 49.382 305.987 49.2074C305.672 49.2106 305.361 49.1409 305.077 49.0038C304.629 48.742 304.458 48.1934 304.321 47.6948C303.748 45.6169 303.22 43.7095 301.858 41.9766C301.595 41.5768 301.206 41.2768 300.753 41.1246C300.325 41.0843 299.894 41.1252 299.482 41.2452C299.275 41.3048 299.057 41.3101 298.849 41.2606C298.64 41.211 298.447 41.1084 298.29 40.9626C298.12 40.7111 298.044 40.4083 298.073 40.1065C298.073 39.2338 298.269 38.2572 297.725 37.5799C297.421 37.2017 296.939 36.9981 296.628 36.624C296.425 36.3483 296.3 36.0226 296.267 35.6816C296.234 35.3406 296.294 34.997 296.441 34.6875C295.922 35.5186 295.702 36.5617 296.304 37.2765C296.615 37.6463 297.097 37.85 297.401 38.2281C297.945 38.9097 297.762 39.8904 297.749 40.7548C297.718 41.0562 297.793 41.3592 297.961 41.6109C298.119 41.7581 298.312 41.8619 298.522 41.9122C298.731 41.9625 298.951 41.9574 299.158 41.8976C299.569 41.7736 300.001 41.7326 300.429 41.7771C300.879 41.9236 301.268 42.216 301.534 42.6082C302.892 44.3411 303.424 46.2444 303.997 48.3306C304.064 48.8439 304.321 49.3137 304.716 49.6479C305.001 49.7852 305.314 49.8535 305.63 49.8474C308.575 50.0302 311.645 50.1632 314.353 49.0163C314.862 48.8361 315.318 48.5335 315.682 48.1353C315.866 47.9012 316.006 47.6367 316.098 47.354C316.102 47.408 316.073 47.4537 316.04 47.4953Z" fill="black"/>
            <path opacity="0.1" d="M297.238 33.4034C297.369 33.2617 297.469 33.0948 297.533 32.9131C297.571 32.7028 297.571 32.4875 297.533 32.2772C297.452 31.0924 297.606 29.9033 297.986 28.7782L297.932 28.7158C297.364 30.0437 297.126 31.4896 297.238 32.9297C297.251 33.0873 297.251 33.2458 297.238 33.4034Z" fill="black"/>
        </g>
        <path opacity="0.1" d="M302.258 54.294C302.258 54.294 314.334 55.898 315.418 54.082L302.258 54.294Z" fill="black"/>
        <path opacity="0.1" d="M325.73 49.2944C325.73 49.2944 332.443 49.2944 333.918 51.8211L325.73 49.2944Z" fill="black"/>
        <path d="M363.287 273.763C361.296 275.544 358.709 276.511 356.039 276.473C355.357 276.473 354.414 276.602 354.41 277.283C354.427 277.483 354.495 277.675 354.61 277.84C355.453 279.246 356.783 280.292 358.348 280.778C359.802 281.219 361.356 281.144 362.872 281.065L367.296 280.836C368.127 280.791 368.958 280.749 369.788 280.645C370.619 280.541 371.525 280.371 372.393 280.23C374.526 279.926 376.684 279.826 378.836 279.931C379.409 279.951 380.082 279.931 380.423 279.515C380.763 279.099 380.589 278.306 380.46 277.682C380.194 276.398 380.46 275.052 380.215 273.763C379.8 271.503 377.843 269.77 375.7 268.951C373.706 268.195 370.175 267.326 368.289 268.59C366.299 269.915 365.082 272.13 363.287 273.763Z" fill="#3F3D56"/>
        <path d="M367.684 198.022C368.075 199.88 369.873 201.301 369.923 203.196C369.969 204.717 368.885 205.993 368.104 207.293C367.368 208.641 366.747 210.047 366.247 211.499C364.776 215.278 362.952 218.91 360.797 222.345C359.758 224.008 358.595 225.782 358.832 227.714C358.997 228.618 359.316 229.487 359.775 230.283L362.89 236.475C363.573 237.711 364.107 239.023 364.481 240.385C364.751 241.561 364.776 242.779 364.934 243.976C365.424 247.774 367.206 251.597 366.151 255.279C366.06 255.595 365.736 255.977 365.482 255.757C366.513 257.681 367.339 259.618 367.26 261.799C367.219 262.942 366.87 264.135 367.289 265.199C367.468 265.643 367.78 266.059 367.775 266.537C367.775 266.853 367.63 267.148 367.597 267.455C367.51 268.332 368.315 269.063 369.15 269.342C369.985 269.62 370.895 269.6 371.738 269.853C373.358 270.339 374.517 271.736 375.892 272.704C377.303 273.676 378.966 274.217 380.678 274.262C380.922 274.288 381.169 274.239 381.384 274.121C381.506 274.014 381.604 273.883 381.671 273.735C381.739 273.587 381.774 273.427 381.775 273.265C381.85 272.489 381.733 271.706 381.435 270.986C381.136 270.265 380.665 269.629 380.063 269.134C379.799 268.969 379.581 268.74 379.428 268.469C379.35 268.229 379.33 267.974 379.369 267.725C379.62 264.319 379.559 260.897 379.187 257.502C379.019 256.426 378.964 255.336 379.025 254.248C379.112 253.342 379.386 252.445 379.286 251.543C379.187 250.641 378.725 249.818 378.455 248.95C377.974 247.404 378.107 245.742 378.04 244.125C377.957 241.316 377.313 238.557 376.673 235.814C376.42 234.737 376.142 233.611 375.381 232.813C374.733 232.136 373.687 231.488 373.932 230.586C374.067 230.254 374.27 229.952 374.526 229.701C374.827 229.323 375.047 228.888 375.174 228.422C375.302 227.956 375.332 227.469 375.265 226.991C375.538 227.061 375.827 227.034 376.083 226.914C376.338 226.794 376.544 226.589 376.665 226.335C381.725 223.945 385.804 219.166 387.623 213.868C387.731 213.474 387.896 213.099 388.114 212.754C388.583 212.097 389.397 211.815 390.12 211.453C392.388 210.31 393.954 208.17 395.391 206.076C396.222 204.862 397.053 203.607 397.427 202.178C397.624 201.253 397.717 200.31 397.705 199.364L397.834 194.481C397.862 194.16 397.831 193.836 397.743 193.526C397.619 193.236 397.44 192.973 397.215 192.753C395.833 191.291 394.019 190.312 392.039 189.96C390.71 189.723 389.352 189.769 388.006 189.657C385.397 189.441 382.821 188.63 380.213 188.826C376.113 189.129 372.461 191.971 370.53 195.603C369.852 196.883 369.138 197.997 367.684 198.022Z" fill="#464353"/>
        <path d="M344.917 166.273C344.972 167.027 344.871 167.784 344.618 168.496C344.298 169.178 343.496 169.71 342.794 169.431C343.006 168.953 342.446 168.409 341.922 168.467C341.665 168.527 341.425 168.648 341.225 168.82C341.025 168.992 340.869 169.211 340.771 169.456C340.424 170.154 340.308 170.944 340.439 171.713C340.605 172.669 341.158 173.587 341.012 174.547C340.896 175.345 340.31 176.139 340.622 176.878C340.824 177.216 341.078 177.521 341.374 177.78C341.784 178.286 341.985 178.93 341.935 179.579C341.885 180.229 341.587 180.834 341.104 181.271L348.963 181.429C348.677 182.742 349.266 184.084 349.939 185.252C351.824 188.462 354.427 191.192 357.543 193.228C360.66 195.263 364.205 196.549 367.902 196.983C367.702 197.1 367.53 197.26 367.4 197.451C367.269 197.642 367.183 197.86 367.146 198.089C367.11 198.317 367.125 198.551 367.19 198.773C367.256 198.995 367.369 199.2 367.524 199.373C368.163 200.009 369.247 199.93 370.049 199.518C370.851 199.107 371.478 198.426 372.209 197.898C373.5 196.983 375.075 196.558 376.65 196.701C377.634 196.796 378.59 197.116 379.579 197.166C382.486 197.32 384.979 195.226 387.779 194.37C389.818 193.742 392.132 193.742 393.844 192.466C394.583 191.918 395.19 191.016 394.974 190.127C394.795 189.616 394.512 189.147 394.143 188.751C393.158 187.475 392.577 185.942 391.87 184.492C390.471 181.62 388.545 179.038 386.192 176.878C384.416 175.325 382.533 173.898 380.559 172.606C380.082 172.254 379.573 171.946 379.039 171.688C378.349 171.385 377.585 171.239 376.962 170.857C376.039 170.275 375.508 169.249 374.797 168.422C373.24 166.601 370.847 165.766 368.928 164.337C367.64 163.377 366.502 162.113 364.965 161.652C364.217 161.423 363.423 161.407 362.676 161.182C360.977 160.667 359.739 159.159 358.073 158.548C356.756 158.066 355.302 158.19 353.919 158.02C352.36 157.827 350.87 157.26 349.578 156.366C349.162 156.027 348.695 155.755 348.195 155.56C346.089 154.92 345.918 158.843 345.702 160.202C345.424 162.221 344.917 164.228 344.917 166.273Z" fill="#2D9CDB"/>
        <path d="M346.972 179.43C347.325 183.261 344.434 186.972 345.277 190.725C345.456 191.523 345.8 192.283 345.925 193.093C346.278 195.317 344.949 197.424 343.682 199.285L332.798 215.264C332.361 215.965 331.84 216.61 331.245 217.184C329.168 219.033 326.044 218.846 323.311 219.395C321.39 219.789 319.577 220.592 317.993 221.747C317.922 221.802 317.875 221.883 317.863 221.972C317.85 222.062 317.873 222.152 317.927 222.225C318.378 222.839 318.976 223.332 319.666 223.656C320.356 223.98 321.116 224.127 321.877 224.082C322.164 224.456 321.877 225.013 321.483 225.283C320.901 225.699 320.095 225.794 319.979 226.788C319.94 227.133 320.009 227.482 320.178 227.785C320.618 228.455 321.3 228.928 322.081 229.107C325.849 230.262 329.92 228.234 332.74 225.479C335.561 222.723 337.584 219.245 340.35 216.444C341.883 214.89 343.624 213.564 345.202 212.06C348.351 209.055 350.802 205.411 353.161 201.758C353.872 200.657 354.59 199.526 354.885 198.251C355.18 196.975 355.043 195.682 355.38 194.448C355.82 192.832 357.004 191.539 357.988 190.184C359.92 187.525 361.212 184.271 360.954 180.992C360.697 177.713 358.67 174.48 355.579 173.366C354.62 172.985 353.565 172.921 352.567 173.184C351.3 173.574 350.366 174.621 349.502 175.627L347.425 178.013C346.919 178.541 346.522 179.163 346.257 179.845C346.123 180.189 346.091 180.563 346.165 180.925C346.239 181.286 346.415 181.618 346.673 181.881" fill="#FBBEBE"/>
        <path d="M352.487 163.713C351.058 163.796 349.483 163.937 348.474 164.96C348.05 165.429 347.708 165.966 347.46 166.547C346.48 168.546 345.524 170.636 345.454 172.864C345.396 174.642 345.911 176.384 346.181 178.142C346.405 179.604 345.836 181.096 345.728 182.576C347.502 182.031 349.845 181.292 351.452 180.373C352.549 179.746 353.608 179.031 354.805 178.632C356.512 178.063 359.374 179.048 360.998 179.837C361.086 178.698 360.23 176.712 360.321 175.569C360.334 175.088 360.419 174.612 360.575 174.156C360.818 173.674 361.105 173.217 361.434 172.789C362.053 171.783 362.337 170.608 362.247 169.431C362.157 168.253 361.696 167.135 360.932 166.236C359.49 164.615 357.235 164.008 355.083 163.742C353.728 163.585 352.362 163.538 350.999 163.601" fill="#2D9CDB"/>
    </g>
    <defs>
        <linearGradient id="paint0_linear" x1="293.367" y1="226.975" x2="293.367" y2="23.9034" gradientUnits="userSpaceOnUse">
            <stop stop-color="#808080" stop-opacity="0.25"/>
            <stop offset="0.54" stop-color="#808080" stop-opacity="0.12"/>
            <stop offset="1" stop-color="#808080" stop-opacity="0.1"/>
        </linearGradient>
        <clipPath id="clip0">
            <rect width="436" height="282" fill="white"/>
        </clipPath>
    </defs>
</svg>
