<svg width="60" height="60" viewBox="0 0 60 60" fill="none" xmlns="http://www.w3.org/2000/svg">
    <path d="M60 0H0V60H60V0Z" fill="#D94F00"/>
    <path d="M49.4991 11.6411H34.125V26.8642H49.4991V11.6411Z" fill="white"/>
    <path d="M15.5352 34.5603V36.0551H18.191V43.9452H20.0107V35.9986H22.4796V34.5059L15.5352 34.5603Z" fill="white"/>
    <path d="M14.1739 36.4087V34.9226C12.7062 34.2632 11.0273 34.0718 9.28901 34.9226C6.45492 36.1737 6.3559 42.3687 9.18999 43.5894C10.8117 44.4119 14.2157 44.0246 14.5413 43.3065V38.3954H11.1879V39.6901H12.6688V42.2773C7.79495 44.6099 6.89059 33.3559 14.1739 36.4087Z" fill="white"/>
    <path d="M25.4567 39.6055H27.2016C28.6494 39.673 29.0191 42.3581 27.1421 42.3494H25.4567V39.6055ZM25.4567 35.8237H27.2016C28.6494 36.0891 28.1279 38.2064 27.1421 38.2695H25.4567V35.8237ZM23.6523 34.381V43.8704H28.4514C30.9092 42.9978 31.0104 39.2508 28.4514 38.8526C30.8036 38.598 30.9224 34.3331 26.8627 34.3223L23.6523 34.381Z" fill="white"/>
    <path d="M32.1158 37.0371V38.4536C33.4031 38.0946 36.1822 37.1089 35.9269 39.2065C33.4757 39.0411 31.8056 39.4785 31.5261 40.9843C31.0619 44.2439 34.5891 44.555 36.0831 42.9579V43.726H37.7774V38.001C37.366 36.1667 34.5781 35.9273 32.1158 37.0371ZM33.5461 40.7036C33.9246 40.2162 35.1568 40.2357 35.9665 40.4686V41.7154C34.6375 43.1407 32.4701 42.4922 33.5461 40.7036Z" fill="white"/>
    <path d="M41.2893 38.7096C41.7316 38.2374 44.0816 37.3474 44.4315 38.7096V43.7535H46.3194V38.405C45.9079 36.1724 43.7692 35.7829 41.1573 37.2843V36.4444H39.375V43.7796H41.2629L41.2893 38.7096Z" fill="white"/>
    <path d="M52.2357 36.3936L49.7734 39.6793L52.3919 43.7026L54.6715 43.6526L51.7912 39.7815L54.3832 36.4697L52.2357 36.3936Z" fill="white"/>
    <path d="M49.5898 34H47.7305V43.7026H49.5898V34Z" fill="white"/>
    <path d="M49.4991 11.6411H34.125V26.8642H49.4991V11.6411Z" fill="white"/>
</svg>
