<svg width="14" height="12" viewBox="0 0 14 12" fill="none" xmlns="http://www.w3.org/2000/svg">
<path d="M14 2.56616C14 2.48576 13.9417 2.43216 13.8542 2.37856L7.0875 0.0201005C7.02917 -0.00670017 6.97083 -0.00670017 6.9125 0.0201005L0.145833 2.37856C0.0291667 2.43216 0 2.48576 0 2.56616V2.99497C0 3.04858 0 3.10218 0.0583333 3.15578C0.116667 3.20938 0.175 3.20938 0.233333 3.20938H0.933333V3.53099C0.933333 3.63819 0.9625 3.71859 1.02083 3.77219C1.07917 3.8258 1.16667 3.8526 1.28333 3.8526H12.7167C12.8042 3.8526 12.8917 3.8258 12.95 3.77219C13.0083 3.71859 13.0667 3.63819 13.0667 3.53099V3.20938H13.7667C13.825 3.20938 13.8542 3.20938 13.9125 3.15578C13.9708 3.10218 14 3.04858 14 2.99497V2.56616ZM13.3 10.7136C13.475 10.7136 13.65 10.794 13.7958 10.9012C13.9125 11.0352 14 11.196 14 11.3568V11.7856C14 11.8392 13.9708 11.8928 13.9125 11.9464C13.8542 12 13.825 12 13.7667 12H0.233333C0.175 12 0.116667 12 0.0583333 11.9464C0 11.8928 0 11.8392 0 11.7856V11.3568C0 11.196 0.0583333 11.0352 0.204167 10.9012C0.320833 10.794 0.495833 10.7136 0.7 10.7136H13.3ZM2.33333 4.28141H4.2V9.42714H6.06667V4.28141H7.93333V9.42714H9.8V4.28141H11.6667V9.42714H12.7167C12.8042 9.42714 12.8917 9.48074 12.95 9.53434C13.0083 9.58794 13.0667 9.66834 13.0667 9.74874V10.2848H0.933333V9.74874C0.933333 9.66834 0.9625 9.58794 1.02083 9.53434C1.07917 9.48074 1.16667 9.42714 1.28333 9.42714H2.33333V4.28141Z" fill="#2D9CDB"/>
</svg>
