<svg width="20" height="20" viewBox="0 0 20 20" fill="none" xmlns="http://www.w3.org/2000/svg">
<circle cx="10" cy="10" r="10" fill="white"/>
<path d="M12.5399 9.81811C12.516 10.1127 12.5638 10.4073 12.7074 10.7019C12.9229 11.3156 13.3537 11.782 14 12.0766C13.8085 12.7149 13.4973 13.3041 13.1144 13.8687C12.5878 14.6052 12.0612 14.998 11.5585 14.998C11.3191 14.998 11.0319 14.9243 10.6968 14.777C10.3138 14.6297 9.97872 14.5561 9.71543 14.5561C9.42819 14.5561 9.09308 14.6543 8.68617 14.8016C8.35106 14.9489 8.08777 14.998 7.92021 14.998C7.56117 15.0225 7.17819 14.8261 6.79521 14.4088C6.48404 14.1142 6.17287 13.6723 5.88564 13.1322C5.64628 12.6903 5.45479 12.2976 5.33511 11.9293C5.09574 11.242 5 10.5791 5 9.94086C5 9.25349 5.11968 8.63976 5.40691 8.12423C5.64628 7.6578 5.98138 7.28957 6.41223 7.04408C6.84309 6.79859 7.27394 6.67584 7.75266 6.65129C7.99202 6.65129 8.39894 6.74949 8.92553 6.94588C9.26064 7.09317 9.47606 7.14227 9.57181 7.14227C9.66755 7.14227 9.85904 7.09317 10.1702 6.97043C10.4574 6.87223 10.6968 6.77404 10.8883 6.72494C11.1755 6.65129 11.4628 6.62674 11.7021 6.62674C12.6117 6.72494 13.2819 7.09317 13.7367 7.73145C12.9229 8.22243 12.516 8.93435 12.5399 9.81811ZM11.1755 5.76753V5.79208C10.6489 6.4058 10.0984 6.67584 9.52394 6.62674C9.45213 5.98847 9.64362 5.39929 10.1223 4.85922C10.3138 4.63827 10.5532 4.44188 10.8644 4.27004C11.1516 4.12275 11.4628 4.02455 11.75 4C11.7979 4.66282 11.6064 5.252 11.1755 5.76753Z" fill="#2D9CDB"/>
</svg>
