<svg width="355" height="351" viewBox="0 0 355 351" fill="none" xmlns="http://www.w3.org/2000/svg">
<g clip-path="url(#clip0)">
<path d="M203.599 193.044H167.582V351H203.599V193.044Z" fill="url(#paint0_linear)"/>
<path d="M201.225 193.044H170.895V348.174H201.225V193.044Z" fill="#ECEFF1"/>
<path d="M287.388 69.9767H125.18C119.604 70.1183 114.109 71.3366 109 73.5639C92.5113 80.8346 82.9141 92.2462 80.2039 117.554V176.023L37.2221 175.57C28.5783 175.57 25.418 189.091 25.418 198.229H315.759V99.9695C315.759 83.4058 303.074 69.9767 287.388 69.9767Z" fill="url(#paint1_linear)"/>
<path d="M131.086 76.1057H291.804C297.026 76.1057 302.033 78.1693 305.726 81.8427C309.418 85.5161 311.492 90.4982 311.492 95.6931V193.043H131.086V76.1057Z" fill="#2D9CDB"/>
<path d="M127.285 76.1057C138.849 76.1057 149.939 80.6759 158.116 88.8109C166.292 96.946 170.886 107.979 170.886 119.484V171.814C170.886 177.444 168.638 182.844 164.636 186.825C160.634 190.806 155.207 193.043 149.548 193.043H105.022C99.3627 193.043 93.9352 190.806 89.9335 186.825C85.9317 182.844 83.6836 177.444 83.6836 171.814V119.484C83.6836 107.979 88.2773 96.946 96.4541 88.8109C104.631 80.6759 115.721 76.1057 127.285 76.1057Z" fill="#2D9CDB"/>
<path opacity="0.2" d="M127.285 76.1057C138.849 76.1057 149.939 80.6759 158.116 88.8109C166.292 96.946 170.886 107.979 170.886 119.484V171.814C170.886 177.444 168.638 182.844 164.636 186.825C160.634 190.806 155.207 193.043 149.548 193.043H105.022C99.3627 193.043 93.9352 190.806 89.9335 186.825C85.9317 182.844 83.6836 177.444 83.6836 171.814V119.484C83.6836 107.979 88.2773 96.946 96.4541 88.8109C104.631 80.6759 115.721 76.1057 127.285 76.1057Z" fill="black"/>
<path d="M243.408 60.5493H220.898H207.391V87.1811V119.957H223.739V87.1811H243.408V60.5493Z" fill="url(#paint2_linear)"/>
<path d="M240.565 60.5493H221.608H210.234V85.0673V115.243H221.608V85.0673H240.565V60.5493Z" fill="#FFCC80"/>
<path d="M84.0388 98.4301L79.5547 135.081L139.498 142.34L143.982 105.689L84.0388 98.4301Z" fill="url(#paint3_linear)"/>
<path d="M84.6613 99.4302L80.4766 133.634L138.387 140.647L142.572 106.443L84.6613 99.4302Z" fill="#FAF8E4"/>
<g opacity="0.6">
<path opacity="0.6" d="M86.181 107.774L93.5508 108.666L94.2145 103.241L86.8448 102.349L86.181 107.774Z" fill="#2D9CDB"/>
<path opacity="0.6" d="M90.9341 119.057L119.227 122.484L119.442 120.725L91.1493 117.298L90.9341 119.057Z" fill="#2D9CDB"/>
<path opacity="0.6" d="M98.1321 123.799L118.762 126.297L118.905 125.126L98.2754 122.628L98.1321 123.799Z" fill="#2D9CDB"/>
</g>
<path d="M108.461 106.492L103.977 143.143L163.92 150.402L168.404 113.751L108.461 106.492Z" fill="url(#paint4_linear)"/>
<path d="M109.087 107.496L104.902 141.7L162.813 148.713L166.998 114.509L109.087 107.496Z" fill="#FAF8E4"/>
<g opacity="0.6">
<path opacity="0.6" d="M110.611 115.842L117.98 116.734L118.644 111.309L111.274 110.417L110.611 115.842Z" fill="#2D9CDB"/>
<path opacity="0.6" d="M115.364 127.125L143.656 130.551L143.871 128.792L115.579 125.366L115.364 127.125Z" fill="#2D9CDB"/>
<path opacity="0.6" d="M122.55 131.865L143.18 134.364L143.323 133.193L122.693 130.694L122.55 131.865Z" fill="#2D9CDB"/>
</g>
<path d="M56.5665 109.938L50.4883 159.619L131.738 169.458L137.817 119.777L56.5665 109.938Z" fill="url(#paint5_linear)"/>
<path d="M57.4152 111.285L51.7422 157.653L130.239 167.159L135.912 120.791L57.4152 111.285Z" fill="white"/>
<g opacity="0.6">
<path opacity="0.6" d="M59.4767 122.599L69.4648 123.808L70.3642 116.457L60.3761 115.247L59.4767 122.599Z" fill="#2D9CDB"/>
<path opacity="0.6" d="M65.913 137.899L104.266 142.543L104.557 140.158L66.2048 135.514L65.913 137.899Z" fill="#2D9CDB"/>
<path opacity="0.6" d="M75.671 144.322L103.637 147.709L103.831 146.117L75.8657 142.731L75.671 144.322Z" fill="#2D9CDB"/>
</g>
<path d="M89.6759 120.865L83.5977 170.546L164.848 180.385L170.926 130.705L89.6759 120.865Z" fill="url(#paint6_linear)"/>
<path d="M90.5207 122.223L84.8477 168.591L163.345 178.097L169.018 131.729L90.5207 122.223Z" fill="white"/>
<g opacity="0.6">
<path opacity="0.6" d="M92.5822 133.534L102.57 134.743L103.47 127.392L93.4816 126.182L92.5822 133.534Z" fill="#2D9CDB"/>
<path opacity="0.6" d="M99.0185 148.834L137.371 153.478L137.663 151.093L99.3103 146.449L99.0185 148.834Z" fill="#2D9CDB"/>
<path opacity="0.6" d="M108.776 155.257L136.742 158.644L136.937 157.052L108.971 153.666L108.776 155.257Z" fill="#2D9CDB"/>
</g>
<path opacity="0.2" d="M126.82 76.5783C121.116 76.5738 115.467 77.6863 110.195 79.8525C112.249 79.5594 114.321 79.4113 116.395 79.4095C122.121 79.4095 127.791 80.5315 133.081 82.7115C138.37 84.8914 143.177 88.0867 147.226 92.1147C151.275 96.1428 154.486 100.925 156.677 106.188C158.868 111.451 159.996 117.091 159.996 122.788V191.643H170.421V119.957C170.421 108.452 165.827 97.4186 157.651 89.2835C149.474 81.1485 138.384 76.5783 126.82 76.5783Z" fill="black"/>
<path d="M45.781 177.953H170.898V193.043H30.6133C30.6133 189.041 32.2113 185.203 35.0558 182.373C37.9003 179.543 41.7583 177.953 45.781 177.953Z" fill="#2D9CDB"/>
<path opacity="0.2" d="M45.781 177.953H170.898V193.043H30.6133C30.6133 189.041 32.2113 185.203 35.0558 182.373C37.9003 179.543 41.7583 177.953 45.781 177.953Z" fill="white"/>
<path d="M318.152 33.9844L316.715 34.6825L316.879 34.3888L316.754 34.4273L316.933 34.2973L336.301 0L346.203 8.4022L354.702 16.2266L352.263 17.4111L355.002 22.2213L318.152 33.9844Z" fill="url(#paint7_linear)"/>
<path d="M345.225 9.2981L352.988 16.4628L317.793 33.8691L336.523 9.98664L345.225 9.2981Z" fill="#2D9CDB"/>
<path opacity="0.2" d="M345.225 9.2981L352.988 16.4628L317.793 33.8691L336.523 9.98664L345.225 9.2981Z" fill="black"/>
<path d="M336.165 1.61328L317.793 33.8691L345.225 9.29804L336.165 1.61328Z" fill="#2D9CDB"/>
<path d="M353.215 22.005L317.832 33.6333L347.408 11.6672L353.215 22.005Z" fill="#2D9CDB"/>
<path d="M58.8852 41.8764L61.1986 42.2327L60.8404 41.8956H61.0388L60.7291 41.7897L18.6911 2.12842L8.48891 18.148L0 32.7615L3.92987 33.3682L2.18756 41.2841L58.8852 41.8764Z" fill="url(#paint8_linear)"/>
<path d="M10.2494 18.9806L2.49609 32.3519L59.334 41.5582L22.7262 16.1976L10.2494 18.9806Z" fill="#2D9CDB"/>
<path opacity="0.2" d="M10.2494 18.9806L2.49609 32.3519L59.334 41.5582L22.7262 16.1976L10.2494 18.9806Z" fill="black"/>
<path d="M19.5859 4.32892L59.3347 41.5586L10.25 18.981L19.5859 4.32892Z" fill="#2D9CDB"/>
<path d="M4.59375 40.2103L59.1812 41.2503L8.22356 23.2422L4.59375 40.2103Z" fill="#2D9CDB"/>
</g>
<defs>
<linearGradient id="paint0_linear" x1="185.591" y1="351" x2="185.591" y2="193.044" gradientUnits="userSpaceOnUse">
<stop stop-color="#808080" stop-opacity="0.25"/>
<stop offset="0.54" stop-color="#808080" stop-opacity="0.12"/>
<stop offset="1" stop-color="#808080" stop-opacity="0.1"/>
</linearGradient>
<linearGradient id="paint1_linear" x1="69202.1" y1="46474.4" x2="243392" y2="46474.4" gradientUnits="userSpaceOnUse">
<stop stop-color="#808080" stop-opacity="0.25"/>
<stop offset="0.54" stop-color="#808080" stop-opacity="0.12"/>
<stop offset="1" stop-color="#808080" stop-opacity="0.1"/>
</linearGradient>
<linearGradient id="paint2_linear" x1="16981.7" y1="14860.8" x2="16981.7" y2="7531.06" gradientUnits="userSpaceOnUse">
<stop stop-color="#808080" stop-opacity="0.25"/>
<stop offset="0.54" stop-color="#808080" stop-opacity="0.12"/>
<stop offset="1" stop-color="#808080" stop-opacity="0.1"/>
</linearGradient>
<linearGradient id="paint3_linear" x1="-12466.8" y1="21706.4" x2="-11913" y2="17132.8" gradientUnits="userSpaceOnUse">
<stop stop-color="#808080" stop-opacity="0.25"/>
<stop offset="0.54" stop-color="#808080" stop-opacity="0.12"/>
<stop offset="1" stop-color="#808080" stop-opacity="0.1"/>
</linearGradient>
<linearGradient id="paint4_linear" x1="-10648.8" y1="22572" x2="-10095" y2="17998.4" gradientUnits="userSpaceOnUse">
<stop stop-color="#808080" stop-opacity="0.25"/>
<stop offset="0.54" stop-color="#808080" stop-opacity="0.12"/>
<stop offset="1" stop-color="#808080" stop-opacity="0.1"/>
</linearGradient>
<linearGradient id="paint5_linear" x1="-19031" y1="33891.9" x2="-18013.4" y2="25488.7" gradientUnits="userSpaceOnUse">
<stop stop-color="#808080" stop-opacity="0.25"/>
<stop offset="0.54" stop-color="#808080" stop-opacity="0.12"/>
<stop offset="1" stop-color="#808080" stop-opacity="0.1"/>
</linearGradient>
<linearGradient id="paint6_linear" x1="-15678.4" y1="35479.5" x2="-14660.7" y2="27076.3" gradientUnits="userSpaceOnUse">
<stop stop-color="#808080" stop-opacity="0.25"/>
<stop offset="0.54" stop-color="#808080" stop-opacity="0.12"/>
<stop offset="1" stop-color="#808080" stop-opacity="0.1"/>
</linearGradient>
<linearGradient id="paint7_linear" x1="-5548.36" y1="26484.1" x2="-7113.97" y2="25138.3" gradientUnits="userSpaceOnUse">
<stop stop-color="#808080" stop-opacity="0.25"/>
<stop offset="0.54" stop-color="#808080" stop-opacity="0.12"/>
<stop offset="1" stop-color="#808080" stop-opacity="0.1"/>
</linearGradient>
<linearGradient id="paint8_linear" x1="2379.07" y1="30546.9" x2="4241.59" y2="27592.4" gradientUnits="userSpaceOnUse">
<stop stop-color="#808080" stop-opacity="0.25"/>
<stop offset="0.54" stop-color="#808080" stop-opacity="0.12"/>
<stop offset="1" stop-color="#808080" stop-opacity="0.1"/>
</linearGradient>
<clipPath id="clip0">
<rect width="355" height="351" fill="white"/>
</clipPath>
</defs>
</svg>
