<svg width="29" height="30" viewBox="0 0 29 30" fill="none" xmlns="http://www.w3.org/2000/svg">
<circle cx="14.5" cy="15" r="14.5" fill="#94D05E"/>
<path d="M9.57408 16.9561L9.52769 20.1155L8.44654 20.0997L8.4279 21.3694L12.2643 21.4258L12.2829 20.156L11.2017 20.1401L11.2481 16.9806L9.57408 16.9561Z" fill="white"/>
<path d="M18.5472 13.3201L18.5936 10.1606L19.6748 10.1765L19.6934 8.90672L15.8571 8.8504L15.8384 10.1202L16.9196 10.136L16.8732 13.2955L18.5472 13.3201Z" fill="white"/>
<path d="M16.8182 17.0623L16.7982 18.4219L16.0533 17.0511L14.1324 17.0229L16.5592 21.4887L18.4272 21.5161L18.4922 17.0869L16.8182 17.0623Z" fill="white"/>
<path d="M11.3034 13.2137L11.3233 11.8541L12.0683 13.2249L13.9891 13.2531L11.5623 8.78728L9.69434 8.75986L9.62931 13.1891L11.3034 13.2137Z" fill="white"/>
<path d="M20.4317 13.6268L8.01587 13.4445L7.99539 14.8395L20.4113 15.0218L20.4317 13.6268Z" fill="white"/>
<path d="M20.405 15.4404L7.98914 15.2581L7.96866 16.6531L20.3845 16.8354L20.405 15.4404Z" fill="white"/>
</svg>
