<svg width="54" height="53" viewBox="0 0 54 53" fill="none" xmlns="http://www.w3.org/2000/svg">
    <g filter="url(#filter0_d)">
        <circle cx="27" cy="26.5" r="23" fill="white"/>
    </g>
    <path d="M27.0016 8.1001C16.8558 8.1001 8.60156 16.3543 8.60156 26.5001C8.60156 36.6459 16.8558 44.9001 27.0016 44.9001C37.1473 44.9001 45.4016 36.6459 45.4016 26.5001C45.4016 16.3543 37.1473 8.1001 27.0016 8.1001ZM27.0016 43.2274C17.7781 43.2274 10.2743 35.7235 10.2743 26.5001C10.2743 17.2767 17.7781 9.77282 27.0016 9.77282C36.225 9.77282 43.7288 17.2767 43.7288 26.5001C43.7288 35.7235 36.225 43.2274 27.0016 43.2274Z" fill="#59C84C"/>
    <path d="M27.0015 11.3623C18.6542 11.3623 11.8633 18.1532 11.8633 26.5005C11.8633 34.8477 18.6542 41.6387 27.0015 41.6387C35.3487 41.6387 42.1396 34.8477 42.1396 26.5005C42.1396 18.1532 35.3487 11.3623 27.0015 11.3623ZM27.0015 41.1369C18.9309 41.1369 12.3651 34.5711 12.3651 26.5005C12.3651 18.4299 18.9309 11.8641 27.0015 11.8641C35.072 11.8641 41.6378 18.4299 41.6378 26.5005C41.6378 34.5711 35.072 41.1369 27.0015 41.1369Z" fill="#59C84C"/>
    <path d="M21.6557 28.5913V32.3797H20.3594V33.9022H24.9594V32.3797H23.663V28.5913H21.6557Z" fill="#59C84C"/>
    <path d="M32.3466 24.0746V20.2862H33.643V18.7637H29.043V20.2862H30.3393V24.0746H32.3466Z" fill="#59C84C"/>
    <path d="M30.3414 28.5913V30.2215L29.4243 28.5913H27.1211L30.1089 33.9022H32.3487V28.5913H30.3414Z" fill="#59C84C"/>
    <path d="M23.6635 24.0746V22.4443L24.5807 24.0746H26.8839L23.896 18.7637H21.6562V24.0746H23.6635Z" fill="#59C84C"/>
    <path d="M34.6138 24.4092H19.7266V26.0819H34.6138V24.4092Z" fill="#59C84C"/>
    <path d="M34.6138 26.584H19.7266V28.2567H34.6138V26.584Z" fill="#59C84C"/>
    <defs>
        <filter id="filter0_d" x="0.794872" y="0.294872" width="52.4103" height="52.4103" filterUnits="userSpaceOnUse" color-interpolation-filters="sRGB">
            <feFlood flood-opacity="0" result="BackgroundImageFix"/>
            <feColorMatrix in="SourceAlpha" type="matrix" values="0 0 0 0 0 0 0 0 0 0 0 0 0 0 0 0 0 0 127 0"/>
            <feOffset/>
            <feGaussianBlur stdDeviation="1.60256"/>
            <feColorMatrix type="matrix" values="0 0 0 0 0 0 0 0 0 0 0 0 0 0 0 0 0 0 0.32 0"/>
            <feBlend mode="normal" in2="BackgroundImageFix" result="effect1_dropShadow"/>
            <feBlend mode="normal" in="SourceGraphic" in2="effect1_dropShadow" result="shape"/>
        </filter>
    </defs>
</svg>
