<svg width="45" height="45" viewBox="0 0 45 45" fill="none" xmlns="http://www.w3.org/2000/svg">
    <circle cx="22.5" cy="22.5" r="22.5" fill="#F96D49"/>
    <path d="M15.1292 19.687H14.5469V20.0173H15.1292V19.687Z" fill="white"/>
    <path d="M22.3468 19.687H15.3164V20.0173H22.3468V19.687Z" fill="white"/>
    <path d="M15.1292 21.2773H14.5469V21.6077H15.1292V21.2773Z" fill="white"/>
    <path d="M22.3468 21.2773H15.3164V21.6077H22.3468V21.2773Z" fill="white"/>
    <path d="M22.3468 22.9609H15.3164V23.2913H22.3468V22.9609Z" fill="white"/>
    <path d="M15.1292 22.9609H14.5469V23.2913H15.1292V22.9609Z" fill="white"/>
    <path d="M15.1292 24.8164H14.5469V25.1465H15.1292V24.8164Z" fill="white"/>
    <path d="M22.3468 24.8164H15.3164V25.1465H22.3468V24.8164Z" fill="white"/>
    <path d="M31.647 28.6084C31.5642 28.5017 30.0649 26.6022 27.8928 25.6543V13.5782C27.8926 13.2594 27.6314 13 27.3102 13H15.8289C15.5078 13 15.2466 13.2594 15.2466 13.5782V16.2318H13.5824C13.2612 16.2318 13 16.4913 13 16.8101V31.1828C13 31.5016 13.2612 31.761 13.5824 31.761H21.8317C22.8474 32.4355 24.1134 33 25.5074 33C28.8996 33 31.5363 29.6588 31.6468 29.5169L32 29.0627L31.647 28.6084ZM26.7242 13.6689C26.9339 13.6689 27.1042 13.8377 27.1042 14.0462C27.1042 14.2546 26.9341 14.4235 26.7242 14.4235C26.5142 14.4235 26.3437 14.2546 26.3437 14.0462C26.3437 13.8377 26.5146 13.6689 26.7242 13.6689ZM25.0499 13.6689C25.2597 13.6689 25.4304 13.8377 25.4304 14.0462C25.4304 14.2546 25.2599 14.4235 25.0499 14.4235C24.8402 14.4235 24.6701 14.2546 24.6701 14.0462C24.6701 13.8377 24.8402 13.6689 25.0499 13.6689ZM23.3865 13.6689C23.5961 13.6689 23.7664 13.8377 23.7664 14.0462C23.7664 14.2546 23.5963 14.4235 23.3865 14.4235C23.1763 14.4235 23.0061 14.2546 23.0061 14.0462C23.0061 13.8377 23.176 13.6689 23.3865 13.6689ZM15.7457 15.1476H27.3102C27.3391 15.1476 27.3668 15.1427 27.3935 15.1357V25.4591C26.8438 25.268 26.2581 25.1457 25.6462 25.1293V16.8101C25.6462 16.4913 25.3846 16.2318 25.0635 16.2318H15.7457V15.1476ZM24.8574 17.2782C24.8574 17.4864 24.6877 17.6555 24.4774 17.6555C24.2676 17.6555 24.0975 17.4866 24.0975 17.2782C24.0975 17.0697 24.2674 16.9008 24.4774 16.9008C24.6877 16.9008 24.8574 17.0699 24.8574 17.2782ZM23.1836 17.2782C23.1836 17.4864 23.0133 17.6555 22.8038 17.6555C22.5936 17.6555 22.4235 17.4866 22.4235 17.2782C22.4235 17.0697 22.5934 16.9008 22.8038 16.9008C23.0133 16.901 23.1836 17.0699 23.1836 17.2782ZM21.5196 17.2782C21.5196 17.4864 21.3497 17.6555 21.1397 17.6555C20.9298 17.6555 20.7599 17.4866 20.7599 17.2782C20.7599 17.0697 20.9298 16.9008 21.1397 16.9008C21.3497 16.9008 21.5196 17.0699 21.5196 17.2782ZM13.5826 31.2655C13.5366 31.2655 13.4993 31.2286 13.4993 31.1828V18.3795H25.0641C25.0929 18.3795 25.1206 18.3748 25.1474 18.3678V25.1389C21.9305 25.361 19.4749 28.4711 19.3683 28.6084L19.0153 29.0625L19.3683 29.5167C19.4223 29.5865 20.0868 30.4273 21.1494 31.2655H13.5826ZM25.5353 32.2208C22.472 32.2208 19.989 29.0268 19.989 29.0268C19.989 29.0268 22.4722 25.8327 25.5353 25.8327C28.5989 25.8327 31.0818 29.0268 31.0818 29.0268C31.0818 29.0268 28.5989 32.2208 25.5353 32.2208Z" fill="white"/>
    <path d="M25.5354 27.3628C24.6097 27.3628 23.8594 28.1077 23.8594 29.0269C23.8594 29.946 24.6097 30.6911 25.5354 30.6911C26.4615 30.6911 27.2116 29.946 27.2116 29.0269C27.2117 28.1079 26.4615 27.3628 25.5354 27.3628ZM25.5354 28.9152V27.6352C26.2478 27.6352 26.8248 28.2081 26.8248 28.9152H25.5354Z" fill="white"/>
</svg>
