<svg width="25" height="19" viewBox="0 0 25 19" fill="none" xmlns="http://www.w3.org/2000/svg">
    <path d="M3.75 8.25C3.04688 8.25 2.46094 8.01562 1.99219 7.50781C1.48438 7.03906 1.25 6.45312 1.25 5.75C1.25 5.08594 1.48438 4.5 1.99219 3.99219C2.46094 3.52344 3.04688 3.25 3.75 3.25C4.41406 3.25 5 3.52344 5.50781 3.99219C5.97656 4.5 6.25 5.08594 6.25 5.75C6.25 6.45312 5.97656 7.03906 5.50781 7.50781C5 8.01562 4.41406 8.25 3.75 8.25ZM21.25 8.25C20.5469 8.25 19.9609 8.01562 19.4922 7.50781C18.9844 7.03906 18.75 6.45312 18.75 5.75C18.75 5.08594 18.9844 4.5 19.4922 3.99219C19.9609 3.52344 20.5469 3.25 21.25 3.25C21.9141 3.25 22.5 3.52344 23.0078 3.99219C23.4766 4.5 23.75 5.08594 23.75 5.75C23.75 6.45312 23.4766 7.03906 23.0078 7.50781C22.5 8.01562 21.9141 8.25 21.25 8.25ZM22.5 9.5C23.1641 9.5 23.75 9.77344 24.2578 10.2422C24.7266 10.75 25 11.3359 25 12V13.25C25 13.6016 24.8438 13.9141 24.6094 14.1484C24.375 14.3828 24.0625 14.5 23.75 14.5H21.1719C21.0156 13.6016 20.7031 12.7812 20.1953 12C19.6484 11.2578 19.0234 10.6719 18.2422 10.2422C18.7109 9.77344 19.2969 9.5 20 9.5H22.5ZM12.5 9.5C11.7188 9.5 10.9766 9.30469 10.3125 8.91406C9.60938 8.52344 9.10156 8.01562 8.71094 7.3125C8.32031 6.64844 8.125 5.90625 8.125 5.125C8.125 4.34375 8.32031 3.64062 8.71094 2.9375C9.10156 2.27344 9.60938 1.72656 10.3125 1.33594C10.9766 0.945312 11.7188 0.75 12.5 0.75C13.2812 0.75 13.9844 0.945312 14.6875 1.33594C15.3516 1.72656 15.8984 2.27344 16.2891 2.9375C16.6797 3.64062 16.875 4.34375 16.875 5.125C16.875 5.90625 16.6797 6.64844 16.2891 7.3125C15.8984 8.01562 15.3516 8.52344 14.6875 8.91406C13.9844 9.30469 13.2812 9.5 12.5 9.5ZM15.5078 10.75C16.2891 10.75 17.0312 10.9844 17.7344 11.375C18.4375 11.7656 18.9844 12.3125 19.375 13.0156C19.7656 13.7188 20 14.4609 20 15.2422V16.375C20 16.9219 19.8047 17.3516 19.4531 17.7031C19.0625 18.0938 18.6328 18.25 18.125 18.25H6.875C6.32812 18.25 5.89844 18.0938 5.54688 17.7031C5.15625 17.3516 5 16.9219 5 16.375V15.2422C5 14.4609 5.19531 13.7188 5.58594 13.0156C5.97656 12.3125 6.52344 11.7656 7.22656 11.375C7.92969 10.9844 8.67188 10.75 9.49219 10.75H9.80469C10.6641 11.1797 11.5625 11.375 12.5 11.375C13.3984 11.375 14.2969 11.1797 15.1953 10.75H15.5078ZM6.75781 10.2422C5.97656 10.6719 5.3125 11.2578 4.80469 12C4.25781 12.7812 3.94531 13.6016 3.82812 14.5H1.25C0.898438 14.5 0.585938 14.3828 0.351562 14.1484C0.117188 13.9141 0 13.6016 0 13.25V12C0 11.3359 0.234375 10.75 0.742188 10.2422C1.21094 9.77344 1.79688 9.5 2.5 9.5H5C5.66406 9.5 6.25 9.77344 6.75781 10.2422Z" fill="#2D9CDB"/>
</svg>
