<svg width="367" height="293" viewBox="0 0 367 293" fill="none" xmlns="http://www.w3.org/2000/svg">
<path opacity="0.1" d="M118.003 11.4922C129.311 1.41126 147.066 -0.635788 163.223 0.158041C213.978 2.68286 259.792 27.1923 299.42 54.9175C313.766 64.9543 327.891 75.7702 337.204 89.5924C356.16 117.733 350.54 156.711 324.177 179.89C315.21 187.777 304.339 193.823 293.175 199.185C273.337 208.714 251.916 216.362 229.393 218.542C213.328 220.093 197.065 218.832 181.099 216.664C136.478 210.615 92.6918 197.219 55.9881 174.33C39.89 164.286 24.7141 151.801 18.0794 135.55C11.4448 119.299 15.6916 98.7251 32.1459 89.0963C38.9459 85.1198 47.0758 83.3226 55.0329 81.6357C66.7483 79.1514 78.651 76.7037 89.2201 71.6578C100.138 66.4427 113.07 56.3582 110.895 44.8293C108.558 32.4367 106.722 21.5473 118.003 11.4922Z" fill="#2D9CDB"/>
<path opacity="0.1" d="M63.951 59.1323C70.342 59.1323 75.523 53.9493 75.523 47.5557C75.523 41.162 70.342 35.979 63.951 35.979C57.5599 35.979 52.3789 41.162 52.3789 47.5557C52.3789 53.9493 57.5599 59.1323 63.951 59.1323Z" fill="#2D9CDB"/>
<path opacity="0.1" d="M39.7105 27.1599C43.6669 27.1599 46.8742 23.9514 46.8742 19.9934C46.8742 16.0355 43.6669 12.8269 39.7105 12.8269C35.7542 12.8269 32.5469 16.0355 32.5469 19.9934C32.5469 23.9514 35.7542 27.1599 39.7105 27.1599Z" fill="#2D9CDB"/>
<path opacity="0.1" d="M340.026 46.453C342.46 46.453 344.434 44.4785 344.434 42.0428C344.434 39.6072 342.46 37.6327 340.026 37.6327C337.591 37.6327 335.617 39.6072 335.617 42.0428C335.617 44.4785 337.591 46.453 340.026 46.453Z" fill="#2D9CDB"/>
<path opacity="0.1" d="M253.455 292.999C270.546 292.999 284.402 291.617 284.402 289.912C284.402 288.207 270.546 286.825 253.455 286.825C236.363 286.825 222.508 288.207 222.508 289.912C222.508 291.617 236.363 292.999 253.455 292.999Z" fill="#2D9CDB"/>
<path d="M78.6146 179.093L78.4787 186.425L77.3913 245.856L68.0822 267.664L36 268.031V182.47L69.4819 179.817L78.6146 179.093Z" fill="#5F5D7E"/>
<path opacity="0.1" d="M78.6146 179.093L78.4787 186.425L77.3913 245.856L68.0822 267.664L36 268.031V182.47L69.4819 179.817L78.6146 179.093Z" fill="black"/>
<path d="M78.6184 179.093L78.4824 186.425L77.395 245.856L68.0859 267.664L70.5363 186.565L70.5289 186.513L69.4856 179.817L78.6184 179.093Z" fill="#5F5D7E"/>
<path opacity="0.1" d="M69.4819 179.817L78.6146 179.093L78.4787 186.425L70.5252 186.513L36 186.899V182.47L69.4819 179.817Z" fill="black"/>
<path d="M366.999 182.471V267.54H359.53L329.648 245.735V180.071L356.345 177.561L357.983 178.315L359.53 179.028L366.999 182.471Z" fill="#5F5D7E"/>
<path opacity="0.1" d="M367 178.313H359.531V267.538H367V178.313Z" fill="black"/>
<path opacity="0.1" d="M366.999 178.315V183.206L359.53 183.291L329.648 183.622V180.071L356.345 177.561L357.983 178.315L359.53 179.028V178.315H366.999Z" fill="black"/>
<path d="M367 175.538V182.469L0 186.564V177.743L34.5325 170.761L335.039 168.556L367 175.538Z" fill="#5F5D7E"/>
<path opacity="0.1" d="M367 175.54V182.471L0 186.565V177.745L367 175.54Z" fill="black"/>
<path d="M254.439 71.6549H142.657C138.027 71.6549 134.273 75.4097 134.273 80.0416V163.118C134.273 167.75 138.027 171.505 142.657 171.505H254.439C259.069 171.505 262.823 167.75 262.823 163.118V80.0416C262.823 75.4097 259.069 71.6549 254.439 71.6549Z" fill="#474157"/>
<path d="M252.667 80.6626H144.617V162.115H252.667V80.6626Z" fill="#EDEDF4"/>
<path d="M140.4 123.157C141.378 123.157 142.17 122.364 142.17 121.386C142.17 120.408 141.378 119.615 140.4 119.615C139.422 119.615 138.629 120.408 138.629 121.386C138.629 122.364 139.422 123.157 140.4 123.157Z" fill="#E6E8EC"/>
<path d="M257.456 124.499C259.069 124.499 260.376 123.191 260.376 121.577C260.376 119.964 259.069 118.656 257.456 118.656C255.843 118.656 254.535 119.964 254.535 121.577C254.535 123.191 255.843 124.499 257.456 124.499Z" fill="#E6E8EC"/>
<path d="M210.294 121.702L196.477 113.301C196.19 113.142 195.867 113.061 195.539 113.065C195.211 113.069 194.889 113.158 194.606 113.325C194.324 113.491 194.089 113.728 193.925 114.012C193.762 114.297 193.675 114.619 193.674 114.948V131.287C193.675 131.615 193.762 131.938 193.925 132.222C194.089 132.507 194.324 132.744 194.606 132.91C194.889 133.076 195.211 133.166 195.539 133.17C195.867 133.174 196.19 133.093 196.477 132.934L210.294 125.003C210.587 124.838 210.831 124.599 211 124.309C211.17 124.019 211.259 123.689 211.259 123.353C211.259 123.017 211.17 122.687 211 122.397C210.831 122.107 210.587 121.867 210.294 121.702ZM220.683 123.117C220.683 119.265 219.541 115.499 217.402 112.296C215.262 109.093 212.221 106.596 208.664 105.122C205.106 103.648 201.191 103.262 197.414 104.013C193.637 104.765 190.168 106.62 187.445 109.344C184.722 112.068 182.868 115.539 182.116 119.317C181.365 123.096 181.751 127.012 183.224 130.571C184.698 134.131 187.194 137.173 190.395 139.313C193.597 141.453 197.362 142.596 201.213 142.596C206.377 142.596 211.329 140.543 214.98 136.891C218.632 133.238 220.683 128.283 220.683 123.117ZM185.511 123.117C185.511 120.011 186.432 116.974 188.158 114.391C189.883 111.808 192.335 109.794 195.204 108.606C198.073 107.417 201.23 107.106 204.276 107.712C207.322 108.318 210.119 109.814 212.315 112.01C214.511 114.207 216.006 117.006 216.612 120.053C217.218 123.1 216.907 126.258 215.719 129.128C214.53 131.999 212.518 134.452 209.936 136.178C207.354 137.904 204.318 138.825 201.213 138.825C199.151 138.825 197.109 138.419 195.203 137.63C193.298 136.841 191.567 135.684 190.109 134.225C188.651 132.767 187.494 131.035 186.706 129.129C185.917 127.223 185.511 125.18 185.511 123.117Z" fill="#2D9CDB"/>
<path d="M295.32 187.116C295.247 186.667 295.107 186.231 294.905 185.823C295.184 184.871 295.364 184.287 295.364 184.287C295.364 184.287 295.364 184.147 295.32 183.919C295.101 182.572 294.402 181.351 293.351 180.48C292.301 179.61 290.971 179.15 289.608 179.185C287.403 179.226 283.223 179.373 278.587 179.895C278.851 178.039 279.167 175.819 279.498 173.533L280.104 173.599C280.243 173.599 280.39 173.599 280.537 173.621H280.732C281.215 173.652 281.693 173.505 282.077 173.21C282.171 173.118 282.24 173.005 282.28 172.88C282.319 172.755 282.327 172.622 282.303 172.493C282.279 172.364 282.223 172.243 282.14 172.141C282.058 172.039 281.951 171.959 281.83 171.909C282.372 171.963 282.919 171.881 283.421 171.67C283.923 171.46 284.365 171.127 284.707 170.703C285.019 170.267 285.186 169.744 285.186 169.207C285.186 168.671 285.019 168.148 284.707 167.712C283.932 166.609 282.29 165.874 282.201 164.577C282.154 163.842 282.646 163.18 283.032 162.53C283.961 160.906 284.333 159.022 284.089 157.166C283.846 155.311 283.001 153.586 281.683 152.258C281.166 151.745 280.622 151.26 280.052 150.806C279.244 147.837 278.399 145.183 278.149 145.099C277.826 144.992 277.271 144.294 276.742 143.695C276.791 143.189 276.782 142.68 276.717 142.177C276.327 139.604 273.778 137.767 272.374 135.495C270.971 133.224 270.718 130.442 271.078 127.84C271.438 125.238 272.345 122.721 273.083 120.181C273.634 118.296 274.094 116.293 273.476 114.422C273.039 113.088 272.088 111.934 271.107 110.85C268.752 108.244 266.037 105.804 262.687 104.235C260.358 103.136 257.807 102.591 255.233 102.64H255.207L254.803 102.662L254.517 102.68L254.23 102.71L253.925 102.739C253.613 102.779 253.304 102.827 252.996 102.89C250.758 102.392 248.473 102.136 246.181 102.125H245.884C245.204 102.085 244.527 102.245 243.936 102.585C243.121 103.154 243.018 104.176 242.772 105.065C242.33 106.554 241.398 107.849 240.127 108.74C239.249 109.373 238.217 109.843 237.379 110.505C236.541 111.166 235.887 112.158 236.112 113.136C236.299 113.955 237.063 114.566 237.948 114.937C237.842 115.069 237.732 115.198 237.629 115.334C237.801 115.403 237.996 115.466 238.154 115.517C239.256 115.845 240.443 115.885 241.56 116.183C241.867 116.265 242.169 116.367 242.463 116.488C241.47 118.357 240.951 120.442 240.953 122.559C240.958 124.91 241.595 127.216 242.799 129.235C244.003 131.255 245.728 132.912 247.794 134.033C247.794 134.158 247.794 134.279 247.794 134.4C247.908 138.237 247.617 142.905 245.656 143.695C243.694 144.485 241.817 145.378 240.66 145.955L240.292 146.15C239.987 146.01 239.682 145.863 239.385 145.709C239.385 145.709 237.823 145.525 238.095 146.716C238.095 146.716 233.375 145.981 230.785 147.998C228.195 150.016 223.944 154.228 223.11 155.326C222.276 156.425 215.829 158.829 215.829 158.829C215.829 158.829 217.861 155.988 216.983 152.508C216.983 152.508 216.013 148.311 216.476 146.627C216.939 144.944 218.14 138.696 218.14 138.696C218.14 138.696 218.309 132.103 214.712 129.079C211.116 126.054 208.614 123.566 210.003 126.506C210.61 127.854 211.289 129.168 212.038 130.442C212.038 130.442 203.438 132.486 206.491 135.676C209.544 138.866 210.374 138.869 210.374 138.869C210.374 138.869 209.356 146.745 209.169 148.211C208.981 149.678 207.332 160.85 207.332 160.85C207.332 160.85 207.24 166.164 208.166 166.988C208.166 166.988 208.772 170.409 212.604 170.295C212.604 170.295 219.907 170.112 221.942 169.288C223.977 168.465 231.001 164.066 231.744 164.342C231.797 164.363 231.846 164.396 231.887 164.437C231.926 164.471 231.963 164.508 231.997 164.547C231.262 166.175 229.521 171.703 230.263 174.419C230.263 174.419 229.616 182.111 233.5 184.584C233.5 184.584 239.139 194.11 237.012 199.237C236.843 199.652 236.692 200.034 236.552 200.406C233.323 197.726 228.397 195.26 220.873 193.897C220.105 193.757 219.341 193.588 218.584 193.405C216.446 192.886 210.565 192.412 207.765 201.714C207.113 203.876 206.282 205.981 205.282 208.006C204.18 210.237 202.957 213.434 202.931 216.606C202.868 221.053 205.165 225.459 213.496 227.076C213.588 230.384 213.967 234.323 215.098 237.157C217.409 242.927 221.108 252.269 221.108 252.269C221.108 252.269 225.546 261.795 225.825 265.639C226.005 268.157 226.27 271.457 226.086 273.725C226.086 273.864 226.064 273.997 226.049 274.129C225.669 274.54 225.253 274.917 224.808 275.257C224.161 275.625 222.034 277.914 222.034 278.462C222.039 278.987 222.085 279.51 222.174 280.027C221.167 280.906 220.616 281.865 220.616 282.821C220.616 287.789 234.712 291.817 252.099 291.817C269.487 291.817 283.579 287.775 283.579 282.821C283.579 278.285 271.823 274.537 256.548 273.919C259.733 272.648 262.562 271.314 263.734 270.244C263.985 270.048 264.177 269.786 264.289 269.487L261.331 262.618C261.331 262.618 261.1 262.67 260.758 262.769L260.552 262.46C259.237 260.457 256.706 256.466 256.706 255.382C256.706 254.981 256.038 252.42 255.068 248.91V237.646C264.715 239.116 277.146 237.117 277.146 237.117L277.202 237.087H277.444V236.955C279.116 236.029 287.477 231.13 289.957 224.632C290.691 222.736 289.777 220.02 287.958 217.116C289.229 213.96 292.366 205.804 292.054 202.552C292.054 202.379 292.032 202.184 292.032 201.993C292.062 201.661 292.074 201.327 292.069 200.994C292.436 196.216 295.375 187.488 295.375 187.488C295.375 187.488 295.357 187.337 295.32 187.116ZM232.868 165.889C233.536 167.065 234.253 168.568 234.536 169.178C234.536 169.178 233.558 167.377 232.886 165.889H232.868ZM233.566 268.829L233.496 268.855V268.488C233.456 267.529 233.479 266.569 233.566 265.614C233.576 265.099 233.468 264.588 233.25 264.121C232.117 261.276 231.36 258.295 230.998 255.253C230.63 252.049 230.325 248.554 230.517 247.664C230.803 246.301 231.038 235.974 230.682 230.884L236.369 232.162L242.981 245.65C242.981 245.65 247.235 252.236 248.554 257.433V262.637C248.169 264.187 247.494 265.651 246.567 266.951C245.689 268.153 244.833 269.37 244.039 270.626C243.797 271.016 243.529 271.417 243.26 271.791C243.172 271.791 238.826 272.045 238.088 272.861C237.632 273.364 236.839 274.158 236.707 274.956L236.519 274.985C235.667 272.446 233.584 268.829 233.584 268.829H233.566Z" fill="url(#paint0_linear)"/>
<path opacity="0.1" d="M261.539 264.106L260.07 268.884L253.825 274.305L244.64 276.943C244.64 276.943 240.324 274.58 241.793 274.121C242.201 273.992 242.686 273.526 243.178 272.915C242.664 274.79 246.753 272.375 246.753 272.375C246.753 272.375 257.315 264.841 258.417 264.014C259.139 263.535 259.933 263.171 260.768 262.938C261.227 263.654 261.539 264.106 261.539 264.106Z" fill="black"/>
<path d="M261.54 264.106L260.071 268.883L253.825 274.304L244.641 276.943C244.641 276.943 240.325 274.58 241.794 274.12C242.202 273.992 242.687 273.525 243.179 272.915C243.622 272.349 244.032 271.758 244.406 271.144C245.192 269.879 246.045 268.659 246.915 267.469C248.186 265.659 248.983 263.561 249.233 261.364C249.876 256.311 243.355 246.112 243.355 246.112L231.508 221.765L248.039 223.786C248.039 223.786 256.948 254.381 256.948 255.851C256.948 256.954 259.461 260.941 260.769 262.952C261.228 263.654 261.54 264.106 261.54 264.106Z" fill="#FDC2CC"/>
<path d="M252.372 292.394C269.642 292.394 283.642 288.354 283.642 283.371C283.642 278.388 269.642 274.349 252.372 274.349C235.102 274.349 221.102 278.388 221.102 283.371C221.102 288.354 235.102 292.394 252.372 292.394Z" fill="#5F5D7E"/>
<path d="M264.48 269.987C264.369 270.286 264.178 270.549 263.929 270.748C261.659 272.832 253.169 275.93 247.923 277.613C246.548 278.093 245.146 278.492 243.724 278.808C242.438 278.899 239.775 278.073 237.938 276.944C236.101 275.816 237.754 274.214 238.496 273.387C239.239 272.56 243.64 272.314 243.64 272.314C241.527 275.831 246.759 272.744 246.759 272.744C246.759 272.744 257.32 265.21 258.422 264.383C259.525 263.556 261.545 263.096 261.545 263.096L264.48 269.987Z" fill="#2D9CDB"/>
<path opacity="0.3" d="M264.48 269.987C264.369 270.286 264.178 270.549 263.929 270.748C261.659 272.832 253.169 275.93 247.923 277.613C246.548 278.093 245.146 278.492 243.724 278.808C242.438 278.899 239.775 278.073 237.938 276.944C236.101 275.816 237.754 274.214 238.496 273.387C239.239 272.56 243.64 272.314 243.64 272.314C241.527 275.831 246.759 272.744 246.759 272.744C246.759 272.744 257.32 265.21 258.422 264.383C259.525 263.556 261.545 263.096 261.545 263.096L264.48 269.987Z" fill="black"/>
<path opacity="0.1" d="M263.928 270.755C261.658 272.839 253.168 275.937 247.922 277.62C252.676 273.592 260.647 271.486 263.928 270.755Z" fill="black"/>
<path opacity="0.1" d="M252.37 282.269C255.825 282.269 258.626 281.461 258.626 280.464C258.626 279.468 255.825 278.66 252.37 278.66C248.914 278.66 246.113 279.468 246.113 280.464C246.113 281.461 248.914 282.269 252.37 282.269Z" fill="black"/>
<path d="M255.32 232.871H248.891V280.464H255.32V232.871Z" fill="#5F5D7E"/>
<path opacity="0.1" d="M255.32 235.231V240.743C254.034 240.346 251.099 238.674 248.891 237.358V232.867H250.232L255.32 235.231Z" fill="black"/>
<path d="M240.172 212.151C240.172 212.151 261.398 206.686 266.681 202.596C271.964 198.505 292.709 217.752 289.968 225.014C287.228 232.276 277.25 237.535 277.25 237.535C277.25 237.535 249.657 242.026 244.959 232.658C240.26 223.291 240.172 212.151 240.172 212.151Z" fill="#474157"/>
<path opacity="0.1" d="M240.172 212.151C240.172 212.151 261.398 206.686 266.681 202.596C271.964 198.505 292.709 217.752 289.968 225.014C287.228 232.276 277.25 237.535 277.25 237.535C277.25 237.535 249.657 242.026 244.959 232.658C240.26 223.291 240.172 212.151 240.172 212.151Z" fill="black"/>
<path d="M238.336 209.945C238.336 209.945 259.562 204.48 264.845 200.39C270.128 196.299 290.873 215.546 288.133 222.808C285.392 230.07 275.414 235.329 275.414 235.329C275.414 235.329 247.821 239.82 243.123 230.452C238.424 221.084 238.336 209.945 238.336 209.945Z" fill="#474157"/>
<path d="M218.649 159.832L216.352 158.998C216.352 158.998 218.373 156.149 217.502 152.658C217.502 152.658 216.536 148.446 216.995 146.741C217.455 145.036 218.649 138.784 218.649 138.784C218.649 138.784 218.817 132.169 215.243 129.137C211.669 126.105 209.189 123.625 210.566 126.565C211.168 127.917 211.843 129.236 212.587 130.515C212.587 130.515 204.046 132.562 207.076 135.767C210.107 138.972 210.934 138.968 210.934 138.968C210.934 138.968 209.924 146.87 209.74 148.34C209.556 149.81 207.903 161.019 207.903 161.019C207.903 161.019 207.811 166.348 208.73 167.175C208.934 168.17 209.495 169.056 210.307 169.665C211.119 170.274 212.126 170.565 213.138 170.482C213.792 170.471 221.587 161.853 218.649 159.832Z" fill="#FDC2CC"/>
<path d="M274.122 142.927V148.072L268.795 149.81L259.721 156.492L257.315 158.263L246.57 153.945L239.773 146.778C239.773 146.778 240.104 146.598 240.677 146.3L241.045 146.106C242.194 145.529 244.006 144.636 246.008 143.838C248.01 143.041 248.245 138.366 248.131 134.514V134.147C248.039 131.445 247.764 129.237 247.764 129.237C247.764 129.237 248.884 129.024 250.515 128.781C255.038 128.108 263.476 127.201 262.734 129.972C262.517 130.914 262.517 131.893 262.734 132.835C262.756 132.938 262.778 133.044 262.804 133.147C263.568 136.488 265.934 139.986 265.934 139.986L273.281 142.633L273.487 142.706L274.122 142.927Z" fill="#FDC2CC"/>
<path d="M274.121 144.488V142.926C274.699 142.826 275.289 142.826 275.866 142.926C276.509 143.109 277.729 145.039 278.28 145.223C278.831 145.406 282.203 157.994 281.836 159.096C281.469 160.199 277.997 185.09 277.997 185.09L270.999 192.808L269.621 171.584L274.121 158.997V144.488Z" fill="#FDC2CC"/>
<path d="M237.843 202.28C237.843 202.28 231.447 203.658 232.259 205.68C233.071 207.701 236.649 207.793 236.649 207.793L237.843 202.28Z" fill="#FDC2CC"/>
<path d="M246.755 161.466L241.887 171.959L236.101 176.185L235.091 169.655C235.091 169.655 233.136 165.336 232.295 164.605C232.254 164.564 232.206 164.531 232.152 164.509C231.417 164.234 224.437 168.644 222.417 169.471C220.396 170.298 213.141 170.482 213.141 170.482L216.355 158.997C216.355 158.997 222.784 156.608 223.611 155.505C224.437 154.403 228.662 150.176 231.233 148.155C233.805 146.134 238.496 146.869 238.496 146.869L238.57 146.898L239.775 147.42L243.265 155.965L246.755 161.466Z" fill="#FDC2CC"/>
<path d="M233.988 266.135C233.901 267.093 233.878 268.055 233.918 269.016C233.943 270.041 233.988 270.912 233.988 270.912L231.875 275.323C231.875 275.323 224.62 277.711 225.814 276.701C226.229 276.352 226.442 275.444 226.548 274.242C226.728 271.971 226.468 268.66 226.288 266.135C226.012 262.276 221.604 252.72 221.604 252.72C221.604 252.72 217.93 243.349 215.634 237.561C213.338 231.772 214.164 221.298 214.164 221.298C214.164 221.298 214.532 213.397 216.185 211.008C217.838 208.619 224.267 207.792 224.267 207.792L227.283 217.799C227.283 217.799 229.763 227.171 230.681 228.549C231.6 229.927 231.324 246.374 230.957 248.119C230.769 249.012 231.085 252.529 231.438 255.734C231.798 258.782 232.549 261.771 233.672 264.628C233.891 265.099 233.999 265.615 233.988 266.135Z" fill="#FDC2CC"/>
<path opacity="0.1" d="M233.986 270.913L231.874 275.323C231.874 275.323 224.618 277.712 225.812 276.701C226.228 276.352 226.441 275.444 226.547 274.242C226.808 273.982 227.087 273.695 227.374 273.401C229.22 271.486 231.456 269.991 233.931 269.016C233.942 270.042 233.986 270.913 233.986 270.913Z" fill="black"/>
<path d="M237.302 277.477C237.304 277.494 237.304 277.511 237.302 277.528C236.935 279.274 230.873 281.663 230.873 281.663C230.873 281.663 227.016 282.306 224.812 282.857C224.643 282.902 224.468 282.919 224.294 282.905C222.593 282.776 222.516 279.502 222.516 278.998C222.516 278.495 224.628 276.15 225.271 275.782C225.998 275.179 226.68 274.525 227.313 273.823C229.199 271.87 231.481 270.345 234.007 269.351C234.007 269.351 237.596 275.665 237.302 277.477Z" fill="#2D9CDB"/>
<path opacity="0.3" d="M237.302 277.477C237.304 277.494 237.304 277.511 237.302 277.528C236.935 279.274 230.873 281.663 230.873 281.663C230.873 281.663 227.016 282.306 224.812 282.857C224.643 282.902 224.468 282.919 224.294 282.905C222.593 282.776 222.516 279.502 222.516 278.998C222.516 278.495 224.628 276.15 225.271 275.782C226.01 275.171 226.702 274.507 227.343 273.794C229.188 271.87 231.426 270.366 233.904 269.384L234.007 269.344C234.007 269.344 237.596 275.665 237.302 277.477Z" fill="black"/>
<path opacity="0.1" d="M237.301 277.476C237.304 277.493 237.304 277.511 237.301 277.528C236.934 279.273 230.873 281.662 230.873 281.662C230.873 281.662 227.015 282.305 224.811 282.857C224.642 282.902 224.467 282.918 224.293 282.904C226.291 281.534 231.137 278.244 231.791 278.171C232.445 278.097 235.667 277.171 237.301 277.476Z" fill="black"/>
<path opacity="0.1" d="M262.817 133.147C260.547 135.018 258.46 134.749 255.29 134.749C252.997 134.749 250.018 135.554 248.141 134.521C248.064 131.651 247.773 129.237 247.773 129.237C247.773 129.237 263.754 126.205 262.744 129.972C262.513 131.021 262.538 132.11 262.817 133.147Z" fill="black"/>
<path d="M267.603 122.636C267.603 126.12 266.219 129.462 263.756 131.926C261.293 134.39 257.953 135.774 254.47 135.774C254.132 135.774 253.794 135.774 253.463 135.738C250.916 135.541 248.482 134.606 246.458 133.046C244.435 131.487 242.91 129.371 242.07 126.957C241.23 124.544 241.112 121.938 241.73 119.459C242.348 116.979 243.676 114.734 245.55 112.998C247.424 111.261 249.764 110.11 252.283 109.683C254.801 109.257 257.389 109.575 259.73 110.598C262.071 111.621 264.063 113.304 265.462 115.442C266.861 117.581 267.606 120.08 267.607 122.636H267.603Z" fill="#FDC2CC"/>
<path opacity="0.1" d="M243.263 155.972L246.753 161.485L241.885 171.977L236.099 176.204L235.089 169.655C235.089 169.655 233.134 165.336 232.293 164.605C232.535 164.013 232.701 163.741 232.701 163.958C232.701 164.877 234.96 169.012 234.96 169.012C241.94 166.623 239.773 157.343 239.773 157.343C239.773 157.343 238.906 149.074 238.568 146.898L239.773 147.42L243.263 155.972Z" fill="black"/>
<path opacity="0.1" d="M274.122 142.926V148.071L268.795 149.81L259.721 156.491L257.315 158.263L246.57 153.944L239.773 146.778C239.773 146.778 240.104 146.598 240.677 146.3L241.045 146.105C245.773 148.255 250.89 149.045 254.545 149.328C256.226 149.471 257.915 149.509 259.6 149.442C273.439 147.237 273.85 143.893 273.505 142.706L274.122 142.926Z" fill="black"/>
<path d="M278.073 226.252C274.609 227.951 271.052 229.454 267.419 230.754C261.082 233.051 247.122 230.019 245.377 229.56C243.632 229.1 230.223 223.771 225.08 221.75C219.937 219.729 218.651 221.383 217.457 221.199C216.263 221.015 215.437 218.718 215.253 218.075C215.069 217.432 218.559 211.827 220.488 208.979C222.417 206.131 228.203 206.682 229.029 206.498C229.856 206.315 235.642 206.498 235.642 206.498C235.642 206.498 235.275 204.661 237.387 199.516C239.499 194.37 233.897 184.815 233.897 184.815C230.04 182.334 230.683 174.617 230.683 174.617C229.764 171.217 232.703 163.407 232.703 164.326C232.703 165.245 234.962 169.379 234.962 169.379C241.942 166.991 239.775 157.711 239.775 157.711C239.775 157.711 238.765 148.064 238.496 146.869C238.228 145.675 239.775 145.859 239.775 145.859C240.074 146.013 240.375 146.16 240.679 146.3C245.513 148.578 250.803 149.409 254.558 149.695C256.239 149.838 257.927 149.876 259.613 149.809C276.39 147.101 273.418 142.783 273.308 142.628L274.124 142.919C280.185 147.329 278.348 161.937 278.348 161.937L276.078 172.841L274.392 180.964C274.392 180.964 280.362 217.164 280.913 219.001C281.464 220.839 278.073 226.252 278.073 226.252Z" fill="#2D9CDB"/>
<path opacity="0.1" d="M233.343 209.714C232.975 209.989 228.842 218.534 231.873 220.923C234.904 223.312 233.343 209.714 233.343 209.714Z" fill="black"/>
<path opacity="0.1" d="M236.281 210.917C236.373 211.192 244.914 224.79 249.598 225.893L236.281 210.917Z" fill="black"/>
<path opacity="0.1" d="M256.859 103.312L255.492 103.602C255.869 103.463 256.254 103.349 256.646 103.26L256.859 103.312Z" fill="black"/>
<path opacity="0.1" d="M277.438 161.937L274.867 172.834C273.555 172.235 272.349 171.427 271.296 170.441C270.477 169.662 269.742 168.769 268.688 168.258C267.332 167.6 265.697 167.688 264.158 167.633C262.235 167.562 260.33 167.235 258.493 166.663C257.96 166.529 257.459 166.286 257.024 165.95C256.149 165.178 256.208 163.933 256.289 162.845C256.449 160.73 256.467 158.607 256.344 156.49C256.322 156.093 256.293 155.697 256.26 155.3C256.113 153.525 255.635 151.466 253.82 150.706C252.887 150.338 251.774 150.368 250.881 149.923C250.752 149.858 250.629 149.782 250.514 149.695C249.191 148.769 249.07 146.913 249.122 145.351C249.2 143.205 249.275 141.057 249.346 138.909C249.413 137.849 249.389 136.785 249.276 135.73C249.187 135.028 248.994 134.345 248.703 133.701C247.906 131.996 246.245 130.573 245.948 128.773C245.931 128.689 245.92 128.604 245.915 128.519C245.76 126.909 246.774 125.41 247.131 123.826C247.843 120.639 245.448 117.148 241.925 116.233C240.823 115.946 239.64 115.891 238.541 115.564C238.366 115.512 238.193 115.45 238.023 115.38C240.683 111.83 245.242 109.5 250.418 109.5C258.622 109.5 265.275 115.38 265.275 122.639C265.275 126.755 263.133 130.426 259.786 132.837C259.808 132.94 259.834 133.047 259.863 133.15C260.727 136.49 263.405 139.989 263.405 139.989L271.722 142.635L272.648 142.929C279.518 147.336 277.438 161.937 277.438 161.937Z" fill="black"/>
<path opacity="0.1" d="M281.954 172.492C281.873 172.492 281.796 172.474 281.719 172.459C281.799 172.451 281.879 172.462 281.954 172.492Z" fill="black"/>
<path d="M253.551 102.947C251.252 102.413 248.901 102.138 246.541 102.128C245.774 102.128 244.951 102.168 244.337 102.591C243.525 103.16 243.422 104.189 243.18 105.079C242.741 106.564 241.816 107.858 240.553 108.754C239.683 109.39 238.658 109.856 237.824 110.525C236.99 111.194 236.354 112.187 236.564 113.164C236.773 114.142 237.872 114.895 238.974 115.207C240.076 115.52 241.248 115.575 242.357 115.876C245.88 116.791 248.272 120.287 247.559 123.466C247.192 125.049 246.189 126.549 246.343 128.159C246.523 130.081 248.297 131.562 249.131 133.344C249.892 134.969 249.84 136.792 249.782 138.548L249.557 144.994C249.499 146.692 249.646 148.736 251.321 149.566C252.217 150.007 253.334 149.96 254.26 150.349C256.075 151.106 256.552 153.168 256.699 154.939C256.909 157.45 256.919 159.973 256.729 162.484C256.644 163.587 256.585 164.818 257.463 165.59C257.898 165.928 258.398 166.171 258.933 166.303C260.77 166.875 262.675 167.201 264.598 167.273C266.14 167.332 267.772 167.244 269.127 167.898C270.182 168.409 270.916 169.305 271.735 170.081C274.084 172.231 277.079 173.543 280.251 173.811C280.931 173.87 281.702 173.855 282.176 173.418C282.65 172.981 282.371 172.036 281.695 172.091C282.269 172.188 282.859 172.129 283.402 171.921C283.946 171.713 284.425 171.363 284.788 170.908C285.097 170.468 285.263 169.944 285.263 169.407C285.263 168.869 285.097 168.345 284.788 167.905C284.02 166.803 282.389 166.068 282.301 164.759C282.253 164.024 282.742 163.359 283.124 162.705C284.045 161.076 284.413 159.192 284.171 157.337C283.93 155.481 283.093 153.754 281.787 152.415C280.064 150.632 277.481 149.28 276.879 146.994C276.478 145.465 277.084 143.859 276.853 142.304C276.486 139.732 273.94 137.894 272.54 135.601C271.14 133.308 270.894 130.533 271.251 127.923C271.607 125.314 272.511 122.778 273.245 120.242C273.793 118.35 274.245 116.339 273.635 114.461C273.198 113.127 272.257 111.97 271.28 110.878C268.94 108.265 266.247 105.818 262.919 104.263C259.59 102.708 255.535 102.106 252 103.256" fill="#474157"/>
<path opacity="0.1" d="M253.551 102.947C251.252 102.413 248.901 102.138 246.541 102.128C245.774 102.128 244.951 102.168 244.337 102.591C243.525 103.16 243.422 104.189 243.18 105.079C242.741 106.564 241.816 107.858 240.553 108.754C239.683 109.39 238.658 109.856 237.824 110.525C236.99 111.194 236.354 112.187 236.564 113.164C236.773 114.142 237.872 114.895 238.974 115.207C240.076 115.52 241.248 115.575 242.357 115.876C245.88 116.791 248.272 120.287 247.559 123.466C247.192 125.049 246.189 126.549 246.343 128.159C246.523 130.081 248.297 131.562 249.131 133.344C249.892 134.969 249.84 136.792 249.782 138.548L249.557 144.994C249.499 146.692 249.646 148.736 251.321 149.566C252.217 150.007 253.334 149.96 254.26 150.349C256.075 151.106 256.552 153.168 256.699 154.939C256.909 157.45 256.919 159.973 256.729 162.484C256.644 163.587 256.585 164.818 257.463 165.59C257.898 165.928 258.398 166.171 258.933 166.303C260.77 166.875 262.675 167.201 264.598 167.273C266.14 167.332 267.772 167.244 269.127 167.898C270.182 168.409 270.916 169.305 271.735 170.081C274.084 172.231 277.079 173.543 280.251 173.811C280.931 173.87 281.702 173.855 282.176 173.418C282.65 172.981 282.371 172.036 281.695 172.091C282.269 172.188 282.859 172.129 283.402 171.921C283.946 171.713 284.425 171.363 284.788 170.908C285.097 170.468 285.263 169.944 285.263 169.407C285.263 168.869 285.097 168.345 284.788 167.905C284.02 166.803 282.389 166.068 282.301 164.759C282.253 164.024 282.742 163.359 283.124 162.705C284.045 161.076 284.413 159.192 284.171 157.337C283.93 155.481 283.093 153.754 281.787 152.415C280.064 150.632 277.481 149.28 276.879 146.994C276.478 145.465 277.084 143.859 276.853 142.304C276.486 139.732 273.94 137.894 272.54 135.601C271.14 133.308 270.894 130.533 271.251 127.923C271.607 125.314 272.511 122.778 273.245 120.242C273.793 118.35 274.245 116.339 273.635 114.461C273.198 113.127 272.257 111.97 271.28 110.878C268.94 108.265 266.247 105.818 262.919 104.263C259.59 102.708 255.535 102.106 252 103.256" fill="black"/>
<path opacity="0.1" d="M233.895 184.822C233.895 184.822 237.017 186.016 240.323 182.709C243.63 179.401 233.895 184.822 233.895 184.822Z" fill="black"/>
<g opacity="0.1">
<path opacity="0.1" d="M254.934 102.891C255.54 102.771 256.154 102.693 256.771 102.66C255.913 102.607 255.052 102.634 254.199 102.741L254.934 102.891Z" fill="black"/>
<path opacity="0.1" d="M273.352 170.081C272.529 169.306 271.798 168.409 270.74 167.898C269.388 167.244 267.754 167.332 266.211 167.273C264.288 167.203 262.383 166.877 260.546 166.303C260.012 166.171 259.511 165.928 259.076 165.59C258.202 164.818 258.264 163.576 258.342 162.485C258.532 159.973 258.522 157.45 258.312 154.939C258.162 153.168 257.688 151.106 255.869 150.349C254.94 149.96 253.827 150.007 252.93 149.566C251.255 148.736 251.093 146.692 251.163 144.995C251.239 142.846 251.314 140.698 251.387 138.552C251.45 136.792 251.498 134.969 250.737 133.344C249.903 131.562 248.129 130.085 247.949 128.159C247.798 126.553 248.812 125.05 249.168 123.466C249.881 120.279 247.486 116.792 243.963 115.877C242.861 115.59 241.678 115.531 240.579 115.208C239.481 114.884 238.416 114.186 238.188 113.186C237.96 112.187 238.61 111.216 239.444 110.544C240.278 109.871 241.303 109.408 242.177 108.772C243.44 107.878 244.365 106.583 244.8 105.097C245.047 104.208 245.168 103.183 245.958 102.609C246.411 102.328 246.931 102.176 247.464 102.168C247.137 102.168 246.81 102.15 246.487 102.15C245.719 102.15 244.896 102.19 244.283 102.609C243.471 103.183 243.368 104.208 243.125 105.097C242.687 106.583 241.762 107.877 240.499 108.772C239.628 109.408 238.603 109.875 237.769 110.544C236.935 111.213 236.3 112.205 236.509 113.186C236.718 114.168 237.806 114.881 238.904 115.208C240.003 115.535 241.178 115.575 242.288 115.877C245.811 116.792 248.202 120.287 247.49 123.466C247.122 125.05 246.119 126.553 246.274 128.159C246.454 130.085 248.228 131.562 249.062 133.344C249.822 134.969 249.775 136.792 249.712 138.552C249.636 140.698 249.562 142.846 249.488 144.995C249.429 146.692 249.576 148.736 251.251 149.566C252.148 150.007 253.265 149.96 254.19 150.349C256.005 151.106 256.483 153.168 256.63 154.939C256.84 157.45 256.85 159.973 256.659 162.485C256.575 163.587 256.516 164.818 257.394 165.59C257.828 165.928 258.329 166.171 258.863 166.303C260.7 166.877 262.605 167.203 264.528 167.273C266.071 167.332 267.702 167.244 269.058 167.898C270.112 168.409 270.847 169.306 271.67 170.081C274.017 172.232 277.01 173.544 280.182 173.811C280.592 173.86 281.007 173.844 281.412 173.763C278.405 173.416 275.584 172.127 273.352 170.081Z" fill="black"/>
</g>
<path opacity="0.1" d="M216.353 158.997C216.353 158.997 213.414 161.695 213.844 162.797C214.274 163.9 216.353 158.997 216.353 158.997Z" fill="black"/>
<path d="M219.08 193.673C216.96 193.154 211.115 192.677 208.334 202.008C207.687 204.175 206.862 206.286 205.869 208.318C203.202 213.798 199.756 225.066 214.91 227.546L251.279 235.815C251.279 235.815 270.75 238.204 272.036 237.285C273.322 236.367 273.138 234.345 273.138 234.345C273.138 234.345 251.647 234.345 247.422 227.73C243.197 221.115 243.014 212.111 243.014 212.111C243.014 212.111 243.543 198.208 221.339 194.169C220.604 194.029 219.833 193.856 219.08 193.673Z" fill="#474157"/>
<path opacity="0.1" d="M219.08 193.735C216.96 193.217 211.115 192.739 208.334 202.074C207.687 204.242 206.862 206.352 205.869 208.384C203.202 213.86 199.756 225.128 214.91 227.609L251.279 235.878C251.279 235.878 270.75 238.267 272.036 237.348C273.322 236.43 273.138 234.408 273.138 234.408C273.138 234.408 251.647 234.408 247.422 227.793C243.197 221.178 243.014 212.174 243.014 212.174C243.014 212.174 243.543 198.271 221.339 194.232C220.604 194.092 219.833 193.912 219.08 193.735Z" fill="black"/>
<path d="M295.321 184.165C295.11 182.82 294.419 181.598 293.375 180.724C292.331 179.851 291.006 179.386 289.645 179.417C284.414 179.513 268.312 180.211 260.832 185.099C260.832 185.099 255.138 188.774 253.485 188.774C251.832 188.774 229.422 207.885 262.669 224.974C262.669 224.974 280.487 230.046 287.467 218.138C287.467 218.138 292.426 205.349 292.059 200.92C291.691 196.492 295.365 184.548 295.365 184.548C295.365 184.548 295.358 184.404 295.321 184.165Z" fill="#474157"/>
<path opacity="0.1" d="M295.321 187.384C294.902 184.811 292.455 182.952 289.645 183C284.414 183.088 268.312 183.735 260.832 188.244C260.832 188.244 255.138 191.636 253.485 191.636C251.832 191.636 229.422 209.277 262.669 225.054C262.669 225.054 280.487 229.736 287.467 218.744C287.467 218.744 292.426 206.936 292.059 202.849C291.691 198.762 295.365 187.737 295.365 187.737C295.365 187.737 295.358 187.604 295.321 187.384Z" fill="black"/>
<path d="M277.546 224.97H271.668V237.491H277.546V224.97Z" fill="#5F5D7E"/>
<path opacity="0.1" d="M62.5423 174.054C71.6806 174.054 79.0885 173.578 79.0885 172.992C79.0885 172.405 71.6806 171.929 62.5423 171.929C53.4041 171.929 45.9961 172.405 45.9961 172.992C45.9961 173.578 53.4041 174.054 62.5423 174.054Z" fill="black"/>
<path d="M76.4271 132.03C76.0746 132.513 75.7926 133.044 75.5895 133.606C75.538 133.746 75.4866 133.9 75.4352 134.051C75.3425 134.007 75.2451 133.974 75.1449 133.952C74.7166 133.844 74.2739 133.806 73.8334 133.838C73.8334 133.669 73.8555 133.47 73.8592 133.301C73.9143 131.364 73.6865 128.663 71.8386 129.806C70.0679 130.909 71.3317 132.746 72.4742 133.926L72.7681 134.213C71.7248 134.948 71.5264 136.686 71.3537 138.491C71.1811 140.295 69.6491 142.272 68.6315 143.393C68.5287 143.507 68.4368 143.61 68.345 143.706C67.9341 143.376 67.4579 143.138 66.9481 143.007C66.4382 142.876 65.9063 142.855 65.3877 142.945C65.3472 142.787 65.2995 142.621 65.2517 142.445C64.4288 139.475 62.7206 134.327 60.5421 133.198L60.8286 132.831C61.7544 131.618 62.7977 129.821 61.2585 129.358C59.7192 128.895 59.5796 130.92 59.6641 132.434C59.6641 132.625 59.6935 132.801 59.7082 132.97C59.4006 132.985 59.0993 133.063 58.8227 133.198C58.546 133.333 58.2998 133.523 58.0991 133.757L57.8603 133.478C56.6113 132.008 54.3226 129.667 53.6282 131.434C52.9817 133.081 54.9985 135.216 56.4166 136.454L56.5047 136.532C55.5532 140.402 59.6971 143.562 61.9454 144.929L62.2357 145.106C59.1498 148.744 57.2431 155.562 57.2431 155.562L65.8836 157.105C65.8836 157.105 71.6145 152.162 70.8798 147.517H70.9386C76.6659 146.37 77.9663 140.262 77.0736 136.635L77.1765 136.594C78.2192 136.166 79.1331 135.475 79.8289 134.588C81.4306 132.357 78.0655 129.843 76.4271 132.03Z" fill="#2D9CDB"/>
<path opacity="0.1" d="M76.4271 132.03C76.0746 132.513 75.7926 133.044 75.5895 133.606C75.538 133.746 75.4866 133.9 75.4352 134.051C75.3425 134.007 75.2451 133.974 75.1449 133.952C74.7166 133.844 74.2739 133.806 73.8334 133.838C73.8334 133.669 73.8555 133.47 73.8592 133.301C73.9143 131.364 73.6865 128.663 71.8386 129.806C70.0679 130.909 71.3317 132.746 72.4742 133.926L72.7681 134.213C71.7248 134.948 71.5264 136.686 71.3537 138.491C71.1811 140.295 69.6491 142.272 68.6315 143.393C68.5287 143.507 68.4368 143.61 68.345 143.706C67.9341 143.376 67.4579 143.138 66.9481 143.007C66.4382 142.876 65.9063 142.855 65.3877 142.945C65.3472 142.787 65.2995 142.621 65.2517 142.445C64.4288 139.475 62.7206 134.327 60.5421 133.198L60.8286 132.831C61.7544 131.618 62.7977 129.821 61.2585 129.358C59.7192 128.895 59.5796 130.92 59.6641 132.434C59.6641 132.625 59.6935 132.801 59.7082 132.97C59.4006 132.985 59.0993 133.063 58.8227 133.198C58.546 133.333 58.2998 133.523 58.0991 133.757L57.8603 133.478C56.6113 132.008 54.3226 129.667 53.6282 131.434C52.9817 133.081 54.9985 135.216 56.4166 136.454L56.5047 136.532C55.5532 140.402 59.6971 143.562 61.9454 144.929L62.2357 145.106C59.1498 148.744 57.2431 155.562 57.2431 155.562L65.8836 157.105C65.8836 157.105 71.6145 152.162 70.8798 147.517H70.9386C76.6659 146.37 77.9663 140.262 77.0736 136.635L77.1765 136.594C78.2192 136.166 79.1331 135.475 79.8289 134.588C81.4306 132.357 78.0655 129.843 76.4271 132.03Z" fill="black"/>
<path d="M59.2259 134.521L58.2267 137.48C58.2267 137.48 57.6646 137.083 56.9556 136.458C55.5376 135.219 53.5207 133.084 54.1673 131.438C54.8616 129.67 57.1503 132.004 58.3994 133.481C58.8916 134.066 59.2259 134.521 59.2259 134.521Z" fill="#2D9CDB"/>
<path d="M61.3584 132.835C61.0509 133.238 60.7223 133.624 60.3738 133.992C60.2877 133.477 60.2276 132.959 60.1938 132.438C60.1093 130.924 60.271 128.913 61.7882 129.362C63.3054 129.81 62.2694 131.622 61.3584 132.835Z" fill="#2D9CDB"/>
<path d="M74.3925 133.3C74.3631 134.274 74.2676 135.05 74.2676 135.05C73.8227 134.704 73.4017 134.328 73.0075 133.925C71.865 132.738 70.6013 130.908 72.372 129.805C74.2162 128.662 74.4439 131.364 74.3925 133.3Z" fill="#2D9CDB"/>
<path d="M80.3562 134.576C79.6579 135.463 78.7414 136.153 77.6965 136.579C77.4072 136.704 77.1103 136.811 76.8075 136.899L75.6172 135.227C75.7432 134.674 75.9077 134.132 76.1095 133.602C76.3126 133.04 76.5946 132.509 76.9471 132.026C78.6002 129.843 81.9579 132.356 80.3562 134.576Z" fill="#2D9CDB"/>
<path opacity="0.1" d="M58.3898 133.48C58.8931 134.064 59.2274 134.52 59.2274 134.52L58.2281 137.479C58.2281 137.479 57.666 137.082 56.957 136.457C57.1153 135.51 57.5067 134.617 58.0959 133.859C58.184 133.723 58.2906 133.594 58.3898 133.48Z" fill="black"/>
<path opacity="0.1" d="M61.356 132.835C61.0485 133.238 60.7199 133.624 60.3714 133.992C60.2853 133.478 60.2252 132.959 60.1914 132.438C60.6116 132.445 61.0189 132.584 61.356 132.835Z" fill="black"/>
<path d="M66.3092 144.579L63.7964 145.682C63.7964 145.682 63.249 145.417 62.4591 144.925C59.8178 143.296 54.5093 139.206 58.0691 134.384C61.6289 129.563 64.5972 138.214 65.7655 142.44C66.1365 143.708 66.3092 144.579 66.3092 144.579Z" fill="#2D9CDB"/>
<path opacity="0.1" d="M73.0039 133.926C73.3683 133.547 73.8642 133.324 74.3889 133.301C74.3595 134.275 74.264 135.05 74.264 135.05C73.8191 134.704 73.3981 134.328 73.0039 133.926Z" fill="black"/>
<path opacity="0.1" d="M77.6965 136.579C77.4072 136.704 77.1103 136.811 76.8075 136.899L75.6172 135.226C75.7432 134.674 75.9077 134.131 76.1095 133.602C76.8846 134.058 77.4504 135.171 77.6965 136.579Z" fill="black"/>
<path d="M71.4544 147.505L71.032 147.578C62.6082 148.861 68.2547 144.315 68.2547 144.315C68.2547 144.315 68.622 143.966 69.1474 143.392C70.165 142.271 71.6932 140.305 71.8696 138.49C72.1341 135.759 72.439 133.198 75.6608 133.951C78.8385 134.69 79.4447 145.906 71.4544 147.505Z" fill="#2D9CDB"/>
<path d="M71.3092 168.483H55.2148V172.717H71.3092V168.483Z" fill="#474157"/>
<path d="M73.6883 154.723H52.6602V169.497H73.6883V154.723Z" fill="#474157"/>
<path opacity="0.1" d="M71.1569 168.483H55.0625V172.717H71.1569V168.483Z" fill="black"/>
<path opacity="0.1" d="M73.6219 154.727H52.5938V169.501H73.6219V154.727Z" fill="black"/>
<path d="M72.3678 168.483H56.2734V172.717H72.3678V168.483Z" fill="#474157"/>
<path opacity="0.1" d="M65.779 142.46C66.1463 143.724 66.3227 144.595 66.3227 144.595L63.8099 145.698C63.8099 145.698 63.2625 145.433 62.4727 144.941C63.4572 143.68 64.5666 142.736 65.779 142.46Z" fill="black"/>
<path opacity="0.1" d="M71.4545 147.506L71.032 147.579C62.6082 148.862 68.2547 144.316 68.2547 144.316C68.2547 144.316 68.622 143.966 69.1474 143.393C70.7197 144.665 71.3847 146.072 71.4545 147.506Z" fill="black"/>
<path d="M57.7734 155.561C57.7734 155.561 62.4904 138.655 69.1067 143.874C75.723 149.092 66.4139 157.104 66.4139 157.104L57.7734 155.561Z" fill="#2D9CDB"/>
<path opacity="0.1" d="M60.154 137.563C60.4462 137.563 60.683 137.326 60.683 137.034C60.683 136.742 60.4462 136.505 60.154 136.505C59.8618 136.505 59.625 136.742 59.625 137.034C59.625 137.326 59.8618 137.563 60.154 137.563Z" fill="black"/>
<path opacity="0.1" d="M60.1071 140.037C60.3993 140.037 60.6361 139.8 60.6361 139.508C60.6361 139.216 60.3993 138.979 60.1071 138.979C59.815 138.979 59.5781 139.216 59.5781 139.508C59.5781 139.8 59.815 140.037 60.1071 140.037Z" fill="black"/>
<path opacity="0.1" d="M75.4548 138.049C75.747 138.049 75.9838 137.812 75.9838 137.52C75.9838 137.228 75.747 136.991 75.4548 136.991C75.1626 136.991 74.9258 137.228 74.9258 137.52C74.9258 137.812 75.1626 138.049 75.4548 138.049Z" fill="black"/>
<path opacity="0.1" d="M63.1071 150.71C63.3993 150.71 63.6362 150.473 63.6362 150.181C63.6362 149.888 63.3993 149.651 63.1071 149.651C62.815 149.651 62.5781 149.888 62.5781 150.181C62.5781 150.473 62.815 150.71 63.1071 150.71Z" fill="black"/>
<path opacity="0.1" d="M74.3532 142.155C74.6454 142.155 74.8822 141.918 74.8822 141.626C74.8822 141.333 74.6454 141.096 74.3532 141.096C74.0611 141.096 73.8242 141.333 73.8242 141.626C73.8242 141.918 74.0611 142.155 74.3532 142.155Z" fill="black"/>
<path opacity="0.1" d="M68.8845 147.622C69.1766 147.622 69.4135 147.385 69.4135 147.093C69.4135 146.801 69.1766 146.564 68.8845 146.564C68.5923 146.564 68.3555 146.801 68.3555 147.093C68.3555 147.385 68.5923 147.622 68.8845 147.622Z" fill="black"/>
<path opacity="0.1" d="M61.9587 138.622C62.2509 138.622 62.4877 138.385 62.4877 138.093C62.4877 137.8 62.2509 137.563 61.9587 137.563C61.6665 137.563 61.4297 137.8 61.4297 138.093C61.4297 138.385 61.6665 138.622 61.9587 138.622Z" fill="black"/>
<path opacity="0.1" d="M73.9978 139.64C74.2899 139.64 74.5268 139.403 74.5268 139.111C74.5268 138.818 74.2899 138.582 73.9978 138.582C73.7056 138.582 73.4688 138.818 73.4688 139.111C73.4688 139.403 73.7056 139.64 73.9978 139.64Z" fill="black"/>
<path opacity="0.1" d="M72.1931 143.742C72.4852 143.742 72.7221 143.505 72.7221 143.213C72.7221 142.92 72.4852 142.683 72.1931 142.683C71.9009 142.683 71.6641 142.92 71.6641 143.213C71.6641 143.505 71.9009 143.742 72.1931 143.742Z" fill="black"/>
<path opacity="0.1" d="M66.6345 150.313C66.9266 150.313 67.1635 150.076 67.1635 149.783C67.1635 149.491 66.9266 149.254 66.6345 149.254C66.3423 149.254 66.1055 149.491 66.1055 149.783C66.1055 150.076 66.3423 150.313 66.6345 150.313Z" fill="black"/>
<path opacity="0.1" d="M65.486 147.711C65.7782 147.711 66.015 147.474 66.015 147.182C66.015 146.889 65.7782 146.652 65.486 146.652C65.1939 146.652 64.957 146.889 64.957 147.182C64.957 147.474 65.1939 147.711 65.486 147.711Z" fill="black"/>
<path opacity="0.1" d="M62.7556 141.846C63.0477 141.846 63.2846 141.609 63.2846 141.317C63.2846 141.025 63.0477 140.788 62.7556 140.788C62.4634 140.788 62.2266 141.025 62.2266 141.317C62.2266 141.609 62.4634 141.846 62.7556 141.846Z" fill="black"/>
<path opacity="0.1" d="M72.3678 168.483H56.2734V170.031H72.3678V168.483Z" fill="black"/>
<path d="M74.743 154.723H53.7148V169.497H74.743V154.723Z" fill="#474157"/>
<path opacity="0.1" d="M67.3376 152.694C67.6298 152.694 67.8666 152.457 67.8666 152.165C67.8666 151.873 67.6298 151.636 67.3376 151.636C67.0454 151.636 66.8086 151.873 66.8086 152.165C66.8086 152.457 67.0454 152.694 67.3376 152.694Z" fill="black"/>
<path opacity="0.1" d="M64.1657 153.356C64.4579 153.356 64.6947 153.119 64.6947 152.826C64.6947 152.534 64.4579 152.297 64.1657 152.297C63.8736 152.297 63.6367 152.534 63.6367 152.826C63.6367 153.119 63.8736 153.356 64.1657 153.356Z" fill="black"/>
<path d="M114.579 211.184C114.579 211.184 117.199 214.613 113.371 219.788C109.543 224.962 106.391 229.343 107.654 232.563C107.654 232.563 113.437 222.948 118.143 222.816C122.849 222.684 119.756 216.969 114.579 211.184Z" fill="#2D9CDB"/>
<path opacity="0.1" d="M114.58 211.184C114.809 211.515 114.99 211.876 115.116 212.257C119.705 217.653 122.152 222.688 117.739 222.816C113.629 222.945 108.699 230.295 107.516 232.133C107.556 232.276 107.604 232.419 107.655 232.555C107.655 232.555 113.438 222.941 118.144 222.809C122.85 222.676 119.756 216.969 114.58 211.184Z" fill="black"/>
<path d="M119.45 215.558C119.45 216.764 119.314 217.741 119.149 217.741C118.984 217.741 118.848 216.764 118.848 215.558C118.848 214.353 119.017 214.919 119.182 214.919C119.347 214.919 119.45 214.349 119.45 215.558Z" fill="#FFD037"/>
<path d="M121.121 216.999C120.063 217.576 119.141 217.925 119.06 217.778C118.98 217.631 119.773 217.043 120.835 216.466C121.896 215.889 121.474 216.308 121.569 216.466C121.665 216.624 122.183 216.422 121.121 216.999Z" fill="#FFD037"/>
<path d="M100.732 211.184C100.732 211.184 98.1123 214.613 101.94 219.788C105.768 224.962 108.92 229.343 107.653 232.563C107.653 232.563 101.874 222.948 97.1682 222.816C92.4622 222.684 95.5554 216.969 100.732 211.184Z" fill="#2D9CDB"/>
<path opacity="0.1" d="M100.732 211.184C100.503 211.515 100.322 211.876 100.195 212.257C95.6069 217.653 93.1602 222.688 97.5723 222.816C101.683 222.945 106.613 230.295 107.796 232.133C107.756 232.276 107.708 232.417 107.653 232.555C107.653 232.555 101.874 222.945 97.1682 222.82C92.4622 222.695 95.5554 216.969 100.732 211.184Z" fill="black"/>
<path d="M95.8594 215.558C95.8594 216.764 95.9953 217.741 96.1606 217.741C96.3259 217.741 96.4619 216.764 96.4619 215.558C96.4619 214.353 96.2929 214.919 96.1276 214.919C95.9622 214.919 95.8594 214.349 95.8594 215.558Z" fill="#FFD037"/>
<path d="M94.1897 216.999C95.2477 217.576 96.1698 217.925 96.2506 217.778C96.3315 217.631 95.5379 217.043 94.4762 216.466C93.4145 215.889 93.837 216.308 93.7415 216.466C93.646 216.624 93.128 216.422 94.1897 216.999Z" fill="#FFD037"/>
<path opacity="0.1" d="M107.652 258.8C122.787 258.8 135.057 256.916 135.057 254.592C135.057 252.268 122.787 250.384 107.652 250.384C92.516 250.384 80.2461 252.268 80.2461 254.592C80.2461 256.916 92.516 258.8 107.652 258.8Z" fill="#2D9CDB"/>
<path d="M121.759 227.947L121.627 229.017L121.443 230.531L121.37 231.159L121.182 232.674L121.105 233.306L120.921 234.816L118.842 252.016C118.655 253.552 116.146 254.746 113.122 254.746H102.204C99.1769 254.746 96.6935 253.552 96.4878 252.016L94.3864 234.816L94.2028 233.306L94.1256 232.674L93.9383 231.159L93.8648 230.531L93.6811 229.017L93.5488 227.947C93.4423 227.08 94.7979 226.345 96.5135 226.345H118.798C120.506 226.345 121.866 227.08 121.759 227.947Z" fill="#65617D"/>
<path d="M121.629 229.017L121.446 230.527H93.8673L93.6836 229.017H121.629Z" fill="#9D9CB5"/>
<path d="M121.369 231.158L121.185 232.672H94.1249L93.9375 231.158H121.369Z" fill="#9D9CB5"/>
<path d="M121.105 233.302L120.922 234.816H94.3868L94.2031 233.302H121.105Z" fill="#9D9CB5"/>
<defs>
<linearGradient id="paint0_linear" x1="249.138" y1="291.799" x2="249.138" y2="102.129" gradientUnits="userSpaceOnUse">
<stop stop-color="#808080" stop-opacity="0.25"/>
<stop offset="0.54" stop-color="#808080" stop-opacity="0.12"/>
<stop offset="1" stop-color="#808080" stop-opacity="0.1"/>
</linearGradient>
</defs>
</svg>
