<svg width="28" height="28" viewBox="0 0 28 28" fill="none" xmlns="http://www.w3.org/2000/svg">
    <circle cx="14" cy="14" r="14" fill="#EB5757"/>
    <path opacity="0.8" d="M10.4791 11.2335H7.82906C7.56906 11.2335 7.47906 11.3235 7.47906 11.5735V17.9935C7.47906 18.2435 7.56906 18.3335 7.82906 18.3335H8.39906C8.64906 18.3335 8.73906 18.2435 8.73906 17.9935V15.8635H10.4791C11.9291 15.8635 12.8391 15.0035 12.8391 13.5535C12.8391 12.1035 11.9191 11.2335 10.4791 11.2335ZM10.3591 14.6935H8.73906V12.4035H10.3591C11.0891 12.4035 11.5191 12.8335 11.5191 13.5535C11.5191 14.2735 11.0891 14.6935 10.3591 14.6935ZM20.1774 11.2335H19.6874C19.4174 11.2335 19.3474 11.2835 19.2274 11.5035L17.1474 15.2135L15.0674 11.4935C14.9574 11.2835 14.8674 11.2335 14.5874 11.2335H14.1474C13.8874 11.2335 13.7974 11.3235 13.7974 11.5735V17.9935C13.7974 18.2435 13.8874 18.3335 14.1474 18.3335H14.6274C14.8874 18.3335 14.9674 18.2435 14.9674 17.9935V14.9535C14.9674 14.3235 14.9174 13.7335 14.7574 12.9535H14.8274C15.0674 13.7535 15.2574 14.1935 15.5974 14.7735L16.5974 16.5135C16.7074 16.7135 16.7774 16.7535 16.9874 16.7535H17.3074C17.5074 16.7535 17.5874 16.6935 17.6974 16.5135L18.6774 14.7835C18.9974 14.2035 19.2474 13.7035 19.4974 12.9535H19.5674C19.3974 13.7235 19.3274 14.3735 19.3274 14.9435V17.9935C19.3274 18.2435 19.4074 18.3335 19.6674 18.3335H20.1774C20.4374 18.3335 20.5174 18.2435 20.5174 17.9935V11.5735C20.5174 11.3235 20.4374 11.2335 20.1774 11.2335Z" fill="white"/>
</svg>
