<svg width="20" height="21" viewBox="0 0 20 21" fill="none" xmlns="http://www.w3.org/2000/svg">
    <path fill-rule="evenodd" clip-rule="evenodd" d="M19.4836 2.63728L13.2874 0.734402C13.2702 0.734402 13.253 0.734402 13.253 0.734402C13.2186 0.734402 13.2014 0.716944 13.167 0.716944C13.1325 0.716944 13.1153 0.716944 13.0809 0.716944C13.0465 0.716944 13.0293 0.716944 12.9948 0.716944C12.9604 0.716944 12.9432 0.716944 12.9088 0.734402C12.8916 0.734402 12.8744 0.734402 12.8744 0.734402L6.90189 2.58491L0.91222 0.734402C0.70568 0.664572 0.464716 0.716944 0.292599 0.839148C0.120482 0.978808 0 1.1883 0 1.41525V18.3491C0 18.6633 0.20654 18.9427 0.499139 19.0299L6.69535 20.9328C6.7642 20.9503 6.83305 20.9677 6.90189 20.9677C6.97074 20.9677 7.03959 20.9503 7.10843 20.9328L13.0981 19.0998L19.0878 20.9328C19.1566 20.9503 19.2255 20.9677 19.2943 20.9677C19.4492 20.9677 19.5869 20.9154 19.7074 20.8281C19.8795 20.6884 20 20.4789 20 20.252V3.31812C20 3.00389 19.7935 2.74202 19.4836 2.63728ZM6.19501 19.3049L1.41016 17.8385V2.37109L6.19501 3.83753V19.3049ZM12.3942 17.821L7.60938 19.3049V3.85499L12.3942 2.37109V17.821ZM18.5895 19.3049L13.8047 17.8385V2.37109L18.5895 3.83753V19.3049Z" fill="#9A9A9A" fill-opacity="0.5"/>
</svg>
