<svg width="20" height="16" viewBox="0 0 20 16" fill="none" xmlns="http://www.w3.org/2000/svg">
    <path d="M0 14.8733V1.25113C0 1.09444 0.131669 0.968262 0.291956 0.968262H0.954568C1.11629 0.968262 1.24651 1.09583 1.24651 1.25113V12.9695C1.24651 13.5089 1.69732 13.9457 2.25402 13.9457H19.7081C19.8698 13.9457 20 14.0733 20 14.2286V14.8706C20 15.0273 19.8683 15.1534 19.7081 15.1534H0.291956C0.130238 15.1562 0 15.03 0 14.8733ZM4.18462 10.1782L8.41503 6.11403C8.53954 5.99478 8.73847 5.99617 8.86154 6.11542L10.8336 8.02619C10.9682 8.15653 11.1499 8.22863 11.3403 8.22863H11.3431C11.5335 8.22863 11.7152 8.15514 11.8483 8.02341L14.8637 5.06019C15.1399 4.78842 15.1385 4.35302 14.8608 4.08262L13.4798 2.74453C13.4197 2.6849 13.3968 2.63221 13.3968 2.54486C13.3968 2.4575 13.4197 2.40481 13.4798 2.34518C13.5399 2.28556 13.5957 2.26476 13.6859 2.26476H18.3742C18.463 2.26476 18.5188 2.28694 18.5803 2.34518C18.6404 2.40342 18.6633 2.4575 18.6633 2.54486V7.08744C18.6633 7.17341 18.6404 7.22749 18.5803 7.28712C18.5188 7.34674 18.463 7.36754 18.3742 7.36754C18.2855 7.36754 18.2297 7.34535 18.1682 7.28712L16.7871 5.94902C16.6469 5.81313 16.4637 5.74657 16.2805 5.74657C16.0987 5.74657 15.917 5.81313 15.7768 5.94763L11.5478 10.0077C11.4233 10.1269 11.2215 10.1255 11.0984 10.0049L9.1721 8.10384C9.03757 7.97072 8.85295 7.89584 8.66118 7.89584C8.47084 7.89584 8.28909 7.96934 8.15457 8.09829L5.09625 11.0629C4.97317 11.1821 4.77281 11.1821 4.64831 11.0629L4.18462 10.6136C4.06011 10.493 4.06011 10.2975 4.18462 10.1782Z" fill="#C4C4C4"/>
</svg>
