<svg width="340" height="311" viewBox="0 0 340 311" fill="none" xmlns="http://www.w3.org/2000/svg">
<circle cx="174.35" cy="145.713" r="145.713" fill="#2D9CDB" fill-opacity="0.1"/>
<g clip-path="url(#clip0)">
<path opacity="0.1" d="M193.211 109.977C171.604 110.006 150.806 103.881 130.912 97.0766C111.019 90.2726 91.2788 82.6534 70.0731 79.4247C56.435 77.3494 40.9267 77.5402 30.2661 85.0755C20.0043 92.3248 17.0327 104.323 15.599 115.408C14.5207 123.747 14.0236 132.499 18.0618 140.127C20.8657 145.422 25.6642 149.787 29.0462 154.833C40.8516 172.39 33.7522 194.817 22.2792 212.781C16.8997 221.209 10.5981 229.288 6.53101 238.199C2.46388 247.111 0.79598 257.216 4.94405 266.011C9.05454 274.729 18.3393 281.056 28.3033 285.377C48.5378 294.17 72.0965 296.054 95.0222 296.78C145.77 298.39 196.617 295.106 247.327 291.823C266.093 290.609 284.943 289.386 303.322 285.868C313.526 283.917 324.033 281.021 331.268 274.674C340.452 266.615 342.331 253.458 335.648 244C324.441 228.138 294.89 225.146 286.854 207.983C282.422 198.534 286.244 187.698 291.872 178.59C303.943 159.048 324.721 141.543 325.071 119.686C325.311 104.676 314.506 90.0326 298.367 83.5089C281.451 76.6759 258.387 78.4333 246.535 91.1686C234.348 104.288 212.29 109.956 193.211 109.977Z" fill="#2D9CDB"/>
<path d="M289.445 264.832C289.445 264.832 285.892 262.488 282.371 264.156C282.371 264.156 283.455 266.242 287.913 266.046L289.445 264.832Z" fill="#2D9CDB"/>
<path d="M289.894 264.955C289.894 264.955 290.975 269.071 288.264 271.872C288.264 271.872 286.633 270.175 288.264 266.019L289.894 264.955Z" fill="#2D9CDB"/>
<path d="M294.313 261.005C294.313 261.005 294.05 257.504 286.145 258.666C286.145 258.666 286.107 260.924 288.882 261.993C291.657 263.063 292.929 262.161 294.313 261.005Z" fill="#2D9CDB"/>
<path d="M294.81 260.98C294.81 260.98 298.152 262.052 295.171 269.466C295.171 269.466 292.966 268.975 292.57 266.024C292.174 263.073 293.347 262.055 294.81 260.98Z" fill="#2D9CDB"/>
<path d="M299.271 256.015C299.271 256.015 299.725 250.254 291.645 250.844C291.645 250.844 291.067 256.047 297.846 257.399L299.271 256.015Z" fill="#2D9CDB"/>
<path d="M304.609 249.512C304.609 249.512 303.502 242.982 295.426 244.928C295.426 244.928 295.397 250.573 303.291 251.067L304.609 249.512Z" fill="#2D9CDB"/>
<path d="M308.513 242.789C308.513 242.789 306.658 236.43 298.656 238.332C298.656 238.332 300.561 244.052 307.981 243.963L308.513 242.789Z" fill="#2D9CDB"/>
<path d="M312.219 236.221C312.219 236.221 310.406 229.623 302.68 231.597C302.68 231.597 305.258 237.866 311.707 237.337L312.219 236.221Z" fill="#2D9CDB"/>
<path d="M314.608 229.984C314.608 229.984 313.215 221.914 306.012 223.7C306.012 223.7 308.105 231.042 314.08 231.16L314.608 229.984Z" fill="#2D9CDB"/>
<path d="M316.848 222.449C316.848 222.449 315.174 214.316 307.887 216.668C307.887 216.668 310.743 224.357 316.33 223.562L316.848 222.449Z" fill="#2D9CDB"/>
<path d="M318.224 215.436C318.224 215.436 315.567 207.299 309.934 207.519C309.934 207.519 312.648 216.112 317.753 217.057L318.224 215.436Z" fill="#2D9CDB"/>
<path d="M319.112 208.591C319.112 208.591 316.221 198.798 311.637 199.553C311.637 199.553 313.637 207.039 318.95 210.117L319.112 208.591Z" fill="#2D9CDB"/>
<path d="M319.617 200.427C319.617 200.427 316.906 192.267 312.391 191.94C312.391 191.94 314.235 199.97 319.528 202.548L319.617 200.427Z" fill="#2D9CDB"/>
<path d="M320.164 192.806C320.164 192.806 316.785 184.638 313.805 184.453C313.805 184.453 315.273 192.497 319.875 194.148L320.164 192.806Z" fill="#2D9CDB"/>
<path d="M320.537 185.719C320.537 185.719 318.459 176.848 315.473 176.111C315.473 176.111 315.88 183.369 320.236 186.384L320.537 185.719Z" fill="#2D9CDB"/>
<path d="M321.663 176.436C321.663 176.436 319.478 169.363 317.059 168.285C317.059 168.285 317.536 176.624 321.106 178.165L321.663 176.436Z" fill="#2D9CDB"/>
<path d="M322.596 170.365L323.036 157.896C323.036 157.896 318.512 167.296 322.27 172.553L322.596 170.365Z" fill="#2D9CDB"/>
<path d="M326.088 157.963C326.088 157.963 329.346 148.859 330.135 148.35C330.135 148.35 323.747 154.258 324.371 161.857L326.088 157.963Z" fill="#2D9CDB"/>
<path d="M299.493 255.972C299.493 255.972 305.222 255.223 305.052 263.319C305.052 263.319 299.875 264.163 298.184 257.466L299.493 255.972Z" fill="#2D9CDB"/>
<path d="M304.883 249.293C304.883 249.293 311.503 249.273 310.954 257.559C310.954 257.559 305.395 258.554 303.562 250.859L304.883 249.293Z" fill="#2D9CDB"/>
<path d="M308.579 243.323C308.579 243.323 314.588 240.505 318.433 247.78C318.433 247.78 312.883 250.127 308.047 244.499L308.579 243.323Z" fill="#2D9CDB"/>
<path d="M312.352 236.282C312.352 236.282 318.507 233.285 322.12 240.389C322.12 240.389 315.709 242.598 311.844 237.406L312.352 236.282Z" fill="#2D9CDB"/>
<path d="M314.53 230.16C314.53 230.16 320.452 224.503 325.179 230.223C325.179 230.223 319.129 234.88 314.258 231.42L314.53 230.16Z" fill="#2D9CDB"/>
<path d="M316.511 222.255C316.511 222.255 322.468 216.474 327.157 222.521C327.157 222.521 320.471 227.27 316.297 223.469L316.511 222.255Z" fill="#2D9CDB"/>
<path d="M317.625 215.205C317.625 215.205 322.215 207.979 327.621 209.592C327.621 209.592 322.857 217.243 317.677 216.902L317.625 215.205Z" fill="#2D9CDB"/>
<path d="M318.978 208.545C318.978 208.545 323.603 199.446 327.979 201.03C327.979 201.03 324.644 208.025 318.859 210.08L318.978 208.545Z" fill="#2D9CDB"/>
<path d="M319.298 199.951C319.298 199.951 324.054 192.789 328.508 193.665C328.508 193.665 324.62 200.928 318.836 202.024L319.298 199.951Z" fill="#2D9CDB"/>
<path d="M319.668 192.648C319.668 192.648 323.354 184.61 326.348 184.555C326.348 184.555 324.579 192.535 319.917 194.012L319.668 192.648Z" fill="#2D9CDB"/>
<path d="M320.391 185.546C320.391 185.546 324.487 177.406 327.565 177.389C327.565 177.389 325.469 184.349 320.526 186.26L320.391 185.546Z" fill="#2D9CDB"/>
<path d="M321.008 176.944C321.008 176.944 324.072 170.209 326.61 169.446C326.61 169.446 325.078 177.655 321.346 178.73L321.008 176.944Z" fill="#2D9CDB"/>
<path d="M322.961 170.12L329.809 159.688C329.809 159.688 328.054 169.978 321.961 172.117L322.961 170.12Z" fill="#2D9CDB"/>
<path d="M327.659 158.804C327.659 158.804 335.617 153.312 335.906 152.425C335.906 152.425 331.859 160.116 324.344 161.475L327.659 158.804Z" fill="#2D9CDB"/>
<path d="M328.138 156.332C328.138 156.332 337.275 147.548 339.608 147.557C339.608 147.557 332.072 147.901 327.918 155.864L328.138 156.332Z" fill="#2D9CDB"/>
<path d="M321.098 178.248L321.43 178.291C323.147 164.854 325.65 156.902 328.477 155.928L328.368 155.61C325.37 156.651 322.849 164.481 321.098 178.248Z" fill="#444053"/>
<path d="M318.57 210.385L319.073 210.425C319.18 209.171 319.261 207.887 319.316 206.607C319.796 195.485 320.539 185.27 321.516 177.613L321.227 177.252C320.247 184.926 319.293 195.447 318.813 206.587C318.758 207.858 318.677 209.136 318.57 210.385Z" fill="#444053"/>
<path d="M280.069 271.242C280.155 271.205 289.009 267.25 298.199 257.822C303.583 252.3 308.056 245.958 311.452 239.034C315.702 230.383 318.292 219.752 319.159 209.424L318.636 209.67C316.684 232.851 306.131 248.691 297.739 257.319C288.639 266.664 279.884 270.577 279.797 270.615L280.069 271.242Z" fill="#444053"/>
<path d="M302.992 102.93H25.2361C24.5799 102.93 23.9505 103.19 23.4864 103.654C23.0224 104.118 22.7617 104.748 22.7617 105.404V112.613H305.466V105.404C305.466 104.748 305.206 104.118 304.742 103.654C304.278 103.19 303.648 102.93 302.992 102.93Z" fill="#3F3D56"/>
<path d="M22.7617 112.611V274.834C22.7617 276.157 23.2874 277.426 24.223 278.362C25.1587 279.298 26.4277 279.823 27.751 279.823H300.477C301.8 279.823 303.069 279.298 304.005 278.362C304.941 277.426 305.466 276.157 305.466 274.834V112.611H22.7617Z" fill="white"/>
<path opacity="0.8" d="M27.2383 108.854C27.8769 108.854 28.3945 108.336 28.3945 107.698C28.3945 107.059 27.8769 106.542 27.2383 106.542C26.5997 106.542 26.082 107.059 26.082 107.698C26.082 108.336 26.5997 108.854 27.2383 108.854Z" fill="#FA5959"/>
<path opacity="0.8" d="M30.418 108.854C31.0566 108.854 31.5742 108.336 31.5742 107.698C31.5742 107.059 31.0566 106.542 30.418 106.542C29.7794 106.542 29.2617 107.059 29.2617 107.698C29.2617 108.336 29.7794 108.854 30.418 108.854Z" fill="#FED253"/>
<path opacity="0.8" d="M33.5977 108.854C34.2362 108.854 34.7539 108.336 34.7539 107.698C34.7539 107.059 34.2362 106.542 33.5977 106.542C32.9591 106.542 32.4414 107.059 32.4414 107.698C32.4414 108.336 32.9591 108.854 33.5977 108.854Z" fill="#8CCF4D"/>
<path opacity="0.05" d="M276.243 139.66H49.0391V239.56H276.243V139.66Z" fill="black"/>
<path d="M274.509 140.417H50.7734V238.114H274.509V140.417Z" fill="#3F3D56"/>
<path d="M111.77 165.562C107.367 165.562 103.064 166.868 99.4038 169.313C95.7435 171.759 92.8907 175.235 91.206 179.302C89.5214 183.368 89.0806 187.843 89.9394 192.161C90.7982 196.478 92.9181 200.444 96.0309 203.556C99.1437 206.669 103.11 208.789 107.427 209.647C111.745 210.506 116.22 210.065 120.287 208.381C124.354 206.696 127.831 203.844 130.276 200.184C132.722 196.524 134.028 192.221 134.028 187.819C134.028 184.896 133.452 182.002 132.333 179.302C131.215 176.601 129.575 174.148 127.508 172.081C125.442 170.014 122.988 168.375 120.287 167.257C117.587 166.138 114.693 165.562 111.77 165.562ZM115.762 188.353V198.892H107.893V188.353C106.804 187.529 106.002 186.384 105.599 185.079C105.196 183.774 105.213 182.376 105.648 181.082C106.083 179.787 106.913 178.662 108.022 177.865C109.131 177.067 110.462 176.639 111.827 176.639C113.193 176.639 114.524 177.067 115.633 177.865C116.742 178.662 117.572 179.787 118.007 181.082C118.441 182.376 118.459 183.774 118.056 185.079C117.653 186.384 116.85 187.529 115.762 188.353Z" fill="#2D9CDB"/>
<path opacity="0.05" d="M111.77 165.562C107.367 165.562 103.064 166.868 99.4038 169.313C95.7435 171.759 92.8907 175.235 91.206 179.302C89.5214 183.368 89.0806 187.843 89.9394 192.161C90.7982 196.478 92.9181 200.444 96.0309 203.556C99.1437 206.669 103.11 208.789 107.427 209.647C111.745 210.506 116.22 210.065 120.287 208.381C124.354 206.696 127.831 203.844 130.276 200.184C132.722 196.524 134.028 192.221 134.028 187.819C134.028 184.896 133.452 182.002 132.333 179.302C131.215 176.601 129.575 174.148 127.508 172.081C125.442 170.014 122.988 168.375 120.287 167.257C117.587 166.138 114.693 165.562 111.77 165.562ZM115.762 188.353V198.892H107.893V188.353C106.804 187.529 106.002 186.384 105.599 185.079C105.196 183.774 105.213 182.376 105.648 181.082C106.083 179.787 106.913 178.662 108.022 177.865C109.131 177.067 110.462 176.639 111.827 176.639C113.193 176.639 114.524 177.067 115.633 177.865C116.742 178.662 117.572 179.787 118.007 181.082C118.441 182.376 118.459 183.774 118.056 185.079C117.653 186.384 116.85 187.529 115.762 188.353Z" fill="black"/>
<path d="M111.766 159.203C106.106 159.203 100.573 160.882 95.8668 164.026C91.1607 167.17 87.4928 171.639 85.3268 176.868C83.1608 182.097 82.5941 187.85 83.6983 193.401C84.8025 198.952 87.5281 204.051 91.5303 208.053C95.5325 212.055 100.632 214.78 106.183 215.884C111.734 216.988 117.488 216.422 122.717 214.256C127.946 212.09 132.416 208.422 135.56 203.716C138.705 199.011 140.383 193.478 140.383 187.819C140.383 180.229 137.368 172.951 132.001 167.585C126.634 162.218 119.356 159.203 111.766 159.203ZM116.897 188.507V202.054H106.779V188.507C105.379 187.447 104.347 185.974 103.828 184.296C103.31 182.618 103.332 180.82 103.891 179.155C104.45 177.49 105.518 176.043 106.944 175.017C108.37 173.992 110.082 173.44 111.838 173.44C113.594 173.44 115.306 173.992 116.732 175.017C118.158 176.043 119.226 177.49 119.785 179.155C120.344 180.82 120.366 182.618 119.848 184.296C119.329 185.974 118.297 187.447 116.897 188.507Z" fill="#2D9CDB"/>
<path d="M244.739 184.063H152.238V193.89H244.739V184.063Z" fill="white"/>
<path d="M244.738 201.983H224.793V211.811H244.738V201.983Z" fill="#2D9CDB"/>
<path d="M161.344 188.829H159.67L161.159 187.344C161.185 187.316 161.2 187.279 161.2 187.241C161.2 187.203 161.185 187.166 161.159 187.138C161.145 187.125 161.129 187.114 161.112 187.107C161.094 187.099 161.075 187.096 161.056 187.096C161.037 187.096 161.018 187.099 161.001 187.107C160.983 187.114 160.967 187.125 160.954 187.138L159.465 188.627V186.951C159.465 186.912 159.45 186.875 159.423 186.848C159.395 186.821 159.359 186.806 159.32 186.806C159.282 186.807 159.246 186.822 159.219 186.849C159.192 186.876 159.177 186.912 159.176 186.951V188.627L157.69 187.13C157.677 187.116 157.661 187.105 157.643 187.098C157.625 187.091 157.606 187.087 157.587 187.087C157.568 187.087 157.549 187.091 157.532 187.098C157.514 187.105 157.498 187.116 157.485 187.13C157.458 187.157 157.443 187.194 157.443 187.232C157.443 187.271 157.458 187.307 157.485 187.335L158.973 188.821H157.297C157.259 188.821 157.222 188.837 157.195 188.864C157.169 188.891 157.153 188.927 157.152 188.965C157.152 189.004 157.168 189.04 157.195 189.067C157.222 189.095 157.259 189.11 157.297 189.11H158.973L157.485 190.598C157.458 190.626 157.443 190.663 157.443 190.701C157.443 190.739 157.458 190.776 157.485 190.804C157.513 190.83 157.549 190.844 157.587 190.844C157.625 190.844 157.662 190.83 157.69 190.804L159.176 189.315V190.989C159.176 191.027 159.191 191.064 159.218 191.091C159.245 191.118 159.282 191.133 159.32 191.133C159.359 191.133 159.395 191.118 159.423 191.091C159.45 191.064 159.465 191.027 159.465 190.989V189.315L160.954 190.804C160.981 190.83 161.018 190.844 161.056 190.844C161.094 190.844 161.131 190.83 161.159 190.804C161.185 190.776 161.2 190.739 161.2 190.701C161.2 190.663 161.185 190.626 161.159 190.598L159.67 189.11H161.344C161.382 189.11 161.419 189.095 161.446 189.067C161.473 189.04 161.488 189.004 161.488 188.965C161.486 188.928 161.47 188.894 161.443 188.869C161.416 188.843 161.381 188.829 161.344 188.829Z" fill="#2D9CDB"/>
<path d="M167.414 188.829H165.74L167.229 187.344C167.256 187.316 167.271 187.279 167.271 187.241C167.271 187.203 167.256 187.166 167.229 187.138C167.216 187.125 167.2 187.114 167.182 187.107C167.164 187.099 167.146 187.096 167.126 187.096C167.107 187.096 167.088 187.099 167.071 187.107C167.053 187.114 167.037 187.125 167.024 187.138L165.535 188.627V186.951C165.535 186.912 165.52 186.875 165.493 186.848C165.466 186.821 165.429 186.806 165.391 186.806C165.353 186.807 165.316 186.822 165.289 186.849C165.262 186.876 165.247 186.912 165.246 186.951V188.627L163.76 187.13C163.747 187.116 163.731 187.105 163.713 187.098C163.696 187.091 163.677 187.087 163.658 187.087C163.639 187.087 163.62 187.091 163.602 187.098C163.584 187.105 163.569 187.116 163.555 187.13C163.528 187.157 163.513 187.194 163.513 187.232C163.513 187.271 163.528 187.307 163.555 187.335L165.044 188.821H163.367C163.329 188.821 163.293 188.837 163.266 188.864C163.239 188.891 163.223 188.927 163.223 188.965C163.223 189.004 163.238 189.04 163.265 189.067C163.292 189.095 163.329 189.11 163.367 189.11H165.044L163.555 190.598C163.528 190.626 163.513 190.663 163.513 190.701C163.513 190.739 163.528 190.776 163.555 190.804C163.583 190.83 163.62 190.844 163.658 190.844C163.696 190.844 163.732 190.83 163.76 190.804L165.246 189.315V190.989C165.246 191.027 165.261 191.064 165.288 191.091C165.316 191.118 165.352 191.133 165.391 191.133C165.429 191.133 165.466 191.118 165.493 191.091C165.52 191.064 165.535 191.027 165.535 190.989V189.315L167.024 190.804C167.052 190.83 167.088 190.844 167.126 190.844C167.165 190.844 167.201 190.83 167.229 190.804C167.256 190.776 167.271 190.739 167.271 190.701C167.271 190.663 167.256 190.626 167.229 190.598L165.74 189.11H167.414C167.452 189.11 167.489 189.095 167.516 189.067C167.543 189.04 167.559 189.004 167.559 188.965C167.556 188.928 167.54 188.894 167.513 188.869C167.486 188.843 167.451 188.829 167.414 188.829Z" fill="#2D9CDB"/>
<path d="M173.484 188.829H171.811L173.299 187.344C173.326 187.316 173.341 187.279 173.341 187.241C173.341 187.203 173.326 187.166 173.299 187.138C173.286 187.125 173.27 187.114 173.252 187.107C173.235 187.099 173.216 187.096 173.197 187.096C173.178 187.096 173.159 187.099 173.141 187.107C173.124 187.114 173.108 187.125 173.094 187.138L171.605 188.627V186.951C171.605 186.912 171.59 186.875 171.563 186.848C171.536 186.821 171.499 186.806 171.461 186.806C171.423 186.807 171.387 186.822 171.36 186.849C171.333 186.876 171.317 186.912 171.316 186.951V188.627L169.831 187.13C169.817 187.116 169.801 187.105 169.784 187.098C169.766 187.091 169.747 187.087 169.728 187.087C169.709 187.087 169.69 187.091 169.672 187.098C169.655 187.105 169.639 187.116 169.625 187.13C169.599 187.157 169.584 187.194 169.584 187.232C169.584 187.271 169.599 187.307 169.625 187.335L171.114 188.821H169.438C169.399 188.821 169.363 188.837 169.336 188.864C169.309 188.891 169.294 188.927 169.293 188.965C169.293 189.004 169.308 189.04 169.335 189.067C169.362 189.095 169.399 189.11 169.438 189.11H171.114L169.625 190.598C169.599 190.626 169.584 190.663 169.584 190.701C169.584 190.739 169.599 190.776 169.625 190.804C169.653 190.83 169.69 190.844 169.728 190.844C169.766 190.844 169.803 190.83 169.831 190.804L171.316 189.315V190.989C171.316 191.027 171.332 191.064 171.359 191.091C171.386 191.118 171.423 191.133 171.461 191.133C171.499 191.133 171.536 191.118 171.563 191.091C171.59 191.064 171.605 191.027 171.605 190.989V189.315L173.094 190.804C173.122 190.83 173.159 190.844 173.197 190.844C173.235 190.844 173.272 190.83 173.299 190.804C173.326 190.776 173.341 190.739 173.341 190.701C173.341 190.663 173.326 190.626 173.299 190.598L171.811 189.11H173.484C173.523 189.11 173.56 189.095 173.587 189.067C173.614 189.04 173.629 189.004 173.629 188.965C173.627 188.928 173.611 188.894 173.584 188.869C173.557 188.843 173.521 188.829 173.484 188.829Z" fill="#2D9CDB"/>
<path d="M179.555 188.829H177.881L179.37 187.344C179.396 187.316 179.411 187.279 179.411 187.241C179.411 187.203 179.396 187.166 179.37 187.138C179.356 187.125 179.34 187.114 179.323 187.107C179.305 187.099 179.286 187.096 179.267 187.096C179.248 187.096 179.229 187.099 179.212 187.107C179.194 187.114 179.178 187.125 179.164 187.138L177.676 188.627V186.951C177.676 186.912 177.661 186.875 177.633 186.848C177.606 186.821 177.57 186.806 177.531 186.806C177.493 186.807 177.457 186.822 177.43 186.849C177.403 186.876 177.387 186.912 177.387 186.951V188.627L175.901 187.13C175.888 187.116 175.872 187.105 175.854 187.098C175.836 187.091 175.817 187.087 175.798 187.087C175.779 187.087 175.76 187.091 175.743 187.098C175.725 187.105 175.709 187.116 175.696 187.13C175.669 187.157 175.654 187.194 175.654 187.232C175.654 187.271 175.669 187.307 175.696 187.335L177.184 188.821H175.508C175.47 188.821 175.433 188.837 175.406 188.864C175.379 188.891 175.364 188.927 175.363 188.965C175.363 189.004 175.379 189.04 175.406 189.067C175.433 189.095 175.469 189.11 175.508 189.11H177.184L175.696 190.598C175.669 190.626 175.654 190.663 175.654 190.701C175.654 190.739 175.669 190.776 175.696 190.804C175.724 190.83 175.76 190.844 175.798 190.844C175.836 190.844 175.873 190.83 175.901 190.804L177.387 189.315V190.989C177.387 191.027 177.402 191.064 177.429 191.091C177.456 191.118 177.493 191.133 177.531 191.133C177.57 191.133 177.606 191.118 177.633 191.091C177.661 191.064 177.676 191.027 177.676 190.989V189.315L179.164 190.804C179.192 190.83 179.229 190.844 179.267 190.844C179.305 190.844 179.342 190.83 179.37 190.804C179.396 190.776 179.411 190.739 179.411 190.701C179.411 190.663 179.396 190.626 179.37 190.598L177.881 189.11H179.555C179.593 189.11 179.63 189.095 179.657 189.067C179.684 189.04 179.699 189.004 179.699 188.965C179.697 188.928 179.681 188.894 179.654 188.869C179.627 188.843 179.592 188.829 179.555 188.829Z" fill="#2D9CDB"/>
<path d="M185.621 188.829H183.947L185.436 187.344C185.463 187.316 185.478 187.279 185.478 187.241C185.478 187.203 185.463 187.166 185.436 187.138C185.423 187.125 185.407 187.114 185.389 187.107C185.371 187.099 185.353 187.096 185.333 187.096C185.314 187.096 185.296 187.099 185.278 187.107C185.26 187.114 185.244 187.125 185.231 187.138L183.742 188.627V186.951C183.742 186.912 183.727 186.875 183.7 186.848C183.673 186.821 183.636 186.806 183.598 186.806C183.56 186.807 183.523 186.822 183.496 186.849C183.469 186.876 183.454 186.912 183.453 186.951V188.627L181.967 187.13C181.954 187.116 181.938 187.105 181.92 187.098C181.903 187.091 181.884 187.087 181.865 187.087C181.846 187.087 181.827 187.091 181.809 187.098C181.792 187.105 181.776 187.116 181.762 187.13C181.735 187.157 181.721 187.194 181.721 187.232C181.721 187.271 181.735 187.307 181.762 187.335L183.251 188.821H181.574C181.536 188.821 181.5 188.837 181.473 188.864C181.446 188.891 181.43 188.927 181.43 188.965C181.43 189.004 181.445 189.04 181.472 189.067C181.499 189.095 181.536 189.11 181.574 189.11H183.251L181.762 190.598C181.735 190.626 181.721 190.663 181.721 190.701C181.721 190.739 181.735 190.776 181.762 190.804C181.79 190.83 181.827 190.844 181.865 190.844C181.903 190.844 181.94 190.83 181.967 190.804L183.453 189.315V190.989C183.453 191.027 183.468 191.064 183.495 191.091C183.523 191.118 183.559 191.133 183.598 191.133C183.636 191.133 183.673 191.118 183.7 191.091C183.727 191.064 183.742 191.027 183.742 190.989V189.315L185.231 190.804C185.259 190.83 185.295 190.844 185.333 190.844C185.372 190.844 185.408 190.83 185.436 190.804C185.463 190.776 185.478 190.739 185.478 190.701C185.478 190.663 185.463 190.626 185.436 190.598L183.947 189.11H185.621C185.659 189.11 185.696 189.095 185.723 189.067C185.75 189.04 185.766 189.004 185.766 188.965C185.763 188.928 185.747 188.894 185.72 188.869C185.693 188.843 185.658 188.829 185.621 188.829Z" fill="#2D9CDB"/>
<path d="M191.695 188.829H190.022L191.51 187.344C191.537 187.316 191.552 187.279 191.552 187.241C191.552 187.203 191.537 187.166 191.51 187.138C191.497 187.125 191.481 187.114 191.463 187.107C191.446 187.099 191.427 187.096 191.408 187.096C191.389 187.096 191.37 187.099 191.352 187.107C191.335 187.114 191.319 187.125 191.305 187.138L189.816 188.627V186.951C189.816 186.912 189.801 186.875 189.774 186.848C189.747 186.821 189.71 186.806 189.672 186.806C189.634 186.807 189.597 186.822 189.57 186.849C189.544 186.876 189.528 186.912 189.527 186.951V188.627L188.042 187.13C188.028 187.116 188.012 187.105 187.995 187.098C187.977 187.091 187.958 187.087 187.939 187.087C187.92 187.087 187.901 187.091 187.883 187.098C187.866 187.105 187.85 187.116 187.836 187.13C187.81 187.157 187.795 187.194 187.795 187.232C187.795 187.271 187.81 187.307 187.836 187.335L189.325 188.821H187.648C187.61 188.821 187.574 188.837 187.547 188.864C187.52 188.891 187.505 188.927 187.504 188.965C187.504 189.004 187.519 189.04 187.546 189.067C187.573 189.095 187.61 189.11 187.648 189.11H189.325L187.836 190.598C187.81 190.626 187.795 190.663 187.795 190.701C187.795 190.739 187.81 190.776 187.836 190.804C187.864 190.83 187.901 190.844 187.939 190.844C187.977 190.844 188.014 190.83 188.042 190.804L189.527 189.315V190.989C189.527 191.027 189.543 191.064 189.57 191.091C189.597 191.118 189.634 191.133 189.672 191.133C189.71 191.133 189.747 191.118 189.774 191.091C189.801 191.064 189.816 191.027 189.816 190.989V189.315L191.305 190.804C191.333 190.83 191.37 190.844 191.408 190.844C191.446 190.844 191.482 190.83 191.51 190.804C191.537 190.776 191.552 190.739 191.552 190.701C191.552 190.663 191.537 190.626 191.51 190.598L190.022 189.11H191.695C191.734 189.11 191.77 189.095 191.798 189.067C191.825 189.04 191.84 189.004 191.84 188.965C191.838 188.928 191.821 188.894 191.795 188.869C191.768 188.843 191.732 188.829 191.695 188.829Z" fill="#2D9CDB"/>
<path d="M197.766 188.829H196.092L197.581 187.344C197.607 187.316 197.622 187.279 197.622 187.241C197.622 187.203 197.607 187.166 197.581 187.138C197.567 187.125 197.551 187.114 197.534 187.107C197.516 187.099 197.497 187.096 197.478 187.096C197.459 187.096 197.44 187.099 197.422 187.107C197.405 187.114 197.389 187.125 197.375 187.138L195.887 188.627V186.951C195.887 186.912 195.871 186.875 195.844 186.848C195.817 186.821 195.781 186.806 195.742 186.806C195.704 186.807 195.668 186.822 195.641 186.849C195.614 186.876 195.598 186.912 195.598 186.951V188.627L194.112 187.13C194.098 187.116 194.082 187.105 194.065 187.098C194.047 187.091 194.028 187.087 194.009 187.087C193.99 187.087 193.971 187.091 193.954 187.098C193.936 187.105 193.92 187.116 193.907 187.13C193.88 187.157 193.865 187.194 193.865 187.232C193.865 187.271 193.88 187.307 193.907 187.335L195.395 188.821H193.719C193.681 188.821 193.644 188.837 193.617 188.864C193.59 188.891 193.575 188.927 193.574 188.965C193.574 189.004 193.589 189.04 193.617 189.067C193.644 189.095 193.68 189.11 193.719 189.11H195.395L193.907 190.598C193.88 190.626 193.865 190.663 193.865 190.701C193.865 190.739 193.88 190.776 193.907 190.804C193.934 190.83 193.971 190.844 194.009 190.844C194.047 190.844 194.084 190.83 194.112 190.804L195.598 189.315V190.989C195.598 191.027 195.613 191.064 195.64 191.091C195.667 191.118 195.704 191.133 195.742 191.133C195.781 191.133 195.817 191.118 195.844 191.091C195.871 191.064 195.887 191.027 195.887 190.989V189.315L197.375 190.804C197.403 190.83 197.44 190.844 197.478 190.844C197.516 190.844 197.553 190.83 197.581 190.804C197.607 190.776 197.622 190.739 197.622 190.701C197.622 190.663 197.607 190.626 197.581 190.598L196.092 189.11H197.766C197.804 189.11 197.841 189.095 197.868 189.067C197.895 189.04 197.91 189.004 197.91 188.965C197.908 188.928 197.892 188.894 197.865 188.869C197.838 188.843 197.803 188.829 197.766 188.829Z" fill="#2D9CDB"/>
<path d="M203.836 188.829H202.162L203.651 187.344C203.678 187.316 203.693 187.279 203.693 187.241C203.693 187.203 203.678 187.166 203.651 187.138C203.638 187.125 203.622 187.114 203.604 187.107C203.586 187.099 203.567 187.096 203.548 187.096C203.529 187.096 203.51 187.099 203.493 187.107C203.475 187.114 203.459 187.125 203.446 187.138L201.957 188.627V186.951C201.957 186.912 201.942 186.875 201.915 186.848C201.888 186.821 201.851 186.806 201.813 186.806C201.774 186.807 201.738 186.822 201.711 186.849C201.684 186.876 201.669 186.912 201.668 186.951V188.627L200.182 187.13C200.169 187.116 200.153 187.105 200.135 187.098C200.118 187.091 200.099 187.087 200.08 187.087C200.06 187.087 200.042 187.091 200.024 187.098C200.006 187.105 199.99 187.116 199.977 187.13C199.95 187.157 199.935 187.194 199.935 187.232C199.935 187.271 199.95 187.307 199.977 187.335L201.466 188.821H199.789C199.751 188.821 199.715 188.837 199.688 188.864C199.661 188.891 199.645 188.927 199.645 188.965C199.645 189.004 199.66 189.04 199.687 189.067C199.714 189.095 199.751 189.11 199.789 189.11H201.466L199.977 190.598C199.95 190.626 199.935 190.663 199.935 190.701C199.935 190.739 199.95 190.776 199.977 190.804C200.005 190.83 200.041 190.844 200.08 190.844C200.118 190.844 200.154 190.83 200.182 190.804L201.668 189.315V190.989C201.668 191.027 201.683 191.064 201.71 191.091C201.737 191.118 201.774 191.133 201.813 191.133C201.851 191.133 201.888 191.118 201.915 191.091C201.942 191.064 201.957 191.027 201.957 190.989V189.315L203.446 190.804C203.474 190.83 203.51 190.844 203.548 190.844C203.586 190.844 203.623 190.83 203.651 190.804C203.678 190.776 203.693 190.739 203.693 190.701C203.693 190.663 203.678 190.626 203.651 190.598L202.162 189.11H203.836C203.874 189.11 203.911 189.095 203.938 189.067C203.965 189.04 203.981 189.004 203.981 188.965C203.978 188.928 203.962 188.894 203.935 188.869C203.908 188.843 203.873 188.829 203.836 188.829Z" fill="#2D9CDB"/>
<path d="M209.906 188.829H208.233L209.721 187.344C209.748 187.316 209.763 187.279 209.763 187.241C209.763 187.203 209.748 187.166 209.721 187.138C209.708 187.125 209.692 187.114 209.674 187.107C209.657 187.099 209.638 187.096 209.619 187.096C209.6 187.096 209.581 187.099 209.563 187.107C209.545 187.114 209.529 187.125 209.516 187.138L208.027 188.627V186.951C208.027 186.912 208.012 186.875 207.985 186.848C207.958 186.821 207.921 186.806 207.883 186.806C207.845 186.807 207.808 186.822 207.781 186.849C207.754 186.876 207.739 186.912 207.738 186.951V188.627L206.253 187.13C206.239 187.116 206.223 187.105 206.205 187.098C206.188 187.091 206.169 187.087 206.15 187.087C206.131 187.087 206.112 187.091 206.094 187.098C206.077 187.105 206.061 187.116 206.047 187.13C206.021 187.157 206.006 187.194 206.006 187.232C206.006 187.271 206.021 187.307 206.047 187.335L207.536 188.821H205.859C205.821 188.821 205.785 188.837 205.758 188.864C205.731 188.891 205.716 188.927 205.715 188.965C205.715 189.004 205.73 189.04 205.757 189.067C205.784 189.095 205.821 189.11 205.859 189.11H207.536L206.047 190.598C206.021 190.626 206.006 190.663 206.006 190.701C206.006 190.739 206.021 190.776 206.047 190.804C206.075 190.83 206.112 190.844 206.15 190.844C206.188 190.844 206.225 190.83 206.253 190.804L207.738 189.315V190.989C207.738 191.027 207.754 191.064 207.781 191.091C207.808 191.118 207.845 191.133 207.883 191.133C207.921 191.133 207.958 191.118 207.985 191.091C208.012 191.064 208.027 191.027 208.027 190.989V189.315L209.516 190.804C209.544 190.83 209.581 190.844 209.619 190.844C209.657 190.844 209.693 190.83 209.721 190.804C209.748 190.776 209.763 190.739 209.763 190.701C209.763 190.663 209.748 190.626 209.721 190.598L208.233 189.11H209.906C209.945 189.11 209.981 189.095 210.008 189.067C210.036 189.04 210.051 189.004 210.051 188.965C210.049 188.928 210.032 188.894 210.006 188.869C209.979 188.843 209.943 188.829 209.906 188.829Z" fill="#2D9CDB"/>
<path d="M215.977 188.829H214.303L215.792 187.344C215.818 187.316 215.833 187.279 215.833 187.241C215.833 187.203 215.818 187.166 215.792 187.138C215.778 187.125 215.762 187.114 215.745 187.107C215.727 187.099 215.708 187.096 215.689 187.096C215.67 187.096 215.651 187.099 215.633 187.107C215.616 187.114 215.6 187.125 215.586 187.138L214.098 188.627V186.951C214.098 186.912 214.082 186.875 214.055 186.848C214.028 186.821 213.991 186.806 213.953 186.806C213.915 186.807 213.879 186.822 213.852 186.849C213.825 186.876 213.809 186.912 213.809 186.951V188.627L212.323 187.13C212.309 187.116 212.293 187.105 212.276 187.098C212.258 187.091 212.239 187.087 212.22 187.087C212.201 187.087 212.182 187.091 212.165 187.098C212.147 187.105 212.131 187.116 212.118 187.13C212.091 187.157 212.076 187.194 212.076 187.232C212.076 187.271 212.091 187.307 212.118 187.335L213.606 188.821H211.93C211.892 188.821 211.855 188.837 211.828 188.864C211.801 188.891 211.786 188.927 211.785 188.965C211.785 189.004 211.8 189.04 211.827 189.067C211.855 189.095 211.891 189.11 211.93 189.11H213.606L212.118 190.598C212.091 190.626 212.076 190.663 212.076 190.701C212.076 190.739 212.091 190.776 212.118 190.804C212.145 190.83 212.182 190.844 212.22 190.844C212.258 190.844 212.295 190.83 212.323 190.804L213.809 189.315V190.989C213.809 191.027 213.824 191.064 213.851 191.091C213.878 191.118 213.915 191.133 213.953 191.133C213.991 191.133 214.028 191.118 214.055 191.091C214.082 191.064 214.098 191.027 214.098 190.989V189.315L215.586 190.804C215.614 190.83 215.651 190.844 215.689 190.844C215.727 190.844 215.764 190.83 215.792 190.804C215.818 190.776 215.833 190.739 215.833 190.701C215.833 190.663 215.818 190.626 215.792 190.598L214.303 189.11H215.977C216.015 189.11 216.052 189.095 216.079 189.067C216.106 189.04 216.121 189.004 216.121 188.965C216.119 188.928 216.103 188.894 216.076 188.869C216.049 188.843 216.013 188.829 215.977 188.829Z" fill="#2D9CDB"/>
<path d="M222.047 188.829H220.373L221.862 187.344C221.888 187.316 221.903 187.279 221.903 187.241C221.903 187.203 221.888 187.166 221.862 187.138C221.848 187.125 221.832 187.114 221.815 187.107C221.797 187.099 221.778 187.096 221.759 187.096C221.74 187.096 221.721 187.099 221.704 187.107C221.686 187.114 221.67 187.125 221.657 187.138L220.168 188.627V186.951C220.168 186.912 220.153 186.875 220.126 186.848C220.098 186.821 220.062 186.806 220.023 186.806C219.985 186.807 219.949 186.822 219.922 186.849C219.895 186.876 219.88 186.912 219.879 186.951V188.627L218.393 187.13C218.38 187.116 218.364 187.105 218.346 187.098C218.328 187.091 218.31 187.087 218.29 187.087C218.271 187.087 218.253 187.091 218.235 187.098C218.217 187.105 218.201 187.116 218.188 187.13C218.161 187.157 218.146 187.194 218.146 187.232C218.146 187.271 218.161 187.307 218.188 187.335L219.677 188.821H218C217.962 188.821 217.926 188.837 217.899 188.864C217.872 188.891 217.856 188.927 217.855 188.965C217.855 189.004 217.871 189.04 217.898 189.067C217.925 189.095 217.962 189.11 218 189.11H219.677L218.188 190.598C218.161 190.626 218.146 190.663 218.146 190.701C218.146 190.739 218.161 190.776 218.188 190.804C218.216 190.83 218.252 190.844 218.29 190.844C218.329 190.844 218.365 190.83 218.393 190.804L219.879 189.315V190.989C219.879 191.027 219.894 191.064 219.921 191.091C219.948 191.118 219.985 191.133 220.023 191.133C220.062 191.133 220.098 191.118 220.126 191.091C220.153 191.064 220.168 191.027 220.168 190.989V189.315L221.657 190.804C221.684 190.83 221.721 190.844 221.759 190.844C221.797 190.844 221.834 190.83 221.862 190.804C221.888 190.776 221.903 190.739 221.903 190.701C221.903 190.663 221.888 190.626 221.862 190.598L220.373 189.11H222.047C222.085 189.11 222.122 189.095 222.149 189.067C222.176 189.04 222.191 189.004 222.191 188.965C222.189 188.928 222.173 188.894 222.146 188.869C222.119 188.843 222.084 188.829 222.047 188.829Z" fill="#2D9CDB"/>
<path d="M268.582 223.993C268.574 223.644 268.531 223.296 268.452 222.955C268.192 221.978 267.605 220.796 266.64 220.501C265.643 220.196 264.68 219.789 263.767 219.287C263.593 216.189 264.304 213.018 263.53 210.015C263.24 208.916 262.764 207.864 262.636 206.74C262.477 205.341 262.859 203.85 262.301 202.56C261.862 201.543 260.896 200.826 259.858 200.45C258.821 200.075 257.702 199.973 256.601 199.872C255.213 199.76 250.721 199.228 249.154 200.468C249.046 200.552 248.949 200.649 248.865 200.757C248.831 200.804 248.8 200.855 248.773 200.907L248.758 200.93C248.727 200.99 248.701 201.053 248.68 201.118C248.658 201.189 248.642 201.261 248.631 201.335C248.631 201.358 248.631 201.381 248.631 201.404C248.631 201.427 248.631 201.505 248.631 201.557V201.635C248.631 201.687 248.631 201.74 248.631 201.794C248.631 201.849 248.631 201.835 248.631 201.855C248.651 202.115 248.689 202.375 248.689 202.633C248.692 202.761 248.68 202.889 248.654 203.014C248.558 203.355 248.395 203.673 248.174 203.951L248.122 204.026C248.091 204.072 248.059 204.115 248.03 204.162C248.001 204.208 247.978 204.243 247.955 204.283C247.932 204.324 247.909 204.35 247.888 204.387C247.86 204.435 247.835 204.484 247.813 204.535C247.813 204.563 247.781 204.589 247.77 204.618C247.734 204.697 247.705 204.778 247.683 204.861C247.615 205.112 247.609 205.376 247.666 205.63C247.744 205.954 247.878 206.262 248.062 206.541C248.134 206.659 248.212 206.775 248.293 206.89L248.495 207.165C248.458 207.433 248.437 207.703 248.435 207.974C248.435 208.879 248.64 209.773 249.036 210.587C249.432 211.401 250.007 212.115 250.718 212.674C250.833 213.895 250.82 215.124 250.681 216.342C250.655 216.596 250.623 216.854 250.588 217.108C250.553 217.362 250.527 217.53 250.493 217.741C250.07 217.802 249.639 217.769 249.23 217.646C249.041 217.561 248.848 217.487 248.651 217.423C247.81 217.212 246.952 218.05 246.119 217.796C246.119 217.836 246.096 217.874 246.082 217.912C245.908 217.804 245.708 217.745 245.504 217.741C245.009 217.718 244.607 217.359 244.249 217.021L243.148 215.984C243.076 215.92 243.012 215.848 242.957 215.77C242.898 215.657 242.853 215.538 242.824 215.414C242.639 214.816 242.191 214.339 241.757 213.885C241.675 213.782 241.566 213.703 241.442 213.657C241.394 213.65 241.346 213.65 241.298 213.657C241.268 213.616 241.236 213.578 241.202 213.541C241.127 213.455 241.047 213.374 240.962 213.298C240.436 212.813 240.384 212.397 239.927 211.853C239.529 211.335 239.168 210.789 238.846 210.22C238.809 209.917 238.757 209.604 238.693 209.289C238.547 208.568 238.336 207.862 238.06 207.179L237.482 205.899L237.416 205.965C236.996 205.341 236.548 205 236.147 205.081C235.473 205.22 235.141 206.526 235.248 208.234L235.479 209.969C235.479 210.012 235.499 210.055 235.511 210.099C235.469 210.304 235.448 210.513 235.447 210.723C235.447 210.966 235.672 211.145 235.791 211.362C235.981 211.655 236.081 211.998 236.08 212.347C236.066 212.472 236.028 212.59 236.022 212.712C236.038 212.983 236.132 213.244 236.294 213.463L237.739 215.891L238.028 216.4L238.046 216.423C238.137 216.6 238.27 216.753 238.433 216.868C238.49 217.476 238.651 218.07 238.91 218.623C238.959 218.732 239.014 218.836 239.072 218.941C239.46 219.579 239.918 220.173 240.436 220.712L241.124 221.484C241.804 222.241 242.483 223.002 243.22 223.701C243.484 223.982 243.803 224.205 244.156 224.357C244.33 224.426 244.518 224.449 244.703 224.422C244.888 224.395 245.062 224.32 245.209 224.204C245.209 224.562 245.209 224.921 245.209 225.279C245.316 225.286 245.42 225.321 245.509 225.381C245.598 225.441 245.67 225.524 245.716 225.621C245.763 225.718 245.783 225.825 245.774 225.932C245.765 226.039 245.727 226.142 245.665 226.23C245.058 227.788 244.446 229.361 243.526 230.757C244.175 231.141 244.777 231.6 245.319 232.124C245.67 232.513 245.983 232.937 246.252 233.387C246.278 233.601 246.298 233.812 246.31 234.023C246.524 237.468 245.191 240.888 243.998 244.171C243.654 245.102 243.278 246.076 243.307 247.044C243.08 247.184 242.864 247.339 242.659 247.51C242.896 248.128 242.804 248.68 242.778 249.342C242.769 249.739 242.688 250.131 242.538 250.498C242.412 250.753 242.273 251.001 242.121 251.241C241.373 252.562 241.208 254.132 241.058 255.64C240.968 256.551 241.321 257.664 240.907 258.479C240.193 259.878 239.56 261.369 239.462 262.924C239.459 263.274 239.414 263.623 239.329 263.962C239.24 264.251 239.081 264.497 239 264.78C238.916 265.16 238.897 265.55 238.942 265.936C238.997 267.322 238.791 268.705 238.335 270.015C237.973 271.046 237.574 272.151 237.858 273.211C237.16 273.944 236.73 274.89 236.635 275.897C236.628 276.154 236.597 276.411 236.543 276.663C236.454 276.92 236.338 277.167 236.196 277.4C235.614 278.459 235.341 279.661 235.409 280.868C234.542 282.045 234.109 283.496 233.851 284.938C233.594 286.38 233.481 287.849 233.152 289.274C232.712 291.158 231.918 293.063 231.761 294.994C230.825 295.592 230.42 296.751 230.241 297.847C230.062 298.942 230.033 300.092 229.573 301.104C229.336 301.63 228.995 302.101 228.77 302.639C228.611 303.067 228.495 303.509 228.423 303.96C228.284 304.665 228.163 305.451 228.333 306.128C228.088 306.387 227.802 306.605 227.486 306.772C227.532 306.593 227.57 306.414 227.602 306.232C226.856 306.908 225.503 306.671 224.908 307.483C224.729 307.745 224.659 308.066 224.713 308.379C224.767 308.691 224.941 308.97 225.197 309.157C225.383 309.27 225.585 309.357 225.795 309.414C227.24 309.877 228.726 310.342 230.212 310.096C230.388 310.077 230.558 310.023 230.712 309.937C230.905 309.795 231.064 309.611 231.178 309.4C231.4 309.047 231.623 308.694 231.842 308.342C232.375 308.501 232.916 308.627 233.464 308.72C233.519 309.183 233.559 309.645 233.58 310.108C233.869 310.166 234.256 310.183 234.392 309.914C234.433 309.813 234.45 309.703 234.441 309.593C234.441 309.388 234.47 309.116 234.487 308.839H234.545C235.427 308.875 236.305 308.697 237.103 308.322C236.794 305.761 237.814 303.258 238.699 300.835C239.633 298.286 240.433 295.69 241.24 293.095C241.818 291.268 242.457 289.499 243.023 287.669C243.736 285.357 244.452 283.045 245.171 280.732C245.483 279.715 245.798 278.709 246.157 277.697C246.911 275.65 247.807 273.658 248.836 271.734C249.126 271.188 249.415 270.648 249.652 270.081C249.941 269.39 250.146 268.668 250.377 267.954C250.881 266.489 251.488 265.061 252.192 263.682C252.213 263.644 252.227 263.609 252.247 263.575C252.482 264.531 252.716 265.503 252.872 266.465C253.083 267.645 253.1 268.852 252.921 270.038C252.782 270.844 252.519 271.642 252.551 272.46C252.594 273.59 253.198 274.616 253.496 275.706C253.688 276.521 253.797 277.354 253.82 278.192C253.901 279.492 254.606 280.952 254.109 282.157C252.562 285.976 253.311 290.288 252.43 294.297C251.976 296.355 250.585 298.289 250.695 300.393C250.772 301.886 250.903 303.376 251.088 304.862C251.133 305.33 251.255 305.789 251.45 306.217C251.565 306.443 251.697 306.659 251.846 306.865C251.718 306.914 251.611 307.044 251.519 307.319C251.282 308.041 251.519 308.937 252.161 309.342C252.422 309.482 252.704 309.579 252.996 309.631C253.389 309.743 253.796 309.799 254.204 309.799C254.331 309.792 254.458 309.776 254.583 309.752C255.03 309.94 255.486 310.104 255.95 310.244C255.95 310.362 255.973 310.481 255.988 310.599C255.989 310.661 256.002 310.722 256.028 310.779C256.054 310.835 256.092 310.885 256.138 310.926C256.21 310.96 256.29 310.973 256.369 310.966H257.939C257.939 310.836 257.939 310.703 257.939 310.573C258.119 310.592 258.3 310.573 258.472 310.517C258.644 310.461 258.802 310.37 258.936 310.249C259.075 310.073 259.174 309.867 259.225 309.648C259.653 308.197 260.078 306.745 260.5 305.292C261.006 303.686 261.217 302.002 261.122 300.321C260.564 294.994 261.789 289.649 261.39 284.308C261.15 281.097 261.316 277.869 261.882 274.7C262.012 273.983 262.171 273.255 262.229 272.541C262.356 271.194 262.2 269.832 262.295 268.494C262.327 268.026 262.391 267.561 262.448 267.095C262.845 264.207 263.052 261.296 263.07 258.381C263.061 257.415 263.001 256.45 262.891 255.49C263.192 255.413 263.466 255.253 263.68 255.028C263.937 254.692 263.871 254.221 263.868 253.793C263.868 252.77 264.298 251.805 264.645 250.839C265.091 249.508 265.455 248.151 265.738 246.775C266.037 245.667 266.2 244.527 266.224 243.379C266.224 243.264 266.218 243.148 266.206 243.032C266.315 242.957 266.406 242.858 266.472 242.743C266.548 242.574 266.595 242.393 266.611 242.209C266.715 241.471 266.822 240.732 266.926 239.992C267.003 239.462 267.079 238.933 267.154 238.405L268.074 231.991C268.152 231.433 268.233 230.878 268.311 230.323L268.551 228.664C268.577 228.467 268.606 228.271 268.626 228.086C269.331 226.907 268.658 225.334 268.582 223.993ZM260.914 248.007C260.572 247.197 260.254 246.368 260.335 245.495H260.304C260.38 245.226 260.366 244.94 260.266 244.68C260.176 244.469 260.02 244.29 259.925 244.079C259.822 243.821 259.769 243.547 259.769 243.269C259.697 241.511 259.836 239.751 260.182 238.026C260.22 237.824 260.26 237.619 260.298 237.416C260.419 237.346 260.53 237.26 260.627 237.159C260.779 236.986 260.905 236.791 261 236.581C261.327 235.925 261.625 235.257 261.899 234.578C261.989 234.358 262.119 234.104 262.342 234.049C262.295 235.74 262.469 237.465 261.781 238.991C261.65 239.238 261.553 239.5 261.492 239.772C261.428 240.203 261.607 240.639 261.544 241.067C261.512 241.289 261.417 241.495 261.379 241.714C261.35 241.822 261.351 241.936 261.38 242.043C261.41 242.151 261.467 242.249 261.547 242.327C261.585 242.354 261.627 242.375 261.671 242.391C261.654 242.506 261.639 242.625 261.628 242.738C261.604 242.975 261.593 243.197 261.578 243.336C261.512 244.043 261.486 244.753 261.5 245.463C261.5 246.229 261.529 246.995 261.518 247.776C261.528 248 261.491 248.223 261.408 248.432C261.351 248.539 261.276 248.637 261.188 248.721C261.104 248.461 261.012 248.232 260.914 248.007Z" fill="url(#paint0_linear)"/>
<path d="M238.095 214.468C238.977 214.287 239.277 212.116 238.765 209.618C238.254 207.121 237.124 205.243 236.242 205.424C235.36 205.604 235.059 207.775 235.571 210.273C236.083 212.77 237.213 214.648 238.095 214.468Z" fill="#FBBEBE"/>
<path d="M251.567 307.372C251.33 308.089 251.567 308.985 252.208 309.375C252.468 309.514 252.748 309.611 253.038 309.664C253.43 309.775 253.836 309.831 254.243 309.829C254.743 309.806 255.223 309.609 255.723 309.54C255.781 309.525 255.842 309.534 255.894 309.563C255.919 309.59 255.938 309.622 255.949 309.657C255.96 309.692 255.963 309.729 255.957 309.765C255.963 310.05 255.984 310.333 256.021 310.615C256.021 310.677 256.035 310.738 256.061 310.795C256.087 310.851 256.125 310.901 256.171 310.942C256.244 310.976 256.323 310.989 256.403 310.982H257.969C258.005 309.606 257.854 308.231 257.521 306.895C257.5 306.793 257.46 306.695 257.406 306.606C257.273 306.461 257.098 306.36 256.906 306.317C256.523 306.158 256.109 306.086 255.694 306.106C255.189 306.173 254.767 306.499 254.336 306.771C253.905 307.043 253.318 307.283 252.795 307.144C252.272 307.005 251.835 306.569 251.567 307.372Z" fill="#3F3D56"/>
<path d="M228.562 306.103C228.121 306.574 227.581 306.942 226.98 307.178L226.715 307.305C226.678 307.319 226.646 307.344 226.625 307.377C226.62 307.4 226.62 307.423 226.625 307.446C226.63 307.468 226.64 307.489 226.654 307.507C226.875 307.85 227.202 308.11 227.585 308.25C227.968 308.389 228.386 308.399 228.776 308.279C228.948 308.236 229.107 308.153 229.241 308.036C229.461 307.775 229.588 307.447 229.599 307.106C229.687 306.753 229.672 306.383 229.556 306.039C229.154 305.134 229.007 305.545 228.562 306.103Z" fill="#FBBEBE"/>
<path d="M234.569 309.665C234.578 309.775 234.561 309.884 234.52 309.986C234.384 310.252 234.005 310.238 233.71 310.18C233.666 309.199 233.547 308.223 233.355 307.26C232.794 307.234 232.389 307.766 232.089 308.243L231.314 309.472C231.202 309.683 231.044 309.867 230.851 310.009C230.697 310.094 230.527 310.148 230.351 310.168C228.871 310.414 227.377 309.948 225.949 309.486C225.739 309.43 225.537 309.344 225.351 309.232C225.096 309.045 224.923 308.766 224.869 308.455C224.816 308.143 224.884 307.823 225.062 307.561C225.66 306.752 227.004 306.983 227.75 306.312C227.672 306.784 227.544 307.246 227.368 307.691C228.366 307.541 229.036 306.627 229.84 306.017C230.042 305.846 230.285 305.731 230.545 305.682C230.74 305.666 230.936 305.686 231.123 305.743C232.05 305.976 232.917 306.403 233.667 306.994C233.97 307.234 234.445 307.573 234.578 307.943C234.719 308.385 234.569 309.194 234.569 309.665Z" fill="#3F3D56"/>
<path d="M254.453 214.297C257.751 214.297 260.425 211.623 260.425 208.325C260.425 205.027 257.751 202.353 254.453 202.353C251.154 202.353 248.48 205.027 248.48 208.325C248.48 211.623 251.154 214.297 254.453 214.297Z" fill="#FBBEBE"/>
<path d="M266.216 243.584C266.192 244.726 266.03 245.86 265.733 246.963C265.451 248.333 265.086 249.684 264.641 251.01C264.297 251.972 263.866 252.938 263.869 253.958C263.869 254.383 263.938 254.854 263.678 255.189C263.446 255.425 263.154 255.592 262.834 255.672C262.674 255.714 262.526 255.794 262.403 255.904C262.279 256.014 262.183 256.151 262.123 256.305C261.851 255.9 261.648 255.452 261.522 254.981C261.003 253.393 260.521 251.797 260.076 250.192C260.035 250.099 260.018 249.998 260.025 249.898C260.032 249.797 260.063 249.699 260.117 249.614C260.19 249.55 260.276 249.502 260.368 249.472C260.664 249.351 260.936 249.177 261.169 248.957C261.278 248.86 261.368 248.744 261.435 248.614C261.519 248.406 261.557 248.184 261.548 247.96C261.548 247.194 261.548 246.431 261.527 245.665C261.515 244.958 261.542 244.251 261.608 243.547C261.608 243.408 261.634 243.185 261.657 242.948C261.701 242.494 261.788 241.968 262.033 241.792C262.4 241.546 263.499 241.876 263.915 241.934C264.632 242.032 265.36 242.148 266.06 242.283C266.162 242.71 266.214 243.146 266.216 243.584Z" fill="#3F3D56"/>
<path d="M242.103 215.012C241.871 215.474 241.316 215.697 240.888 215.989L239.423 216.994C239.325 217.083 239.21 217.15 239.086 217.193C238.961 217.236 238.829 217.253 238.697 217.243C238.578 217.199 238.469 217.132 238.376 217.045C238.283 216.958 238.209 216.853 238.157 216.737C238.158 216.73 238.158 216.722 238.157 216.714L237.853 216.205L236.408 213.783C236.247 213.566 236.154 213.307 236.139 213.038C236.139 212.913 236.182 212.798 236.194 212.673C236.198 212.324 236.097 211.982 235.905 211.691C235.789 211.474 235.558 211.295 235.564 211.052C235.553 210.733 235.608 210.415 235.726 210.118C235.877 209.844 236.095 209.611 236.359 209.442C236.495 209.344 236.633 209.251 236.778 209.153C236.855 209.1 236.94 209.061 237.029 209.037C237.269 208.988 237.506 209.187 237.749 209.196C238.793 209.896 239.195 211.219 240.016 212.173C240.478 212.717 240.524 213.133 241.047 213.618C241.131 213.694 241.212 213.775 241.29 213.858C241.394 213.971 241.481 214.098 241.55 214.234C241.646 214.483 242.221 214.775 242.103 215.012Z" fill="#3F3D56"/>
<path d="M252.352 214.3C252.783 215.21 253.118 216.21 252.994 217.21C252.969 217.481 252.883 217.743 252.742 217.976C252.326 218.615 251.453 218.731 250.693 218.768C250.533 218.755 250.372 218.773 250.219 218.823C250.066 218.873 249.924 218.952 249.803 219.057C249.701 219.205 249.651 219.382 249.661 219.561C249.671 219.74 249.74 219.91 249.858 220.046C250.102 220.307 250.405 220.505 250.742 220.624C251.945 221.153 253.243 221.589 254.549 221.468C255.156 221.41 255.746 221.234 256.35 221.144C257.009 221.073 257.671 221.036 258.333 221.034C259.119 221.006 259.903 220.927 260.686 220.849L262.761 220.644C262.875 220.646 262.985 220.606 263.071 220.531C263.224 220.352 263.027 220.089 262.837 219.953C261.735 219.138 260.333 218.578 259.706 217.352C259.417 216.774 259.327 216.086 259.113 215.462C258.9 214.837 258.558 214.274 258.425 213.638C258.355 213.08 258.323 212.518 258.33 211.956C258.337 211.389 258.131 210.84 257.752 210.418C257.339 210.033 256.74 209.935 256.179 209.912C254.798 209.851 253.326 210.181 252.346 211.155C252.083 211.418 251.858 211.733 251.586 211.97C251.315 212.207 250.945 212.276 251.124 212.589C251.303 212.901 251.656 213.094 251.846 213.369C252.04 213.665 252.209 213.977 252.352 214.3Z" fill="#FBBEBE"/>
<path d="M264.127 222.708C263.762 224.934 263.169 227.116 262.357 229.22C261.949 230.171 261.602 231.146 261.317 232.14C261.094 233.036 261.138 233.995 260.932 234.894C260.678 236.013 260.424 237.135 260.218 238.262C259.874 239.983 259.736 241.739 259.808 243.493C259.809 243.77 259.862 244.043 259.964 244.3C260.059 244.508 260.213 244.687 260.302 244.901C260.369 245.089 260.397 245.289 260.383 245.488C260.369 245.687 260.314 245.881 260.221 246.057C260.073 246.388 259.872 246.693 259.626 246.959C256.932 247.763 254.05 247.5 251.243 247.67C248.656 247.826 246.04 248.358 243.49 247.916C243.201 246.76 243.684 245.549 244.097 244.421C245.297 241.146 246.624 237.736 246.41 234.305C246.387 233.905 246.342 233.506 246.274 233.111C245.855 230.68 246.311 228.163 247.043 225.807C247.497 224.339 247.476 222.775 247.372 221.246C247.321 220.749 247.314 220.249 247.352 219.751C247.394 219.243 247.583 218.758 247.896 218.355C247.896 218.335 247.922 218.315 247.936 218.295C247.95 218.274 248.063 218.277 248.153 218.295C248.176 218.304 248.2 218.309 248.225 218.309C248.25 218.309 248.274 218.304 248.297 218.295L248.329 218.274C248.341 218.266 248.356 218.261 248.371 218.261C248.386 218.261 248.401 218.266 248.413 218.274C248.479 218.315 248.517 218.454 248.662 218.48C248.875 218.512 249.09 218.532 249.306 218.54C249.566 218.548 249.824 218.585 250.075 218.65H250.11C250.486 218.714 250.872 218.681 251.231 218.555C251.471 218.495 251.702 218.406 251.919 218.289C251.983 218.22 252.382 218.156 252.463 218.107C252.726 217.948 252.668 217.202 252.723 216.896C252.753 216.588 252.826 216.287 252.94 216C253.071 215.788 253.253 215.611 253.469 215.486C253.684 215.36 253.928 215.29 254.177 215.28C254.675 215.268 255.172 215.313 255.66 215.413C256.738 215.566 257.842 215.54 258.9 215.789C259.432 215.913 260.013 216.101 260.502 215.858C260.635 215.89 260.655 216.005 260.655 216.147C260.642 216.282 260.615 216.414 260.574 216.543C260.389 217.341 261.016 218.075 261.594 218.653C261.839 218.926 262.127 219.155 262.447 219.332C262.736 219.465 263.025 219.52 263.314 219.665C263.548 219.79 263.747 219.972 263.892 220.194C264.059 220.448 264.171 220.735 264.222 221.035C264.284 221.594 264.252 222.16 264.127 222.708Z" fill="#3F3D56"/>
<path opacity="0.1" d="M264.129 222.709C263.764 224.934 263.171 227.116 262.36 229.221C261.952 230.171 261.604 231.146 261.319 232.14C261.097 233.036 261.14 233.996 260.935 234.895C260.68 236.013 260.426 237.135 260.221 238.262C260.16 238.297 260.096 238.328 260.033 238.357C259.673 238.529 259.292 238.652 258.9 238.722C258.195 238.807 257.481 238.783 256.784 238.652L252.659 238.1C251.011 237.878 249.256 237.609 248.034 236.493C247.354 235.88 246.909 235.071 246.421 234.291C246.398 233.89 246.353 233.492 246.285 233.097C245.866 230.666 246.322 228.148 247.054 225.793C247.508 224.324 247.487 222.761 247.383 221.232C247.332 220.735 247.325 220.235 247.363 219.737C247.405 219.229 247.594 218.744 247.907 218.341C247.991 218.316 248.077 218.297 248.164 218.283C248.222 218.272 248.281 218.264 248.34 218.26H248.424C248.521 218.261 248.618 218.272 248.713 218.295C248.91 218.358 249.103 218.432 249.291 218.517H249.326C249.574 218.599 249.834 218.636 250.095 218.627C250.476 218.627 250.869 218.567 251.251 218.541C251.722 218.467 252.205 218.553 252.621 218.786C252.89 219.002 253.145 219.235 253.384 219.483C253.674 219.71 253.999 219.887 254.347 220.006C256.835 220.956 259.596 220.898 262.042 219.844C262.277 219.711 262.543 219.643 262.814 219.648C263.013 219.687 263.202 219.767 263.369 219.885C263.542 219.986 263.713 220.084 263.889 220.174C264.056 220.428 264.168 220.715 264.218 221.015C264.285 221.58 264.254 222.153 264.129 222.709Z" fill="black"/>
<path d="M266.647 220.794C265.496 220.443 264.39 219.958 263.352 219.349C263.185 219.233 262.996 219.152 262.797 219.112C262.526 219.109 262.259 219.177 262.022 219.309C259.577 220.362 256.817 220.42 254.33 219.47C253.983 219.35 253.657 219.173 253.367 218.947C253.127 218.7 252.872 218.467 252.604 218.251C251.653 217.635 250.338 218.358 249.274 217.962C249.086 217.877 248.893 217.803 248.696 217.739C247.855 217.528 246.999 218.366 246.173 218.112C245.865 218.948 245.638 219.811 245.493 220.69C245.376 221.7 245.313 222.715 245.305 223.731C245.305 224.341 245.277 224.951 245.305 225.561C245.407 225.577 245.505 225.615 245.591 225.671C245.678 225.727 245.752 225.801 245.808 225.887C245.846 225.988 245.862 226.096 245.854 226.203C245.846 226.31 245.815 226.415 245.762 226.509C245.158 228.061 244.545 229.63 243.629 231.021C244.275 231.405 244.874 231.863 245.415 232.385C246.427 233.454 246.924 234.955 248.017 235.943C249.248 237.056 251.003 237.328 252.642 237.547L256.767 238.099C257.465 238.23 258.18 238.254 258.886 238.172C259.277 238.1 259.657 237.977 260.016 237.804C260.25 237.707 260.464 237.565 260.646 237.388C260.799 237.215 260.924 237.02 261.019 236.81C261.346 236.157 261.643 235.489 261.918 234.813C262.013 234.573 262.158 234.293 262.418 234.272C263.95 232.891 265.395 231.474 266.928 230.093C267.543 229.583 268.095 229 268.572 228.359C269.333 227.234 268.642 225.642 268.572 224.283C268.564 223.936 268.52 223.59 268.442 223.251C268.194 222.266 267.61 221.086 266.647 220.794Z" fill="#2D9CDB"/>
<path opacity="0.1" d="M242.104 215.011C241.873 215.473 241.318 215.696 240.89 215.988L239.425 216.994C239.327 217.082 239.212 217.149 239.087 217.192C238.962 217.235 238.83 217.252 238.699 217.242C238.58 217.198 238.47 217.131 238.378 217.044C238.285 216.957 238.21 216.853 238.158 216.736C238.158 216.67 238.158 216.598 238.158 216.528C238.147 216.294 238.179 216.06 238.251 215.838C238.394 215.511 238.617 215.225 238.898 215.005C239.443 214.49 240.09 214.096 240.798 213.849C240.908 213.806 241.028 213.794 241.144 213.814C241.189 213.826 241.232 213.844 241.272 213.869C241.375 213.982 241.463 214.108 241.532 214.245C241.647 214.482 242.223 214.774 242.104 215.011Z" fill="black"/>
<path d="M245.557 218.057C245.065 218.034 244.663 217.679 244.305 217.341L243.209 216.323C243.136 216.261 243.072 216.189 243.019 216.109C242.959 215.997 242.915 215.877 242.886 215.754C242.653 215.17 242.289 214.648 241.822 214.228C241.74 214.124 241.631 214.046 241.507 214.002C241.389 213.98 241.268 213.993 241.157 214.037C240.449 214.283 239.802 214.677 239.258 215.193C238.977 215.413 238.754 215.699 238.61 216.025C238.538 216.248 238.506 216.482 238.518 216.716C238.525 217.48 238.696 218.233 239.021 218.925C239.07 219.031 239.125 219.138 239.183 219.242C239.569 219.88 240.024 220.472 240.541 221.009L241.229 221.777C241.906 222.535 242.582 223.292 243.316 223.989C243.58 224.269 243.899 224.492 244.253 224.642C244.431 224.714 244.625 224.737 244.815 224.706C245.005 224.675 245.182 224.593 245.328 224.468C245.467 224.308 245.571 224.121 245.635 223.919C246.08 222.763 246.502 221.561 246.528 220.315C246.534 219.816 246.513 219.317 246.464 218.82C246.421 218.294 246.048 218.089 245.557 218.057Z" fill="#2D9CDB"/>
<path d="M263.071 258.523C263.054 261.431 262.847 264.334 262.452 267.215C262.394 267.68 262.331 268.146 262.299 268.611C262.203 269.961 262.359 271.316 262.232 272.658C262.166 273.383 262.015 274.103 261.888 274.811C261.323 277.972 261.158 281.191 261.397 284.393C261.796 289.72 260.573 295.05 261.128 300.362C261.195 301.395 261.138 302.433 260.957 303.452C260.854 304.085 260.704 304.709 260.509 305.319C260.087 306.767 259.663 308.212 259.238 309.655C259.187 309.875 259.089 310.08 258.948 310.256C258.801 310.384 258.628 310.478 258.441 310.534C258.254 310.589 258.058 310.604 257.864 310.577C256.197 310.525 254.627 309.805 253.112 309.103C252.938 309.034 252.777 308.937 252.635 308.814C252.32 308.487 252.346 307.973 252.207 307.542C252.069 307.112 251.693 306.707 251.479 306.265C251.303 305.846 251.197 305.402 251.164 304.95C250.971 303.47 250.84 301.984 250.771 300.492C250.661 298.394 252.048 296.463 252.505 294.423C253.372 290.411 252.638 286.11 254.179 282.303C254.665 281.1 253.959 279.644 253.89 278.349C253.865 277.513 253.756 276.683 253.566 275.869C253.277 274.782 252.667 273.759 252.624 272.632C252.592 271.816 252.855 271.022 252.991 270.218C253.171 269.035 253.154 267.831 252.942 266.654C252.789 265.683 252.554 264.712 252.32 263.764L252.268 263.871C251.564 265.247 250.958 266.672 250.456 268.134C250.225 268.842 250.022 269.565 249.733 270.253C249.496 270.831 249.204 271.36 248.918 271.903C247.892 273.819 246.998 275.804 246.244 277.843C245.886 278.843 245.571 279.866 245.258 280.869L243.116 287.806C242.538 289.63 241.905 291.393 241.339 293.214C240.538 295.816 239.737 298.394 238.806 300.938C237.939 303.351 236.907 305.851 237.217 308.401C236.42 308.775 235.544 308.953 234.664 308.918C233.174 308.786 231.713 308.432 230.328 307.866C229.776 307.661 229.204 307.43 228.831 306.976C228.189 306.192 228.348 305.045 228.542 304.048C228.615 303.598 228.731 303.157 228.889 302.73C229.108 302.198 229.467 301.727 229.692 301.201C230.146 300.192 230.175 299.05 230.354 297.955C230.533 296.859 230.932 295.703 231.869 295.108C232.028 293.183 232.82 291.284 233.256 289.402C233.586 287.977 233.696 286.511 233.956 285.066C234.216 283.621 234.635 282.176 235.508 281.005C235.439 279.798 235.712 278.596 236.294 277.537C236.435 277.304 236.551 277.057 236.638 276.8C236.692 276.548 236.723 276.293 236.731 276.036C236.827 275.032 237.256 274.089 237.951 273.357C237.662 272.302 238.064 271.201 238.425 270.178C238.88 268.872 239.086 267.492 239.032 266.111C238.987 265.725 239.006 265.334 239.087 264.954C239.168 264.665 239.327 264.42 239.419 264.142C239.502 263.802 239.545 263.454 239.549 263.105C239.662 261.541 240.295 260.067 240.995 258.671C241.411 257.856 241.058 256.749 241.145 255.841C241.295 254.332 241.46 252.771 242.209 251.456C242.347 251.208 242.498 250.971 242.622 250.713C242.773 250.346 242.854 249.954 242.862 249.557C242.888 248.895 242.981 248.346 242.744 247.73C244.29 246.444 246.4 246.083 248.412 245.996C250.424 245.909 252.459 246.091 254.428 245.664C255.006 245.534 255.584 245.354 256.194 245.268C257.578 245.065 258.983 245.38 260.35 245.693C260.255 246.56 260.573 247.392 260.929 248.199C262.317 251.465 263.045 254.974 263.071 258.523Z" fill="#33313F"/>
<path opacity="0.1" d="M256.264 259.186L252.943 266.655C252.79 265.684 252.556 264.713 252.322 263.765L252.27 263.872V263.715L254.079 259.735L256.264 259.186Z" fill="black"/>
<path opacity="0.1" d="M266.216 243.584C266.024 243.728 265.795 243.813 265.556 243.83C265.19 243.843 264.825 243.793 264.475 243.682L261.874 243.032C261.792 243.012 261.713 242.984 261.637 242.948C261.68 242.494 261.767 241.968 262.012 241.792C262.38 241.546 263.478 241.876 263.894 241.934C264.611 242.032 265.34 242.148 266.039 242.283C266.148 242.709 266.207 243.145 266.216 243.584Z" fill="black"/>
<path d="M268.416 226.386C268.47 226.626 268.549 226.863 268.595 227.106C268.673 227.701 268.652 228.306 268.534 228.895L268.297 230.548L268.06 232.21L267.144 238.607L266.918 240.191L266.6 242.402C266.585 242.586 266.538 242.766 266.461 242.934C266.367 243.091 266.235 243.222 266.077 243.315C265.919 243.409 265.74 243.461 265.557 243.469C265.191 243.48 264.825 243.43 264.476 243.321L261.874 242.668C261.76 242.648 261.652 242.603 261.556 242.538C261.476 242.46 261.419 242.363 261.39 242.256C261.36 242.148 261.36 242.035 261.388 241.928C261.426 241.708 261.521 241.503 261.553 241.283C261.617 240.856 261.437 240.416 261.501 239.991C261.563 239.721 261.661 239.459 261.79 239.214C262.657 237.297 262.154 235.06 262.449 232.979C262.715 231.341 263.406 229.802 264.455 228.516C265.103 227.705 265.846 226.975 266.67 226.343C266.993 226.091 267.508 225.574 267.915 225.476C268.439 225.366 268.329 226.022 268.416 226.386Z" fill="#2D9CDB"/>
<path d="M248.728 201.487C248.537 202.094 248.835 202.762 248.699 203.38C248.552 204.063 247.91 204.537 247.728 205.222C247.439 206.265 248.324 207.216 248.971 208.083C251.37 211.303 251.055 215.76 250.234 219.688C249.574 222.84 248.66 225.933 247.503 228.938C247.141 229.871 246.742 230.819 246.031 231.519C247.361 231.137 248.774 230.753 250.107 231.123C251.795 231.591 253.252 233.23 254.963 232.857C255.992 232.629 256.715 231.715 257.64 231.21C259.374 230.276 261.464 230.863 263.398 231.163C263.815 231.262 264.251 231.24 264.656 231.1C264.965 230.934 265.227 230.692 265.419 230.397C266.282 229.29 266.799 227.953 266.905 226.553C266.95 225.856 266.847 225.157 266.603 224.503C266.358 223.849 265.977 223.254 265.485 222.758C265.075 222.371 264.583 222.059 264.268 221.602C263.962 221.068 263.798 220.465 263.791 219.85C263.563 216.671 264.338 213.425 263.54 210.349C263.251 209.254 262.78 208.205 262.652 207.083C262.493 205.687 262.872 204.193 262.317 202.915C261.881 201.901 260.918 201.181 259.88 200.811C258.843 200.441 257.733 200.337 256.631 200.233C255.047 200.1 249.39 199.421 248.728 201.487Z" fill="#33313F"/>
<g opacity="0.1">
<path opacity="0.1" d="M250.233 219.687C249.576 222.826 248.667 225.906 247.516 228.899C247.715 228.503 247.883 228.087 248.042 227.674C249.201 224.669 250.114 221.576 250.773 218.424C251.597 214.493 251.912 210.042 249.513 206.819C248.935 206.05 248.192 205.218 248.218 204.316C248.004 204.589 247.838 204.896 247.727 205.224C247.438 206.267 248.322 207.218 248.97 208.085C251.369 211.302 251.054 215.759 250.233 219.687Z" fill="black"/>
<path opacity="0.1" d="M248.732 203.087C248.964 202.799 249.137 202.468 249.241 202.113C249.286 201.684 249.274 201.251 249.206 200.824C248.984 200.992 248.816 201.222 248.726 201.486C248.556 201.998 248.752 202.553 248.732 203.087Z" fill="black"/>
<path opacity="0.1" d="M265.962 229.125C265.771 229.419 265.508 229.66 265.199 229.825C264.795 229.968 264.358 229.99 263.942 229.888C262.008 229.599 259.895 229.004 258.184 229.937C257.256 230.44 256.536 231.354 255.504 231.585C253.796 231.967 252.339 230.328 250.651 229.851C249.454 229.518 248.193 229.793 246.988 230.14C246.749 230.651 246.425 231.118 246.031 231.521C247.361 231.14 248.774 230.755 250.107 231.125C251.795 231.594 253.252 233.233 254.963 232.86C255.992 232.631 256.715 231.718 257.64 231.212C259.375 230.279 261.464 230.865 263.398 231.166C263.815 231.264 264.251 231.242 264.656 231.102C264.965 230.936 265.228 230.694 265.419 230.4C265.943 229.709 266.347 228.935 266.616 228.111C266.422 228.464 266.204 228.803 265.962 229.125Z" fill="black"/>
</g>
</g>
<path d="M71.9362 223.87C57.1513 223.87 45.8245 219.841 36.2465 210.958C26.6696 219.841 15.3433 223.87 0.559656 223.87C0.559656 247.004 -4.45904 280.143 36.2463 293.601C76.9546 280.143 71.9362 247.004 71.9362 223.87ZM33.2901 264.579L21.4004 253.237L26.7239 248.16L33.2901 254.424L45.7705 242.52L51.0937 247.597L33.2901 264.579Z" fill="#2D9CDB"/>
<defs>
<linearGradient id="paint0_linear" x1="224.714" y1="255.311" x2="268.941" y2="255.311" gradientUnits="userSpaceOnUse">
<stop stop-color="#808080" stop-opacity="0.25"/>
<stop offset="0.54" stop-color="#808080" stop-opacity="0.12"/>
<stop offset="1" stop-color="#808080" stop-opacity="0.1"/>
</linearGradient>
<clipPath id="clip0">
<rect width="337.098" height="232.706" fill="white" transform="translate(2.53906 78.2937)"/>
</clipPath>
</defs>
</svg>
