<svg width="43" height="11" viewBox="0 0 43 11" fill="none" xmlns="http://www.w3.org/2000/svg">
<path d="M32.25 5.625C32.25 2.66875 34.6687 0.25 37.625 0.25C40.5812 0.25 43 2.66875 43 5.625C43 8.58125 40.5812 11 37.625 11C34.6687 11 32.25 8.58125 32.25 5.625ZM26.875 5.625C26.875 8.58125 24.4562 11 21.5 11C18.5437 11 16.125 8.58125 16.125 5.625C16.125 2.66875 18.5437 0.25 21.5 0.25C24.4562 0.25 26.875 2.66875 26.875 5.625ZM10.75 5.625C10.75 8.58125 8.33125 11 5.375 11C2.41875 11 0 8.58125 0 5.625C0 2.66875 2.41875 0.25 5.375 0.25C8.33125 0.25 10.75 2.66875 10.75 5.625Z" fill="#979797"/>
</svg>
