<svg width="11" height="10" viewBox="0 0 11 10" fill="none" xmlns="http://www.w3.org/2000/svg">
<path d="M9.9043 2.14286C10.2051 2.14286 10.4629 2.25446 10.6777 2.45536C10.8926 2.67857 11 2.92411 11 3.21429V8.92857C11 9.24107 10.8926 9.48661 10.6777 9.6875C10.4629 9.91071 10.2051 10 9.9043 10H1.375C0.988281 10 0.644531 9.86607 0.386719 9.59821C0.128906 9.33036 0 8.97321 0 8.57143V1.42857C0 1.02679 0.128906 0.691964 0.386719 0.424107C0.644531 0.15625 0.988281 0 1.375 0H9.28125C9.56055 0 9.79688 0.111607 10.0117 0.3125C10.2051 0.535714 10.3125 0.78125 10.3125 1.07143C10.3125 1.18304 10.2695 1.27232 10.2051 1.33929C10.1406 1.40625 10.0547 1.42857 9.96875 1.42857H1.71875C1.61133 1.42857 1.52539 1.47321 1.46094 1.54018C1.39648 1.60714 1.375 1.69643 1.375 1.78571C1.375 1.89732 1.39648 1.98661 1.46094 2.05357C1.52539 2.12054 1.61133 2.14286 1.71875 2.14286H9.9043ZM8.9375 6.78571C9.10938 6.78571 9.28125 6.71875 9.41016 6.58482C9.53906 6.45089 9.625 6.27232 9.625 6.07143C9.625 5.89286 9.53906 5.71429 9.41016 5.58036C9.28125 5.44643 9.10938 5.35714 8.9375 5.35714C8.74414 5.35714 8.57227 5.44643 8.44336 5.58036C8.31445 5.71429 8.25 5.89286 8.25 6.07143C8.25 6.27232 8.31445 6.45089 8.44336 6.58482C8.57227 6.71875 8.74414 6.78571 8.9375 6.78571Z" fill="#2D9CDB"/>
</svg>
